<svg width="64" height="64" viewBox="0 0 64 64" fill="none" xmlns="http://www.w3.org/2000/svg">
<path d="M36.2009 63.998H27.7989C26.2419 63.998 24.9549 62.833 24.8049 61.288L24.4869 58.01C24.4279 57.407 23.9449 57.204 23.7979 57.156C23.6499 57.109 23.1349 56.987 22.7269 57.445L20.5359 59.911C19.5039 61.069 17.7769 61.26 16.5189 60.349L9.72088 55.43C8.45988 54.517 8.10488 52.818 8.89588 51.479L10.5729 48.641C10.8809 48.12 10.6119 47.676 10.5219 47.552C10.4309 47.427 10.0909 47.026 9.48488 47.159L6.25588 47.87C4.74288 48.206 3.22788 47.345 2.74688 45.869L0.149884 37.908C-0.332116 36.43 0.381884 34.848 1.81088 34.229L4.84288 32.914C5.40388 32.671 5.44688 32.151 5.44688 31.998C5.44688 31.845 5.40288 31.325 4.84288 31.081L1.81088 29.767C0.381884 29.147 -0.332116 27.566 0.149884 26.088L2.74688 18.129C3.22788 16.654 4.73388 15.793 6.25588 16.128L9.48388 16.839C10.0889 16.973 10.4299 16.572 10.5219 16.446C10.6119 16.322 10.8799 15.878 10.5729 15.357L8.89588 12.519C8.10488 11.18 8.45988 9.481 9.72088 8.568L16.5179 3.649C17.7759 2.737 19.5039 2.926 20.5349 4.087L22.7269 6.553C23.1339 7.011 23.6499 6.89 23.7979 6.842C23.9449 6.794 24.4279 6.591 24.4869 5.988L24.8049 2.71C24.9549 1.165 26.2419 0 27.7989 0H36.2009C37.7579 0 39.0449 1.165 39.1949 2.71L39.5129 5.988C39.5719 6.592 40.0549 6.795 40.2019 6.842C40.3509 6.891 40.8669 7.012 41.2729 6.553L43.4639 4.087C44.4949 2.928 46.2209 2.736 47.4809 3.649L54.2789 8.568C55.5399 9.481 55.8949 11.18 55.1039 12.519L53.4269 15.357C53.1189 15.878 53.3879 16.322 53.4779 16.446C53.5699 16.571 53.9139 16.973 54.5149 16.839L57.7439 16.128C59.2599 15.793 60.7719 16.653 61.2529 18.129L63.8499 26.088C64.3319 27.566 63.6179 29.148 62.1889 29.767L59.1569 31.081C58.5959 31.324 58.5529 31.844 58.5529 31.998C58.5529 32.151 58.5969 32.671 59.1569 32.914L62.1889 34.229C63.6179 34.849 64.3319 36.43 63.8499 37.908L61.2529 45.867C60.7719 47.343 59.2669 48.206 57.7439 47.868L54.5159 47.157C53.9129 47.023 53.5699 47.425 53.4779 47.55C53.3879 47.674 53.1199 48.118 53.4269 48.639L55.1039 51.477C55.8949 52.816 55.5399 54.515 54.2789 55.428L47.4819 60.347C46.2229 61.257 44.4949 61.07 43.4649 59.909L41.2729 57.443C40.8669 56.985 40.3509 57.107 40.2019 57.154C40.0549 57.202 39.5719 57.405 39.5129 58.008L39.1949 61.286C39.0449 62.831 37.7579 63.996 36.2009 63.996V63.998ZM23.4639 55.101C23.7799 55.101 24.1009 55.151 24.4179 55.254C25.5709 55.63 26.3599 56.611 26.4769 57.816L26.7949 61.094C26.8449 61.609 27.2769 61.998 27.7989 61.998H36.2009C36.7229 61.998 37.1549 61.609 37.2049 61.094L37.5229 57.816C37.6399 56.611 38.4289 55.63 39.5819 55.254C40.7369 54.876 41.9589 55.207 42.7669 56.115L44.9589 58.581C45.3049 58.971 45.8869 59.034 46.3099 58.727L53.1069 53.808C53.5269 53.504 53.6459 52.939 53.3829 52.495L51.7059 49.657C51.0899 48.615 51.1479 47.358 51.8589 46.378C52.5719 45.392 53.7549 44.942 54.9459 45.205L58.1739 45.916C58.6859 46.028 59.1909 45.741 59.3519 45.248L61.9489 37.289C62.1089 36.798 61.8699 36.271 61.3929 36.065L58.3609 34.75C57.2459 34.267 56.5529 33.212 56.5529 32C56.5529 30.787 57.2459 29.732 58.3609 29.248L61.3929 27.934C61.8699 27.727 62.1089 27.201 61.9489 26.71L59.3519 18.751C59.1909 18.257 58.6869 17.969 58.1749 18.083L54.9459 18.794C53.7559 19.054 52.5729 18.606 51.8589 17.621C51.1489 16.641 51.0899 15.384 51.7059 14.342L53.3829 11.504C53.6459 11.059 53.5269 10.495 53.1069 10.191L46.3099 5.272C45.8879 4.966 45.3059 5.028 44.9589 5.418L42.7679 7.884C41.9599 8.792 40.7409 9.123 39.5829 8.745C38.4289 8.369 37.6399 7.387 37.5239 6.183L37.2059 2.905C37.1559 2.39 36.7239 2.001 36.2019 2.001H27.7999C27.2779 2.001 26.8459 2.39 26.7959 2.905L26.4779 6.183C26.3609 7.388 25.5719 8.37 24.4189 8.745C23.2609 9.121 22.0419 8.792 21.2339 7.884L19.0419 5.418C18.6959 5.027 18.1149 4.965 17.6909 5.272L10.8939 10.191C10.4739 10.495 10.3549 11.06 10.6179 11.504L12.2949 14.342C12.9109 15.384 12.8529 16.641 12.1419 17.621C11.4279 18.606 10.2469 19.054 9.05488 18.794L5.82688 18.083C5.31288 17.966 4.80888 18.258 4.64888 18.751L2.05188 26.71C1.89188 27.201 2.13088 27.728 2.60788 27.934L5.63988 29.248C6.75588 29.732 7.44788 30.787 7.44788 32C7.44788 33.213 6.75488 34.267 5.63988 34.75L2.60788 36.065C2.13088 36.272 1.89188 36.798 2.05188 37.289L4.64888 45.248C4.80988 45.742 5.31488 46.03 5.82588 45.916L9.05488 45.205C10.2439 44.942 11.4279 45.392 12.1419 46.378C12.8519 47.358 12.9109 48.615 12.2949 49.657L10.6179 52.495C10.3549 52.94 10.4739 53.504 10.8939 53.808L17.6909 58.727C18.1129 59.034 18.6939 58.971 19.0419 58.581L21.2329 56.115C21.8199 55.455 22.6239 55.101 23.4639 55.101Z" fill="#083D66"/>
<path d="M31.999 50.998C21.523 50.998 13 42.475 13 31.998C13 21.521 21.523 12.998 31.999 12.998C42.475 12.998 50.998 21.521 50.998 31.998C50.998 42.475 42.475 50.998 31.999 50.998ZM31.999 14.998C22.626 14.998 15 22.624 15 31.998C15 41.372 22.626 48.998 31.999 48.998C41.372 48.998 48.998 41.372 48.998 31.998C48.998 22.624 41.372 14.998 31.999 14.998Z" fill="#083D66"/>
<path d="M31.999 41.998C26.485 41.998 22 37.512 22 31.998C22 26.484 26.486 21.998 31.999 21.998C37.512 21.998 41.998 26.484 41.998 31.998C41.998 37.512 37.512 41.998 31.999 41.998ZM31.999 23.998C27.588 23.998 23.999 27.587 23.999 31.998C23.999 36.409 27.588 39.998 31.999 39.998C36.41 39.998 39.999 36.409 39.999 31.998C39.999 27.587 36.41 23.998 31.999 23.998Z" fill="#083D66"/>
</svg>
