<svg width="64" height="64" viewBox="0 0 64 64" fill="none" xmlns="http://www.w3.org/2000/svg">
<g clip-path="url(#clip0_2023_113)">
<path d="M64 32C64 30.127 61.921 28.739 57.649 27.764C57.557 27.197 57.448 26.639 57.323 26.095C60.893 23.562 62.281 21.484 61.564 19.754C60.847 18.024 58.396 17.538 54.077 18.272C53.775 17.787 53.46 17.314 53.132 16.856C55.462 13.147 55.951 10.695 54.627 9.372C53.307 8.05 50.855 8.537 47.144 10.868C46.686 10.54 46.212 10.223 45.728 9.923C46.462 5.604 45.976 3.152 44.247 2.436C42.514 1.72 40.438 3.108 37.906 6.677C37.362 6.552 36.804 6.443 36.237 6.35C35.261 2.079 33.873 0 32.001 0C30.129 0 28.74 2.079 27.765 6.35C27.199 6.442 26.641 6.551 26.096 6.677C23.564 3.109 21.49 1.719 19.755 2.436C18.026 3.152 17.539 5.603 18.274 9.923C17.79 10.224 17.316 10.54 16.858 10.868C13.151 8.538 10.698 8.046 9.37495 9.372C8.05195 10.695 8.53995 13.147 10.87 16.856C10.542 17.314 10.226 17.787 9.92495 18.272C5.60595 17.537 3.15395 18.025 2.43795 19.754C1.72095 21.484 3.10895 23.562 6.67895 26.095C6.55395 26.639 6.44495 27.197 6.35295 27.764C2.08195 28.739 0.00195312 30.128 0.00195312 32C0.00195312 33.872 2.08095 35.261 6.35295 36.236C6.44495 36.803 6.55395 37.361 6.67895 37.905C3.10895 40.438 1.72095 42.516 2.43795 44.246C3.15495 45.976 5.60595 46.463 9.92495 45.728C10.227 46.213 10.542 46.686 10.87 47.144C8.53995 50.853 8.05095 53.305 9.37495 54.628C10.696 55.951 13.147 55.464 16.858 53.132C17.316 53.46 17.79 53.777 18.274 54.077C17.54 58.396 18.026 60.848 19.755 61.564C21.491 62.282 23.564 60.892 26.096 57.323C26.641 57.448 27.199 57.558 27.765 57.65C28.741 61.921 30.129 64 32.001 64C33.873 64 35.262 61.921 36.237 57.65C36.804 57.558 37.362 57.448 37.906 57.323C40.438 60.891 42.51 62.28 44.247 61.564C45.976 60.848 46.463 58.397 45.728 54.077C46.212 53.776 46.686 53.46 47.144 53.132C50.85 55.461 53.303 55.951 54.627 54.628C55.95 53.305 55.462 50.853 53.132 47.144C53.46 46.686 53.776 46.213 54.077 45.728C58.395 46.463 60.848 45.975 61.564 44.246C62.281 42.516 60.893 40.438 57.323 37.905C57.448 37.361 57.557 36.803 57.649 36.236C61.92 35.261 64 33.872 64 32ZM55.626 39.162C59.255 41.629 59.889 43.066 59.717 43.481C59.546 43.896 58.082 44.463 53.765 43.64C53.346 43.561 52.927 43.752 52.714 44.117C52.226 44.95 51.691 45.753 51.122 46.5C50.865 46.837 50.85 47.3 51.082 47.654C53.493 51.326 53.53 52.897 53.213 53.214C52.896 53.531 51.327 53.496 47.653 51.083C47.299 50.849 46.835 50.867 46.5 51.123C45.749 51.693 44.947 52.229 44.116 52.716C43.751 52.93 43.559 53.35 43.638 53.766C44.462 58.081 43.895 59.546 43.48 59.718C43.06 59.891 41.625 59.25 39.162 55.628C38.924 55.278 38.488 55.118 38.083 55.222C37.188 55.455 36.242 55.64 35.271 55.773C34.851 55.83 34.512 56.146 34.426 56.561C33.534 60.864 32.448 62.001 31.999 62.001C31.55 62.001 30.464 60.864 29.572 56.561C29.486 56.146 29.147 55.831 28.727 55.773C27.759 55.641 26.814 55.456 25.915 55.222C25.832 55.201 25.747 55.19 25.663 55.19C25.337 55.19 25.025 55.35 24.836 55.628C22.369 59.256 20.929 59.889 20.518 59.718C20.103 59.546 19.536 58.081 20.36 53.766C20.439 53.35 20.248 52.93 19.882 52.716C19.051 52.229 18.249 51.693 17.498 51.123C17.162 50.867 16.699 50.85 16.345 51.083C12.671 53.496 11.103 53.53 10.785 53.214C10.468 52.897 10.505 51.326 12.916 47.654C13.148 47.3 13.133 46.838 12.876 46.5C12.308 45.752 11.772 44.95 11.284 44.117C11.07 43.752 10.65 43.56 10.233 43.64C5.91795 44.463 4.45195 43.896 4.28095 43.481C4.10895 43.066 4.74295 41.629 8.37195 39.162C8.72195 38.924 8.88395 38.492 8.77695 38.082C8.54395 37.188 8.35795 36.243 8.22595 35.27C8.16795 34.85 7.85295 34.512 7.43795 34.426C3.13395 33.534 1.99795 32.449 1.99795 31.999C1.99795 31.549 3.13495 30.464 7.43795 29.572C7.85295 29.486 8.16795 29.148 8.22595 28.728C8.35795 27.756 8.54295 26.81 8.77695 25.916C8.88295 25.507 8.72095 25.075 8.37195 24.836C4.74295 22.369 4.10895 20.932 4.28095 20.517C4.45295 20.102 5.91795 19.537 10.233 20.358C10.651 20.437 11.07 20.245 11.284 19.881C11.772 19.048 12.307 18.245 12.876 17.498C13.133 17.161 13.148 16.698 12.916 16.344C10.505 12.672 10.468 11.101 10.785 10.784C11.102 10.467 12.671 10.503 16.345 12.915C16.699 13.148 17.162 13.131 17.498 12.875C18.249 12.305 19.051 11.769 19.882 11.282C20.247 11.068 20.439 10.648 20.36 10.232C19.536 5.917 20.103 4.452 20.518 4.28C20.937 4.107 22.373 4.748 24.836 8.37C25.074 8.72 25.512 8.882 25.915 8.776C26.813 8.542 27.759 8.357 28.727 8.225C29.147 8.168 29.486 7.852 29.572 7.437C30.464 3.134 31.55 1.997 31.999 1.997C32.448 1.997 33.534 3.134 34.426 7.437C34.512 7.852 34.851 8.167 35.271 8.225C36.242 8.358 37.188 8.543 38.083 8.776C38.488 8.882 38.924 8.72 39.162 8.37C41.629 4.742 43.064 4.11 43.48 4.28C43.895 4.452 44.462 5.917 43.638 10.232C43.559 10.648 43.75 11.068 44.116 11.282C44.947 11.769 45.749 12.305 46.5 12.875C46.835 13.13 47.299 13.148 47.653 12.915C51.327 10.502 52.895 10.468 53.213 10.784C53.53 11.101 53.493 12.672 51.082 16.344C50.85 16.698 50.865 17.16 51.122 17.498C51.69 18.246 52.226 19.048 52.714 19.881C52.927 20.245 53.345 20.436 53.765 20.358C58.079 19.534 59.545 20.102 59.717 20.517C59.889 20.932 59.255 22.369 55.626 24.836C55.276 25.074 55.114 25.506 55.221 25.916C55.454 26.81 55.64 27.755 55.772 28.728C55.83 29.148 56.145 29.486 56.56 29.572C60.864 30.464 62 31.549 62 31.999C62 32.449 60.863 33.534 56.56 34.426C56.145 34.512 55.83 34.85 55.772 35.27C55.64 36.242 55.455 37.188 55.221 38.082C55.115 38.491 55.277 38.923 55.626 39.162Z" fill="#083D66"/>
<path d="M32 27C36.681 27 40 19.417 40 17C40 14.065 35.216 13 32 13C28.784 13 24 14.065 24 17C24 19.417 27.319 27 32 27ZM32 15C35.231 15 38 16.1 38 17C38 18.568 35.305 25 32 25C28.695 25 26 18.568 26 17C26 16.1 28.769 15 32 15Z" fill="#083D66"/>
<path d="M32 37C27.319 37 24 44.583 24 47C24 49.935 28.784 51 32 51C35.216 51 40 49.935 40 47C40 44.583 36.681 37 32 37ZM32 49C28.769 49 26 47.9 26 47C26 45.432 28.695 39 32 39C35.305 39 38 45.432 38 47C38 47.9 35.231 49 32 49Z" fill="#083D66"/>
<path d="M47 24C44.583 24 37 27.319 37 32C37 36.681 44.583 40 47 40C49.935 40 51 35.216 51 32C51 28.784 49.935 24 47 24ZM47 38C45.432 38 39 35.305 39 32C39 28.695 45.432 26 47 26C47.9 26 49 28.769 49 32C49 35.231 47.9 38 47 38Z" fill="#083D66"/>
<path d="M27 32C27 27.319 19.417 24 17 24C14.065 24 13 28.784 13 32C13 35.216 14.065 40 17 40C19.417 40 27 36.681 27 32ZM17 38C16.1 38 15 35.231 15 32C15 28.769 16.1 26 17 26C18.568 26 25 28.695 25 32C25 35.305 18.568 38 17 38Z" fill="#083D66"/>
</g>
<defs>
<clipPath id="clip0_2023_113">
<rect width="64" height="64" fill="white"/>
</clipPath>
</defs>
</svg>
