<svg width="64" height="64" viewBox="0 0 64 64" fill="none" xmlns="http://www.w3.org/2000/svg">
<g clip-path="url(#clip0_2023_37)">
<path d="M62 25H58.125L61.482 23.062C62.437 22.51 62.765 21.285 62.213 20.33L57.213 11.67C56.946 11.207 56.515 10.876 55.999 10.737C55.484 10.6 54.944 10.67 54.481 10.937L51.124 12.875L53.062 9.518C53.329 9.055 53.4 8.517 53.262 8C53.123 7.484 52.792 7.052 52.33 6.786L43.67 1.788C42.717 1.236 41.49 1.565 40.938 2.519L39.384 5.211L39 5.108V2C39 0.897 38.103 0 37 0H27C25.897 0 25 0.897 25 2V5.108L24.616 5.211L23.062 2.519C22.51 1.564 21.284 1.236 20.33 1.788L11.67 6.787C11.207 7.054 10.876 7.485 10.737 8.001C10.599 8.517 10.67 9.056 10.937 9.519L12.875 12.876L9.518 10.938C9.056 10.672 8.518 10.602 8 10.738C7.484 10.877 7.052 11.208 6.786 11.67L1.788 20.33C1.236 21.285 1.564 22.51 2.519 23.062L5.875 25H2C0.897 25 0 25.897 0 27V37C0 38.103 0.897 39 2 39H5.875L2.518 40.938C1.563 41.49 1.235 42.715 1.787 43.67L6.787 52.33C7.054 52.793 7.485 53.124 8.001 53.263C8.518 53.401 9.056 53.331 9.519 53.063L12.876 51.125L10.938 54.482C10.671 54.945 10.6 55.483 10.738 56C10.877 56.516 11.208 56.948 11.67 57.214L20.33 62.214C21.284 62.765 22.51 62.438 23.062 61.483L25 58.127V62.002C25 63.105 25.897 64.002 27 64.002H37C38.103 64.002 39 63.105 39 62.002V58.127L40.938 61.484C41.489 62.439 42.715 62.766 43.67 62.215L52.33 57.215C52.793 56.948 53.124 56.517 53.263 56.001C53.401 55.485 53.33 54.946 53.063 54.483L51.125 51.126L54.482 53.064C54.945 53.331 55.483 53.402 56 53.264C56.516 53.125 56.948 52.794 57.214 52.332L62.214 43.672C62.766 42.717 62.438 41.492 61.483 40.94L58.127 39.002H62.002C63.105 39.002 64.002 38.105 64.002 37.002V27.002C64.002 25.899 63.105 25.002 62.002 25.002L62 25ZM62 37H56.27C55.817 37 55.421 37.304 55.304 37.741L55.053 38.68C54.936 39.117 55.127 39.578 55.519 39.805L60.481 42.67L55.481 51.33L50.512 48.461C50.119 48.235 49.57 48.355 49.25 48.675L48.621 49.304C48.301 49.624 48.235 50.119 48.461 50.512L51.33 55.481L42.67 60.481L39.805 55.519C39.578 55.127 39.117 54.937 38.68 55.053L37.741 55.304C37.303 55.421 37 55.817 37 56.27V62H27V56.268C27 55.815 26.696 55.419 26.258 55.302L25.32 55.051C25.234 55.028 25.148 55.017 25.062 55.017C24.711 55.017 24.378 55.202 24.196 55.517L21.33 60.48L12.67 55.48L15.539 50.511C15.765 50.119 15.645 49.569 15.325 49.249L14.696 48.62C14.377 48.299 13.882 48.234 13.488 48.46L8.519 51.329L3.519 42.669L8.481 39.804C8.873 39.577 9.064 39.116 8.947 38.679L8.696 37.74C8.579 37.302 8.183 36.999 7.73 36.999H2V26.999H7.732C8.185 26.999 8.581 26.695 8.698 26.257L8.949 25.319C9.066 24.882 8.875 24.421 8.483 24.194L3.52 21.328L8.52 12.668L13.489 15.537C13.882 15.763 14.431 15.643 14.751 15.323L15.38 14.694C15.7 14.374 15.766 13.879 15.54 13.486L12.671 8.517L21.33 3.519L23.268 6.875C23.495 7.267 23.957 7.458 24.393 7.341L26.26 6.841C26.697 6.724 27.001 6.328 27.001 5.875V2H37.001V5.875C37.001 6.328 37.305 6.724 37.742 6.841L39.609 7.341C40.047 7.459 40.507 7.268 40.734 6.875L42.672 3.519L51.332 8.519L48.463 13.488C48.237 13.88 48.357 14.43 48.677 14.75L49.306 15.379C49.625 15.698 50.12 15.764 50.514 15.539L55.483 12.67L60.483 21.33L55.519 24.196C55.127 24.423 54.936 24.884 55.053 25.321L55.304 26.259C55.421 26.697 55.817 27.001 56.27 27.001H62.002V37.001L62 37Z" fill="#083D66"/>
<path d="M32 14C22.075 14 14 22.075 14 32C14 41.925 22.075 50 32 50C41.925 50 50 41.925 50 32C50 22.075 41.925 14 32 14ZM32 48C23.178 48 16 40.822 16 32C16 23.178 23.178 16 32 16C40.822 16 48 23.178 48 32C48 40.822 40.822 48 32 48Z" fill="#083D66"/>
<path d="M32 22C26.486 22 22 26.486 22 32C22 37.514 26.486 42 32 42C37.514 42 42 37.514 42 32C42 26.486 37.514 22 32 22ZM32 40C27.589 40 24 36.411 24 32C24 27.589 27.589 24 32 24C36.411 24 40 27.589 40 32C40 36.411 36.411 40 32 40Z" fill="#083D66"/>
<path d="M32 12C33.654 12 35 10.654 35 9C35 7.346 33.654 6 32 6C30.346 6 29 7.346 29 9C29 10.654 30.346 12 32 12ZM32 8C32.551 8 33 8.449 33 9C33 9.551 32.551 10 32 10C31.449 10 31 9.551 31 9C31 8.449 31.449 8 32 8Z" fill="#083D66"/>
<path d="M12.5001 18.4021C11.0661 17.5731 9.22915 18.0681 8.40115 19.5001C7.57415 20.9331 8.06715 22.7711 9.50015 23.5981C9.97115 23.8701 10.4861 23.9991 10.9951 23.9991C12.0331 23.9991 13.0431 23.4611 13.5981 22.4991C14.4251 21.0661 13.9321 19.2281 12.5001 18.4011V18.4021ZM11.8661 21.5001C11.5901 21.9771 10.9761 22.1411 10.5001 21.8661C10.0221 21.5911 9.85815 20.9781 10.1331 20.5011C10.3191 20.1801 10.6551 20.0011 11.0011 20.0011C11.1711 20.0011 11.3421 20.0441 11.5001 20.1351C11.9781 20.4101 12.1421 21.0221 11.8661 21.5001Z" fill="#083D66"/>
<path d="M9.4994 42.4019C8.0664 43.2289 7.5744 45.0679 8.4014 46.5009C8.9564 47.4619 9.9674 47.9999 11.0054 47.9999C11.5134 47.9999 12.0284 47.8709 12.5004 47.5989C13.9334 46.7719 14.4254 44.9329 13.5984 43.5009C12.7704 42.0679 10.9324 41.5759 9.5004 42.4029L9.4994 42.4019ZM11.4994 45.8659C11.0214 46.1399 10.4094 45.9779 10.1334 45.4999C9.8574 45.0219 10.0224 44.4099 10.4994 44.1339C10.6564 44.0429 10.8284 43.9999 10.9984 43.9999C11.3444 43.9999 11.6814 44.1789 11.8654 44.4999C12.1414 44.9779 11.9774 45.5899 11.4994 45.8659Z" fill="#083D66"/>
<path d="M32 54C30.346 54 29 55.346 29 57C29 58.654 30.346 60 32 60C33.654 60 35 58.654 35 57C35 55.346 33.654 54 32 54ZM32 58C31.449 58 31 57.551 31 57C31 56.449 31.449 56 32 56C32.551 56 33 56.449 33 57C33 57.551 32.551 58 32 58Z" fill="#083D66"/>
<path d="M54.5001 42.4018C53.0671 41.5738 51.2291 42.0668 50.4011 43.4998C49.5741 44.9328 50.0671 46.7708 51.5001 47.5978C51.9711 47.8698 52.4861 47.9988 52.9951 47.9988C54.0331 47.9988 55.0431 47.4608 55.5981 46.4988C56.4251 45.0658 55.9321 43.2288 54.5001 42.4018ZM53.8661 45.4998C53.5901 45.9778 52.9771 46.1398 52.5001 45.8658C52.0221 45.5908 51.8581 44.9778 52.1331 44.5008C52.3191 44.1798 52.6551 44.0008 53.0011 44.0008C53.1711 44.0008 53.3421 44.0438 53.5001 44.1348C53.9781 44.4098 54.1421 45.0218 53.8661 45.4998Z" fill="#083D66"/>
<path d="M53.0064 23.9989C53.5144 23.9989 54.0294 23.8699 54.5014 23.5979C55.9344 22.7709 56.4264 20.9319 55.5994 19.4999C54.7724 18.0669 52.9334 17.5749 51.5014 18.4019C50.0684 19.2289 49.5764 21.0679 50.4034 22.5009C50.9584 23.4619 51.9694 23.9999 53.0074 23.9999L53.0064 23.9989ZM52.5014 20.1339C52.6584 20.0429 52.8304 19.9999 53.0004 19.9999C53.3464 19.9999 53.6834 20.1789 53.8674 20.4999C54.1434 20.9779 53.9794 21.5899 53.5014 21.8659C53.0224 22.1409 52.4104 21.9769 52.1354 21.4999C51.8594 21.0219 52.0244 20.4099 52.5014 20.1339Z" fill="#083D66"/>
</g>
<defs>
<clipPath id="clip0_2023_37">
<rect width="64" height="64" fill="white"/>
</clipPath>
</defs>
</svg>
