<svg width="64" height="64" viewBox="0 0 64 64" fill="none" xmlns="http://www.w3.org/2000/svg">
<path d="M51.0001 4H25.0001C23.674 4 22.4022 4.52678 21.4646 5.46447C20.5269 6.40215 20.0001 7.67392 20.0001 9V10H18.2201C17.7294 10 17.2589 10.1949 16.9119 10.5419C16.565 10.8888 16.3701 11.3593 16.3701 11.85V13.51C16.0284 13.6293 15.6945 13.7695 15.3701 13.93L14.1901 12.75C13.8346 12.4182 13.3664 12.2337 12.8801 12.2337C12.3938 12.2337 11.9256 12.4182 11.5701 12.75L9.75009 14.56C9.40445 14.9084 9.2105 15.3792 9.2105 15.87C9.2105 16.3608 9.40445 16.8316 9.75009 17.18L10.9301 18.36C10.7714 18.6852 10.6312 19.019 10.5101 19.36H8.85009C8.6063 19.36 8.36491 19.4082 8.13981 19.5018C7.9147 19.5954 7.71031 19.7325 7.53839 19.9054C7.36647 20.0782 7.23041 20.2834 7.13803 20.509C7.04565 20.7346 6.99877 20.9762 7.00009 21.22V23.78C6.99814 23.9606 7.02863 24.1401 7.09009 24.31C7.20067 24.6911 7.43214 25.0259 7.74959 25.264C8.06704 25.5021 8.45327 25.6305 8.85009 25.63H10.5101C10.6294 25.9717 10.7696 26.3056 10.9301 26.63L9.75009 27.82C9.40445 28.1684 9.2105 28.6392 9.2105 29.13C9.2105 29.6207 9.40445 30.0916 9.75009 30.44L11.5601 32.25C11.9156 32.5818 12.3838 32.7663 12.8701 32.7663C13.3564 32.7663 13.8246 32.5818 14.1801 32.25L15.3601 31.07C15.6852 31.2287 16.0191 31.3689 16.3601 31.49V33.15C16.3601 33.3938 16.4083 33.6352 16.5019 33.8603C16.5955 34.0854 16.7326 34.2898 16.9055 34.4617C17.0783 34.6336 17.2834 34.7697 17.5091 34.8621C17.7347 34.9544 17.9763 35.0013 18.2201 35H20.0001V48H15.0001C14.2044 48 13.4414 48.3161 12.8788 48.8787C12.3162 49.4413 12.0001 50.2044 12.0001 51V53C12.0001 54.8565 12.7376 56.637 14.0503 57.9497C15.3631 59.2625 17.1436 60 19.0001 60H49.0001C49.3011 59.9999 49.6017 59.9799 49.9001 59.94C51.6118 59.6924 53.1749 58.8302 54.2974 57.5145C55.42 56.1987 56.0252 54.5194 56.0001 52.79V9C56.0001 7.67392 55.4733 6.40215 54.5356 5.46447C53.5979 4.52678 52.3262 4 51.0001 4ZM17.1201 29.63C16.7766 29.5236 16.4422 29.3898 16.1201 29.23C15.8846 29.1091 15.6253 29.0418 15.3607 29.0332C15.0961 29.0245 14.8329 29.0747 14.5901 29.18C14.3683 29.2729 14.165 29.405 13.9901 29.57L12.8401 30.73L11.2401 29.13L12.4301 28C12.6994 27.7212 12.8764 27.3664 12.9372 26.9836C12.998 26.6008 12.9397 26.2085 12.7701 25.86C12.6075 25.5379 12.4704 25.2035 12.3601 24.86C12.2339 24.4987 11.9988 24.1855 11.6872 23.9634C11.3756 23.7413 11.0027 23.6214 10.6201 23.62H9.00009V21.37H10.6201C11.005 21.3671 11.3796 21.2454 11.6928 21.0217C12.006 20.798 12.2425 20.4831 12.3701 20.12C12.4765 19.7765 12.6103 19.4421 12.7701 19.12C12.938 18.7745 12.9955 18.3857 12.9347 18.0063C12.8738 17.627 12.6977 17.2757 12.4301 17L11.2701 15.85L12.8701 14.25L14.0001 15.43C14.2789 15.6993 14.6337 15.8763 15.0165 15.9371C15.3993 15.9979 15.7916 15.9396 16.1401 15.77C16.4622 15.6074 16.7965 15.4703 17.1401 15.36C17.5013 15.2338 17.8146 14.9987 18.0367 14.6871C18.2588 14.3755 18.3787 14.0027 18.3801 13.62V12H20.6401V13.62C20.643 14.0049 20.7646 14.3795 20.9884 14.6927C21.2121 15.0059 21.527 15.2424 21.8901 15.37C22.2336 15.4764 22.568 15.6102 22.8901 15.77C23.2344 15.9357 23.6212 15.9919 23.9984 15.9311C24.3757 15.8703 24.7252 15.6955 25.0001 15.43L26.1501 14.27L27.7501 15.87L26.5701 17C26.3008 17.2788 26.1238 17.6336 26.063 18.0164C26.0021 18.3992 26.0605 18.7915 26.2301 19.14C26.3927 19.4621 26.5298 19.7965 26.6401 20.14C26.7663 20.5013 27.0014 20.8145 27.313 21.0366C27.6246 21.2587 27.9974 21.3786 28.3801 21.38H30.0001V23.64H28.3801C27.9952 23.6429 27.6206 23.7646 27.3074 23.9883C26.9942 24.212 26.7577 24.5269 26.6301 24.89C26.5236 25.2335 26.3899 25.5679 26.2301 25.89C26.0644 26.2343 26.0082 26.6211 26.069 26.9984C26.1297 27.3756 26.3046 27.7252 26.5701 28L27.7301 29.15L26.1301 30.75L25.0001 29.57C24.7213 29.3007 24.3664 29.1237 23.9837 29.0629C23.6009 29.0021 23.2086 29.0604 22.8601 29.23C22.538 29.3926 22.2036 29.5297 21.8601 29.64C21.4988 29.7662 21.1856 30.0013 20.9635 30.3129C20.7414 30.6245 20.6214 30.9973 20.6201 31.38V33H18.3701V31.38C18.3672 30.9951 18.2455 30.6205 18.0218 30.3073C17.7981 29.9941 17.4832 29.7576 17.1201 29.63ZM19.0001 58C17.674 58 16.4022 57.4732 15.4646 56.5355C14.5269 55.5979 14.0001 54.3261 14.0001 53V51C14.0001 50.7348 14.1054 50.4804 14.293 50.2929C14.4805 50.1054 14.7349 50 15.0001 50H41.0001C41.2653 50 41.5197 50.1054 41.7072 50.2929C41.8947 50.4804 42.0001 50.7348 42.0001 51V53C41.9849 53.2464 41.9849 53.4936 42.0001 53.74C41.9954 53.7765 41.9954 53.8135 42.0001 53.85C42.018 54.0589 42.0514 54.2661 42.1001 54.47V54.59C42.1501 54.79 42.2001 54.98 42.2601 55.17L42.3201 55.34C42.3801 55.51 42.4401 55.67 42.5101 55.84L42.6201 56.05L42.8301 56.47L42.9901 56.71L43.2101 57.06C43.2801 57.15 43.3501 57.23 43.4101 57.32L43.6501 57.61L43.8901 57.86C43.9281 57.9114 43.9717 57.9583 44.0201 58H19.0001ZM54.0001 52.79C54.0365 54.0383 53.6155 55.2569 52.8162 56.2164C52.0169 57.176 50.8944 57.8103 49.6601 58C49.4404 58.0171 49.2198 58.0171 49.0001 58C48.6645 58.0046 48.3294 57.9744 48.0001 57.91C47.379 57.7742 46.7888 57.5232 46.2601 57.17H46.2101C45.9713 57.0064 45.7471 56.8224 45.5401 56.62L45.4501 56.53C45.2544 56.3296 45.077 56.112 44.9201 55.88L44.8401 55.76C44.6817 55.5312 44.5477 55.2866 44.4401 55.03C44.4191 54.9885 44.4023 54.9449 44.3901 54.9C44.278 54.6319 44.191 54.3541 44.1301 54.07C44.1252 54.0436 44.1252 54.0164 44.1301 53.99C44.0633 53.6609 44.0298 53.3258 44.0301 52.99V51C44.0301 50.2044 43.714 49.4413 43.1514 48.8787C42.5888 48.3161 41.8257 48 41.0301 48H22.0001V34.54C22.0997 34.4557 22.1872 34.3581 22.2601 34.25C22.3563 34.1108 22.4337 33.9595 22.4901 33.8C22.4957 33.7569 22.4957 33.7131 22.4901 33.67C22.5459 33.5021 22.5762 33.3269 22.5801 33.15V31.49C22.9217 31.3707 23.2557 31.2305 23.5801 31.07L24.7601 32.25C25.1156 32.5818 25.5838 32.7663 26.0701 32.7663C26.5564 32.7663 27.0246 32.5818 27.3801 32.25L29.1901 30.44C29.2752 30.3503 29.3521 30.2533 29.4201 30.15C29.4237 30.1235 29.4237 30.0965 29.4201 30.07C29.4711 29.9944 29.5146 29.914 29.5501 29.83V29.73C29.5825 29.6529 29.606 29.5724 29.6201 29.49C29.67 29.2526 29.67 29.0074 29.6201 28.77C29.6074 28.6905 29.5838 28.6131 29.5501 28.54V28.43C29.5146 28.346 29.4711 28.2656 29.4201 28.19C29.4237 28.1635 29.4237 28.1365 29.4201 28.11C29.3521 28.0067 29.2752 27.9097 29.1901 27.82L28.0101 26.64C28.1688 26.3148 28.309 25.981 28.4301 25.64H30.0901C30.3389 25.6481 30.5867 25.6059 30.8188 25.5159C31.0509 25.4259 31.2625 25.29 31.4408 25.1164C31.6191 24.9427 31.7606 24.7348 31.8567 24.5052C31.9528 24.2756 32.0016 24.0289 32.0001 23.78V21.22C32.0001 20.7293 31.8052 20.2588 31.4582 19.9119C31.1113 19.5649 30.6407 19.37 30.1501 19.37H28.4901C28.3708 19.0283 28.2305 18.6944 28.0701 18.37L29.2501 17.19C29.5957 16.8416 29.7897 16.3708 29.7897 15.88C29.7897 15.3892 29.5957 14.9184 29.2501 14.57L27.4401 12.76C27.0846 12.4282 26.6164 12.2437 26.1301 12.2437C25.6438 12.2437 25.1756 12.4282 24.8201 12.76L23.6401 13.94C23.3149 13.7813 22.9811 13.6411 22.6401 13.52V11.85C22.6362 11.6731 22.6059 11.4979 22.5501 11.33C22.5557 11.2869 22.5557 11.2431 22.5501 11.2C22.4937 11.0405 22.4163 10.8892 22.3201 10.75C22.2472 10.6419 22.1597 10.5443 22.0601 10.46V9C22.0601 8.20435 22.3762 7.44129 22.9388 6.87868C23.5014 6.31607 24.2644 6 25.0601 6H51.0001C51.7957 6 52.5588 6.31607 53.1214 6.87868C53.684 7.44129 54.0001 8.20435 54.0001 9V52.79Z" fill="#083D66"/>
<path d="M49 8H37C36.2044 8 35.4413 8.31607 34.8787 8.87868C34.3161 9.44129 34 10.2044 34 11V29C34 29.7956 34.3161 30.5587 34.8787 31.1213C35.4413 31.6839 36.2044 32 37 32H49C49.7956 32 50.5587 31.6839 51.1213 31.1213C51.6839 30.5587 52 29.7956 52 29V11C52 10.2044 51.6839 9.44129 51.1213 8.87868C50.5587 8.31607 49.7956 8 49 8ZM37 30C36.7348 30 36.4804 29.8946 36.2929 29.7071C36.1054 29.5196 36 29.2652 36 29V24H41C41.2652 24 41.5196 24.1054 41.7071 24.2929C41.8946 24.4804 42 24.7348 42 25V30H37ZM49 30H44V25C44 24.2044 43.6839 23.4413 43.1213 22.8787C42.5587 22.3161 41.7956 22 41 22H36V11C36 10.7348 36.1054 10.4804 36.2929 10.2929C36.4804 10.1054 36.7348 10 37 10H40V15C40 15.2652 40.1054 15.5196 40.2929 15.7071C40.4804 15.8946 40.7348 16 41 16C41.2652 16 41.5196 15.8946 41.7071 15.7071C41.8946 15.5196 42 15.2652 42 15V10H49C49.2652 10 49.5196 10.1054 49.7071 10.2929C49.8946 10.4804 50 10.7348 50 11V13H48C47.7348 13 47.4804 13.1054 47.2929 13.2929C47.1054 13.4804 47 13.7348 47 14C47 14.2652 47.1054 14.5196 47.2929 14.7071C47.4804 14.8946 47.7348 15 48 15H50V23H48C47.7348 23 47.4804 23.1054 47.2929 23.2929C47.1054 23.4804 47 23.7348 47 24C47 24.2652 47.1054 24.5196 47.2929 24.7071C47.4804 24.8946 47.7348 25 48 25H50V29C50 29.2652 49.8946 29.5196 49.7071 29.7071C49.5196 29.8946 49.2652 30 49 30Z" fill="#083D66"/>
<path d="M51 34H35C34.7348 34 34.4804 34.1054 34.2929 34.2929C34.1054 34.4804 34 34.7348 34 35C34 35.2652 34.1054 35.5196 34.2929 35.7071C34.4804 35.8946 34.7348 36 35 36H51C51.2652 36 51.5196 35.8946 51.7071 35.7071C51.8946 35.5196 52 35.2652 52 35C52 34.7348 51.8946 34.4804 51.7071 34.2929C51.5196 34.1054 51.2652 34 51 34Z" fill="#083D66"/>
<path d="M51 38H25C24.7348 38 24.4804 38.1054 24.2929 38.2929C24.1054 38.4804 24 38.7348 24 39C24 39.2652 24.1054 39.5196 24.2929 39.7071C24.4804 39.8946 24.7348 40 25 40H51C51.2652 40 51.5196 39.8946 51.7071 39.7071C51.8946 39.5196 52 39.2652 52 39C52 38.7348 51.8946 38.4804 51.7071 38.2929C51.5196 38.1054 51.2652 38 51 38Z" fill="#083D66"/>
<path d="M51 42H25C24.7348 42 24.4804 42.1054 24.2929 42.2929C24.1054 42.4804 24 42.7348 24 43C24 43.2652 24.1054 43.5196 24.2929 43.7071C24.4804 43.8946 24.7348 44 25 44H51C51.2652 44 51.5196 43.8946 51.7071 43.7071C51.8946 43.5196 52 43.2652 52 43C52 42.7348 51.8946 42.4804 51.7071 42.2929C51.5196 42.1054 51.2652 42 51 42Z" fill="#083D66"/>
<path d="M25.6106 22.5001C25.6106 21.2917 25.2523 20.1104 24.5809 19.1056C23.9095 18.1008 22.9553 17.3177 21.8388 16.8552C20.7224 16.3928 19.4939 16.2718 18.3086 16.5075C17.1234 16.7433 16.0347 17.3252 15.1802 18.1797C14.3257 19.0342 13.7438 20.1229 13.508 21.3081C13.2723 22.4934 13.3933 23.7219 13.8557 24.8383C14.3182 25.9548 15.1013 26.909 16.1061 27.5804C17.1109 28.2518 18.2922 28.6101 19.5006 28.6101C21.1203 28.6075 22.6729 27.9629 23.8181 26.8176C24.9634 25.6724 25.608 24.1198 25.6106 22.5001ZM15.3906 22.5001C15.3906 21.6873 15.6317 20.8926 16.0833 20.2167C16.5349 19.5409 17.1768 19.0141 17.9278 18.703C18.6788 18.3919 19.5052 18.3105 20.3024 18.4691C21.0997 18.6277 21.832 19.0191 22.4068 19.5939C22.9816 20.1687 23.3731 20.9011 23.5317 21.6983C23.6902 22.4956 23.6088 23.322 23.2978 24.073C22.9867 24.824 22.4599 25.4659 21.784 25.9175C21.1081 26.3691 20.3135 26.6101 19.5006 26.6101C18.4106 26.6101 17.3652 26.1771 16.5944 25.4063C15.8236 24.6356 15.3906 23.5902 15.3906 22.5001Z" fill="#083D66"/>
</svg>
