<svg width="64" height="64" viewBox="0 0 64 64" fill="none" xmlns="http://www.w3.org/2000/svg">
<g clip-path="url(#clip0_2023_150)">
<path d="M63.223 34.024C61.872 33.714 60.601 33.347 59.442 32.931C58.848 32.718 58.802 32.165 58.802 32C58.802 31.835 58.848 31.283 59.442 31.07C60.601 30.653 61.873 30.286 63.223 29.976C63.76 29.853 64.097 29.317 63.975 28.78L62.202 20.981C62.142 20.722 61.983 20.497 61.759 20.356C61.533 20.215 61.264 20.167 61.003 20.228C59.68 20.531 58.399 20.75 57.194 20.881C56.537 20.955 56.238 20.472 56.166 20.323C56.094 20.173 55.895 19.648 56.368 19.168C57.222 18.302 58.195 17.431 59.259 16.581C59.689 16.237 59.76 15.609 59.417 15.178L54.447 8.92295C54.281 8.71495 54.04 8.58095 53.776 8.55095C53.505 8.52095 53.246 8.59795 53.039 8.76395C51.982 9.61095 50.926 10.365 49.899 11.005C49.329 11.362 48.86 11.053 48.729 10.949C48.599 10.845 48.191 10.458 48.41 9.82095C48.805 8.67395 49.304 7.46795 49.893 6.23895C50.131 5.74195 49.923 5.14595 49.427 4.90595L42.245 1.43495C42.006 1.31995 41.731 1.30395 41.479 1.39195C41.228 1.47995 41.023 1.66295 40.908 1.90295C40.321 3.12495 39.696 4.26295 39.051 5.28595C38.691 5.85695 38.133 5.77895 37.972 5.74295C37.81 5.70595 37.274 5.53395 37.196 4.86395C37.056 3.65595 36.985 2.35695 36.985 1.00195C36.985 0.449953 36.538 0.00195312 35.985 0.00195312H28.014C27.461 0.00195312 27.014 0.449953 27.014 1.00195C27.014 2.35695 26.943 3.65595 26.803 4.86395C26.725 5.53395 26.189 5.70595 26.027 5.74295C25.865 5.77995 25.306 5.85495 24.948 5.28595C24.303 4.26395 23.678 3.12595 23.091 1.90395C22.976 1.66395 22.771 1.48095 22.52 1.39295C22.268 1.30495 21.995 1.32095 21.754 1.43595L14.572 4.90695C14.076 5.14695 13.868 5.74295 14.106 6.23995C14.696 7.46895 15.195 8.67495 15.588 9.82195C15.808 10.46 15.4 10.847 15.27 10.95C15.139 11.054 14.672 11.364 14.099 11.006C13.074 10.365 12.017 9.61095 10.96 8.76495C10.753 8.59895 10.494 8.52195 10.223 8.55195C9.95897 8.58195 9.71797 8.71595 9.55197 8.92395L4.58196 15.179C4.23896 15.61 4.31096 16.238 4.73996 16.582C5.80296 17.433 6.77597 18.303 7.63097 19.169C8.10497 19.649 7.90497 20.174 7.83297 20.324C7.76097 20.473 7.49297 20.955 6.80397 20.882C5.60097 20.751 4.31997 20.531 2.99597 20.229C2.73597 20.168 2.46597 20.216 2.23997 20.357C2.01497 20.498 1.85597 20.723 1.79697 20.982L0.0249652 28.78C-0.0970348 29.318 0.239965 29.853 0.776965 29.976C2.12797 30.286 3.39897 30.653 4.55797 31.069C5.15197 31.282 5.19797 31.835 5.19797 32C5.19797 32.165 5.15197 32.717 4.55797 32.93C3.39897 33.347 2.12697 33.714 0.776965 34.024C0.239965 34.147 -0.0970348 34.683 0.0249652 35.22L1.79797 43.019C1.85797 43.278 2.01697 43.503 2.24097 43.644C2.46697 43.785 2.73697 43.832 2.99697 43.772C4.31997 43.469 5.60097 43.25 6.80597 43.119C7.46397 43.048 7.76197 43.528 7.83397 43.677C7.90597 43.827 8.10497 44.352 7.63197 44.832C6.77797 45.698 5.80497 46.569 4.74097 47.419C4.31097 47.763 4.23997 48.391 4.58297 48.822L9.55297 55.077C9.71897 55.285 9.95997 55.419 10.224 55.449C10.495 55.482 10.754 55.402 10.961 55.236C12.018 54.389 13.074 53.635 14.101 52.995C14.672 52.638 15.14 52.948 15.27 53.051C15.4 53.154 15.808 53.542 15.588 54.18C15.196 55.325 14.697 56.529 14.107 57.762C13.869 58.259 14.077 58.855 14.573 59.095L21.755 62.566C21.995 62.682 22.269 62.699 22.521 62.609C22.772 62.521 22.977 62.338 23.092 62.098C23.679 60.876 24.304 59.738 24.949 58.715C25.308 58.145 25.867 58.222 26.028 58.258C26.19 58.295 26.726 58.467 26.804 59.137C26.944 60.345 27.015 61.644 27.015 62.999C27.015 63.551 27.462 63.999 28.015 63.999H35.986C36.539 63.999 36.986 63.551 36.986 62.999C36.986 61.644 37.057 60.345 37.197 59.137C37.275 58.467 37.811 58.295 37.973 58.258C38.136 58.222 38.694 58.146 39.052 58.715C39.697 59.737 40.322 60.875 40.909 62.097C41.024 62.337 41.229 62.52 41.48 62.608C41.731 62.697 42.005 62.681 42.246 62.565L49.428 59.094C49.924 58.854 50.132 58.258 49.894 57.761C49.303 56.529 48.804 55.324 48.412 54.178C48.193 53.541 48.601 53.154 48.731 53.05C48.861 52.946 49.328 52.637 49.901 52.994C50.926 53.635 51.983 54.389 53.04 55.235C53.247 55.401 53.506 55.481 53.777 55.448C54.041 55.418 54.282 55.284 54.448 55.076L59.418 48.821C59.761 48.39 59.689 47.762 59.26 47.418C58.197 46.567 57.224 45.697 56.369 44.831C55.895 44.351 56.095 43.826 56.167 43.676C56.239 43.528 56.513 43.05 57.196 43.118C58.399 43.249 59.68 43.469 61.004 43.771C61.265 43.831 61.534 43.784 61.76 43.643C61.985 43.502 62.144 43.277 62.203 43.018L63.976 35.219C64.098 34.681 63.761 34.146 63.224 34.023L63.223 34.024ZM60.47 41.612C59.415 41.399 58.39 41.237 57.41 41.131C56.122 40.992 54.925 41.649 54.364 42.807C53.804 43.966 54.031 45.312 54.943 46.237C55.64 46.944 56.41 47.652 57.237 48.349L53.497 53.057C52.643 52.409 51.793 51.819 50.959 51.298C49.856 50.61 48.494 50.683 47.484 51.485C46.475 52.287 46.096 53.6 46.518 54.828C46.838 55.763 47.224 56.733 47.668 57.722L42.265 60.334C41.777 59.378 41.266 58.478 40.742 57.647C40.049 56.548 38.792 56.022 37.528 56.308C36.27 56.594 35.359 57.614 35.209 58.907C35.095 59.889 35.024 60.926 34.997 62H29.001C28.974 60.926 28.903 59.889 28.789 58.907C28.639 57.615 27.727 56.595 26.47 56.309C25.209 56.024 23.95 56.549 23.256 57.648C22.732 58.479 22.221 59.379 21.733 60.335L16.33 57.723C16.774 56.734 17.16 55.764 17.479 54.83C17.902 53.601 17.523 52.288 16.514 51.486C15.504 50.683 14.141 50.61 13.04 51.299C12.205 51.82 11.354 52.409 10.501 53.058L6.76097 48.35C7.58797 47.653 8.35797 46.945 9.05497 46.238C9.96697 45.314 10.194 43.967 9.63397 42.808C9.07297 41.65 7.88297 40.987 6.58897 41.132C5.60897 41.238 4.58297 41.4 3.52897 41.613L2.19297 35.739C3.26297 35.465 4.28297 35.155 5.23296 34.813C6.42596 34.385 7.19697 33.281 7.19697 32.001C7.19697 30.721 6.42696 29.617 5.23296 29.188C4.28297 28.847 3.26297 28.537 2.19297 28.263L3.52897 22.389C4.58397 22.602 5.60897 22.764 6.58897 22.87C7.88097 23.017 9.07397 22.352 9.63497 21.194C10.195 20.035 9.96797 18.689 9.05597 17.764C8.35897 17.057 7.58897 16.349 6.76197 15.652L10.502 10.944C11.356 11.592 12.206 12.182 13.04 12.703C14.142 13.391 15.504 13.318 16.515 12.516C17.524 11.714 17.904 10.401 17.481 9.17195C17.16 8.23495 16.774 7.26595 16.331 6.27795L21.734 3.66595C22.222 4.62195 22.733 5.52195 23.257 6.35295C23.95 7.45195 25.21 7.97995 26.471 7.69195C27.729 7.40595 28.64 6.38595 28.79 5.09295C28.904 4.11095 28.975 3.07395 29.002 1.99995H34.998C35.025 3.07395 35.096 4.11095 35.21 5.09295C35.36 6.38495 36.272 7.40495 37.529 7.69095C38.793 7.97895 40.049 7.45095 40.743 6.35195C41.267 5.52095 41.778 4.62095 42.266 3.66495L47.669 6.27695C47.226 7.26395 46.84 8.23495 46.518 9.17095C46.096 10.4 46.476 11.713 47.485 12.515C48.495 13.317 49.859 13.39 50.959 12.702C51.794 12.181 52.645 11.592 53.498 10.943L57.238 15.651C56.411 16.348 55.641 17.056 54.944 17.763C54.032 18.687 53.805 20.034 54.365 21.193C54.926 22.351 56.122 23.011 57.41 22.869C58.39 22.763 59.416 22.601 60.47 22.388L61.806 28.262C60.736 28.536 59.716 28.846 58.766 29.188C57.573 29.616 56.802 30.72 56.802 32C56.802 33.28 57.572 34.384 58.766 34.813C59.716 35.154 60.736 35.464 61.806 35.738L60.47 41.612Z" fill="#083D66"/>
<path d="M32 13C21.524 13 13 21.523 13 32C13 42.477 21.523 51 32 51C42.477 51 51 42.477 51 32C51 21.523 42.477 13 32 13ZM32 49C22.626 49 15 41.374 15 32C15 22.626 22.626 15 32 15C41.374 15 49 22.626 49 32C49 41.374 41.374 49 32 49Z" fill="#083D66"/>
<path d="M32 24C27.589 24 24 27.589 24 32C24 36.411 27.589 40 32 40C36.411 40 40 36.411 40 32C40 27.589 36.411 24 32 24ZM32 38C28.691 38 26 35.309 26 32C26 28.691 28.691 26 32 26C35.309 26 38 28.691 38 32C38 35.309 35.309 38 32 38Z" fill="#083D66"/>
</g>
<defs>
<clipPath id="clip0_2023_150">
<rect width="64" height="64" fill="white"/>
</clipPath>
</defs>
</svg>
