<svg width="64" height="64" viewBox="0 0 64 64" fill="none" xmlns="http://www.w3.org/2000/svg">
<g clip-path="url(#clip0_2023_78)">
<path d="M62.283 26.888L55.204 25.877C54.654 23.786 53.827 21.788 52.738 19.923L57.029 14.202C57.622 13.41 57.542 12.286 56.842 11.588L52.412 7.15702C51.713 6.45802 50.588 6.37702 49.798 6.97102L44.078 11.261C42.213 10.172 40.215 9.34502 38.124 8.79502L37.113 1.71602C36.973 0.737023 36.122 -0.000976562 35.134 -0.000976562H28.868C27.879 -0.000976562 27.028 0.737023 26.889 1.71602L25.878 8.79502C23.787 9.34502 21.789 10.172 19.924 11.261L14.203 6.97002C13.412 6.37702 12.289 6.45802 11.589 7.15602L7.159 11.586C6.459 12.284 6.379 13.408 6.972 14.201L11.262 19.921C10.173 21.786 9.346 23.784 8.796 25.875L1.717 26.886C0.738 27.026 0 27.877 0 28.865V35.131C0 36.12 0.738 36.971 1.717 37.11L8.796 38.121C9.346 40.212 10.173 42.21 11.262 44.075L6.971 49.796C6.378 50.588 6.458 51.712 7.158 52.41L11.588 56.84C12.286 57.54 13.411 57.621 14.203 57.027L19.923 52.737C21.788 53.826 23.786 54.653 25.877 55.203L26.888 62.282C27.028 63.261 27.879 63.999 28.867 63.999H35.133C36.122 63.999 36.973 63.261 37.112 62.282L38.123 55.203C40.214 54.653 42.212 53.826 44.077 52.737L49.798 57.028C50.59 57.622 51.714 57.542 52.412 56.841L56.842 52.411C57.542 51.712 57.622 50.588 57.029 49.796L52.739 44.076C53.828 42.211 54.655 40.213 55.205 38.122L62.284 37.111C63.263 36.971 64.001 36.12 64.001 35.132V28.866C64.001 27.877 63.263 27.026 62.284 26.887L62.283 26.888ZM62 35.133L54.254 36.239C53.846 36.297 53.515 36.6 53.421 37.002C52.876 39.346 51.955 41.569 50.685 43.609C50.467 43.96 50.486 44.408 50.734 44.738L55.428 50.997L50.998 55.428L44.739 50.734C44.409 50.487 43.962 50.467 43.61 50.685C41.57 51.955 39.347 52.876 37.003 53.421C36.601 53.515 36.298 53.845 36.24 54.254L35.134 62H28.868L27.762 54.254C27.704 53.846 27.401 53.515 26.999 53.421C24.655 52.876 22.432 51.955 20.392 50.685C20.229 50.584 20.046 50.534 19.863 50.534C19.651 50.534 19.44 50.601 19.263 50.734L13.004 55.428L8.573 50.998L13.267 44.739C13.515 44.409 13.534 43.961 13.316 43.61C12.046 41.57 11.125 39.347 10.58 37.003C10.486 36.601 10.156 36.298 9.747 36.24L2.001 35.134V28.868L9.747 27.762C10.155 27.704 10.486 27.401 10.58 26.999C11.125 24.655 12.046 22.432 13.316 20.392C13.534 20.041 13.515 19.593 13.267 19.263L8.573 13.004L13.003 8.57302L19.262 13.267C19.594 13.516 20.041 13.534 20.391 13.316C22.431 12.046 24.654 11.125 26.998 10.58C27.4 10.486 27.703 10.156 27.761 9.74702L28.867 2.00102H35.133L36.239 9.74702C36.297 10.155 36.6 10.486 37.002 10.58C39.346 11.125 41.569 12.046 43.609 13.316C43.96 13.534 44.407 13.515 44.738 13.267L50.997 8.57302L55.428 13.004L50.734 19.263C50.486 19.593 50.467 20.041 50.685 20.392C51.955 22.432 52.876 24.655 53.421 26.999C53.515 27.401 53.845 27.704 54.254 27.762L62 28.868V35.133Z" fill="#083D66"/>
<path d="M32 16C23.178 16 16 23.178 16 32C16 40.822 23.178 48 32 48C40.822 48 48 40.822 48 32C48 23.178 40.822 16 32 16ZM32 46C24.28 46 18 39.72 18 32C18 24.28 24.28 18 32 18C39.72 18 46 24.28 46 32C46 39.72 39.72 46 32 46Z" fill="#083D66"/>
<path d="M32 24C27.589 24 24 27.589 24 32C24 36.411 27.589 40 32 40C36.411 40 40 36.411 40 32C40 27.589 36.411 24 32 24ZM32 38C28.691 38 26 35.309 26 32C26 28.691 28.691 26 32 26C35.309 26 38 28.691 38 32C38 35.309 35.309 38 32 38Z" fill="#083D66"/>
</g>
<defs>
<clipPath id="clip0_2023_78">
<rect width="64" height="64" fill="white"/>
</clipPath>
</defs>
</svg>
