<svg width="64" height="64" viewBox="0 0 64 64" fill="none" xmlns="http://www.w3.org/2000/svg">
<g clip-path="url(#clip0_2023_254)">
<path d="M61.2321 35.599C62.5931 34.576 64.0001 33.518 64.0001 32C64.0001 30.482 62.5931 29.424 61.2321 28.401C60.4731 27.83 59.4331 27.048 59.3361 26.56C59.2311 26.031 59.8831 24.927 60.4061 24.039C61.2561 22.6 62.1351 21.111 61.5701 19.749C60.9961 18.365 59.3021 17.93 57.6651 17.51C56.7341 17.271 55.4591 16.944 55.1731 16.517C54.8811 16.08 55.0581 14.821 55.2011 13.809C55.4361 12.144 55.6791 10.423 54.6271 9.37105C53.5781 8.32005 51.8561 8.56405 50.1901 8.79705C49.1781 8.93905 47.9191 9.11705 47.4821 8.82505C47.0551 8.53905 46.7281 7.26405 46.4891 6.33305C46.0691 4.69505 45.6351 3.00205 44.2491 2.42805C42.8891 1.86305 41.3991 2.74205 39.9591 3.59205C39.0711 4.11505 37.9661 4.76005 37.4381 4.66205C36.9501 4.56505 36.1681 3.52605 35.5971 2.76605C34.5741 1.40505 33.5161 -0.00195312 31.9981 -0.00195312C30.4801 -0.00195312 29.4221 1.40505 28.3991 2.76605C27.8281 3.52505 27.0461 4.56505 26.5581 4.66205C26.0281 4.76805 24.9241 4.11505 24.0371 3.59205C22.5981 2.74205 21.1091 1.86505 19.7471 2.42805C18.3631 3.00205 17.9281 4.69605 17.5081 6.33305C17.2691 7.26405 16.9421 8.53905 16.5151 8.82505C16.0781 9.11605 14.8191 8.94005 13.8071 8.79705C12.1421 8.56305 10.4201 8.32005 9.36909 9.37105C8.31809 10.422 8.56009 12.143 8.79509 13.808C8.93809 14.82 9.11509 16.079 8.82309 16.516C8.53709 16.943 7.26209 17.27 6.33109 17.509C4.69309 17.929 3.00009 18.363 2.42609 19.749C1.86209 21.11 2.74009 22.599 3.59009 24.039C4.11309 24.927 4.76509 26.031 4.66009 26.56C4.56309 27.048 3.52409 27.83 2.76409 28.401C1.40309 29.424 -0.00390625 30.482 -0.00390625 32C-0.00390625 33.518 1.40309 34.576 2.76409 35.599C3.52309 36.17 4.56309 36.952 4.66009 37.44C4.76509 37.969 4.11309 39.073 3.59009 39.961C2.74009 41.4 1.86109 42.889 2.42609 44.251C3.00009 45.635 4.69409 46.07 6.33109 46.49C7.26209 46.729 8.53709 47.056 8.82309 47.483C9.11509 47.92 8.93809 49.179 8.79509 50.191C8.56009 51.856 8.31709 53.577 9.36909 54.629C10.4211 55.681 12.1421 55.438 13.8061 55.203C14.8181 55.06 16.0771 54.883 16.5141 55.175C16.9411 55.461 17.2681 56.736 17.5071 57.667C17.9271 59.305 18.3611 60.998 19.7471 61.572C21.1061 62.136 22.5971 61.258 24.0371 60.408C24.9241 59.885 26.0261 59.235 26.5581 59.338C27.0461 59.435 27.8281 60.474 28.3991 61.234C29.4221 62.595 30.4801 64.002 31.9981 64.002C33.5161 64.002 34.5741 62.595 35.5971 61.234C36.1681 60.475 36.9501 59.435 37.4381 59.338C37.9671 59.23 39.0721 59.885 39.9591 60.408C41.3981 61.258 42.8871 62.135 44.2491 61.572C45.6331 60.998 46.0681 59.304 46.4881 57.667C46.7271 56.736 47.0541 55.461 47.4811 55.175C47.9171 54.884 49.1761 55.06 50.1891 55.203C51.8541 55.438 53.5751 55.68 54.6271 54.629C55.6791 53.578 55.4361 51.857 55.2011 50.192C55.0581 49.18 54.8811 47.921 55.1731 47.484C55.4591 47.057 56.7341 46.73 57.6651 46.491C59.3031 46.071 60.9961 45.637 61.5701 44.251C62.1341 42.89 61.2561 41.401 60.4061 39.961C59.8831 39.073 59.2311 37.969 59.3361 37.44C59.4331 36.952 60.4721 36.17 61.2321 35.599ZM58.6851 40.977C59.1711 41.801 59.9061 43.046 59.7241 43.485C59.5331 43.947 58.1101 44.312 57.1691 44.553C55.7211 44.925 54.2231 45.309 53.5121 46.371C52.7951 47.442 53.0121 48.981 53.2211 50.47C53.3551 51.425 53.5591 52.868 53.2131 53.214C52.8681 53.559 51.4231 53.355 50.4691 53.221C48.9801 53.012 47.4421 52.795 46.3691 53.512C45.3071 54.223 44.9231 55.721 44.5521 57.169C44.3101 58.11 43.9461 59.532 43.4841 59.723C43.0471 59.904 41.8011 59.171 40.9771 58.684C39.6751 57.915 38.3281 57.119 37.0511 57.374C35.8121 57.619 34.8911 58.845 34.0001 60.03C33.3751 60.861 32.5191 62 32.0001 62C31.4811 62 30.6251 60.861 30.0001 60.03C29.1091 58.845 28.1881 57.619 26.9491 57.374C26.7831 57.341 26.6171 57.326 26.4501 57.326C25.3241 57.326 24.1571 58.015 23.0231 58.684C22.1991 59.17 20.9551 59.907 20.5151 59.723C20.0531 59.532 19.6881 58.109 19.4471 57.168C19.0751 55.72 18.6911 54.222 17.6291 53.511C16.5571 52.795 15.0191 53.011 13.5301 53.22C12.5741 53.354 11.1331 53.557 10.7861 53.212C10.4401 52.866 10.6441 51.423 10.7791 50.468C10.9891 48.979 11.2061 47.44 10.4881 46.368C9.77709 45.306 8.27909 44.922 6.83109 44.551C5.89009 44.309 4.46809 43.945 4.27709 43.483C4.09509 43.044 4.83009 41.799 5.31609 40.976C6.08509 39.674 6.87909 38.328 6.62609 37.05C6.38109 35.811 5.15509 34.89 3.97009 33.999C3.13909 33.374 2.00009 32.518 2.00009 31.999C2.00009 31.48 3.13909 30.624 3.97009 29.999C5.15509 29.108 6.38109 28.187 6.62609 26.948C6.87909 25.67 6.08409 24.324 5.31609 23.022C4.83009 22.198 4.09509 20.953 4.27709 20.514C4.46809 20.052 5.89109 19.687 6.83209 19.446C8.28009 19.074 9.77809 18.69 10.4891 17.628C11.2061 16.557 10.9891 15.018 10.7801 13.529C10.6461 12.574 10.4421 11.131 10.7881 10.785C11.1341 10.439 12.5781 10.643 13.5321 10.778C15.0221 10.988 16.5601 11.205 17.6321 10.487C18.6941 9.77605 19.0781 8.27805 19.4491 6.83005C19.6911 5.88905 20.0551 4.46705 20.5171 4.27605C20.9531 4.09305 22.2001 4.82805 23.0241 5.31505C24.3261 6.08305 25.6691 6.87705 26.9501 6.62505C28.1891 6.38005 29.1101 5.15405 30.0011 3.96905C30.6261 3.13805 31.4821 1.99905 32.0011 1.99905C32.5201 1.99905 33.3761 3.13805 34.0011 3.96905C34.8921 5.15405 35.8131 6.38005 37.0521 6.62505C38.3281 6.87705 39.6761 6.08305 40.9781 5.31505C41.8021 4.82905 43.0431 4.09505 43.4861 4.27605C43.9481 4.46705 44.3131 5.89005 44.5541 6.83105C44.9261 8.27905 45.3101 9.77705 46.3721 10.488C47.4451 11.205 48.9831 10.989 50.4711 10.779C51.4271 10.644 52.8691 10.442 53.2151 10.787C53.5611 11.133 53.3571 12.576 53.2221 13.531C53.0121 15.02 52.7951 16.559 53.5131 17.631C54.2241 18.693 55.7221 19.077 57.1701 19.448C58.1111 19.69 59.5331 20.054 59.7241 20.516C59.9061 20.955 59.1711 22.2 58.6851 23.023C57.9161 24.325 57.1221 25.671 57.3751 26.949C57.6201 28.188 58.8461 29.109 60.0311 30C60.8621 30.625 62.0011 31.481 62.0011 32C62.0011 32.519 60.8621 33.375 60.0311 34C58.8461 34.891 57.6201 35.812 57.3751 37.051C57.1221 38.329 57.9171 39.675 58.6851 40.977Z" fill="#083D66"/>
<path d="M37.294 14.7943C36.991 14.7023 36.662 14.7563 36.406 14.9463C36.151 15.1343 36 15.4333 36 15.7503V23.3493C36 23.7063 36.19 24.0363 36.499 24.2143C37.861 25.0033 38.997 26.1393 39.786 27.5013C39.965 27.8103 40.294 28.0003 40.651 28.0003H48.25C48.567 28.0003 48.866 27.8503 49.054 27.5943C49.242 27.3383 49.299 27.0103 49.206 26.7063C47.453 21.0003 42.999 16.5473 37.294 14.7943ZM41.21 26.0003C40.375 24.7213 39.279 23.6253 38 22.7903V17.1653C42.024 18.7903 45.211 21.9773 46.835 26.0003H41.21Z" fill="#083D66"/>
<path d="M15.75 28.0001H23.349C23.706 28.0001 24.036 27.8101 24.214 27.5011C25.003 26.1391 26.139 25.0031 27.501 24.2141C27.81 24.0351 28 23.7061 28 23.3491V15.7501C28 15.4331 27.85 15.1341 27.594 14.9461C27.338 14.7571 27.01 14.7021 26.706 14.7941C21 16.5471 16.547 21.0011 14.794 26.7061C14.701 27.0101 14.757 27.3391 14.946 27.5941C15.135 27.8491 15.433 28.0001 15.75 28.0001ZM26 17.1651V22.7901C24.721 23.6251 23.625 24.7211 22.79 26.0001H17.165C18.79 21.9761 21.977 18.7891 26 17.1651Z" fill="#083D66"/>
<path d="M27.5008 39.786C26.1388 38.997 25.0028 37.861 24.2138 36.499C24.0348 36.19 23.7058 36 23.3488 36H15.7498C15.4328 36 15.1338 36.15 14.9458 36.406C14.7578 36.662 14.7008 36.99 14.7938 37.294C16.5468 43 21.0008 47.453 26.7058 49.206C26.8028 49.235 26.9008 49.25 26.9998 49.25C27.2108 49.25 27.4198 49.183 27.5938 49.054C27.8488 48.866 27.9998 48.567 27.9998 48.25V40.651C27.9998 40.294 27.8098 39.964 27.5008 39.786ZM25.9998 46.835C21.9758 45.21 18.7888 42.023 17.1648 38H22.7898C23.6248 39.279 24.7208 40.375 25.9998 41.21V46.835Z" fill="#083D66"/>
<path d="M48.25 36H40.651C40.294 36 39.964 36.19 39.786 36.499C38.997 37.861 37.861 38.997 36.499 39.786C36.19 39.965 36 40.294 36 40.651V48.25C36 48.567 36.15 48.866 36.406 49.054C36.58 49.183 36.789 49.25 37 49.25C37.099 49.25 37.197 49.235 37.294 49.206C43 47.453 47.453 42.999 49.206 37.294C49.299 36.99 49.243 36.661 49.054 36.406C48.865 36.151 48.567 36 48.25 36ZM38 46.835V41.21C39.279 40.375 40.375 39.279 41.21 38H46.835C45.21 42.024 42.023 45.211 38 46.835Z" fill="#083D66"/>
<path d="M38 32C38 28.691 35.309 26 32 26C28.691 26 26 28.691 26 32C26 35.309 28.691 38 32 38C35.309 38 38 35.309 38 32ZM32 36C29.794 36 28 34.206 28 32C28 29.794 29.794 28 32 28C34.206 28 36 29.794 36 32C36 34.206 34.206 36 32 36Z" fill="#083D66"/>
</g>
<defs>
<clipPath id="clip0_2023_254">
<rect width="64" height="64" fill="white"/>
</clipPath>
</defs>
</svg>
