<svg width="64" height="64" viewBox="0 0 64 64" fill="none" xmlns="http://www.w3.org/2000/svg">
<path d="M47 40.59H45C44.8538 40.134 44.6593 39.6948 44.42 39.28L45.85 37.86C46.2075 37.4876 46.4072 36.9913 46.4072 36.475C46.4072 35.9587 46.2075 35.4625 45.85 35.09L43.85 33.09C43.4775 32.7325 42.9813 32.5328 42.465 32.5328C41.9487 32.5328 41.4525 32.7325 41.08 33.09L39.75 34.5C39.3216 34.288 38.8726 34.1205 38.41 34V32C38.41 31.4696 38.1993 30.9609 37.8242 30.5858C37.4491 30.2107 36.9404 30 36.41 30H33.51C32.9796 30 32.4709 30.2107 32.0958 30.5858C31.7207 30.9609 31.51 31.4696 31.51 32V34C31.054 34.1462 30.6148 34.3407 30.2 34.58L28.78 33.15C28.4076 32.7925 27.9113 32.5928 27.395 32.5928C26.8787 32.5928 26.3825 32.7925 26.01 33.15L23.96 35.15C23.6025 35.5225 23.4028 36.0187 23.4028 36.535C23.4028 37.0513 23.6025 37.5475 23.96 37.92L25.39 39.28C25.2176 39.7029 25.087 40.1417 25 40.59H23C22.4696 40.59 21.9609 40.8007 21.5858 41.1758C21.2107 41.5509 21 42.0596 21 42.59V45.49C21 46.0204 21.2107 46.5291 21.5858 46.9042C21.9609 47.2793 22.4696 47.49 23 47.49H25C25.1462 47.946 25.3407 48.3852 25.58 48.8L24.15 50.22C23.7925 50.5925 23.5928 51.0887 23.5928 51.605C23.5928 52.1213 23.7925 52.6176 24.15 52.99L26.2 54.99C26.5725 55.3475 27.0687 55.5472 27.585 55.5472C28.1013 55.5472 28.5975 55.3475 28.97 54.99L30.33 53.56C30.7568 53.7857 31.2059 53.9667 31.67 54.1V56.1C31.67 56.6304 31.8807 57.1391 32.2558 57.5142C32.6309 57.8893 33.1396 58.1 33.67 58.1H36.57C37.1004 58.1 37.6091 57.8893 37.9842 57.5142C38.3593 57.1391 38.57 56.6304 38.57 56.1V54.1C39.026 53.9538 39.4652 53.7593 39.88 53.52L41.3 54.95C41.6724 55.3075 42.1687 55.5072 42.685 55.5072C43.2013 55.5072 43.6975 55.3075 44.07 54.95L46.07 52.95C46.4275 52.5776 46.6272 52.0813 46.6272 51.565C46.6272 51.0487 46.4275 50.5525 46.07 50.18L44.5 48.75C44.712 48.3216 44.8795 47.8726 45 47.41H47C47.4296 47.4197 47.8502 47.2865 48.1959 47.0313C48.5415 46.7761 48.7927 46.4134 48.91 46C48.9713 45.8197 49.0018 45.6304 49 45.44V42.54C48.987 42.0183 48.7705 41.5223 48.3968 41.158C48.0232 40.7937 47.5219 40.5898 47 40.59ZM47 45.41H45C44.5941 45.4163 44.1997 45.5459 43.8693 45.7817C43.5388 46.0175 43.288 46.3482 43.15 46.73C43.0162 47.1125 42.8592 47.4865 42.68 47.85C42.5051 48.2181 42.4468 48.6308 42.5129 49.0329C42.5791 49.435 42.7664 49.8073 43.05 50.1L44.47 51.47L42.47 53.47L41.1 52.09C40.9316 51.9191 40.7311 51.7831 40.51 51.69C40.2481 51.5697 39.9632 51.5074 39.675 51.5074C39.3868 51.5074 39.1019 51.5697 38.84 51.69C38.4782 51.8729 38.104 52.03 37.72 52.16C37.3417 52.299 37.0142 52.549 36.7804 52.8774C36.5466 53.2057 36.4175 53.597 36.41 54V56H33.55V54C33.5437 53.5941 33.4141 53.1997 33.1783 52.8693C32.9425 52.5388 32.6118 52.288 32.23 52.15C31.8475 52.0162 31.4735 51.8592 31.11 51.68C30.8438 51.5445 30.5487 51.4759 30.25 51.48C29.7302 51.4821 29.2317 51.6866 28.86 52.05L27.49 53.47L25.49 51.47L26.91 50.05C27.1957 49.7565 27.3843 49.3824 27.4505 48.9782C27.5167 48.574 27.4571 48.1593 27.28 47.79C27.0971 47.4282 26.94 47.054 26.81 46.67C26.665 46.3057 26.4162 45.992 26.0944 45.768C25.7726 45.544 25.392 45.4195 25 45.41H23V42.59H25C25.4059 42.5837 25.8003 42.4541 26.1307 42.2183C26.4612 41.9825 26.712 41.6518 26.85 41.27C26.9838 40.8875 27.1408 40.5135 27.32 40.15C27.4949 39.7819 27.5532 39.3692 27.4871 38.9671C27.4209 38.565 27.2336 38.1927 26.95 37.9L25.53 36.53L27.53 34.53L28.95 35.95C29.2435 36.2357 29.6176 36.4243 30.0218 36.4905C30.426 36.5567 30.8407 36.4971 31.21 36.32C31.5718 36.1371 31.946 35.98 32.33 35.85C32.7006 35.7024 33.0185 35.4474 33.243 35.1178C33.4676 34.7881 33.5884 34.3989 33.59 34V32H36.45V34C36.4563 34.4059 36.5859 34.8003 36.8217 35.1307C37.0575 35.4612 37.3882 35.712 37.77 35.85C38.1525 35.9838 38.5265 36.1408 38.89 36.32C39.2581 36.4949 39.6708 36.5532 40.0729 36.4871C40.475 36.4209 40.8473 36.2336 41.14 35.95L42.51 34.53L44.51 36.53L43.09 37.9C42.8043 38.1935 42.6157 38.5676 42.5495 38.9718C42.4833 39.376 42.5429 39.7907 42.72 40.16C42.9029 40.5218 43.06 40.896 43.19 41.28C43.3271 41.6537 43.5726 41.978 43.895 42.2113C44.2175 42.4447 44.6022 42.5765 45 42.59H47V45.41ZM47 45.41C46.9973 45.3734 46.9973 45.3366 47 45.3C47 45.35 47 45.35 47 45.41Z" fill="#083D66"/>
<path d="M35.0007 37.2202C33.6597 37.2202 32.3489 37.6179 31.2339 38.3629C30.119 39.1078 29.25 40.1667 28.7368 41.4056C28.2236 42.6445 28.0894 44.0077 28.351 45.3229C28.6126 46.6381 29.2583 47.8462 30.2065 48.7944C31.1547 49.7426 32.3628 50.3883 33.678 50.6499C34.9932 50.9115 36.3564 50.7773 37.5953 50.2641C38.8342 49.751 39.8931 48.8819 40.6381 47.767C41.3831 46.652 41.7807 45.3412 41.7807 44.0002C41.7781 42.2029 41.0629 40.4799 39.792 39.209C38.521 37.938 36.7981 37.2229 35.0007 37.2202ZM35.0007 48.7802C34.0553 48.7802 33.1311 48.4999 32.3451 47.9746C31.559 47.4494 30.9464 46.7029 30.5846 45.8294C30.2228 44.956 30.1281 43.9949 30.3126 43.0677C30.497 42.1405 30.9522 41.2887 31.6207 40.6202C32.2892 39.9517 33.1409 39.4965 34.0682 39.3121C34.9954 39.1276 35.9565 39.2223 36.8299 39.5841C37.7034 39.9459 38.4499 40.5585 38.9751 41.3446C39.5004 42.1307 39.7807 43.0548 39.7807 44.0002C39.7781 45.2671 39.2736 46.4814 38.3778 47.3773C37.4819 48.2731 36.2676 48.7776 35.0007 48.7802Z" fill="#083D66"/>
<path d="M56.08 27.77C56.0821 27.5412 56.0381 27.3143 55.9504 27.103C55.8628 26.8916 55.7334 26.7002 55.57 26.54L54.57 25.54C54.6836 25.3025 54.7838 25.0588 54.87 24.81H56.22C56.5922 24.8108 56.9547 24.6916 57.2538 24.47C57.5528 24.2484 57.7724 23.9363 57.88 23.58C57.9325 23.4151 57.9595 23.2431 57.96 23.07V20.89C57.96 20.4285 57.7767 19.9859 57.4504 19.6596C57.1241 19.3333 56.6815 19.15 56.22 19.15H54.91C54.81 18.89 54.71 18.65 54.61 18.42L55.61 17.42C55.7712 17.2593 55.899 17.0684 55.9863 16.8582C56.0735 16.6479 56.1184 16.4226 56.1184 16.195C56.1184 15.9674 56.0735 15.7421 55.9863 15.5318C55.899 15.3216 55.7712 15.1307 55.61 14.97L54 13.43C53.6693 13.1163 53.2308 12.9414 52.775 12.9414C52.3192 12.9414 51.8807 13.1163 51.55 13.43L50.55 14.43C50.3125 14.3164 50.0688 14.2162 49.82 14.13V12.74C49.8201 12.2837 49.6409 11.8456 49.321 11.5201C49.0012 11.1947 48.5663 11.0079 48.11 11H45.89C45.6615 11 45.4352 11.045 45.2241 11.1324C45.013 11.2199 44.8212 11.3481 44.6596 11.5096C44.4981 11.6712 44.3699 11.863 44.2824 12.0741C44.195 12.2852 44.15 12.5115 44.15 12.74V14.09L43.42 14.39L42.42 13.39C42.0893 13.0763 41.6508 12.9014 41.195 12.9014C40.7392 12.9014 40.3007 13.0763 39.97 13.39L38.43 15C38.2688 15.1607 38.141 15.3516 38.0537 15.5618C37.9665 15.7721 37.9216 15.9974 37.9216 16.225C37.9216 16.4526 37.9665 16.6779 38.0537 16.8882C38.141 17.0984 38.2688 17.2893 38.43 17.45L39.43 18.45C39.3164 18.6875 39.2162 18.9312 39.13 19.18H37.74C37.2837 19.1799 36.8456 19.3591 36.5201 19.679C36.1947 19.9988 36.0079 20.4337 36 20.89V23.11C36 23.5715 36.1833 24.0141 36.5096 24.3404C36.8359 24.6667 37.2785 24.85 37.74 24.85H39.09C39.19 25.11 39.29 25.35 39.39 25.58L38.39 26.58C38.2288 26.7407 38.101 26.9316 38.0137 27.1418C37.9265 27.3521 37.8816 27.5774 37.8816 27.805C37.8816 28.0326 37.9265 28.2579 38.0137 28.4682C38.101 28.6784 38.2288 28.8693 38.39 29.03L40 30.57C40.3307 30.8837 40.7692 31.0586 41.225 31.0586C41.6808 31.0586 42.1193 30.8837 42.45 30.57L43.45 29.57C43.6875 29.6836 43.9312 29.7838 44.18 29.87V31.22C44.1747 31.4493 44.2148 31.6775 44.298 31.8913C44.3812 32.105 44.5058 32.3003 44.6647 32.4657C44.8237 32.6311 45.0137 32.7635 45.224 32.8552C45.4343 32.9469 45.6606 32.9961 45.89 33H48.11C48.5715 33 49.0141 32.8167 49.3404 32.4904C49.6667 32.1641 49.85 31.7215 49.85 31.26V29.91L50.58 29.61L51.58 30.61C51.9107 30.9237 52.3492 31.0986 52.805 31.0986C53.2608 31.0986 53.6993 30.9237 54.03 30.61L55.57 29C55.7339 28.8402 55.8636 28.6488 55.9512 28.4373C56.0389 28.2259 56.0827 27.9989 56.08 27.77ZM53.08 26.85L53.99 27.77L52.77 29L51.85 28.09C51.7089 27.936 51.5345 27.8163 51.34 27.74C51.1079 27.6269 50.8532 27.5681 50.595 27.5681C50.3368 27.5681 50.0821 27.6269 49.85 27.74C49.5785 27.8732 49.2977 27.9868 49.01 28.08C48.6724 28.2024 48.3804 28.4251 48.173 28.7183C47.9657 29.0114 47.853 29.3609 47.85 29.72V31H46.15V29.72C46.1492 29.3618 46.0385 29.0125 45.8328 28.7192C45.6272 28.4259 45.3365 28.2028 45 28.08C44.7117 27.9845 44.4309 27.8675 44.16 27.73C43.8339 27.5692 43.4657 27.5145 43.107 27.5737C42.7483 27.6329 42.4171 27.8029 42.16 28.06L41.24 28.97L40 27.77L40.91 26.85C41.1667 26.5925 41.3358 26.2607 41.3933 25.9017C41.4507 25.5427 41.3936 25.1747 41.23 24.85C41.0968 24.5785 40.9832 24.2978 40.89 24.01C40.7676 23.6724 40.5449 23.3804 40.2517 23.173C39.9586 22.9657 39.6091 22.853 39.25 22.85H38V21.15H39.28C39.6382 21.1492 39.9875 21.0385 40.2808 20.8328C40.5741 20.6272 40.7972 20.3365 40.92 20C41.0155 19.7117 41.1325 19.4309 41.27 19.16C41.4308 18.8339 41.4855 18.4657 41.4263 18.107C41.3671 17.7483 41.1971 17.4171 40.94 17.16L40 16.23L41.2 15.03L42.12 15.94C42.3775 16.1967 42.7093 16.3658 43.0683 16.4233C43.4273 16.4807 43.7953 16.4236 44.12 16.26C44.3915 16.1268 44.6722 16.0132 44.96 15.92C45.2976 15.7976 45.5896 15.5749 45.797 15.2817C46.0043 14.9886 46.117 14.6391 46.12 14.28V13H47.82V14.28C47.823 14.6418 47.9381 14.9938 48.1494 15.2875C48.3607 15.5812 48.6579 15.8022 49 15.92C49.2883 16.0155 49.5691 16.1325 49.84 16.27C50.1661 16.4308 50.5343 16.4855 50.893 16.4263C51.2517 16.3671 51.5829 16.1971 51.84 15.94L52.76 15.03L53.96 16.23L53.05 17.15C52.7933 17.4075 52.6242 17.7393 52.5667 18.0983C52.5093 18.4573 52.5664 18.8253 52.73 19.15C52.8632 19.4215 52.9768 19.7022 53.07 19.99C53.1924 20.3276 53.4151 20.6196 53.7083 20.827C54.0014 21.0343 54.3509 21.147 54.71 21.15H56V22.85H54.72C54.3618 22.8508 54.0125 22.9615 53.7192 23.1672C53.4259 23.3728 53.2028 23.6635 53.08 24C52.9845 24.2883 52.8675 24.5691 52.73 24.84C52.5668 25.1672 52.5109 25.5375 52.5701 25.8983C52.6294 26.2591 52.8008 26.5921 53.06 26.85H53.08Z" fill="#083D66"/>
<path d="M47 17C46.0111 17 45.0444 17.2932 44.2222 17.8427C43.3999 18.3921 42.759 19.173 42.3806 20.0866C42.0022 21.0002 41.9031 22.0055 42.0961 22.9755C42.289 23.9454 42.7652 24.8363 43.4645 25.5355C44.1637 26.2348 45.0546 26.711 46.0245 26.9039C46.9945 27.0969 47.9998 26.9978 48.9134 26.6194C49.8271 26.241 50.6079 25.6001 51.1574 24.7779C51.7068 23.9556 52 22.9889 52 22C52 20.6739 51.4732 19.4021 50.5355 18.4645C49.5979 17.5268 48.3261 17 47 17ZM47 25C46.4067 25 45.8266 24.8241 45.3333 24.4944C44.8399 24.1648 44.4554 23.6962 44.2284 23.1481C44.0013 22.5999 43.9419 21.9967 44.0576 21.4147C44.1734 20.8328 44.4591 20.2982 44.8787 19.8787C45.2982 19.4591 45.8328 19.1734 46.4147 19.0576C46.9967 18.9419 47.5999 19.0013 48.1481 19.2284C48.6962 19.4554 49.1648 19.8399 49.4944 20.3333C49.8241 20.8266 50 21.4067 50 22C50 22.7956 49.6839 23.5587 49.1213 24.1213C48.5587 24.6839 47.7957 25 47 25Z" fill="#083D66"/>
<path d="M24.41 32V30C24.866 29.8538 25.3052 29.6593 25.72 29.42L27.14 30.85C27.5124 31.2075 28.0087 31.4072 28.525 31.4072C29.0413 31.4072 29.5375 31.2075 29.91 30.85L31.96 28.8C32.3175 28.4275 32.5172 27.9313 32.5172 27.415C32.5172 26.8987 32.3175 26.4025 31.96 26.03L30.5 24.75C30.712 24.3216 30.8795 23.8726 31 23.41H33C33.4296 23.4197 33.8502 23.2865 34.1959 23.0313C34.5415 22.7761 34.7927 22.4134 34.91 22C34.9713 21.8197 35.0018 21.6304 35 21.44V18.54C35 18.0096 34.7893 17.5009 34.4142 17.1258C34.0391 16.7507 33.5304 16.54 33 16.54H31C30.8538 16.084 30.6593 15.6448 30.42 15.23L31.85 13.81C32.2075 13.4376 32.4072 12.9413 32.4072 12.425C32.4072 11.9087 32.2075 11.4124 31.85 11.04L29.8 9.04C29.4275 8.68248 28.9313 8.48284 28.415 8.48284C27.8987 8.48284 27.4025 8.68248 27.03 9.04L25.75 10.5C25.3216 10.288 24.8726 10.1205 24.41 10V8C24.41 7.46957 24.1993 6.96086 23.8242 6.58579C23.4491 6.21071 22.9404 6 22.41 6H19.51C18.9796 6 18.4709 6.21071 18.0958 6.58579C17.7207 6.96086 17.51 7.46957 17.51 8V10C17.054 10.1462 16.6148 10.3407 16.2 10.58L14.89 9.07C14.5176 8.71248 14.0213 8.51284 13.505 8.51284C12.9887 8.51284 12.4924 8.71248 12.12 9.07L10.12 11.07C9.76248 11.4424 9.56284 11.9387 9.56284 12.455C9.56284 12.9713 9.76248 13.4676 10.12 13.84L11.55 15.2C11.3176 15.6424 11.1332 16.1084 11 16.59H9C8.46957 16.59 7.96086 16.8007 7.58579 17.1758C7.21071 17.5509 7 18.0596 7 18.59V21.49C7 22.0204 7.21071 22.5291 7.58579 22.9042C7.96086 23.2793 8.46957 23.49 9 23.49H11C11.1462 23.946 11.3407 24.3852 11.58 24.8L10.15 26.22C9.79248 26.5924 9.59284 27.0887 9.59284 27.605C9.59284 28.1213 9.79248 28.6175 10.15 28.99L12.15 31.04C12.5224 31.3975 13.0187 31.5972 13.535 31.5972C14.0513 31.5972 14.5476 31.3975 14.92 31.04L16.28 29.61C16.7068 29.8357 17.1559 30.0167 17.62 30.15V32.15C17.62 32.6804 17.8307 33.1891 18.2058 33.5642C18.5809 33.9393 19.0896 34.15 19.62 34.15H22.52C22.7864 34.1361 23.0473 34.0691 23.2874 33.9528C23.5274 33.8366 23.7418 33.6735 23.918 33.4732C24.0941 33.2728 24.2283 33.0393 24.3128 32.7863C24.3973 32.5333 24.4304 32.266 24.41 32ZM33 21.3C33 21.35 33 21.35 33 21.41C32.9973 21.3734 32.9973 21.3366 33 21.3ZM18.27 28.19C17.8875 28.0562 17.5135 27.8992 17.15 27.72C16.8838 27.5845 16.5887 27.5159 16.29 27.52C15.7702 27.5221 15.2717 27.7266 14.9 28.09L13.53 29.51L11.53 27.51L12.95 26.09C13.2357 25.7965 13.4243 25.4224 13.4905 25.0182C13.5567 24.614 13.4971 24.1993 13.32 23.83C13.1371 23.4682 12.98 23.094 12.85 22.71C12.7088 22.332 12.4565 22.0055 12.1263 21.7735C11.7962 21.5415 11.4035 21.4148 11 21.41H9V18.59H11C11.4059 18.5837 11.8003 18.4541 12.1307 18.2183C12.4612 17.9825 12.712 17.6518 12.85 17.27C12.9838 16.8875 13.1408 16.5135 13.32 16.15C13.4949 15.7819 13.5532 15.3692 13.4871 14.9671C13.4209 14.565 13.2336 14.1927 12.95 13.9L11.53 12.53L13.53 10.53L14.95 11.95C15.2435 12.2357 15.6176 12.4243 16.0218 12.4905C16.426 12.5567 16.8407 12.4971 17.21 12.32C17.5718 12.1371 17.946 11.98 18.33 11.85C18.7006 11.7024 19.0185 11.4474 19.243 11.1178C19.4676 10.7881 19.5884 10.3989 19.59 10V8H22.45V10C22.4563 10.4059 22.5859 10.8003 22.8217 11.1307C23.0575 11.4612 23.3882 11.712 23.77 11.85C24.1525 11.9838 24.5265 12.1408 24.89 12.32C25.2581 12.4949 25.6708 12.5532 26.0729 12.4871C26.475 12.4209 26.8473 12.2336 27.14 11.95L28.51 10.53L30.51 12.53L29.09 13.9C28.8043 14.1935 28.6157 14.5676 28.5495 14.9718C28.4833 15.376 28.5429 15.7907 28.72 16.16C28.9029 16.5218 29.06 16.896 29.19 17.28C29.3271 17.6537 29.5726 17.978 29.895 18.2113C30.2175 18.4447 30.6022 18.5765 31 18.59H33V21.45H31C30.5941 21.4563 30.1997 21.5859 29.8693 21.8217C29.5388 22.0575 29.288 22.3882 29.15 22.77C29.0162 23.1525 28.8592 23.5265 28.68 23.89C28.5051 24.2581 28.4468 24.6708 28.5129 25.0729C28.5791 25.475 28.7664 25.8473 29.05 26.14L30.47 27.51L28.47 29.51L27.1 28.09C26.9316 27.9191 26.7311 27.7831 26.51 27.69C26.2481 27.5697 25.9632 27.5074 25.675 27.5074C25.3868 27.5074 25.1019 27.5697 24.84 27.69C24.4782 27.8729 24.104 28.03 23.72 28.16C23.3417 28.299 23.0142 28.549 22.7804 28.8774C22.5466 29.2057 22.4175 29.597 22.41 30V32H19.55V30C19.5389 29.6057 19.4115 29.2235 19.1837 28.9014C18.956 28.5794 18.6381 28.3318 18.27 28.19Z" fill="#083D66"/>
<path d="M27.7807 20.0002C27.7807 18.6593 27.3831 17.3484 26.6381 16.2335C25.8931 15.1185 24.8342 14.2495 23.5953 13.7363C22.3564 13.2232 20.9932 13.0889 19.678 13.3505C18.3628 13.6121 17.1547 14.2578 16.2065 15.206C15.2583 16.1542 14.6126 17.3623 14.351 18.6775C14.0894 19.9927 14.2236 21.3559 14.7368 22.5948C15.25 23.8337 16.119 24.8926 17.2339 25.6376C18.3489 26.3826 19.6597 26.7802 21.0007 26.7802C22.7981 26.7776 24.521 26.0624 25.792 24.7915C27.0629 23.5206 27.7781 21.7976 27.7807 20.0002ZM16.2207 20.0002C16.2207 19.0548 16.501 18.1307 17.0263 17.3446C17.5515 16.5585 18.298 15.9459 19.1715 15.5841C20.0449 15.2223 21.006 15.1276 21.9332 15.3121C22.8605 15.4965 23.7122 15.9518 24.3807 16.6202C25.0492 17.2887 25.5044 18.1405 25.6889 19.0677C25.8733 19.9949 25.7786 20.956 25.4168 21.8294C25.0551 22.7029 24.4424 23.4494 23.6563 23.9746C22.8703 24.4999 21.9461 24.7802 21.0007 24.7802C19.7338 24.7776 18.5195 24.2731 17.6237 23.3773C16.7278 22.4814 16.2233 21.2671 16.2207 20.0002Z" fill="#083D66"/>
<path d="M15 34H11C10.7348 34 10.4804 34.1054 10.2929 34.2929C10.1054 34.4804 10 34.7348 10 35C10 35.2652 10.1054 35.5196 10.2929 35.7071C10.4804 35.8946 10.7348 36 11 36H15C15.2652 36 15.5196 35.8946 15.7071 35.7071C15.8946 35.5196 16 35.2652 16 35C16 34.7348 15.8946 34.4804 15.7071 34.2929C15.5196 34.1054 15.2652 34 15 34Z" fill="#083D66"/>
<path d="M14.4501 38.17L11.4501 40.17C11.2728 40.2892 11.1382 40.462 11.0663 40.6632C10.9943 40.8644 10.9886 41.0833 11.0501 41.2879C11.1116 41.4925 11.237 41.6721 11.408 41.8002C11.5789 41.9284 11.7864 41.9984 12.0001 42C12.1967 42.0023 12.3891 41.9428 12.5501 41.83L15.5501 39.83C15.7441 39.6737 15.8728 39.4506 15.911 39.2044C15.9492 38.9582 15.894 38.7066 15.7564 38.4989C15.6187 38.2912 15.4085 38.1424 15.1669 38.0815C14.9253 38.0207 14.6697 38.0523 14.4501 38.17Z" fill="#083D66"/>
<path d="M18 40C17.7348 40 17.4804 40.1054 17.2929 40.2929C17.1054 40.4804 17 40.7348 17 41V44C17 44.2652 17.1054 44.5196 17.2929 44.7071C17.4804 44.8946 17.7348 45 18 45C18.2652 45 18.5196 44.8946 18.7071 44.7071C18.8946 44.5196 19 44.2652 19 44V41C19 40.7348 18.8946 40.4804 18.7071 40.2929C18.5196 40.1054 18.2652 40 18 40Z" fill="#083D66"/>
<path d="M59 33H55C54.7348 33 54.4804 33.1054 54.2929 33.2929C54.1054 33.4804 54 33.7348 54 34C54 34.2652 54.1054 34.5196 54.2929 34.7071C54.4804 34.8946 54.7348 35 55 35H59C59.2652 35 59.5196 34.8946 59.7071 34.7071C59.8946 34.5196 60 34.2652 60 34C60 33.7348 59.8946 33.4804 59.7071 33.2929C59.5196 33.1054 59.2652 33 59 33Z" fill="#083D66"/>
<path d="M55.5492 37.17C55.4408 37.0827 55.3154 37.019 55.1811 36.9829C55.0467 36.9468 54.9062 36.9392 54.7687 36.9605C54.6312 36.9818 54.4997 37.0316 54.3825 37.1066C54.2654 37.1817 54.1651 37.2804 54.0883 37.3963C54.0114 37.5123 53.9596 37.6431 53.9362 37.7802C53.9127 37.9174 53.9182 38.0579 53.9521 38.1929C53.9861 38.3278 54.0478 38.4541 54.1334 38.5638C54.219 38.6735 54.3266 38.7642 54.4492 38.83L57.4492 40.83C57.6102 40.9427 57.8026 41.0022 57.9992 41C58.2128 40.9983 58.4203 40.9283 58.5913 40.8001C58.7622 40.672 58.8876 40.4924 58.9491 40.2878C59.0106 40.0832 59.005 39.8643 58.933 39.6631C58.861 39.4619 58.7265 39.2891 58.5492 39.17L55.5492 37.17Z" fill="#083D66"/>
<path d="M52 39C51.7348 39 51.4804 39.1054 51.2929 39.2929C51.1054 39.4804 51 39.7348 51 40V43C51 43.2652 51.1054 43.5196 51.2929 43.7071C51.4804 43.8946 51.7348 44 52 44C52.2652 44 52.5196 43.8946 52.7071 43.7071C52.8946 43.5196 53 43.2652 53 43V40C53 39.7348 52.8946 39.4804 52.7071 39.2929C52.5196 39.1054 52.2652 39 52 39Z" fill="#083D66"/>
<path d="M34.2902 10.7102C34.3831 10.8039 34.4938 10.8783 34.6156 10.9291C34.7375 10.9798 34.8682 11.006 35.0002 11.006C35.1322 11.006 35.2629 10.9798 35.3848 10.9291C35.5066 10.8783 35.6172 10.8039 35.7102 10.7102C35.8039 10.6172 35.8783 10.5066 35.9291 10.3848C35.9798 10.2629 36.006 10.1322 36.006 10.0002C36.006 9.86817 35.9798 9.73747 35.9291 9.61561C35.8783 9.49375 35.8039 9.38315 35.7102 9.29019L33.7102 7.29019C33.6169 7.19695 33.5063 7.12299 33.3844 7.07253C33.2626 7.02207 33.132 6.99609 33.0002 6.99609C32.8683 6.99609 32.7378 7.02207 32.6159 7.07253C32.4941 7.12299 32.3834 7.19695 32.2902 7.29019C32.1969 7.38342 32.123 7.49411 32.0725 7.61594C32.0221 7.73776 31.9961 7.86833 31.9961 8.00019C31.9961 8.13204 32.0221 8.26261 32.0725 8.38444C32.123 8.50626 32.1969 8.61695 32.2902 8.71019L34.2902 10.7102Z" fill="#083D66"/>
<path d="M40.9999 11.0002C41.1315 11.0009 41.262 10.9757 41.3838 10.926C41.5057 10.8762 41.6165 10.8029 41.7099 10.7102L43.7099 8.71019C43.8032 8.61695 43.8771 8.50626 43.9276 8.38444C43.9781 8.26261 44.004 8.13204 44.004 8.00019C44.004 7.86833 43.9781 7.73776 43.9276 7.61594C43.8771 7.49411 43.8032 7.38342 43.7099 7.29019C43.6167 7.19695 43.506 7.12299 43.3842 7.07253C43.2624 7.02207 43.1318 6.99609 42.9999 6.99609C42.8681 6.99609 42.7375 7.02207 42.6157 7.07253C42.4939 7.12299 42.3832 7.19695 42.2899 7.29019L40.2899 9.29019C40.1962 9.38315 40.1218 9.49375 40.071 9.61561C40.0203 9.73747 39.9941 9.86817 39.9941 10.0002C39.9941 10.1322 40.0203 10.2629 40.071 10.3848C40.1218 10.5066 40.1962 10.6172 40.2899 10.7102C40.3834 10.8029 40.4942 10.8762 40.616 10.926C40.7379 10.9757 40.8683 11.0009 40.9999 11.0002Z" fill="#083D66"/>
<path d="M38 10C38.2652 10 38.5196 9.89464 38.7071 9.70711C38.8946 9.51957 39 9.26522 39 9V6C39 5.73478 38.8946 5.48043 38.7071 5.29289C38.5196 5.10536 38.2652 5 38 5C37.7348 5 37.4804 5.10536 37.2929 5.29289C37.1054 5.48043 37 5.73478 37 6V9C37 9.26522 37.1054 9.51957 37.2929 9.70711C37.4804 9.89464 37.7348 10 38 10Z" fill="#083D66"/>
</svg>
