<svg width="64" height="64" viewBox="0 0 64 64" fill="none" xmlns="http://www.w3.org/2000/svg">
<path d="M41.5006 53.6101C42.7091 53.6101 43.8904 53.2518 44.8952 52.5804C45.8999 51.909 46.6831 50.9548 47.1455 49.8383C47.608 48.7219 47.729 47.4934 47.4932 46.3081C47.2575 45.1229 46.6755 44.0342 45.821 43.1797C44.9665 42.3252 43.8779 41.7433 42.6926 41.5075C41.5074 41.2718 40.2789 41.3928 39.1624 41.8552C38.046 42.3177 37.0917 43.1008 36.4203 44.1056C35.749 45.1104 35.3906 46.2917 35.3906 47.5001C35.3933 49.1198 36.0379 50.6724 37.1831 51.8176C38.3284 52.9629 39.881 53.6075 41.5006 53.6101ZM41.5006 43.3901C42.3135 43.3901 43.1081 43.6312 43.784 44.0828C44.4599 44.5344 44.9867 45.1763 45.2978 45.9273C45.6088 46.6783 45.6902 47.5047 45.5317 48.302C45.3731 49.0992 44.9816 49.8316 44.4068 50.4063C43.832 50.9811 43.0997 51.3726 42.3024 51.5312C41.5052 51.6898 40.6788 51.6084 39.9278 51.2973C39.1768 50.9862 38.5349 50.4594 38.0833 49.7835C37.6317 49.1076 37.3906 48.313 37.3906 47.5001C37.3906 46.4101 37.8236 45.3647 38.5944 44.5939C39.3652 43.8232 40.4106 43.3901 41.5006 43.3901Z" fill="#083D66"/>
<path d="M57 13H46V12C46 11.2044 45.6839 10.4413 45.1213 9.87868C44.5587 9.31607 43.7956 9 43 9H38C38 7.67392 37.4732 6.40215 36.5355 5.46447C35.5979 4.52678 34.3261 4 33 4H9C7.67392 4 6.40215 4.52678 5.46447 5.46447C4.52678 6.40215 4 7.67392 4 9V23C4 24.3261 4.52678 25.5979 5.46447 26.5355C6.40215 27.4732 7.67392 28 9 28H15V48H11C9.14348 48 7.36301 48.7375 6.05025 50.0503C4.7375 51.363 4 53.1435 4 55C4 56.3261 4.52678 57.5979 5.46447 58.5355C6.40215 59.4732 7.67392 60 9 60H33C34.1035 59.9959 35.1747 59.6268 36.0465 58.9503C36.9184 58.2738 37.5419 57.3279 37.82 56.26C38 56.34 38.17 56.42 38.37 56.49V58.15C38.37 58.3929 38.4179 58.6335 38.5108 58.858C38.6038 59.0824 38.7401 59.2864 38.9119 59.4581C39.0836 59.6299 39.2876 59.7662 39.512 59.8592C39.7365 59.9521 39.9771 60 40.22 60H42.78C43.2706 60 43.7412 59.8051 44.0881 59.4581C44.4351 59.1112 44.63 58.6407 44.63 58.15V56.49C44.9717 56.3707 45.3056 56.2305 45.63 56.07L46.81 57.25C47.1584 57.5956 47.6292 57.7896 48.12 57.7896C48.6107 57.7896 49.0816 57.5956 49.43 57.25L51.24 55.44C51.5856 55.0916 51.7796 54.6208 51.7796 54.13C51.7796 53.6393 51.5856 53.1684 51.24 52.82L50.06 51.64C50.2187 51.3148 50.3589 50.981 50.48 50.64H52.14C52.3846 50.6413 52.6271 50.5941 52.8534 50.5011C53.0796 50.4081 53.2852 50.2712 53.4582 50.0982C53.6312 49.9252 53.7681 49.7196 53.8611 49.4934C53.9541 49.2671 54.0013 49.0246 54 48.78V46.22C54 45.7294 53.8051 45.2588 53.4581 44.9119C53.1112 44.5649 52.6407 44.37 52.15 44.37H50.49C50.3707 44.0283 50.2305 43.6944 50.07 43.37L51.25 42.19C51.5956 41.8416 51.7896 41.3708 51.7896 40.88C51.7896 40.3893 51.5956 39.9184 51.25 39.57L49.44 37.76C49.0916 37.4144 48.6208 37.2204 48.13 37.2204C47.6393 37.2204 47.1684 37.4144 46.82 37.76L45.64 38.94C45.3148 38.7813 44.981 38.6411 44.64 38.52V36.85C44.64 36.6062 44.5918 36.3648 44.4982 36.1397C44.4046 35.9146 44.2675 35.7102 44.0946 35.5383C43.9218 35.3664 43.7166 35.2303 43.491 35.1379C43.2654 35.0456 43.0238 34.9987 42.78 35H40.22C39.7294 35 39.2588 35.1949 38.9119 35.5419C38.5649 35.8888 38.37 36.3593 38.37 36.85V38.51C38.0283 38.6293 37.6944 38.7695 37.37 38.93L36.19 37.75C35.8416 37.4044 35.3708 37.2104 34.88 37.2104C34.3893 37.2104 33.9184 37.4044 33.57 37.75L31.76 39.56C31.4144 39.9084 31.2204 40.3792 31.2204 40.87C31.2204 41.3607 31.4144 41.8316 31.76 42.18L32.94 43.36C32.7813 43.6852 32.6411 44.019 32.52 44.36H30.85C30.6062 44.36 30.3648 44.4082 30.1397 44.5018C29.9146 44.5954 29.7102 44.7325 29.5383 44.9054C29.3664 45.0782 29.2303 45.2834 29.1379 45.509C29.0456 45.7346 28.9987 45.9762 29 46.22V48H27V40H28C28.7956 40 29.5587 39.6839 30.1213 39.1213C30.6839 38.5587 31 37.7956 31 37V33C31 32.2044 30.6839 31.4413 30.1213 30.8787C29.5587 30.3161 28.7956 30 28 30H27V28H33C34.3261 28 35.5979 27.4732 36.5355 26.5355C37.4732 25.5979 38 24.3261 38 23H43C43.7956 23 44.5587 22.6839 45.1213 22.1213C45.6839 21.5587 46 20.7956 46 20V19H57C57.7956 19 58.5587 18.6839 59.1213 18.1213C59.6839 17.5587 60 16.7956 60 16C60 15.2044 59.6839 14.4413 59.1213 13.8787C58.5587 13.3161 57.7956 13 57 13ZM33 58H9C8.20435 58 7.44129 57.6839 6.87868 57.1213C6.31607 56.5587 6 55.7956 6 55C6 53.6739 6.52678 52.4021 7.46447 51.4645C8.40215 50.5268 9.67392 50 11 50H29.46C29.5443 50.0996 29.6419 50.1871 29.75 50.26C29.8892 50.3563 30.0405 50.4336 30.2 50.49H30.33C30.4979 50.5458 30.6731 50.5762 30.85 50.58H32.51C32.6293 50.9217 32.7695 51.2556 32.93 51.58L31.75 52.76C31.6649 52.8497 31.5879 52.9467 31.52 53.05L31.47 53.14C31.4261 53.2146 31.386 53.2913 31.35 53.37C31.35 53.37 31.35 53.47 31.3 53.52C31.2799 53.5824 31.2632 53.6458 31.25 53.71C31.2001 53.9474 31.2001 54.1926 31.25 54.43C31.262 54.4945 31.2787 54.558 31.3 54.62C31.3 54.62 31.3 54.72 31.35 54.77C31.386 54.8487 31.4261 54.9254 31.47 55L31.52 55.09C31.5879 55.1933 31.6649 55.2903 31.75 55.38L33.56 57.19C33.6572 57.2848 33.7645 57.3687 33.88 57.44L34.01 57.5C34.084 57.5485 34.1649 57.5856 34.25 57.61H34.31C33.9092 57.8391 33.4609 57.9725 33 58ZM31 46.37H32.62C33.0049 46.3671 33.3795 46.2454 33.6927 46.0217C34.0059 45.798 34.2424 45.4831 34.37 45.12C34.4764 44.7765 34.6102 44.4421 34.77 44.12C34.9379 43.7745 34.9954 43.3857 34.9346 43.0063C34.8737 42.627 34.6976 42.2757 34.43 42L33.27 40.85L34.87 39.25L36 40.43C36.2788 40.6993 36.6336 40.8763 37.0164 40.9371C37.3992 40.9979 37.7915 40.9396 38.14 40.77C38.4621 40.6074 38.7965 40.4703 39.14 40.36C39.5013 40.2338 39.8145 39.9987 40.0366 39.6871C40.2587 39.3755 40.3786 39.0027 40.38 38.62V37H42.64V38.62C42.6429 39.0049 42.7646 39.3795 42.9883 39.6927C43.212 40.0059 43.5269 40.2424 43.89 40.37C44.2335 40.4764 44.5679 40.6102 44.89 40.77C45.2343 40.9357 45.6211 40.9919 45.9984 40.9311C46.3756 40.8703 46.7252 40.6955 47 40.43L48.15 39.27L49.75 40.87L48.57 42C48.3007 42.2788 48.1237 42.6336 48.0629 43.0164C48.0021 43.3992 48.0604 43.7915 48.23 44.14C48.3926 44.4621 48.5297 44.7965 48.64 45.14C48.7662 45.5013 49.0013 45.8145 49.3129 46.0366C49.6245 46.2587 49.9973 46.3786 50.38 46.38H52V48.64H50.38C49.9951 48.6429 49.6205 48.7646 49.3073 48.9883C48.9941 49.212 48.7576 49.5269 48.63 49.89C48.5236 50.2335 48.3898 50.5679 48.23 50.89C48.0643 51.2343 48.0081 51.6211 48.0689 51.9984C48.1297 52.3756 48.3045 52.7252 48.57 53L49.73 54.15L48.13 55.75L47 54.57C46.7212 54.3007 46.3664 54.1237 45.9836 54.0629C45.6008 54.0021 45.2085 54.0604 44.86 54.23C44.5379 54.3926 44.2035 54.5297 43.86 54.64C43.4987 54.7662 43.1855 55.0013 42.9634 55.3129C42.7413 55.6245 42.6214 55.9973 42.62 56.38V58H40.37V56.38C40.3671 55.9951 40.2454 55.6205 40.0217 55.3073C39.798 54.9941 39.4831 54.7576 39.12 54.63C38.7765 54.5236 38.4421 54.3898 38.12 54.23C37.8808 54.1169 37.6196 54.0583 37.355 54.0583C37.0904 54.0583 36.8292 54.1169 36.59 54.23C36.3682 54.3229 36.1649 54.455 35.99 54.62L34.84 55.78L33.24 54.18L34.43 53C34.6993 52.7212 34.8763 52.3664 34.9371 51.9836C34.9979 51.6008 34.9396 51.2085 34.77 50.86C34.6074 50.5379 34.4703 50.2035 34.36 49.86C34.2338 49.4987 33.9987 49.1855 33.6871 48.9634C33.3755 48.7413 33.0027 48.6214 32.62 48.62H31V46.37ZM28 32C28.2652 32 28.5196 32.1054 28.7071 32.2929C28.8946 32.4804 29 32.7348 29 33V37C29 37.2652 28.8946 37.5196 28.7071 37.7071C28.5196 37.8946 28.2652 38 28 38H27V32H28ZM25 31V48H17V28H25V31ZM36 23C36 23.7956 35.6839 24.5587 35.1213 25.1213C34.5587 25.6839 33.7956 26 33 26H9C8.20435 26 7.44129 25.6839 6.87868 25.1213C6.31607 24.5587 6 23.7956 6 23V9C6.00174 8.38106 6.19488 7.7778 6.55294 7.27293C6.911 6.76807 7.41645 6.38631 8 6.18V13C8 13.2652 8.10536 13.5196 8.29289 13.7071C8.48043 13.8946 8.73478 14 9 14C9.26522 14 9.51957 13.8946 9.70711 13.7071C9.89464 13.5196 10 13.2652 10 13V6H12V13C12 13.2652 12.1054 13.5196 12.2929 13.7071C12.4804 13.8946 12.7348 14 13 14C13.2652 14 13.5196 13.8946 13.7071 13.7071C13.8946 13.5196 14 13.2652 14 13V6H16V13C16 13.2652 16.1054 13.5196 16.2929 13.7071C16.4804 13.8946 16.7348 14 17 14C17.2652 14 17.5196 13.8946 17.7071 13.7071C17.8946 13.5196 18 13.2652 18 13V6H33C33.7956 6 34.5587 6.31607 35.1213 6.87868C35.6839 7.44129 36 8.20435 36 9V23ZM44 20C44 20.2652 43.8946 20.5196 43.7071 20.7071C43.5196 20.8946 43.2652 21 43 21H38V11H43C43.2652 11 43.5196 11.1054 43.7071 11.2929C43.8946 11.4804 44 11.7348 44 12V20ZM57 17H46V15H57C57.2652 15 57.5196 15.1054 57.7071 15.2929C57.8946 15.4804 58 15.7348 58 16C58 16.2652 57.8946 16.5196 57.7071 16.7071C57.5196 16.8946 57.2652 17 57 17Z" fill="#083D66"/>
</svg>
