<svg width="64" height="64" viewBox="0 0 64 64" fill="none" xmlns="http://www.w3.org/2000/svg">
<path d="M57 28H54.45C54.2175 28.0052 53.9904 27.9291 53.8079 27.7849C53.6253 27.6407 53.4988 27.4374 53.45 27.21C53.32 26.6 53.16 25.99 52.97 25.39C52.897 25.1727 52.9008 24.9369 52.9809 24.722C53.061 24.5072 53.2125 24.3264 53.41 24.21L55.62 22.94C56.3082 22.5408 56.8097 21.8846 57.0141 21.1157C57.2185 20.3468 57.1091 19.5282 56.71 18.84L55.71 17.11C55.3142 16.4238 54.6632 15.922 53.8988 15.714C53.1344 15.5061 52.3189 15.6089 51.63 16L49.42 17.27C49.2237 17.382 48.9952 17.4242 48.7718 17.3897C48.5485 17.3552 48.3434 17.246 48.19 17.08C47.69 16.54 47.16 16.02 46.6 15.52C46.4307 15.3691 46.3178 15.1653 46.2796 14.9418C46.2415 14.7183 46.2804 14.4885 46.39 14.29L47.63 12.05C48.0068 11.3567 48.0953 10.5429 47.8763 9.78486C47.6573 9.02681 47.1484 8.38555 46.46 8L44.7 7C44.3553 6.80876 43.9763 6.68732 43.5847 6.64262C43.1931 6.59792 42.7964 6.63084 42.4175 6.7395C42.0386 6.84815 41.6849 7.03042 41.3764 7.27587C41.068 7.52133 40.8109 7.82516 40.62 8.17L39.39 10.4C39.2814 10.5963 39.1099 10.7503 38.9031 10.8374C38.6964 10.9245 38.4663 10.9395 38.25 10.88C37.76 10.73 37.25 10.61 36.77 10.5C36.5463 10.4472 36.3476 10.319 36.2073 10.1368C36.0671 9.95468 35.9939 9.72979 36 9.5V7C36 6.20435 35.6839 5.44129 35.1213 4.87868C34.5587 4.31607 33.7956 4 33 4H31C30.2044 4 29.4413 4.31607 28.8787 4.87868C28.3161 5.44129 28 6.20435 28 7V9.55C28.0047 9.78395 27.9272 10.0121 27.7811 10.1949C27.6349 10.3776 27.4293 10.5032 27.2 10.55C26.6 10.68 25.98 10.84 25.39 11.03C25.1727 11.103 24.9369 11.0992 24.722 11.0191C24.5072 10.939 24.3264 10.7875 24.21 10.59L22.94 8.36C22.5408 7.6718 21.8846 7.17034 21.1157 6.96593C20.3468 6.76151 19.5282 6.87089 18.84 7.27L17.11 8.27C16.7676 8.46599 16.4672 8.7276 16.226 9.03986C15.9848 9.35212 15.8076 9.70889 15.7045 10.0897C15.6014 10.4706 15.5744 10.868 15.6251 11.2593C15.6758 11.6506 15.8032 12.028 16 12.37L17.27 14.58C17.382 14.7763 17.4242 15.0048 17.3897 15.2282C17.3552 15.4515 17.246 15.6566 17.08 15.81C16.5326 16.3124 16.0119 16.8432 15.52 17.4C15.3691 17.5693 15.1653 17.6822 14.9418 17.7204C14.7183 17.7585 14.4885 17.7196 14.29 17.61L12.05 16.37C11.3567 15.9932 10.5429 15.9047 9.78486 16.1237C9.02681 16.3427 8.38555 16.8516 8 17.54L7 19.3C6.61693 19.9952 6.52497 20.8138 6.74427 21.5767C6.96356 22.3395 7.47623 22.9844 8.17 23.37L10.41 24.61C10.6045 24.7202 10.7564 24.8923 10.8416 25.0989C10.9268 25.3056 10.9403 25.5348 10.88 25.75C10.73 26.24 10.61 26.75 10.5 27.23C10.4472 27.4537 10.319 27.6524 10.1368 27.7927C9.95468 27.9329 9.72979 28.0061 9.5 28H7C6.20435 28 5.44129 28.3161 4.87868 28.8787C4.31607 29.4413 4 30.2044 4 31V33C4 33.7956 4.31607 34.5587 4.87868 35.1213C5.44129 35.6839 6.20435 36 7 36H9.55C9.78395 35.9953 10.0121 36.0728 10.1949 36.2189C10.3776 36.3651 10.5032 36.5707 10.55 36.8C10.68 37.4 10.84 38.02 11.03 38.61C11.103 38.8273 11.0992 39.0631 11.0191 39.278C10.939 39.4928 10.7875 39.6736 10.59 39.79L8.36 41.06C7.6718 41.4592 7.17034 42.1154 6.96593 42.8843C6.76151 43.6532 6.87089 44.4718 7.27 45.16L8.27 46.89C8.46599 47.2324 8.7276 47.5328 9.03986 47.774C9.35212 48.0152 9.70889 48.1924 10.0897 48.2955C10.4706 48.3987 10.868 48.4256 11.2593 48.3749C11.6506 48.3242 12.028 48.1968 12.37 48L14.58 46.73C14.7763 46.618 15.0048 46.5758 15.2282 46.6103C15.4515 46.6448 15.6566 46.754 15.81 46.92C16.31 47.46 16.81 47.99 17.4 48.48C17.5693 48.6309 17.6822 48.8347 17.7204 49.0582C17.7585 49.2817 17.7196 49.5115 17.61 49.71L16.37 51.95C15.9932 52.6433 15.9047 53.4571 16.1237 54.2151C16.3427 54.9732 16.8516 55.6144 17.54 56L19.3 57C19.9952 57.3831 20.8138 57.475 21.5767 57.2557C22.3395 57.0364 22.9844 56.5238 23.37 55.83L24.61 53.59C24.7202 53.3955 24.8923 53.2436 25.0989 53.1584C25.3056 53.0732 25.5348 53.0597 25.75 53.12C26.24 53.27 26.75 53.39 27.23 53.5C27.4537 53.5528 27.6524 53.681 27.7927 53.8632C27.9329 54.0453 28.0061 54.2702 28 54.5V57C28 57.7956 28.3161 58.5587 28.8787 59.1213C29.4413 59.6839 30.2044 60 31 60H33C33.7956 60 34.5587 59.6839 35.1213 59.1213C35.6839 58.5587 36 57.7956 36 57V54.45C35.9953 54.2161 36.0728 53.9879 36.2189 53.8051C36.3651 53.6224 36.5707 53.4968 36.8 53.45C37.4105 53.3305 38.0146 53.1803 38.61 53C38.8273 52.927 39.0631 52.9308 39.278 53.0109C39.4928 53.091 39.6736 53.2425 39.79 53.44L41.06 55.65C41.4592 56.3382 42.1154 56.8397 42.8843 57.0441C43.6532 57.2485 44.4718 57.1391 45.16 56.74L46.89 55.74C47.2338 55.544 47.5354 55.2819 47.7774 54.9689C48.0195 54.6559 48.1972 54.298 48.3004 53.916C48.4035 53.534 48.4301 53.1353 48.3786 52.743C48.327 52.3507 48.1984 51.9724 48 51.63L46.73 49.42C46.618 49.2237 46.5758 48.9952 46.6103 48.7718C46.6448 48.5485 46.754 48.3434 46.92 48.19C47.4674 47.6876 47.9881 47.1568 48.48 46.6C48.6309 46.4307 48.8347 46.3178 49.0582 46.2796C49.2817 46.2415 49.5115 46.2804 49.71 46.39L51.95 47.63C52.6433 48.0068 53.4571 48.0953 54.2151 47.8763C54.9732 47.6573 55.6144 47.1484 56 46.46L57 44.7C57.3831 44.0048 57.475 43.1862 57.2557 42.4233C57.0364 41.6605 56.5238 41.0156 55.83 40.63L53.59 39.39C53.3955 39.2798 53.2436 39.1077 53.1584 38.9011C53.0732 38.6944 53.0597 38.4652 53.12 38.25C53.27 37.76 53.39 37.25 53.5 36.77C53.5528 36.5463 53.681 36.3476 53.8632 36.2073C54.0453 36.0671 54.2702 35.9939 54.5 36H57C57.7956 36 58.5587 35.6839 59.1213 35.1213C59.6839 34.5587 60 33.7956 60 33V31C60 30.2044 59.6839 29.4413 59.1213 28.8787C58.5587 28.3161 57.7956 28 57 28ZM58 33C58 33.2652 57.8946 33.5196 57.7071 33.7071C57.5196 33.8946 57.2652 34 57 34H54.45C53.7688 34.002 53.1085 34.2358 52.5778 34.6629C52.0471 35.09 51.6776 35.685 51.53 36.35C51.43 36.8 51.31 37.24 51.19 37.68C50.9999 38.3323 51.0369 39.0298 51.2948 39.6584C51.5528 40.2869 52.0165 40.8093 52.61 41.14L54.84 42.38C55.0695 42.5085 55.2391 42.7223 55.3121 42.975C55.3851 43.2276 55.3556 43.4989 55.23 43.73L54.23 45.49C54.1015 45.7195 53.8877 45.8891 53.635 45.9621C53.3824 46.0351 53.1111 46.0056 52.88 45.88L50.63 44.64C50.0346 44.3112 49.3451 44.1944 48.6747 44.3089C48.0042 44.4233 47.3926 44.7622 46.94 45.27C46.4974 45.7825 46.0232 46.2668 45.52 46.72C45.0252 47.1876 44.7042 47.8097 44.6097 48.4839C44.5152 49.1581 44.6529 49.8444 45 50.43L46.27 52.63C46.3357 52.7447 46.378 52.8714 46.3945 53.0025C46.4109 53.1337 46.4012 53.2669 46.3659 53.3943C46.3305 53.5217 46.2703 53.6408 46.1886 53.7448C46.1069 53.8488 46.0054 53.9355 45.89 54L44.16 55C44.0465 55.0665 43.9209 55.11 43.7905 55.1279C43.6602 55.1458 43.5275 55.1378 43.4003 55.1044C43.273 55.0709 43.1536 55.0127 43.0489 54.933C42.9441 54.8533 42.8562 54.7538 42.79 54.64L41.52 52.43C41.1761 51.8364 40.6391 51.3787 39.9985 51.133C39.358 50.8874 38.6526 50.8686 38 51.08C37.46 51.25 36.91 51.4 36.36 51.52C35.6914 51.666 35.0929 52.0362 34.6636 52.5691C34.2344 53.102 34.0002 53.7657 34 54.45V57C34 57.2652 33.8946 57.5196 33.7071 57.7071C33.5196 57.8946 33.2652 58 33 58H31C30.7348 58 30.4804 57.8946 30.2929 57.7071C30.1054 57.5196 30 57.2652 30 57V54.45C29.998 53.7688 29.7642 53.1085 29.3371 52.5778C28.91 52.0471 28.315 51.6776 27.65 51.53C27.2 51.43 26.76 51.31 26.32 51.19C26.0417 51.1029 25.7516 51.0591 25.46 51.06C24.9291 51.0637 24.4087 51.2082 23.9519 51.4787C23.4952 51.7493 23.1184 52.1362 22.86 52.6L21.62 54.84C21.4922 55.0677 21.2805 55.2364 21.03 55.31C20.7761 55.385 20.5028 55.3562 20.27 55.23L18.51 54.23C18.2805 54.1015 18.1109 53.8877 18.0379 53.635C17.9649 53.3824 17.9944 53.1111 18.12 52.88L19.36 50.63C19.6725 50.04 19.7792 49.3626 19.6632 48.7051C19.5473 48.0476 19.2154 47.4476 18.72 47C18.2155 46.5522 17.7348 46.0782 17.28 45.58C16.8199 45.0756 16.2015 44.7432 15.527 44.6378C14.8524 44.5323 14.1621 44.6601 13.57 45L11.37 46.27C11.2553 46.3357 11.1286 46.378 10.9975 46.3945C10.8663 46.4109 10.7331 46.4012 10.6057 46.3659C10.4783 46.3305 10.3592 46.2703 10.2552 46.1886C10.1512 46.1069 10.0645 46.0054 10 45.89L9 44.16C8.93347 44.0465 8.89 43.9209 8.87209 43.7905C8.85417 43.6602 8.86217 43.5275 8.89561 43.4003C8.92906 43.273 8.98729 43.1536 9.06698 43.0489C9.14667 42.9441 9.24625 42.8562 9.36 42.79L11.57 41.52C12.1636 41.1761 12.6213 40.6391 12.867 39.9985C13.1126 39.358 13.1314 38.6526 12.92 38C12.75 37.46 12.6 36.91 12.48 36.35C12.332 35.6833 11.961 35.087 11.4283 34.6597C10.8955 34.2324 10.2329 33.9997 9.55 34H7C6.73478 34 6.48043 33.8946 6.29289 33.7071C6.10536 33.5196 6 33.2652 6 33V31C6 30.7348 6.10536 30.4804 6.29289 30.2929C6.48043 30.1054 6.73478 30 7 30H9.55C10.2312 29.998 10.8915 29.7642 11.4222 29.3371C11.9529 28.91 12.3224 28.315 12.47 27.65C12.57 27.2 12.69 26.76 12.81 26.32C13.0009 25.6688 12.9655 24.9721 12.7094 24.3437C12.4533 23.7153 11.9917 23.1922 11.4 22.86L9.16 21.62C8.93052 21.4915 8.76091 21.2777 8.68791 21.025C8.61492 20.7724 8.64441 20.5011 8.77 20.27L9.77 18.51C9.89852 18.2805 10.1123 18.1109 10.365 18.0379C10.6176 17.9649 10.8889 17.9944 11.12 18.12L13.37 19.36C13.96 19.6725 14.6374 19.7792 15.2949 19.6632C15.9524 19.5473 16.5524 19.2154 17 18.72C17.4452 18.2131 17.9194 17.7323 18.42 17.28C18.9244 16.8199 19.2568 16.2015 19.3622 15.527C19.4677 14.8524 19.3399 14.1621 19 13.57L17.73 11.37C17.6643 11.2553 17.622 11.1286 17.6055 10.9975C17.5891 10.8663 17.5988 10.7331 17.6341 10.6057C17.6695 10.4783 17.7297 10.3592 17.8114 10.2552C17.8931 10.1512 17.9946 10.0645 18.11 10L19.84 9C19.9535 8.93347 20.0791 8.89 20.2095 8.87209C20.3398 8.85417 20.4725 8.86217 20.5997 8.89561C20.727 8.92906 20.8464 8.98729 20.9511 9.06698C21.0559 9.14667 21.1438 9.24625 21.21 9.36L22.48 11.57C22.8239 12.1636 23.3609 12.6213 24.0015 12.867C24.642 13.1126 25.3474 13.1314 26 12.92C26.54 12.75 27.09 12.6 27.65 12.48C28.3167 12.332 28.913 11.961 29.3403 11.4283C29.7676 10.8955 30.0003 10.2329 30 9.55V7C30 6.73478 30.1054 6.48043 30.2929 6.29289C30.4804 6.10536 30.7348 6 31 6H33C33.2652 6 33.5196 6.10536 33.7071 6.29289C33.8946 6.48043 34 6.73478 34 7V9.55C34.002 10.2312 34.2358 10.8915 34.6629 11.4222C35.09 11.9529 35.685 12.3224 36.35 12.47C36.8 12.57 37.24 12.69 37.68 12.81C38.3312 13.0009 39.0279 12.9655 39.6563 12.7094C40.2847 12.4533 40.8078 11.9917 41.14 11.4L42.37 9.16C42.4336 9.04505 42.5193 8.94378 42.6221 8.86196C42.7249 8.78014 42.8429 8.71938 42.9692 8.68317C43.0955 8.64695 43.2277 8.63597 43.3582 8.65087C43.4888 8.66577 43.6151 8.70625 43.73 8.77L45.49 9.77C45.7195 9.89852 45.8891 10.1123 45.9621 10.365C46.0351 10.6176 46.0056 10.8889 45.88 11.12L44.64 13.37C44.3275 13.96 44.2208 14.6374 44.3368 15.2949C44.4527 15.9524 44.7846 16.5524 45.28 17C45.7845 17.4478 46.2652 17.9218 46.72 18.42C47.1826 18.9212 47.8022 19.2498 48.4767 19.3516C49.1511 19.4534 49.8401 19.3223 50.43 18.98L52.63 17.71C52.7435 17.6435 52.8691 17.6 52.9995 17.5821C53.1298 17.5642 53.2625 17.5722 53.3897 17.6056C53.517 17.6391 53.6364 17.6973 53.7411 17.777C53.8459 17.8567 53.9338 17.9562 54 18.07L55 19.8C55.0658 19.9139 55.1086 20.0396 55.1257 20.17C55.1429 20.3005 55.1341 20.433 55.1 20.56C55.0659 20.6877 55.0067 20.8074 54.9261 20.9121C54.8454 21.0168 54.7448 21.1044 54.63 21.17L52.43 22.44C51.8278 22.7855 51.3641 23.3292 51.1179 23.9784C50.8717 24.6276 50.8583 25.3421 51.08 26C51.25 26.54 51.4 27.1 51.52 27.65C51.668 28.3167 52.039 28.913 52.5717 29.3403C53.1045 29.7676 53.7671 30.0003 54.45 30H57C57.2652 30 57.5196 30.1054 57.7071 30.2929C57.8946 30.4804 58 30.7348 58 31V33Z" fill="#083D66"/>
<path d="M32 14C28.4399 14 24.9598 15.0557 21.9997 17.0335C19.0397 19.0114 16.7326 21.8226 15.3702 25.1117C14.0078 28.4008 13.6513 32.02 14.3459 35.5116C15.0404 39.0033 16.7547 42.2106 19.2721 44.7279C21.7894 47.2453 24.9967 48.9596 28.4884 49.6541C31.98 50.3487 35.5992 49.9922 38.8883 48.6298C42.1774 47.2675 44.9886 44.9603 46.9665 42.0003C48.9443 39.0402 50 35.5601 50 32C50 27.2261 48.1036 22.6477 44.7279 19.2721C41.3523 15.8964 36.7739 14 32 14ZM32 48C28.8355 48 25.7421 47.0616 23.1109 45.3035C20.4797 43.5454 18.4289 41.0466 17.2179 38.1229C16.0069 35.1993 15.6901 31.9823 16.3074 28.8786C16.9248 25.7749 18.4487 22.9239 20.6863 20.6863C22.9239 18.4487 25.7749 16.9248 28.8786 16.3074C31.9823 15.6901 35.1993 16.0069 38.1229 17.2179C41.0466 18.4289 43.5454 20.4797 45.3035 23.1109C47.0616 25.7421 48 28.8355 48 32C48 36.2435 46.3143 40.3131 43.3137 43.3137C40.3131 46.3143 36.2435 48 32 48Z" fill="#083D66"/>
<path d="M32 28C31.2089 28 30.4355 28.2346 29.7777 28.6741C29.1199 29.1136 28.6072 29.7384 28.3045 30.4693C28.0017 31.2002 27.9225 32.0044 28.0769 32.7804C28.2312 33.5563 28.6122 34.269 29.1716 34.8284C29.731 35.3878 30.4437 35.7688 31.2196 35.9231C31.9956 36.0775 32.7998 35.9983 33.5307 35.6955C34.2616 35.3928 34.8864 34.8801 35.3259 34.2223C35.7654 33.5645 36 32.7911 36 32C36 30.9391 35.5786 29.9217 34.8284 29.1716C34.0783 28.4214 33.0609 28 32 28ZM32 34C31.6044 34 31.2178 33.8827 30.8889 33.6629C30.56 33.4432 30.3036 33.1308 30.1522 32.7654C30.0009 32.3999 29.9613 31.9978 30.0384 31.6098C30.1156 31.2219 30.3061 30.8655 30.5858 30.5858C30.8655 30.3061 31.2219 30.1156 31.6098 30.0384C31.9978 29.9613 32.3999 30.0009 32.7654 30.1522C33.1308 30.3036 33.4432 30.56 33.6629 30.8889C33.8827 31.2178 34 31.6044 34 32C34 32.5304 33.7893 33.0391 33.4142 33.4142C33.0391 33.7893 32.5304 34 32 34Z" fill="#083D66"/>
<path d="M41.55 28.05C41.67 27.95 41.79 27.87 41.9 27.76C42.2719 27.3885 42.5669 26.9474 42.7682 26.4618C42.9695 25.9762 43.0731 25.4557 43.0731 24.93C43.0731 24.4043 42.9695 23.8838 42.7682 23.3982C42.5669 22.9126 42.2719 22.4715 41.9 22.1C41.5285 21.7281 41.0874 21.4331 40.6018 21.2318C40.1162 21.0305 39.5957 20.9269 39.07 20.9269C38.5443 20.9269 38.0238 21.0305 37.5382 21.2318C37.0526 21.4331 36.6115 21.7281 36.24 22.1C36.13 22.21 36.05 22.33 35.95 22.45C35.9765 22.3013 35.9932 22.1509 36 22C36 20.9391 35.5786 19.9217 34.8284 19.1716C34.0783 18.4214 33.0609 18 32 18C30.9391 18 29.9217 18.4214 29.1716 19.1716C28.4214 19.9217 28 20.9391 28 22C28.0062 22.151 28.0229 22.3013 28.05 22.45C27.95 22.34 27.87 22.21 27.76 22.1C27.3884 21.7284 26.9472 21.4336 26.4616 21.2324C25.976 21.0313 25.4556 20.9278 24.93 20.9278C24.4044 20.9278 23.884 21.0313 23.3984 21.2324C22.9128 21.4336 22.4716 21.7284 22.1 22.1C21.7284 22.4716 21.4336 22.9128 21.2324 23.3984C21.0313 23.884 20.9278 24.4044 20.9278 24.93C20.9278 25.4556 21.0313 25.976 21.2324 26.4616C21.4336 26.9472 21.7284 27.3884 22.1 27.76C22.21 27.87 22.34 27.95 22.45 28.05C22.3013 28.0229 22.151 28.0062 22 28C20.9391 28 19.9217 28.4214 19.1716 29.1716C18.4214 29.9217 18 30.9391 18 32C18 33.0609 18.4214 34.0783 19.1716 34.8284C19.9217 35.5786 20.9391 36 22 36C22.1498 36.0104 22.3002 36.0104 22.45 36C22.34 36.1 22.21 36.18 22.1 36.29C21.3494 37.0406 20.9278 38.0585 20.9278 39.12C20.9278 40.1815 21.3494 41.1994 22.1 41.95C22.8506 42.7006 23.8685 43.1222 24.93 43.1222C25.9915 43.1222 27.0094 42.7006 27.76 41.95C27.87 41.84 27.95 41.71 28.05 41.6C28.0251 41.7322 28.0084 41.8658 28 42C28 43.0609 28.4214 44.0783 29.1716 44.8284C29.9217 45.5786 30.9391 46 32 46C33.0609 46 34.0783 45.5786 34.8284 44.8284C35.5786 44.0783 36 43.0609 36 42C36.0098 41.8502 36.0098 41.6998 36 41.55C36.1 41.67 36.18 41.79 36.29 41.9C36.6615 42.2719 37.1026 42.5669 37.5882 42.7682C38.0738 42.9695 38.5943 43.0731 39.12 43.0731C39.6457 43.0731 40.1662 42.9695 40.6518 42.7682C41.1374 42.5669 41.5785 42.2719 41.95 41.9C42.3219 41.5285 42.6169 41.0874 42.8182 40.6018C43.0195 40.1162 43.1231 39.5957 43.1231 39.07C43.1231 38.5443 43.0195 38.0238 42.8182 37.5382C42.6169 37.0526 42.3219 36.6115 41.95 36.24C41.84 36.13 41.71 36.05 41.59 35.95C41.7255 35.9749 41.8624 35.9916 42 36C43.0609 36 44.0783 35.5786 44.8284 34.8284C45.5786 34.0783 46 33.0609 46 32C46 30.9391 45.5786 29.9217 44.8284 29.1716C44.0783 28.4214 43.0609 28 42 28C41.8491 28.0068 41.6987 28.0235 41.55 28.05ZM37.66 23.51C38.0353 23.1347 38.5443 22.9239 39.075 22.9239C39.6057 22.9239 40.1147 23.1347 40.49 23.51C40.8653 23.8853 41.0761 24.3943 41.0761 24.925C41.0761 25.4557 40.8653 25.9647 40.49 26.34C40.3043 26.526 40.0837 26.6735 39.8409 26.7741C39.5981 26.8748 39.3378 26.9266 39.075 26.9266C38.8122 26.9266 38.5519 26.8748 38.3091 26.7741C38.0663 26.6735 37.8457 26.526 37.66 26.34C37.2844 25.9666 37.0722 25.4596 37.07 24.93C37.0698 24.6661 37.1218 24.4047 37.2231 24.161C37.3243 23.9173 37.4728 23.6961 37.66 23.51ZM32 20C32.3956 20 32.7822 20.1173 33.1111 20.3371C33.44 20.5568 33.6964 20.8692 33.8478 21.2346C33.9991 21.6001 34.0387 22.0022 33.9616 22.3902C33.8844 22.7781 33.6939 23.1345 33.4142 23.4142C33.1345 23.6939 32.7781 23.8844 32.3902 23.9616C32.0022 24.0387 31.6001 23.9991 31.2346 23.8478C30.8692 23.6964 30.5568 23.44 30.3371 23.1111C30.1173 22.7822 30 22.3956 30 22C30 21.4696 30.2107 20.9609 30.5858 20.5858C30.9609 20.2107 31.4696 20 32 20ZM23.51 23.51C23.6969 23.3246 23.9185 23.178 24.1622 23.0785C24.4059 22.9789 24.6668 22.9285 24.93 22.93C25.4581 22.9296 25.965 23.1381 26.34 23.51C26.6195 23.7898 26.8097 24.1462 26.8867 24.5341C26.9637 24.922 26.924 25.324 26.7725 25.6893C26.6211 26.0546 26.3648 26.3669 26.0359 26.5865C25.7071 26.8062 25.3205 26.9234 24.925 26.9234C24.5295 26.9234 24.1429 26.8062 23.8141 26.5865C23.4852 26.3669 23.2289 26.0546 23.0775 25.6893C22.926 25.324 22.8863 24.922 22.9633 24.5341C23.0403 24.1462 23.2305 23.7898 23.51 23.51ZM20 32C20 31.6044 20.1173 31.2178 20.3371 30.8889C20.5568 30.56 20.8692 30.3036 21.2346 30.1522C21.6001 30.0009 22.0022 29.9613 22.3902 30.0384C22.7781 30.1156 23.1345 30.3061 23.4142 30.5858C23.6939 30.8655 23.8844 31.2219 23.9616 31.6098C24.0387 31.9978 23.9991 32.3999 23.8478 32.7654C23.6964 33.1308 23.44 33.4432 23.1111 33.6629C22.7822 33.8827 22.3956 34 22 34C21.4696 34 20.9609 33.7893 20.5858 33.4142C20.2107 33.0391 20 32.5304 20 32ZM26.34 40.49C26.0602 40.7695 25.7038 40.9597 25.3159 41.0367C24.928 41.1137 24.526 41.074 24.1607 40.9225C23.7954 40.7711 23.4831 40.5148 23.2635 40.1859C23.0438 39.8571 22.9266 39.4705 22.9266 39.075C22.9266 38.6795 23.0438 38.2929 23.2635 37.9641C23.4831 37.6352 23.7954 37.3789 24.1607 37.2275C24.526 37.076 24.928 37.0363 25.3159 37.1133C25.7038 37.1903 26.0602 37.3805 26.34 37.66C26.526 37.8457 26.6735 38.0663 26.7741 38.3091C26.8748 38.5519 26.9266 38.8122 26.9266 39.075C26.9266 39.3378 26.8748 39.5981 26.7741 39.8409C26.6735 40.0837 26.526 40.3043 26.34 40.49ZM32 44C31.6044 44 31.2178 43.8827 30.8889 43.6629C30.56 43.4432 30.3036 43.1308 30.1522 42.7654C30.0009 42.3999 29.9613 41.9978 30.0384 41.6098C30.1156 41.2219 30.3061 40.8655 30.5858 40.5858C30.8655 40.3061 31.2219 40.1156 31.6098 40.0384C31.9978 39.9613 32.3999 40.0009 32.7654 40.1522C33.1308 40.3036 33.4432 40.56 33.6629 40.8889C33.8827 41.2178 34 41.6044 34 42C34 42.5304 33.7893 43.0391 33.4142 43.4142C33.0391 43.7893 32.5304 44 32 44ZM40.49 40.49C40.1075 40.8515 39.6012 41.0529 39.075 41.0529C38.5488 41.0529 38.0425 40.8515 37.66 40.49C37.4728 40.3039 37.3243 40.0827 37.2231 39.839C37.1218 39.5953 37.0698 39.3339 37.07 39.07C37.07 38.5396 37.2807 38.0309 37.6558 37.6558C38.0309 37.2807 38.5396 37.07 39.07 37.07C39.6004 37.07 40.1091 37.2807 40.4842 37.6558C40.8593 38.0309 41.07 38.5396 41.07 39.07C41.0715 39.3332 41.0211 39.5941 40.9215 39.8378C40.822 40.0815 40.6754 40.3031 40.49 40.49ZM36.24 36.24C35.8687 36.6118 35.5742 37.053 35.3735 37.5386C35.1727 38.0242 35.0696 38.5446 35.07 39.07C35.0602 39.2198 35.0602 39.3702 35.07 39.52C34.6952 39.0528 34.2203 38.6758 33.6802 38.4167C33.1402 38.1576 32.5489 38.0231 31.95 38.0231C31.3511 38.0231 30.7598 38.1576 30.2197 38.4167C29.6797 38.6758 29.2048 39.0528 28.83 39.52C28.9068 38.9239 28.8459 38.3182 28.6519 37.7494C28.4579 37.1806 28.1361 36.6638 27.7112 36.2388C27.2862 35.8139 26.7694 35.4921 26.2006 35.2981C25.6318 35.1041 25.0261 35.0432 24.43 35.12C24.8972 34.7452 25.2742 34.2703 25.5333 33.7303C25.7924 33.1902 25.9269 32.5989 25.9269 32C25.9269 31.4011 25.7924 30.8098 25.5333 30.2698C25.2742 29.7297 24.8972 29.2548 24.43 28.88C24.5787 28.9065 24.7291 28.9232 24.88 28.93C25.4412 28.9265 25.9954 28.8051 26.5065 28.5734C27.0177 28.3418 27.4744 28.0051 27.8469 27.5854C28.2194 27.1657 28.4995 26.6723 28.6689 26.1373C28.8382 25.6023 28.8931 25.0376 28.83 24.48C29.2048 24.9472 29.6797 25.3242 30.2197 25.5833C30.7598 25.8424 31.3511 25.9769 31.95 25.9769C32.5489 25.9769 33.1402 25.8424 33.6802 25.5833C34.2203 25.3242 34.6952 24.9472 35.07 24.48C35.0602 24.6298 35.0602 24.7802 35.07 24.93C35.07 25.9909 35.4914 27.0083 36.2416 27.7584C36.9917 28.5086 38.0091 28.93 39.07 28.93C39.2209 28.9232 39.3713 28.9065 39.52 28.88C39.0456 29.2544 38.6622 29.7314 38.3985 30.2753C38.1349 30.8191 37.998 31.4156 37.998 32.02C37.998 32.6244 38.1349 33.2209 38.3985 33.7647C38.6622 34.3086 39.0456 34.7856 39.52 35.16C38.9273 35.0836 38.3251 35.1409 37.7575 35.3278C37.1898 35.5147 36.6713 35.8264 36.24 36.24ZM44 32C44 32.3956 43.8827 32.7822 43.6629 33.1111C43.4432 33.44 43.1308 33.6964 42.7654 33.8478C42.3999 33.9991 41.9978 34.0387 41.6098 33.9616C41.2219 33.8844 40.8655 33.6939 40.5858 33.4142C40.3061 33.1345 40.1156 32.7781 40.0384 32.3902C39.9613 32.0022 40.0009 31.6001 40.1522 31.2346C40.3036 30.8692 40.56 30.5568 40.8889 30.3371C41.2178 30.1173 41.6044 30 42 30C42.5304 30 43.0391 30.2107 43.4142 30.5858C43.7893 30.9609 44 31.4696 44 32Z" fill="#083D66"/>
</svg>
