<svg width="64" height="64" viewBox="0 0 64 64" fill="none" xmlns="http://www.w3.org/2000/svg">
<path d="M26.9993 23.7798C24.3846 23.7798 21.8287 24.5551 19.6547 26.0078C17.4806 27.4604 15.7862 29.5251 14.7856 31.9407C13.785 34.3563 13.5232 37.0144 14.0333 39.5789C14.5434 42.1433 15.8025 44.4989 17.6514 46.3477C19.5002 48.1966 21.8558 49.4557 24.4202 49.9658C26.9846 50.4759 29.6427 50.2141 32.0584 49.2135C34.474 48.2129 36.5387 46.5184 37.9913 44.3444C39.444 42.1704 40.2193 39.6145 40.2193 36.9998C40.2167 33.4944 38.823 30.1334 36.3443 27.6548C33.8657 25.1761 30.5047 23.7824 26.9993 23.7798ZM26.9993 48.2198C24.7802 48.2198 22.6109 47.5617 20.7658 46.3289C18.9207 45.096 17.4826 43.3437 16.6334 41.2935C15.7842 39.2433 15.562 36.9873 15.9949 34.8109C16.4278 32.6344 17.4964 30.6352 19.0656 29.066C20.6347 27.4969 22.6339 26.4283 24.8104 25.9954C26.9869 25.5624 29.2428 25.7846 31.293 26.6339C33.3432 27.4831 35.0955 28.9212 36.3284 30.7663C37.5613 32.6114 38.2193 34.7807 38.2193 36.9998C38.2167 39.9747 37.0337 42.827 34.9301 44.9306C32.8265 47.0342 29.9742 48.2171 26.9993 48.2198Z" fill="#083D66"/>
<path d="M57.8902 16.22H55.5802C55.5802 16.22 55.4902 16.22 55.4902 16.16C55.3013 15.6209 55.0809 15.0933 54.8302 14.58L56.5002 12.84C56.6986 12.6438 56.856 12.4102 56.9635 12.1527C57.0709 11.8952 57.1263 11.619 57.1263 11.34C57.1263 11.061 57.0709 10.7848 56.9635 10.5273C56.856 10.2698 56.6986 10.0362 56.5002 9.84L54.1402 7.5C53.7376 7.11139 53.1998 6.89422 52.6402 6.89422C52.0806 6.89422 51.5429 7.11139 51.1402 7.5L49.5102 9.14H49.4102C48.9081 8.89013 48.3904 8.673 47.8602 8.49C47.8381 8.48377 47.8185 8.47078 47.8042 8.45284C47.7898 8.43491 47.7815 8.41293 47.7802 8.39V6.11C47.7776 5.5512 47.5544 5.01604 47.1593 4.62091C46.7642 4.22578 46.229 4.00263 45.6702 4H42.3302C41.7714 4.00263 41.2363 4.22578 40.8411 4.62091C40.446 5.01604 40.2229 5.5512 40.2202 6.11V8.42C40.2202 8.47 40.2202 8.51 40.1602 8.51C39.6211 8.69894 39.0935 8.91932 38.5802 9.17L36.8402 7.5C36.4364 7.1137 35.8991 6.89809 35.3402 6.89809C34.7814 6.89809 34.2441 7.1137 33.8402 7.5L31.5002 9.86C31.3007 10.0555 31.1421 10.2889 31.0339 10.5465C30.9257 10.804 30.8699 11.0806 30.8699 11.36C30.8699 11.6394 30.9257 11.916 31.0339 12.1735C31.1421 12.4311 31.3007 12.6645 31.5002 12.86L33.1402 14.51V14.62C32.8904 15.1221 32.6732 15.6399 32.4902 16.17C32.484 16.1921 32.471 16.2117 32.4531 16.2261C32.4351 16.2404 32.4132 16.2488 32.3902 16.25H32.0002C31.9104 15.6338 31.6048 15.0694 31.1378 14.6574C30.6709 14.2454 30.0728 14.0124 29.4502 14H24.5502C23.8544 14.0026 23.1881 14.2809 22.697 14.7738C22.2059 15.2668 21.9302 15.9342 21.9302 16.63V20C21.9272 20.1305 21.8845 20.2569 21.8076 20.3623C21.7308 20.4678 21.6235 20.5472 21.5002 20.59C20.7392 20.8472 19.9973 21.1579 19.2802 21.52C19.1647 21.5714 19.0366 21.5874 18.9121 21.566C18.7875 21.5447 18.672 21.4869 18.5802 21.4L16.1702 19C15.6724 18.5191 15.0073 18.2504 14.3152 18.2504C13.6231 18.2504 12.958 18.5191 12.4602 19L9.00023 22.46C8.75318 22.7006 8.55686 22.9883 8.42289 23.306C8.28892 23.6238 8.22001 23.9652 8.22023 24.31C8.22091 24.6562 8.29019 24.9988 8.42407 25.3181C8.55795 25.6373 8.75378 25.9269 9.00023 26.17L11.4102 28.57C11.4968 28.664 11.5543 28.7812 11.5756 28.9072C11.5969 29.0332 11.5811 29.1627 11.5302 29.28C11.1682 29.9971 10.8574 30.739 10.6002 31.5C10.5574 31.6233 10.478 31.7305 10.3726 31.8074C10.2671 31.8842 10.1407 31.927 10.0102 31.93H6.63023C5.93444 31.93 5.267 32.2057 4.77406 32.6968C4.28113 33.1878 4.00287 33.8542 4.00023 34.55V39.45C3.99642 39.7027 4.04053 39.9538 4.13023 40.19C4.28502 40.7331 4.61305 41.2106 5.06437 41.55C5.51568 41.8894 6.06555 42.072 6.63023 42.07H10.0002C10.1307 42.073 10.2571 42.1158 10.3626 42.1926C10.468 42.2695 10.5474 42.3767 10.5902 42.5C10.8474 43.261 11.1582 44.0029 11.5202 44.72C11.5716 44.8355 11.5876 44.9636 11.5662 45.0882C11.5449 45.2127 11.4871 45.3282 11.4002 45.42L9.00023 47.83C8.75502 48.0727 8.56037 48.3616 8.42752 48.68C8.29468 48.9984 8.22627 49.34 8.22627 49.685C8.22627 50.03 8.29468 50.3716 8.42752 50.69C8.56037 51.0084 8.75502 51.2973 9.00023 51.54L12.4602 55C12.958 55.4809 13.6231 55.7496 14.3152 55.7496C15.0073 55.7496 15.6724 55.4809 16.1702 55L18.5502 52.61C18.6163 52.5478 18.6946 52.5001 18.7802 52.47C18.859 52.4353 18.9441 52.4174 19.0302 52.4174C19.1163 52.4174 19.2015 52.4353 19.2802 52.47C19.9973 52.8321 20.7392 53.1428 21.5002 53.4C21.6235 53.4428 21.7308 53.5222 21.8076 53.6277C21.8845 53.7331 21.9272 53.8595 21.9302 53.99V57.37C21.9302 58.0658 22.2059 58.7332 22.697 59.2262C23.1881 59.7191 23.8544 59.9974 24.5502 60H29.4502C30.146 59.9974 30.8124 59.7191 31.3035 59.2262C31.7945 58.7332 32.0702 58.0658 32.0702 57.37V54C32.0732 53.8695 32.116 53.7431 32.1928 53.6377C32.2697 53.5322 32.377 53.4528 32.5002 53.41C33.2613 53.1528 34.0031 52.8421 34.7202 52.48C34.8357 52.4286 34.9638 52.4126 35.0884 52.434C35.213 52.4553 35.3284 52.5131 35.4202 52.6L37.8302 55C38.328 55.4809 38.9931 55.7496 39.6852 55.7496C40.3773 55.7496 41.0424 55.4809 41.5402 55L45.0002 51.54C45.2473 51.2994 45.4436 51.0117 45.5776 50.694C45.7115 50.3762 45.7804 50.0348 45.7802 49.69C45.7795 49.3438 45.7103 49.0012 45.5764 48.6819C45.4425 48.3627 45.2467 48.0731 45.0002 47.83L42.5902 45.43C42.5036 45.336 42.4462 45.2188 42.4249 45.0928C42.4036 44.9668 42.4193 44.8373 42.4702 44.72C42.8323 44.0029 43.1431 43.261 43.4002 42.5C43.443 42.3767 43.5224 42.2695 43.6279 42.1926C43.7334 42.1158 43.8598 42.073 43.9902 42.07H47.3702C48.066 42.07 48.7335 41.7943 49.2264 41.3032C49.7193 40.8122 49.9976 40.1458 50.0002 39.45V34.55C49.989 33.9318 49.7603 33.3373 49.3543 32.871C48.9483 32.4047 48.391 32.0963 47.7802 32V31.61C47.7802 31.61 47.7802 31.52 47.8402 31.52C48.3793 31.3311 48.9069 31.1107 49.4202 30.86L51.1602 32.53C51.3564 32.7283 51.59 32.8858 51.8475 32.9933C52.105 33.1007 52.3812 33.1561 52.6602 33.1561C52.9392 33.1561 53.2155 33.1007 53.4729 32.9933C53.7304 32.8858 53.964 32.7283 54.1602 32.53L56.5202 30.17C56.7198 29.9745 56.8783 29.7411 56.9866 29.4835C57.0948 29.226 57.1505 28.9494 57.1505 28.67C57.1505 28.3906 57.0948 28.114 56.9866 27.8565C56.8783 27.5989 56.7198 27.3655 56.5202 27.17L54.8802 25.51V25.41C55.1301 24.9079 55.3472 24.3901 55.5302 23.86C55.5365 23.8379 55.5494 23.8183 55.5674 23.8039C55.5853 23.7896 55.6073 23.7812 55.6302 23.78H57.9402C58.4903 23.7644 59.0128 23.5356 59.3972 23.1418C59.7816 22.7481 59.9978 22.2203 60.0002 21.67V18.33C59.9976 17.7712 59.7744 17.236 59.3793 16.8409C58.9842 16.4458 58.449 16.2226 57.8902 16.22ZM48.0002 34.55V39.45C48.0002 39.5323 47.9839 39.6137 47.9521 39.6896C47.9203 39.7655 47.8737 39.8343 47.8151 39.892C47.7565 39.9497 47.6869 39.9951 47.6106 40.0257C47.5342 40.0563 47.4525 40.0713 47.3702 40.07H44.0002C43.4553 40.0702 42.924 40.241 42.4811 40.5585C42.0381 40.8759 41.7056 41.324 41.5302 41.84C41.2923 42.5221 41.0151 43.1899 40.7002 43.84C40.4644 44.3293 40.384 44.879 40.4698 45.4153C40.5556 45.9516 40.8035 46.4488 41.1802 46.84L43.6002 49.25C43.6586 49.3072 43.7047 49.3757 43.7357 49.4514C43.7666 49.5271 43.7818 49.6083 43.7802 49.69C43.781 49.7711 43.7644 49.8513 43.7316 49.9255C43.6989 49.9996 43.6507 50.066 43.5902 50.12L40.1302 53.59C40.0142 53.7042 39.858 53.7682 39.6952 53.7682C39.5325 53.7682 39.3762 53.7042 39.2602 53.59L36.8402 51.18C36.4505 50.8008 35.9532 50.5511 35.4162 50.4652C34.8792 50.3793 34.3288 50.4613 33.8402 50.7C33.1901 51.0149 32.5223 51.292 31.8402 51.53C31.3243 51.7054 30.8761 52.0379 30.5587 52.4809C30.2413 52.9238 30.0705 53.455 30.0702 54V57.38C30.0716 57.4623 30.0565 57.544 30.0259 57.6203C29.9954 57.6967 29.9499 57.7663 29.8922 57.8249C29.8345 57.8835 29.7657 57.9301 29.6898 57.9619C29.6139 57.9936 29.5325 58.01 29.4502 58.01H24.5502C24.468 58.01 24.3865 57.9936 24.3106 57.9619C24.2347 57.9301 24.166 57.8835 24.1082 57.8249C24.0505 57.7663 24.0051 57.6967 23.9745 57.6203C23.944 57.544 23.9289 57.4623 23.9302 57.38V54C23.93 53.455 23.7592 52.9238 23.4417 52.4809C23.1243 52.0379 22.6762 51.7054 22.1602 51.53C21.4781 51.292 20.8104 51.0149 20.1602 50.7C19.8014 50.5155 19.4037 50.4195 19.0002 50.42C18.6564 50.4136 18.3152 50.4819 18.0002 50.62C17.6819 50.7483 17.3902 50.9348 17.1402 51.17L14.7302 53.59C14.6142 53.7042 14.458 53.7682 14.2952 53.7682C14.1325 53.7682 13.9762 53.7042 13.8602 53.59L10.3902 50.13C10.3331 50.074 10.2877 50.007 10.2568 49.9332C10.2258 49.8593 10.21 49.7801 10.2102 49.7C10.2087 49.6174 10.2249 49.5353 10.2577 49.4595C10.2904 49.3836 10.339 49.3156 10.4002 49.26L12.8102 46.84C13.1895 46.4503 13.4391 45.9529 13.525 45.416C13.6109 44.879 13.5289 44.3286 13.2902 43.84C12.9753 43.1899 12.6982 42.5221 12.4602 41.84C12.2854 41.3256 11.9544 40.8787 11.5134 40.5614C11.0725 40.2441 10.5435 40.0723 10.0002 40.07H6.63023C6.49784 40.0739 6.36811 40.0324 6.26259 39.9523C6.15708 39.8723 6.08214 39.7585 6.05023 39.63C6.05913 39.5703 6.05913 39.5097 6.05023 39.45V34.55C6.05022 34.4677 6.06658 34.3863 6.09836 34.3104C6.13014 34.2345 6.17671 34.1657 6.23534 34.108C6.29398 34.0503 6.36351 34.0049 6.43989 33.9743C6.51627 33.9437 6.59797 33.9287 6.68023 33.93H10.0002C10.5452 33.9298 11.0764 33.759 11.5194 33.4415C11.9623 33.1241 12.2948 32.676 12.4702 32.16C12.7082 31.4779 12.9853 30.8101 13.3002 30.16C13.5361 29.6707 13.6165 29.121 13.5307 28.5847C13.4449 28.0484 13.1969 27.5512 12.8202 27.16L10.4002 24.75C10.3418 24.6928 10.2957 24.6243 10.2648 24.5486C10.2338 24.4729 10.2187 24.3917 10.2202 24.31C10.2195 24.2289 10.2361 24.1487 10.2688 24.0745C10.3016 24.0004 10.3498 23.934 10.4102 23.88L13.8702 20.41C13.9862 20.2958 14.1425 20.2318 14.3052 20.2318C14.468 20.2318 14.6242 20.2958 14.7402 20.41L17.1602 22.82C17.55 23.1992 18.0473 23.4489 18.5843 23.5348C19.1212 23.6207 19.6716 23.5387 20.1602 23.3C20.8104 22.9851 21.4781 22.7079 22.1602 22.47C22.6762 22.2946 23.1243 21.9621 23.4417 21.5191C23.7592 21.0762 23.93 20.545 23.9302 20V16.63C23.9289 16.5477 23.944 16.466 23.9745 16.3897C24.0051 16.3133 24.0505 16.2438 24.1082 16.1851C24.166 16.1265 24.2347 16.0799 24.3106 16.0481C24.3865 16.0164 24.468 16 24.5502 16H29.4502C29.5325 16 29.6139 16.0164 29.6898 16.0481C29.7657 16.0799 29.8345 16.1265 29.8922 16.1851C29.9499 16.2438 29.9954 16.3133 30.0259 16.3897C30.0565 16.466 30.0716 16.5477 30.0702 16.63V20C30.0705 20.545 30.2413 21.0762 30.5587 21.5191C30.8761 21.9621 31.3243 22.2946 31.8402 22.47C32.5223 22.7079 33.1901 22.9851 33.8402 23.3C34.3295 23.5358 34.8792 23.6162 35.4155 23.5304C35.9518 23.4446 36.449 23.1967 36.8402 22.82L38.7202 21L39.2502 20.46C39.3662 20.3458 39.5225 20.2818 39.6852 20.2818C39.848 20.2818 40.0042 20.3458 40.1202 20.46L43.5902 23.92C43.6474 23.976 43.6928 24.043 43.7237 24.1168C43.7546 24.1907 43.7704 24.2699 43.7702 24.35C43.7717 24.4326 43.7556 24.5147 43.7228 24.5905C43.69 24.6664 43.6414 24.7344 43.5802 24.79L43.0502 25.32L41.1702 27.21C40.791 27.5997 40.5413 28.0971 40.4554 28.634C40.3695 29.171 40.4515 29.7214 40.6902 30.21C41.0051 30.8601 41.2823 31.5279 41.5202 32.21C41.7046 32.7182 42.0422 33.1567 42.4864 33.4648C42.9307 33.7729 43.4596 33.9355 44.0002 33.93H47.3802C47.5447 33.93 47.7024 33.9953 47.8186 34.1116C47.9349 34.2279 48.0002 34.3856 48.0002 34.55ZM39.3102 18.26C39.6024 17.475 40.0871 16.7759 40.7199 16.227C41.3527 15.6781 42.1132 15.297 42.9317 15.1187C43.7501 14.9403 44.6003 14.9705 45.404 15.2063C46.2078 15.4422 46.9394 15.8762 47.5317 16.4685C48.1241 17.0608 48.5581 17.7924 48.7939 18.5962C49.0298 19.4 49.0599 20.2501 48.8816 21.0686C48.7032 21.887 48.3221 22.6476 47.7732 23.2803C47.2243 23.9131 46.5253 24.3978 45.7402 24.69C45.7501 24.5635 45.7501 24.4365 45.7402 24.31C45.7479 23.6197 45.4818 22.9545 45.0002 22.46L41.5402 19C41.2996 18.7529 41.012 18.5566 40.6942 18.4227C40.3765 18.2887 40.0351 18.2198 39.6902 18.22C39.5627 18.2233 39.4356 18.2367 39.3102 18.26ZM58.0002 21.67C58.0002 21.6992 57.9886 21.7272 57.968 21.7478C57.9474 21.7684 57.9194 21.78 57.8902 21.78H55.5802C55.1412 21.7817 54.7133 21.919 54.3553 22.1732C53.9973 22.4274 53.7266 22.786 53.5802 23.2C53.4288 23.6447 53.2484 24.0789 53.0402 24.5C52.839 24.8923 52.7684 25.3386 52.8385 25.7739C52.9087 26.2092 53.116 26.6107 53.4302 26.92L55.0702 28.58C55.0885 28.5987 55.0988 28.6238 55.0988 28.65C55.0988 28.6762 55.0885 28.7013 55.0702 28.72L52.7102 31.08C52.6915 31.0983 52.6664 31.1086 52.6402 31.1086C52.614 31.1086 52.5889 31.0983 52.5702 31.08L50.9302 29.45C50.6206 29.1333 50.2179 28.9237 49.7808 28.8517C49.3437 28.7798 48.8951 28.8492 48.5002 29.05C48.068 29.2591 47.6239 29.4427 47.1702 29.6C46.7584 29.7472 46.4024 30.0187 46.1516 30.377C45.9008 30.7353 45.7675 31.1626 45.7702 31.6V31.95H44.0002C43.8698 31.947 43.7433 31.9042 43.6379 31.8274C43.5324 31.7505 43.453 31.6433 43.4102 31.52C43.1531 30.759 42.8423 30.0171 42.4802 29.3C42.4289 29.1845 42.4129 29.0564 42.4342 28.9318C42.4556 28.8073 42.5133 28.6918 42.6002 28.6L44.1702 27C45.5396 26.9663 46.869 26.5316 47.9938 25.7497C49.1185 24.9678 49.9891 23.8731 50.4977 22.6012C51.0063 21.3293 51.1306 19.9361 50.8551 18.5943C50.5796 17.2525 49.9165 16.021 48.9479 15.0524C47.9793 14.0838 46.7477 13.4206 45.4059 13.1451C44.0641 12.8697 42.6709 12.9939 41.399 13.5025C40.1271 14.0111 39.0324 14.8817 38.2505 16.0064C37.4686 17.1312 37.0339 18.4606 37.0002 19.83L35.4202 21.41C35.3262 21.4966 35.2091 21.5541 35.083 21.5754C34.957 21.5967 34.8275 21.5809 34.7102 21.53C33.9931 21.1679 33.2513 20.8572 32.4902 20.6C32.367 20.5572 32.2597 20.4778 32.1828 20.3723C32.106 20.2669 32.0632 20.1405 32.0602 20.01V18.22H32.4102C32.8493 18.2183 33.2771 18.081 33.6351 17.8268C33.9932 17.5726 34.2639 17.214 34.4102 16.8C34.5779 16.3541 34.775 15.9198 35.0002 15.5C35.2007 15.1058 35.2709 14.6582 35.2008 14.2215C35.1308 13.7849 34.924 13.3817 34.6102 13.07L32.9702 11.42C32.9519 11.4013 32.9416 11.3762 32.9416 11.35C32.9416 11.3238 32.9519 11.2987 32.9702 11.28L35.3302 8.92C35.3489 8.90168 35.3741 8.89141 35.4002 8.89141C35.4264 8.89141 35.4515 8.90168 35.4702 8.92L37.1102 10.55C37.4199 10.8667 37.8226 11.0763 38.2597 11.1483C38.6967 11.2202 39.1454 11.1508 39.5402 10.95C39.9725 10.7409 40.4166 10.5573 40.8702 10.4C41.2821 10.2528 41.638 9.98133 41.8888 9.62303C42.1397 9.26473 42.2729 8.83735 42.2702 8.4V6.11C42.2678 6.08774 42.2723 6.06528 42.283 6.04562C42.2938 6.02597 42.3102 6.01005 42.3302 6H45.6702C45.6847 6 45.699 6.00285 45.7123 6.00837C45.7257 6.0139 45.7378 6.022 45.748 6.03222C45.7582 6.04243 45.7663 6.05456 45.7719 6.0679C45.7774 6.08125 45.7802 6.09555 45.7802 6.11V8.42C45.7819 8.85907 45.9193 9.2869 46.1734 9.64491C46.4276 10.0029 46.7863 10.2736 47.2002 10.42C47.6449 10.5714 48.0792 10.7518 48.5002 10.96C48.8926 11.1612 49.3389 11.2319 49.7742 11.1617C50.2094 11.0916 50.611 10.8843 50.9202 10.57L52.5802 8.93C52.5989 8.91168 52.6241 8.90141 52.6502 8.90141C52.6764 8.90141 52.7015 8.91168 52.7202 8.93L55.0802 11.29C55.0985 11.3087 55.1088 11.3338 55.1088 11.36C55.1088 11.3862 55.0985 11.4113 55.0802 11.43L53.4502 13.07C53.1335 13.3797 52.9239 13.7824 52.8519 14.2194C52.78 14.6565 52.8495 15.1051 53.0502 15.5C53.2593 15.9322 53.443 16.3763 53.6002 16.83C53.7474 17.2419 54.0189 17.5978 54.3772 17.8486C54.7355 18.0994 55.1629 18.2327 55.6002 18.23H57.9102C57.9394 18.23 57.9674 18.2416 57.988 18.2622C58.0086 18.2828 58.0202 18.3108 58.0202 18.34L58.0002 21.67Z" fill="#083D66"/>
<path d="M32.2902 32.2902L25.0002 39.5902L21.7102 36.2902C21.5219 36.1019 21.2665 35.9961 21.0002 35.9961C20.7339 35.9961 20.4785 36.1019 20.2902 36.2902C20.1019 36.4785 19.9961 36.7339 19.9961 37.0002C19.9961 37.2665 20.1019 37.5219 20.2902 37.7102L24.2902 41.7102C24.3831 41.8039 24.4937 41.8783 24.6156 41.9291C24.7375 41.9798 24.8682 42.006 25.0002 42.006C25.1322 42.006 25.2629 41.9798 25.3848 41.9291C25.5066 41.8783 25.6172 41.8039 25.7102 41.7102L33.7102 33.7102C33.8985 33.5219 34.0043 33.2665 34.0043 33.0002C34.0043 32.7339 33.8985 32.4785 33.7102 32.2902C33.5219 32.1019 33.2665 31.9961 33.0002 31.9961C32.7339 31.9961 32.4785 32.1019 32.2902 32.2902Z" fill="#083D66"/>
</svg>
