<svg id="Ebene_1" data-name="Ebene 1" xmlns="http://www.w3.org/2000/svg" viewBox="0 0 633.98 400"><defs><style>.cls-1{fill:#fff;}</style></defs><path class="cls-1" d="M463.5,500H388V467.33H106.2V500H30.83l-.25-28.55H-14.49V128.77H55.33V100H373.15v24.66H508.67V231.51h20.54v20.55h45.14v28.76h45.14v50.9H574.35v32.87H529.21v20.55H508.67v82.19H463.5Zm-65.71-9.8H453.7V457.53h45.17V375.34h20.54v-134H498.87V134.46H363.35V109.8H65.13v28.77H-4.69V461.64h45l.25,28.56H96.4V457.53H397.79ZM529.21,354.79h35.34V261.85H529.21Zm45.14-32.87h35.34v-31.3H574.35ZM199.78,409.8H95.12L43,360.83v-125l45.27-45.39H205.91l22.55,24.66H453.53l22.29,19.85v128l-21.4,22.77-226.19.58ZM99,400h97.25l28.44-23.52,225.48-.58L466,359V239.31L449.8,224.87H224.14l-22.55-24.66H92.34L52.81,239.85V356.6Zm48.78-37.57a63.61,63.61,0,1,1,63.57-63.61A63.67,63.67,0,0,1,147.78,362.43Zm0-117.42a53.81,53.81,0,1,0,53.77,53.81A53.85,53.85,0,0,0,147.78,245Z" transform="translate(14.49 -100)"/></svg>