<svg id="Ebene_1" data-name="Ebene 1" xmlns="http://www.w3.org/2000/svg" viewBox="0 0 434.54 400"><defs><style>.cls-1{fill:#fff;}</style></defs><path class="cls-1" d="M358.77,235.5h-86V350h86Zm-10,104.5h-66V245.5h66ZM452.83,100H206L148,225.81,147.67,304H106.49V293.83H76.23v51h30.26V334h41l-.4,87.75H107.2V405.37H76.94v79H107.2V470.08h39.71L146.77,500H509.51l1.26-275.27ZM96.49,334.83H86.23v-31H96.49Zm.71,139.54H86.94v-59H97.2Zm49.74-14.29H108.25V431.75h38.69ZM147.58,324H106.49V314h41.09Zm352,166H156.81l.72-156,.05-10.49L158,228l54.35-118H446.45l54.31,116.92ZM309,208.45a36.23,36.23,0,1,0-36.22-36.23A36.27,36.27,0,0,0,309,208.45Zm0-62.94a26.72,26.72,0,1,1-26.71,26.71A26.75,26.75,0,0,1,309,145.51Zm0,252.12a36.23,36.23,0,1,0,36.23,36.23A36.27,36.27,0,0,0,309,397.63Zm0,62.94a26.72,26.72,0,1,1,26.72-26.71A26.74,26.74,0,0,1,309,460.57Zm90.78-188.85A36.23,36.23,0,1,0,436,235.5,36.27,36.27,0,0,0,399.77,271.72Zm62.94,0A26.72,26.72,0,1,1,436,245,26.75,26.75,0,0,1,462.71,271.72Zm-6.19,97.93H242.72a11.9,11.9,0,0,0-5.95-6.54V317.5h21v-82h-21v-44a11.85,11.85,0,1,0-10,.16V235.5h-28.5v82h28.5V363a11.86,11.86,0,1,0,15.13,16.7H457.34a11.85,11.85,0,1,0-.82-10ZM236.77,245.5h11v62h-11Zm-10,62h-18.5v-62h18.5Zm82.22-116a19.24,19.24,0,1,0-19.23-19.24A19.26,19.26,0,0,0,309,191.46ZM309,163a9.24,9.24,0,1,1-9.23,9.23A9.24,9.24,0,0,1,309,163ZM416.76,271.72A19.24,19.24,0,1,0,436,252.49,19.26,19.26,0,0,0,416.76,271.72Zm28.47,0a9.24,9.24,0,1,1-9.24-9.23A9.24,9.24,0,0,1,445.23,271.72ZM309,414.62a19.24,19.24,0,1,0,19.24,19.24A19.26,19.26,0,0,0,309,414.62Zm0,28.47a9.24,9.24,0,1,1,9.24-9.23A9.24,9.24,0,0,1,309,443.09Z" transform="translate(-76.23 -100)"/></svg>