<svg id="Ebene_1" data-name="Ebene 1" xmlns="http://www.w3.org/2000/svg" viewBox="0 0 545.37 400"><defs><style>.cls-1{fill:#fff;}</style></defs><path class="cls-1" d="M453,298.85c0-84.44-68.7-153.14-153.14-153.14s-153.14,68.7-153.14,153.14v.48c0,84.44,68.7,153.14,153.14,153.14S453,383.77,453,299.33ZM299.88,442c-78.84,0-143-64.08-143.14-142.89.14-78.82,64.3-142.9,143.14-142.9s143,64.08,143.14,142.9C442.88,377.9,378.72,442,299.88,442Zm0-211.35a68.22,68.22,0,1,0,68.21,68.22A68.29,68.29,0,0,0,299.88,230.63Zm0,126.43a58.22,58.22,0,1,1,58.21-58.21A58.27,58.27,0,0,1,299.88,357.06Zm0-222.89a7.82,7.82,0,1,0-7.82-7.81A7.82,7.82,0,0,0,299.88,134.17Zm-72,14.9a7.82,7.82,0,1,0-7.82-7.82A7.82,7.82,0,0,0,227.92,149.07Zm141.7,0a7.82,7.82,0,1,0-7.81-7.82A7.82,7.82,0,0,0,369.62,149.07Zm51,35.43a7.82,7.82,0,1,0-7.81-7.81A7.82,7.82,0,0,0,420.6,184.5Zm-244.49,0a7.82,7.82,0,1,0-7.82-7.81A7.82,7.82,0,0,0,176.11,184.5Zm-37.42,57.33a7.82,7.82,0,1,0-7.82-7.82A7.82,7.82,0,0,0,138.69,241.83Zm320.17,0A7.82,7.82,0,1,0,451,234,7.82,7.82,0,0,0,458.86,241.83ZM299.14,463.09A7.82,7.82,0,1,0,307,470.9,7.81,7.81,0,0,0,299.14,463.09Zm72-14.9a7.82,7.82,0,1,0,7.82,7.82A7.82,7.82,0,0,0,371.1,448.19Zm-141.7,0a7.82,7.82,0,1,0,7.81,7.82A7.82,7.82,0,0,0,229.4,448.19Zm-51-35.43a7.82,7.82,0,1,0,7.82,7.81A7.82,7.82,0,0,0,178.42,412.76Zm244.49,0a7.82,7.82,0,1,0,7.82,7.81A7.82,7.82,0,0,0,422.91,412.76Zm37.42-57.33a7.82,7.82,0,1,0,7.82,7.82A7.82,7.82,0,0,0,460.33,355.43Zm-320.16,0a7.82,7.82,0,1,0,7.81,7.82A7.82,7.82,0,0,0,140.17,355.43Zm-13.78-63.18a7.82,7.82,0,1,0,7.81,7.82A7.82,7.82,0,0,0,126.39,292.25Zm346.25,15.64a7.82,7.82,0,1,0-7.82-7.82A7.82,7.82,0,0,0,472.64,307.89ZM556,279.63,495.91,203.2,460.5,118.32l-81.87-2.09a199.22,199.22,0,0,0-155.71-.77l-83.08,2.13-35.41,84.87L43.79,279.63A34.78,34.78,0,0,0,62,344.06c1,0,1.9,0,2.84-.11h40.77A199.08,199.08,0,0,0,154,435l30.9,65h55.79l3.93-9.14a199.7,199.7,0,0,0,111.19-.19l4,9.33h55.79l31.67-66.62a199.06,199.06,0,0,0,46.91-89.48h40.15c1.13.11,2.28.16,3.44.16A34.78,34.78,0,0,0,556,279.63ZM64.37,334H62v.11a24.73,24.73,0,1,1,2.39-.11Zm39.19,0H86.49A34.78,34.78,0,0,0,62,274.48c-.48,0-1,0-1.45,0l52.6-66.95,33.44-80.15,55-1.41a199.42,199.42,0,0,0-98,207.94ZM234.1,490H191.2L174,453.74A199.27,199.27,0,0,0,235,487.83Zm175.19,0H366.4l-1-2.4A199.21,199.21,0,0,0,427,452.75Zm-109.41-1.34a188.81,188.81,0,0,1-137.51-59.32l-.17-.37-.12.06a188.65,188.65,0,0,1-51.53-129.7c0-104.4,84.93-189.33,189.33-189.33s189.33,84.93,189.33,189.33S404.28,488.66,299.88,488.66ZM496.21,333.9a199.43,199.43,0,0,0-96.64-207.13l54.19,1.38,33.18,79.53.26.62,52,66.21-1.45,0a34.78,34.78,0,0,0-24.56,59.42Zm42.08.16v-.16h-3.41a24.82,24.82,0,1,1,3.41.16ZM299.88,209a89.81,89.81,0,1,0,89.8,89.81A89.9,89.9,0,0,0,299.88,209Zm0,169.62a79.82,79.82,0,1,1,79.82-79.81A79.91,79.91,0,0,1,299.88,378.66Zm237.9-86.06a16.68,16.68,0,1,0,16.67,16.68A16.7,16.7,0,0,0,537.78,292.6Zm0,23.35a6.68,6.68,0,1,1,6.67-6.67A6.68,6.68,0,0,1,537.78,316ZM62,292.6a16.68,16.68,0,1,0,16.68,16.68A16.69,16.69,0,0,0,62,292.6ZM62,316a6.68,6.68,0,1,1,6.68-6.67A6.67,6.67,0,0,1,62,316Z" transform="translate(-27.19 -100)"/></svg>