<svg id="Ebene_1" data-name="Ebene 1" xmlns="http://www.w3.org/2000/svg" viewBox="0 0 406.16 410.26"><defs><style>.cls-1{fill:#fff;}</style></defs><path class="cls-1" d="M299.88,94.87c-112,0-203.08,92-203.08,205.13s91.1,205.13,203.08,205.13S503,413.11,503,300,411.86,94.87,299.88,94.87Zm0,400c-106.32,0-192.82-87.42-192.82-194.87s86.5-194.87,192.82-194.87S492.7,192.55,492.7,300,406.2,494.87,299.88,494.87Zm-.16-148.35c25.55,0,46.34-21,46.34-46.81s-20.79-46.81-46.34-46.81-46.34,21-46.34,46.81S274.17,346.52,299.72,346.52Zm0-83.36c19.9,0,36.08,16.39,36.08,36.55s-16.18,36.55-36.08,36.55-36.09-16.4-36.09-36.55S279.82,263.16,299.72,263.16Zm0-151.16C197.26,112,113.9,196.2,113.9,299.7s83.36,187.7,185.82,187.7,185.81-84.21,185.81-187.7S402.18,112,299.72,112ZM473.27,272.83l-110,19.93c-.05-.51-.12-1-.19-1.5l105.78-39A179.38,179.38,0,0,1,473.27,272.83Zm-7.38-30.4L361,281.12c-.15-.53-.32-1.05-.49-1.57l97.08-57.48A175.89,175.89,0,0,1,465.89,242.43ZM452.82,213l-96.33,57c-.26-.5-.52-1-.79-1.5l85.84-73.24A176.92,176.92,0,0,1,452.82,213ZM435.3,187.1,350,259.86c-.44-.57-.88-1.12-1.34-1.67l72.12-86.86A177.53,177.53,0,0,1,435.3,187.1Zm-22.1-22.67-71.73,86.39c-.41-.36-.81-.72-1.23-1.07L396,151.42A176.73,176.73,0,0,1,413.2,164.43ZM387.32,146,331.8,243.84c-.46-.27-.92-.55-1.39-.81l38.26-106.5A173.41,173.41,0,0,1,387.32,146Zm-28.19-13.25L321,238.79l-1.52-.52,18.76-111.69A172.6,172.6,0,0,1,359.13,132.73Zm-30.93-8.12L309.51,235.85l-1.53-.21-.33-113.19A173.79,173.79,0,0,1,328.2,124.61ZM299.72,245.34c29.61,0,53.71,24.39,53.71,54.37s-24.1,54.36-53.71,54.36S246,329.68,246,299.71,270.1,245.34,299.72,245.34Zm0,231.8c-96.81,0-175.56-79.6-175.56-177.44,0-97.06,77.49-176.14,173.23-177.41l.33,112.85c-34.35,1.07-62,29.61-62,64.57,0,35.62,28.69,64.61,64,64.61,30.13,0,55.45-21.16,62.19-49.55H474.64C467,405.59,391.5,477.14,299.72,477.14Zm63.77-172.62c0-.47.08-.92.1-1.39L474.5,283c.51,5.49.78,11,.78,16.67,0,1.61,0,3.22-.07,4.82Z" transform="translate(-96.8 -94.87)"/></svg>