<svg id="Ebene_1" data-name="Ebene 1" xmlns="http://www.w3.org/2000/svg" viewBox="0 0 400 400"><defs><style>.cls-1{fill:#fff;}</style></defs><path class="cls-1" d="M456.62,232.93l-2.21-5.17L435,239l-14.7-25.46,19.42-11.21-3.39-4.51a171.14,171.14,0,0,0-116.13-67.05l-5.59-.66V152.5h-29.4V130.09l-5.59.66A171.16,171.16,0,0,0,163.45,197.8l-3.38,4.51,19.42,11.21L164.79,239l-19.44-11.23-2.21,5.18a170.8,170.8,0,0,0,0,134.14l2.21,5.18L164.79,361l14.7,25.46-19.42,11.21,3.38,4.51a171.18,171.18,0,0,0,116.14,67.05l5.59.66V447.5h29.4v22.41l5.59-.66A171.14,171.14,0,0,0,436.3,402.2l3.39-4.51-19.42-11.21L435,361l19.44,11.22,2.21-5.17a170.91,170.91,0,0,0,0-134.14Zm-7.06,125-18.25-10.54-24.7,42.78,18.22,10.52a161.21,161.21,0,0,1-100.25,57.89V437.5h-49.4v21.05a161.26,161.26,0,0,1-100.26-57.89l18.23-10.52-24.7-42.78L150.2,357.9a160.88,160.88,0,0,1,0-115.8l18.25,10.54,24.7-42.78-18.23-10.52a161.26,161.26,0,0,1,100.26-57.89V162.5h49.4V141.45a161.21,161.21,0,0,1,100.25,57.89l-18.22,10.52,24.7,42.78,18.25-10.54a161,161,0,0,1,0,115.8ZM299.88,100c-110.28,0-200,89.72-200,200s89.72,200,200,200,200-89.72,200-200S410.16,100,299.88,100Zm0,390c-104.77,0-190-85.23-190-190s85.23-190,190-190,190,85.23,190,190S404.65,490,299.88,490ZM386.7,221.37l-24.08,13.9a89.82,89.82,0,0,0-38-22V185.52H275.2V213.3a89.86,89.86,0,0,0-38,22l-24.08-13.9-24.7,42.76L212.44,278a90.09,90.09,0,0,0,0,43.94l-24.07,13.89,24.69,42.76,24.08-13.91a89.74,89.74,0,0,0,38,22v27.78h49.37V386.7a89.86,89.86,0,0,0,38-22l24.08,13.9,24.7-42.76L387.32,322a90.25,90.25,0,0,0,0-43.94l24.05-13.89Zm-11.14,51.89,1.13,3.79a80.1,80.1,0,0,1,0,45.88l-1.13,3.79,22.16,12.79L383,365l-22.18-12.81L358.12,355a79.85,79.85,0,0,1-39.71,23l-3.85.91v25.6H285.18v-25.6l-3.85-.91A79.89,79.89,0,0,1,241.62,355l-2.71-2.87L216.72,365,202,339.53l22.17-12.79L223.07,323a80.1,80.1,0,0,1,0-45.88l1.13-3.79L202,260.49l14.7-25.44,22.18,12.81,2.72-2.87a79.85,79.85,0,0,1,39.71-23l3.85-.91v-25.6h29.38v25.6l3.85.91A79.89,79.89,0,0,1,358.14,245l2.71,2.87L383,235l14.68,25.44Zm-60.83-6.6V254.58H285v12.09a36.49,36.49,0,0,0,14.83,69.83h0a36.5,36.5,0,0,0,14.85-69.84ZM299.88,326.5h0a26.49,26.49,0,0,1-8.27-51.66l3.44-1.13v-9.13h9.69v9.13l3.44,1.13a26.49,26.49,0,0,1-8.29,51.66Z" transform="translate(-99.88 -100)"/></svg>