<?xml version="1.0" encoding="utf-8"?>
<!-- Generator: Adobe Illustrator 25.0.0, SVG Export Plug-In . SVG Version: 6.00 Build 0)  -->
<!DOCTYPE svg PUBLIC "-//W3C//DTD SVG 1.1//EN" "http://www.w3.org/Graphics/SVG/1.1/DTD/svg11.dtd" [
	<!ENTITY ns_extend "http://ns.adobe.com/Extensibility/1.0/">
	<!ENTITY ns_ai "http://ns.adobe.com/AdobeIllustrator/10.0/">
	<!ENTITY ns_graphs "http://ns.adobe.com/Graphs/1.0/">
	<!ENTITY ns_vars "http://ns.adobe.com/Variables/1.0/">
	<!ENTITY ns_imrep "http://ns.adobe.com/ImageReplacement/1.0/">
	<!ENTITY ns_sfw "http://ns.adobe.com/SaveForWeb/1.0/">
	<!ENTITY ns_custom "http://ns.adobe.com/GenericCustomNamespace/1.0/">
	<!ENTITY ns_adobe_xpath "http://ns.adobe.com/XPath/1.0/">
]>
<svg version="1.1" id="Ebene_1" xmlns:x="&ns_extend;" xmlns:i="&ns_ai;" xmlns:graph="&ns_graphs;"
	 xmlns="http://www.w3.org/2000/svg" xmlns:xlink="http://www.w3.org/1999/xlink" x="0px" y="0px" viewBox="0 0 400 400"
	 style="enable-background:new 0 0 400 400;" xml:space="preserve">
<style type="text/css">
	.st0{fill:#fff;}
</style>
<metadata>
	<sfw  xmlns="&ns_sfw;">
		<slices></slices>
		<sliceSourceBounds  bottomLeftOrigin="true" height="400" width="400" x="100" y="100"></sliceSourceBounds>
	</sfw>
</metadata>
<path class="st0" d="M384.67,123.5c-20.44-49.33-58.86-87.75-108.21-108.18c-49.34-20.43-103.69-20.43-153.03,0
	C21.57,57.5-26.97,174.67,15.22,276.5c20.44,49.33,58.86,87.75,108.21,108.18C148.09,394.9,174.02,400,199.95,400
	c25.93,0,51.84-5.11,76.52-15.32c49.34-20.43,87.77-58.85,108.21-108.18S405.11,172.83,384.67,123.5z M375.43,272.67
	c-19.41,46.86-55.92,83.36-102.8,102.77c-46.87,19.41-98.5,19.41-145.38,0s-83.38-55.91-102.8-102.77
	c-40.08-96.74,6.03-208.04,102.8-248.11c46.87-19.41,98.5-19.41,145.38,0s83.38,55.91,102.8,102.77S394.85,225.81,375.43,272.67z
	 M199.95,71.96C129.33,71.96,71.88,129.4,71.88,200s57.45,128.04,128.07,128.04S328.02,270.6,328.02,200S270.57,71.96,199.95,71.96z
	 M199.95,318.05c-65.11,0-118.08-52.95-118.08-118.05c0-65.09,52.96-118.05,118.08-118.05c65.11,0,118.08,52.95,118.08,118.05
	C318.02,265.09,265.05,318.05,199.95,318.05z M368.14,183.36l0.14,0.01c0.16,0.01,0.32,0.02,0.48,0.03l5.87,0.2l-0.75-5.83
	c-0.99-7.7-2.5-15.38-4.5-22.84l-1.52-5.69l-5.37,2.43c-0.15,0.07-0.3,0.14-0.45,0.22l-0.11,0.06c-4.22,1.75-8.86,1.75-13.07,0
	c-4.22-1.75-7.5-5.03-9.25-9.24c-3.6-8.7,0.54-18.71,9.25-22.32c0.07-0.03,0.14-0.05,0.21-0.07c0.15-0.05,0.31-0.1,0.46-0.16
	l5.55-2.03l-2.93-5.14c-3.83-6.72-8.18-13.28-12.92-19.48l-3.63-4.75l-4.03,4.41c-0.11,0.12-0.21,0.24-0.32,0.36
	c-0.06,0.07-0.13,0.15-0.2,0.22c-3.23,3.23-7.52,5-12.08,5s-8.85-1.78-12.08-5c-3.23-3.23-5-7.52-5-12.08s1.78-8.85,5-12.08
	c0.1-0.1,0.2-0.18,0.3-0.27l4.78-4.31l-4.73-3.65c-6.13-4.73-12.68-9.12-19.49-13.05l-5.2-3l-2.01,5.66l-0.15,0.43
	c-0.05,0.14-0.09,0.28-0.14,0.4c-3.61,8.7-13.62,12.85-22.33,9.25c-4.22-1.75-7.5-5.03-9.25-9.24c-1.75-4.22-1.75-8.86,0-13.08
	c0.07-0.16,0.15-0.31,0.22-0.46l2.79-5.8l-5.79-1.58c-7.58-2.06-15.34-3.63-23.07-4.65l-6-0.8l0.38,6.45
	c0.01,0.19,0.03,0.39,0.03,0.59c0,4.56-1.78,8.85-5,12.08c-3.23,3.23-7.52,5-12.08,5s-8.85-1.78-12.08-5c-3.23-3.23-5-7.52-5-12.08
	c0-0.22,0.02-0.44,0.03-0.66l0.39-6.42l-6,0.78c-7.81,1.01-15.59,2.56-23.13,4.6l-5.83,1.58l2.81,5.79c0.1,0.2,0.2,0.39,0.28,0.59
	c1.75,4.22,1.75,8.86,0,13.07c-1.75,4.22-5.03,7.5-9.25,9.24l0,0c-4.22,1.75-8.86,1.75-13.07,0c-4.22-1.75-7.5-5.03-9.25-9.25
	c-0.08-0.2-0.15-0.4-0.22-0.61l-2.1-6.08l-5.24,3.01c-6.76,3.88-13.36,8.29-19.6,13.09l-4.79,3.69l4.81,4.26
	c0.17,0.15,0.34,0.29,0.5,0.45c3.23,3.23,5,7.52,5,12.08s-1.78,8.85-5,12.08s-7.52,5-12.08,5s-8.85-1.78-12.08-5
	c-0.14-0.14-0.27-0.29-0.4-0.44l-4.29-4.83l-3.68,4.8c-4.73,6.18-9.11,12.77-13.02,19.6l-2.98,5.21l6.07,2.12
	c0.16,0.06,0.33,0.11,0.5,0.18c4.22,1.75,7.5,5.03,9.25,9.24c1.75,4.21,1.75,8.86,0,13.07c-3.61,8.7-13.62,12.85-22.33,9.25
	c-0.13-0.05-0.25-0.12-0.38-0.18l-5.84-2.78l-1.55,5.8c-2.03,7.59-3.56,15.33-4.55,23.01l-0.76,5.94l5.98-0.31l0.44-0.03
	c0.14-0.01,0.27-0.02,0.41-0.02c9.42,0,17.08,7.66,17.08,17.08c0,9.42-7.66,17.08-17.08,17.08c-0.1,0-0.2-0.01-0.3-0.02
	c-0.16-0.01-0.32-0.02-0.48-0.03l-5.97-0.26l0.79,5.92c1.04,7.74,2.6,15.45,4.64,22.91l1.56,5.69l5.36-2.47
	c0.15-0.07,0.31-0.15,0.46-0.22c0.07-0.03,0.14-0.07,0.19-0.1c8.7-3.6,18.72,0.54,22.33,9.24c3.6,8.7-0.54,18.72-9.21,22.31
	l-0.15,0.05c-0.16,0.05-0.32,0.11-0.47,0.17l-5.53,2.07l2.96,5.11c3.87,6.69,8.23,13.2,12.97,19.33l3.58,4.64l4.02-4.27
	c0.12-0.12,0.23-0.25,0.34-0.38l0.05-0.06c3.23-3.23,7.52-5,12.08-5s8.85,1.78,12.08,5c3.23,3.23,5,7.52,5,12.08
	c0,4.56-1.78,8.85-5,12.07c-0.13,0.11-0.25,0.22-0.37,0.33l-4.25,4.04l4.66,3.56c6.11,4.66,12.61,8.98,19.32,12.82l5.04,2.89
	l2.1-5.42c0.05-0.14,0.1-0.28,0.17-0.47c1.75-4.18,5.02-7.44,9.22-9.18c4.22-1.75,8.86-1.75,13.07,0
	c8.68,3.6,12.83,13.56,9.28,22.23c-0.07,0.14-0.13,0.27-0.19,0.41l-2.33,5.33l5.62,1.5c7.5,2.01,15.12,3.52,22.68,4.51l5.76,0.75
	l-0.11-5.8c0-0.14-0.01-0.27-0.02-0.44c0.05-9.38,7.69-16.99,17.08-16.99c9.39,0,17.04,7.62,17.08,16.97
	c-0.01,0.14-0.02,0.27-0.02,0.41l-0.13,5.83l5.78-0.77c7.64-1.01,15.26-2.54,22.65-4.53l5.58-1.51l-2.29-5.3
	c-0.05-0.12-0.11-0.23-0.17-0.36c-3.54-8.68,0.61-18.63,9.28-22.23c8.67-3.59,18.64,0.51,22.29,9.14c0.04,0.12,0.08,0.24,0.13,0.37
	l2.11,5.4l5.03-2.89c6.63-3.81,13.09-8.12,19.22-12.81l4.62-3.54l-4.2-4.03c-0.09-0.09-0.19-0.17-0.3-0.27
	c-3.18-3.22-4.93-7.48-4.93-12.01c0-4.56,1.78-8.85,5-12.08c3.23-3.23,7.52-5,12.08-5c4.53,0,8.78,1.75,12.02,4.94
	c0.1,0.11,0.2,0.22,0.3,0.33l4.03,4.17l3.54-4.6c4.65-6.04,8.97-12.51,12.85-19.22l2.89-5l-5.36-2.14
	c-0.14-0.06-0.29-0.11-0.46-0.17c-8.64-3.64-12.75-13.61-9.16-22.28c1.75-4.22,5.03-7.5,9.25-9.24c4.2-1.74,8.83-1.74,13.03-0.02
	c0.14,0.07,0.28,0.14,0.43,0.2l5.32,2.35l1.52-5.61c2.03-7.46,3.58-15.1,4.6-22.72l0.78-5.83l-5.88,0.17
	c-0.16,0-0.32,0.01-0.48,0.03c-9.42,0-17.08-7.66-17.08-17.08C351.1,191.02,358.77,183.36,368.14,183.36z M363.06,227.04
	c-0.62,3.74-1.38,7.46-2.26,11.16c-5.25-1.08-10.71-0.57-15.77,1.52c-6.68,2.77-11.89,7.97-14.65,14.66
	c-5.02,12.13-0.55,25.86,9.99,32.89c-2.01,3.24-4.12,6.4-6.32,9.47c-4.42-2.97-9.62-4.57-15.06-4.57c-7.23,0-14.03,2.82-19.15,7.93
	c-9.27,9.27-10.4,23.65-3.39,34.16c-3.09,2.22-6.26,4.33-9.48,6.32c-7.04-10.5-20.76-14.95-32.86-9.93
	c-12.11,5.02-18.66,17.87-16.21,30.25c-3.68,0.87-7.41,1.62-11.16,2.23c-2.48-12.39-13.44-21.76-26.57-21.76
	c-13.13,0-24.12,9.39-26.58,21.81c-3.72-0.61-7.46-1.35-11.17-2.22c2.48-12.42-4.07-25.3-16.2-30.32c-6.68-2.77-14.04-2.77-20.74,0
	c-5.06,2.1-9.28,5.59-12.23,10.07c-3.23-1.99-6.41-4.09-9.49-6.29c7.14-10.53,6.04-25.01-3.28-34.33
	c-9.36-9.36-23.93-10.42-34.47-3.19c-2.22-3.08-4.35-6.24-6.35-9.46c10.73-6.97,15.33-20.84,10.26-33.07
	c-5.09-12.28-18.23-18.84-30.81-16.09c-0.88-3.68-1.64-7.42-2.26-11.17c12.68-2.25,22.34-13.35,22.34-26.66
	c0-13.36-9.72-24.49-22.47-26.69c0.61-3.74,1.35-7.47,2.22-11.19c12.61,2.85,25.87-3.71,30.99-16.06
	c5.13-12.38,0.36-26.43-10.64-33.32c2-3.25,4.11-6.42,6.31-9.51c4.56,3.27,10.01,5.03,15.73,5.03c7.23,0,14.03-2.82,19.15-7.93
	c5.12-5.11,7.93-11.92,7.93-19.15c0-5.74-1.78-11.22-5.07-15.79c3.09-2.23,6.27-4.34,9.49-6.34c2.96,4.79,7.34,8.53,12.65,10.73
	c6.68,2.77,14.04,2.77,20.74,0c12.41-5.14,18.98-18.5,16.01-31.18c3.69-0.87,7.43-1.61,11.2-2.23c0.9,5.56,3.52,10.69,7.58,14.75
	c5.11,5.11,11.92,7.93,19.15,7.93l0,0c7.23,0,14.03-2.82,19.15-7.93c4.05-4.05,6.65-9.15,7.57-14.68c3.74,0.62,7.47,1.38,11.18,2.26
	c-1.27,5.45-0.8,11.15,1.38,16.43c2.77,6.68,7.97,11.89,14.66,14.66c12.34,5.11,26.35,0.39,33.26-10.55
	c3.24,2.01,6.41,4.13,9.48,6.35c-7.45,10.56-6.46,25.31,2.99,34.75c5.11,5.11,11.91,7.93,19.15,7.93c5.62,0,10.99-1.7,15.5-4.86
	c2.21,3.1,4.32,6.27,6.3,9.5c-10.82,6.94-15.48,20.87-10.39,33.16c2.77,6.68,7.97,11.89,14.65,14.66
	c5.13,2.13,10.67,2.62,15.98,1.48c0.86,3.69,1.59,7.42,2.2,11.17c-12.57,2.34-22.12,13.39-22.12,26.62
	C341.09,213.63,350.57,224.64,363.06,227.04z M199.95,133.02c-36.94,0-67,30.05-67,66.98s30.06,66.98,67,66.98s67-30.05,67-66.98
	S236.89,133.02,199.95,133.02z M199.95,256.98c-31.43,0-56.99-25.56-56.99-56.98s25.57-56.98,56.99-56.98s56.99,25.56,56.99,56.98
	C256.94,231.42,231.38,256.98,199.95,256.98z M199.95,152.7c-26.09,0-47.31,21.22-47.31,47.3s21.23,47.3,47.31,47.3
	s47.31-21.22,47.31-47.3S226.03,152.7,199.95,152.7z M199.95,237.3c-20.58,0-37.31-16.73-37.31-37.3s16.73-37.3,37.31-37.3
	c20.58,0,37.31,16.73,37.31,37.3S220.52,237.3,199.95,237.3z"/>
</svg>
