<svg id="Ebene_1" data-name="Ebene 1" xmlns="http://www.w3.org/2000/svg" viewBox="0 0 400 400"><defs><style>.cls-1{fill:#fff;}</style></defs><path class="cls-1" d="M299.88,164c-75,0-136,61-136,136s61,136,136,136,136-61,136-136S374.85,164,299.88,164Zm0,261.92a126,126,0,1,1,126-126A126.1,126.1,0,0,1,299.88,426Zm0-326c-110.28,0-200,89.72-200,200s89.72,200,200,200,200-89.72,200-200S410.16,100,299.88,100Zm0,390c-104.77,0-190-85.23-190-190s85.23-190,190-190,190,85.23,190,190S404.65,490,299.88,490Zm25.17-250V225H274.71v15a65,65,0,1,0,50.34,0ZM299.88,355a55,55,0,0,1-18.49-106.86l3.32-1.19V235h30.34v12l3.32,1.19A55,55,0,0,1,299.88,355Z" transform="translate(-99.88 -100)"/></svg>