<svg id="Ebene_1" data-name="Ebene 1" xmlns="http://www.w3.org/2000/svg" viewBox="0 0 400 400"><defs><style>.cls-1{fill:#fff;}</style></defs><path class="cls-1" d="M299.88,227.38A72.62,72.62,0,1,0,372.5,300,72.71,72.71,0,0,0,299.88,227.38Zm0,135.24A62.62,62.62,0,1,1,362.5,300,62.69,62.69,0,0,1,299.88,362.62Zm0-262.62c-110.28,0-200,89.72-200,200s89.72,200,200,200,200-89.72,200-200S410.16,100,299.88,100Zm0,390c-104.77,0-190-85.23-190-190s85.23-190,190-190,190,85.23,190,190S404.65,490,299.88,490Zm0-366.5c-97.32,0-176.5,79.18-176.5,176.5s79.18,176.5,176.5,176.5,176.5-79.18,176.5-176.5S397.2,123.5,299.88,123.5ZM425.36,205a15.17,15.17,0,0,0,4.11-9.42,165.74,165.74,0,0,1,36,86.7,15.22,15.22,0,0,0-9.66-3.85L427,273.6a55.3,55.3,0,0,0-18.51,0l-17.23,2.9A93.32,93.32,0,0,0,381.1,252l14.26-10.15a55.3,55.3,0,0,0,13.09-13.08Zm-21.06-34.6a15.21,15.21,0,0,0-9.42,4.11l-23.77,16.91A55.86,55.86,0,0,0,358,204.51l-10.14,14.27a93.32,93.32,0,0,0-24.5-10.18l2.9-17.23a55.3,55.3,0,0,0,0-18.51l-4.84-28.76a15.22,15.22,0,0,0-3.85-9.66A165.8,165.8,0,0,1,404.3,170.41Zm-122.13-36a15.22,15.22,0,0,0-3.85,9.66l-4.84,28.76a55.3,55.3,0,0,0,0,18.51l2.9,17.23a93.32,93.32,0,0,0-24.5,10.18l-10.15-14.27a55.63,55.63,0,0,0-13.08-13.08l-23.76-16.91a15.26,15.26,0,0,0-9.43-4.11A165.8,165.8,0,0,1,282.17,134.44ZM170.29,195.59A15.21,15.21,0,0,0,174.4,205l16.91,23.77a55.52,55.52,0,0,0,13.09,13.09L218.66,252a93.32,93.32,0,0,0-10.18,24.5l-17.23-2.9a55.3,55.3,0,0,0-18.51,0L144,278.44a15.2,15.2,0,0,0-9.66,3.85A165.74,165.74,0,0,1,170.29,195.59ZM174.4,395a15.21,15.21,0,0,0-4.11,9.41,165.74,165.74,0,0,1-36-86.7,15.22,15.22,0,0,0,9.66,3.85l28.76,4.84a55.3,55.3,0,0,0,18.51,0l17.23-2.9A93.32,93.32,0,0,0,218.66,348l-14.27,10.15a55.63,55.63,0,0,0-13.08,13.08Zm21.07,34.59a15.26,15.26,0,0,0,9.42-4.11l23.76-16.91a55.52,55.52,0,0,0,13.09-13.09l10.14-14.26a93.32,93.32,0,0,0,24.5,10.18l-2.9,17.23a55.3,55.3,0,0,0,0,18.51l4.84,28.76a15.22,15.22,0,0,0,3.85,9.66A165.74,165.74,0,0,1,195.47,429.59Zm122.12,36a15.22,15.22,0,0,0,3.85-9.66l4.84-28.76a55.3,55.3,0,0,0,0-18.51l-2.9-17.23a93.32,93.32,0,0,0,24.5-10.18L358,395.48a55.52,55.52,0,0,0,13.09,13.09l23.77,16.91a15.21,15.21,0,0,0,9.41,4.11A165.74,165.74,0,0,1,317.59,465.56ZM418,409.22l-8.87,8.87a5.3,5.3,0,0,1-7.48,0l-.3-.3-24.41-17.37a45.59,45.59,0,0,1-10.74-10.73l-15.69-22.06-4,2.68a83.52,83.52,0,0,1-29.77,12.37l-4.74,1,4.49,26.65a45.56,45.56,0,0,1,0,15.19l-5,29.54v.42a5.29,5.29,0,0,1-5.29,5.29H293.61a5.29,5.29,0,0,1-5.29-5.29V455l-5-29.55a45.44,45.44,0,0,1,0-15.17l4.49-26.66-4.74-1a83.52,83.52,0,0,1-29.77-12.37l-4-2.68-15.69,22.06a45.59,45.59,0,0,1-10.74,10.73l-24.41,17.37-.3.3a5.3,5.3,0,0,1-7.48,0l-8.87-8.87a5.3,5.3,0,0,1,0-7.48l.3-.3L199.46,377a45.59,45.59,0,0,1,10.73-10.74l22.06-15.69-2.68-4a83.65,83.65,0,0,1-12.37-29.78l-1-4.74-26.64,4.49a45.56,45.56,0,0,1-15.19,0l-29.54-5h-.42a5.29,5.29,0,0,1-5.29-5.29V293.73a5.29,5.29,0,0,1,5.29-5.29h.42l29.54-5a45.5,45.5,0,0,1,15.18,0L216.23,288l1-4.74a83.52,83.52,0,0,1,12.37-29.77l2.68-4-22.06-15.69A45.59,45.59,0,0,1,199.46,223l-17.37-24.41-.3-.3a5.3,5.3,0,0,1,0-7.48l8.87-8.87a5.3,5.3,0,0,1,7.48,0l.3.3,24.41,17.37a45.78,45.78,0,0,1,10.74,10.73l15.69,22.06,4-2.68a83.65,83.65,0,0,1,29.78-12.37l4.74-1-4.49-26.65a45.5,45.5,0,0,1,0-15.18l5-29.54v-.42a5.29,5.29,0,0,1,5.29-5.29h12.54a5.29,5.29,0,0,1,5.29,5.29V145l5,29.54a45.56,45.56,0,0,1,0,15.19l-4.49,26.64,4.74,1a83.65,83.65,0,0,1,29.78,12.37l4,2.68,15.69-22.06a45.59,45.59,0,0,1,10.74-10.73l24.41-17.37.3-.3a5.3,5.3,0,0,1,7.48,0l8.87,8.87a5.29,5.29,0,0,1,0,7.48l-.3.3L400.3,223a45.59,45.59,0,0,1-10.73,10.74L367.51,249.4l2.68,4a83.52,83.52,0,0,1,12.37,29.77l1,4.74,26.65-4.49a45.56,45.56,0,0,1,15.19,0l29.54,5h.42a5.29,5.29,0,0,1,5.29,5.29v12.54a5.29,5.29,0,0,1-5.29,5.29h-.42l-29.54,5a45.56,45.56,0,0,1-15.19,0l-26.64-4.49-1,4.74a83.57,83.57,0,0,1-12.37,29.78l-2.68,4,22.06,15.69A45.59,45.59,0,0,1,400.3,377l17.37,24.41.3.3a5.29,5.29,0,0,1,0,7.48Zm11.5-4.81a15.17,15.17,0,0,0-4.11-9.42l-16.91-23.76a55.86,55.86,0,0,0-13.08-13.09L381.1,348a93.32,93.32,0,0,0,10.18-24.5l17.23,2.9a55.3,55.3,0,0,0,18.51,0l28.76-4.84a15.22,15.22,0,0,0,9.66-3.85A165.74,165.74,0,0,1,429.47,404.41Z" transform="translate(-99.88 -100)"/></svg>