<svg id="Ebene_1" data-name="Ebene 1" xmlns="http://www.w3.org/2000/svg" viewBox="0 0 400 400"><defs><style>.cls-1{fill:#fff;}</style></defs><path class="cls-1" d="M299.88,246.12a60,60,0,1,0,60,60.05A60.11,60.11,0,0,0,299.88,246.12Zm0,110.09a50,50,0,1,1,50-50A50.1,50.1,0,0,1,299.88,356.21Zm88.19-93.78a99.13,99.13,0,0,0-44.56-44.5L328.94,160.4H270.82l-14.57,57.53a99.13,99.13,0,0,0-44.56,44.5L154.24,277V335.1l57.31,14.51a99.14,99.14,0,0,0,44.77,44.83l14.5,57.24h58.12l14.5-57.24a99.14,99.14,0,0,0,44.77-44.83l57.31-14.51V277Zm-109.46-92h42.54L332,213.09a98.39,98.39,0,0,0-64.18,0ZM206.74,338.08l-42.5-10.77V284.77L206.84,274a98.5,98.5,0,0,0-.1,64.1Zm114.41,103.6H278.61l-10.75-42.41a98.5,98.5,0,0,0,64,0Zm-21.27-47.06a88.46,88.46,0,1,1,88.45-88.45A88.55,88.55,0,0,1,299.88,394.62Zm135.64-67.31L393,338.08a98.5,98.5,0,0,0-.1-64.1l42.6,10.79ZM299.88,100c-110.28,0-200,89.72-200,200s89.72,200,200,200,200-89.72,200-200S410.16,100,299.88,100Zm0,390c-104.77,0-190-85.23-190-190s85.23-190,190-190,190,85.23,190,190S404.65,490,299.88,490Z" transform="translate(-99.88 -100)"/></svg>