<svg id="Ebene_1" data-name="Ebene 1" xmlns="http://www.w3.org/2000/svg" viewBox="0 0 541.27 400"><defs><style>.cls-1{fill:#fff;}</style></defs><path class="cls-1" d="M536.5,411.32H447.77v10H536.5Zm0-52.4H447.77v10H536.5Zm0-26.2H447.77v10H536.5Zm0,52.4H447.77v10H536.5Zm4.44-228.22V100H147.56v56.9H118v51H88.4v66.55H29.24v68H88.4v66.55H118v52.5h22.18V500H548.33V461.55h22.19V156.9ZM88.4,332.5H39.24v-48H88.4ZM118,399.05H98.4V217.92H118Zm39.58-289H530.94v46.9H157.56ZM538.33,490H150.16V462H538.33Zm22.19-38.45H128V166.9H339.25V451.2h10V166.9H560.52ZM152,342.72h88.74v-10H152Zm0,26.2h88.74v-10H152Zm0,26.2h88.74v-10H152Zm0,26.2h88.74v-10H152Z" transform="translate(-29.24 -100)"/></svg>