<svg id="Ebene_1" data-name="Ebene 1" xmlns="http://www.w3.org/2000/svg" viewBox="0 0 332 332"><defs><style>.cls-1{fill:#fff;}</style></defs><path class="cls-1" d="M274.26,274.28a36.38,36.38,0,1,0,51.45,0A36.44,36.44,0,0,0,274.26,274.28Zm44.38,44.39h0a26.38,26.38,0,1,1,0-37.31A26.19,26.19,0,0,1,318.64,318.67ZM455,294a11,11,0,0,0,11-11V229a11,11,0,0,0-11-11H430v-9c0-19.68-19.32-39-39-39h-9V145a11,11,0,0,0-11-11H317a11,11,0,0,0-11,11v25H294V145a11,11,0,0,0-11-11H229a11,11,0,0,0-11,11v25H203.48L170,203.48V218H145a11,11,0,0,0-11,11v54a11,11,0,0,0,11,11h25v12H145a11,11,0,0,0-11,11v54a11,11,0,0,0,11,11h25v10c0,19.89,18.11,38,38,38h10v25a11,11,0,0,0,11,11h54a11,11,0,0,0,11-11V430h12v25a11,11,0,0,0,11,11h54a11,11,0,0,0,11-11V430h14.52L430,396.52V382h25a11,11,0,0,0,11-11V317a11,11,0,0,0-11-11H430V294Zm-25-66h25a1,1,0,0,1,1,1v54a1,1,0,0,1-1,1H430ZM170,372H145a1,1,0,0,1-1-1V317a1,1,0,0,1,1-1h25Zm0-88H145a1,1,0,0,1-1-1V229a1,1,0,0,1,1-1h25ZM316,145a1,1,0,0,1,1-1h54a1,1,0,0,1,1,1v25H316Zm-88,0a1,1,0,0,1,1-1h54a1,1,0,0,1,1,1v25H228Zm-48,62.62L207.62,180h101L180,308.61Zm0,115.13L322.75,180h11.18L180,333.94ZM284,455a1,1,0,0,1-1,1H229a1,1,0,0,1-1-1V430h56Zm88,0a1,1,0,0,1-1,1H317a1,1,0,0,1-1-1V430h56Zm48-62.62L392.38,420h-101L420,291.39Zm0-115.13L277.25,420H266.07L420,266.07Zm0-27.6v.28a4.23,4.23,0,0,1-1.23,3.23l-165.6,165.6a4.23,4.23,0,0,1-3.23,1.23H208c-14.13,0-28-13.87-28-28l0-41.65v-.29a4.22,4.22,0,0,1,1.23-3.22l165.6-165.6a4.22,4.22,0,0,1,3.22-1.23h.15L391,180c14.36,0,29,14.64,29,29ZM455,316a1,1,0,0,1,1,1v54a1,1,0,0,1-1,1H430V316Z" transform="translate(-134 -134)"/></svg>