<svg id="Ebene_1" data-name="Ebene 1" xmlns="http://www.w3.org/2000/svg" viewBox="0 0 400 400"><defs><style>.cls-1{fill:#fff;}</style></defs><path class="cls-1" d="M299.88,500c-110.28,0-200-89.72-200-200s89.72-200,200-200,200,89.72,200,200S410.16,500,299.88,500Zm0-390c-104.77,0-190,85.23-190,190s85.23,190,190,190,190-85.23,190-190S404.65,110,299.88,110Zm0,371.41a180.3,180.3,0,0,1-88.09-22.86c-1-.45-2-1-2.91-1.51a34.38,34.38,0,0,1-3-1.94,181.54,181.54,0,0,1-87.33-150,36.76,36.76,0,0,1-.37-5.16,35.76,35.76,0,0,1,.38-5.2,181.48,181.48,0,0,1,86.33-149.23,35.3,35.3,0,0,1,4-2.68,34.22,34.22,0,0,1,4.07-2,180.32,180.32,0,0,1,86.93-22.22c100,0,181.41,81.38,181.41,181.41S399.91,481.41,299.88,481.41Zm-61.79-21.52a171.49,171.49,0,0,0,123.3.11c-.67-.22-1.33-.46-2-.73L309,439.18a25.46,25.46,0,0,0-18.88,0l-50.38,20.09C239.21,459.49,238.65,459.7,238.09,459.89Zm61.49-32.53a35.42,35.42,0,0,1,13.14,2.54L363.1,450a25.48,25.48,0,0,0,34.66-20l7.8-53.67a35.37,35.37,0,0,1,13.14-22.77L461.28,320a25.49,25.49,0,0,0,0-40h0L418.7,246.34a35.37,35.37,0,0,1-13.14-22.77l-7.8-53.67a25.48,25.48,0,0,0-34.66-20L312.72,170a35.42,35.42,0,0,1-26.28,0l-50.38-20.09a25.35,25.35,0,0,0-18.82,0q-3.35,1.84-6.6,3.84a25.35,25.35,0,0,0-9.24,16.2l-7.8,53.67a35.32,35.32,0,0,1-13.14,22.77l-42.58,33.58a25.33,25.33,0,0,0-9.35,15.74c0,1.44-.06,2.89-.06,4.34s0,2.79.05,4.19A25.35,25.35,0,0,0,137.88,320l42.58,33.58A35.32,35.32,0,0,1,193.6,376.3L201.4,430a25.34,25.34,0,0,0,10,16.82q2.4,1.44,4.84,2.82a25.29,25.29,0,0,0,19.78.37l50.38-20.08A35.42,35.42,0,0,1,299.58,427.36Zm169.7-101.08c-.58.52-1.18,1-1.8,1.52l-42.59,33.58a25.46,25.46,0,0,0-9.44,16.35l-7.79,53.68c-.1.7-.22,1.39-.36,2.08A171.49,171.49,0,0,0,469.28,326.28Zm-338.7.61a171.51,171.51,0,0,0,61.17,106c-.09-.5-.18-1-.25-1.5l-7.79-53.68a25.42,25.42,0,0,0-9.44-16.35L131.68,327.8C131.31,327.5,130.94,327.2,130.58,326.89Zm336.9-54.82c.61.48,1.2,1,1.78,1.5a171.47,171.47,0,0,0-61.93-107c.13.63.24,1.28.33,1.92l7.79,53.68a25.46,25.46,0,0,0,9.44,16.35l42.59,33.58ZM191.72,167.12A171.5,171.5,0,0,0,130.6,273l1.08-.89,42.59-33.58a25.42,25.42,0,0,0,9.44-16.35l7.79-53.68C191.57,168,191.64,167.56,191.72,167.12ZM238.27,140c.5.17,1,.36,1.49.56l50.38,20.09a25.46,25.46,0,0,0,18.88,0L359.4,140.6c.6-.24,1.2-.46,1.81-.67a171.5,171.5,0,0,0-122.94.11ZM360.08,426.58a24.52,24.52,0,1,1,24.51-24.51A24.55,24.55,0,0,1,360.08,426.58Zm0-39a14.52,14.52,0,1,0,14.51,14.52A14.54,14.54,0,0,0,360.08,387.55Zm-122.3,39a24.52,24.52,0,1,1,24.52-24.51A24.54,24.54,0,0,1,237.78,426.58Zm0-39a14.52,14.52,0,1,0,14.52,14.52A14.53,14.53,0,0,0,237.78,387.55Zm61.8,2.6a90.22,90.22,0,1,1,90.22-90.21A90.32,90.32,0,0,1,299.58,390.15Zm0-170.43a80.22,80.22,0,1,0,80.22,80.22A80.31,80.31,0,0,0,299.58,219.72Zm0,137.26a57,57,0,1,1,57-57A57.11,57.11,0,0,1,299.58,357Zm0-104.09a47,47,0,1,0,47,47.05A47.1,47.1,0,0,0,299.58,252.89Zm121.77,71.56a24.52,24.52,0,1,1,24.51-24.51A24.55,24.55,0,0,1,421.35,324.45Zm0-39a14.52,14.52,0,1,0,14.51,14.52A14.53,14.53,0,0,0,421.35,285.42Zm-243.54,39a24.52,24.52,0,1,1,24.52-24.51A24.54,24.54,0,0,1,177.81,324.45Zm0-39a14.52,14.52,0,1,0,14.52,14.52A14.53,14.53,0,0,0,177.81,285.42Zm182.27-63.1a24.52,24.52,0,1,1,24.51-24.52A24.55,24.55,0,0,1,360.08,222.32Zm0-39a14.52,14.52,0,1,0,14.51,14.51A14.54,14.54,0,0,0,360.08,183.29Zm-122.3,39A24.52,24.52,0,1,1,262.3,197.8,24.54,24.54,0,0,1,237.78,222.32Zm0-39A14.52,14.52,0,1,0,252.3,197.8,14.53,14.53,0,0,0,237.78,183.29Z" transform="translate(-99.88 -100)"/></svg>