<svg id="Ebene_1" data-name="Ebene 1" xmlns="http://www.w3.org/2000/svg" viewBox="0 0 400.17 400"><defs><style>.cls-1{fill:#fff;}</style></defs><path class="cls-1" d="M265.07,500H235.29V424H212.58V402.88H103.71l83.37-83.34h25.5V303h75v16.54h25.7l83.38,83.34H287.59V424H265.07Zm-19.78-10h9.78V424h-9.78Zm-22.71-76h55v-6.12h-55Zm-94.72-21.12H372.52l-63.37-63.34H191.22Zm94.72-73.76h55V313h-55ZM406.76,393l-83.34-83.37V284.42H306.88v-75h16.54v-26L406.76,100V209.42H423V233h80.88v29.77H423v21.63H406.76Zm-73.34-87.51,63.34,63.36V124.15l-63.34,63.36Zm73.46-31H413V262.79h-.12V233H413v-13.6h-6.12Zm-90,0H323v-55h-6.12ZM423,252.79h70.88V243H423Z" transform="translate(-103.71 -100)"/></svg>