<svg id="Ebene_1" data-name="Ebene 1" xmlns="http://www.w3.org/2000/svg" viewBox="0 0 410.06 400"><defs><style>.cls-1{fill:#fff;}</style></defs><path class="cls-1" d="M303.77,430.47l-4-5-3.86,5.12a89.44,89.44,0,0,0-10.6,17.9,36.86,36.86,0,0,0-3.2,14.26v1.88a17.83,17.83,0,0,0,17.8,16.89,17.54,17.54,0,0,0,17.8-16.72v-1.89A35.75,35.75,0,0,0,314.53,449,70.17,70.17,0,0,0,303.77,430.47Zm3.91,34.06a7.84,7.84,0,0,1-15.6-.16v-1.6a26.93,26.93,0,0,1,2.4-10.34A72.07,72.07,0,0,1,300,442.27a55.91,55.91,0,0,1,5.24,10.34l.09.21a26.29,26.29,0,0,1,2.4,10.11Zm197-219.6v-28.5H494.42V129.52a20.17,20.17,0,0,0-20.11-20.18H379.73V100H351.34v9.34H266.73V100H238.34v9.34H125.45a20.17,20.17,0,0,0-20.11,20.18v48.6H94.63v28.51h10.71v38.49a20.17,20.17,0,0,0,20.11,20.18H279.76V341H265.37v43.54h14.39v2l.14,8.77,14,18.31h11.81l14.14-17.19.08-11.86h13.58V341H320l-.1-95.85H320a20.17,20.17,0,0,0-20.12-20.18H145.57V206.63H153V178.12h-7.45V149.7h92.77v8.93h28.39V149.7h84.61v8.93h28.39V149.7h74.46v66.73H446.3v28.5h7.89V380.3h-9.31v28.5h9.31v71a20.12,20.12,0,1,0,40.23,0v-71h8.85V380.3h-8.85V244.93Zm-400.06-48.3v-8.51H143v8.51ZM309.89,392.75,301,403.56h-2.15l-9-11.77-.09-5.38v-1.9H310ZM323.53,351v23.54H275.37V351Zm-23.65-116A10.16,10.16,0,0,1,310,244.78h-.11L310,341H289.76V255.3H125.45a10.16,10.16,0,0,1-10.11-10.18V206.63h20.23v28.31ZM238.34,139.7H135.57v38.42H115.34v-48.6a10.16,10.16,0,0,1,10.11-10.18H238.34Zm18.39,8.93h-8.39V110h8.39Zm94.61-8.93H266.73V119.34h84.61Zm18.39,8.93h-8.39V110h8.39Zm10-8.93V119.34h94.58a10.16,10.16,0,0,1,10.11,10.18v86.91H464.19V139.7ZM484.42,479.82a10.12,10.12,0,1,1-20.23,0v-71h20.23Zm8.85-81H454.88v-8.5h38.39Zm-29.08-18.5V244.93h20.23V380.3ZM456.3,234.93v-8.5h38.39v8.5Z" transform="translate(-94.63 -100)"/></svg>