<svg id="Ebene_1" data-name="Ebene 1" xmlns="http://www.w3.org/2000/svg" viewBox="0 0 577.92 400"><defs><style>.cls-1{fill:#fff;}</style></defs><path class="cls-1" d="M238,237c0-23.55-37.33-42-85-42s-85,18.45-85,42,37.34,42,85,42S238,260.55,238,237ZM78,237c0-15.45,30.14-32,75-32s75,16.55,75,32-30.13,32-75,32S78,252.45,78,237ZM588.84,500,377.5,288.66l-86.76,86.75a920.73,920.73,0,0,0-4.86-212.76l8.36-31.3a24.86,24.86,0,0,0-30.43-30.48l-30.62,8.22a360.73,360.73,0,0,0-160.35,0l-30.63-8.22a24.87,24.87,0,0,0-30.43,30.48l8.37,31.3a920.7,920.7,0,0,0,0,254.7l-8.36,31.3A24.89,24.89,0,0,0,35.67,480a25,25,0,0,0,6.54-.87l30.63-8.22q15.63,3.52,31.35,5.67L80.77,500ZM377.5,302.8,564.7,490H396.14L293.22,387.08ZM382,490H104.91L243.45,351.46ZM73.86,460.88l-1.22-.28-33,8.87a14.86,14.86,0,0,1-18.17-18.24L30.34,418l-.15-1a910.51,910.51,0,0,1,0-253.92l.15-1-8.9-33.26a14.88,14.88,0,0,1,18.18-18.25l33,8.88,1.22-.28a350.87,350.87,0,0,1,158.31,0l1.21.28,33-8.88a14.87,14.87,0,0,1,18.17,18.25L275.69,162l.14,1a910,910,0,0,1,4.92,211.57l-37.3-37.3L113.14,467.63A357.55,357.55,0,0,1,73.86,460.88Z" transform="translate(-10.92 -100)"/></svg>