<svg id="Ebene_1" data-name="Ebene 1" xmlns="http://www.w3.org/2000/svg" viewBox="0 0 392.35 400"><defs><style>.cls-1{fill:#fff;}</style></defs><path class="cls-1" d="M175.84,500a40.3,40.3,0,1,1,17.3-76.69L234.48,351A62.23,62.23,0,0,1,207,305H160.53a30,30,0,1,1-.29-10H206.9a62.14,62.14,0,0,1,25.62-46.09l-40.75-71.3a40.39,40.39,0,1,1,8.7-4.94l40.59,71a62.17,62.17,0,0,1,55-.38l22.69-39.7a29.88,29.88,0,1,1,8.6,5.11l-22.68,39.67A62.2,62.2,0,0,1,331,295h81.92a40.29,40.29,0,1,1-.13,10h-81.9a62.26,62.26,0,0,1-28.19,46.5L326.39,393A30.11,30.11,0,1,1,318,398.5l-24.17-42.3a62.15,62.15,0,0,1-50.65-.35l-41.65,72.86A40.28,40.28,0,0,1,175.84,500Zm0-70.6a30.3,30.3,0,1,0,30.3,30.3A30.34,30.34,0,0,0,175.84,429.4Zm162.72-29a20,20,0,1,0,20,20A20.05,20.05,0,0,0,338.56,400.37ZM268.94,247.05a52.19,52.19,0,1,0,52.18,52.18A52.24,52.24,0,0,0,268.94,247.05Zm183.87,23.12a30.3,30.3,0,1,0,30.3,30.3A30.33,30.33,0,0,0,452.81,270.17Zm-322,10.64a20,20,0,1,0,20,20A20,20,0,0,0,130.79,280.81ZM338.11,160.63a20,20,0,1,0,20,20A20,20,0,0,0,338.11,160.63ZM176.42,110a30.3,30.3,0,1,0,30.3,30.3A30.34,30.34,0,0,0,176.42,110Z" transform="translate(-100.77 -100)"/></svg>