<svg id="Ebene_1" data-name="Ebene 1" xmlns="http://www.w3.org/2000/svg" viewBox="0 0 541.54 400"><defs><style>.cls-1{fill:#fff;}</style></defs><path class="cls-1" d="M570.65,180.75l-28.06-57.52L522.53,133V100H77.23v33l-20.06-9.78L29.11,180.75l48.12,23.47V500h445.3V204.22Zm-13.37-4.6-71.91,35.07-19.28-39.55L538,136.6ZM305.05,110c-.78,19.57-2,65.39,1.27,115.43,5.8,89.53,22.29,149.32,49,177.72a69.25,69.25,0,0,0,8.64,7.79H235.77a69.25,69.25,0,0,0,8.64-7.79c26.74-28.4,43.24-88.19,49-177.72,3.23-50,2.05-95.86,1.27-115.43Zm84.83,164.4a9,9,0,1,1,9-9A9,9,0,0,1,389.88,274.4ZM61.77,136.6l71.9,35.07-19.28,39.55L42.48,176.15Zm53.59,86.22,8.94,26,9.65-3.32-10.4-30.2,18.94-38.84L172.7,166l-3.33-9.64-26,8.94L87.23,137.89V110H284.49c1.75,44,5.75,229.6-47.51,286.16-7.44,7.9-15.51,12.78-24.46,14.78H87.23V209.1ZM396.9,422.07H512.53V490H87.23V422.07H202.86v.11c1.14,0,2.27,0,3.4-.11H396.9Zm115.63-11.13H395V283.69a19,19,0,1,0-10.2,0V410.31c-8-2.3-15.25-7-22-14.15C309.54,339.62,313.53,154,315.27,110H512.53v27.89L456.34,165.3l-26-8.94L427.06,166l30.21,10.41,18.94,38.84-10.4,30.2,9.65,3.32,8.93-26,28.14-13.72Z" transform="translate(-29.11 -100)"/></svg>