<svg id="Ebene_1" data-name="Ebene 1" xmlns="http://www.w3.org/2000/svg" viewBox="0 0 454.8 400"><defs><style>.cls-1{fill:#fff;}</style></defs><path class="cls-1" d="M301.28,500c-32.49,0-62.8-6.85-90.09-20.37A204,204,0,0,1,152,434.88a234.8,234.8,0,0,1-35.91-51.09l-4.26,20.35L72,395.79l20.52-97.31,94.72,31.09-12.85,38.77L151.86,361a177.21,177.21,0,0,0,28.3,44c31,35.18,71.75,53,121.12,53,32.57,0,61.2-7.7,85.1-22.91,19.11-12.15,35.33-29.13,48.19-50.47,22-36.56,26.59-73.44,26.63-73.81l.7-6,41,12.62-.66,4.27c-.29,1.82-7.24,45.06-35.36,88.95-16.59,25.9-37.13,46.55-61,61.38C376,490.6,340.77,500,301.28,500ZM112.88,350.18l6.06,16c.11.31,12.14,31.47,40.62,62.16a193.86,193.86,0,0,0,56.28,42.4C241.68,483.53,270.43,490,301.28,490c37.6,0,71-8.9,99.29-26.44,22.63-14,42.11-33.64,57.89-58.27a252.13,252.13,0,0,0,33.09-80.86l-21.34-6.57a219.25,219.25,0,0,1-27.08,71.91c-13.66,22.67-30.95,40.76-51.38,53.75-25.54,16.24-56,24.47-90.47,24.47-65.42,0-106.2-30.84-128.9-56.71-24.53-28-33.51-55.63-33.88-56.79l-3-9.28L168,355.76l6.57-19.82L100,311.46l-16.15,76.6,20.21,4.24,8.82-42.12Zm181.75,59.87A110.22,110.22,0,0,1,188.54,297.21c1.46-57.74,48-104.94,105.7-107.18A110.09,110.09,0,0,1,304.39,410l-9.76.08Zm-79.69-55.12A100.3,100.3,0,0,0,279,398.2a80,80,0,0,1-8.61-8.89c-6.31-7.56-13.25-18.65-18.42-34.38Zm132.1,0c-5.17,15.73-12.11,26.82-18.42,34.38a81.49,81.49,0,0,1-8,8.38,100.42,100.42,0,0,0,61.66-42.76Zm-42.41,0v42.22a65.48,65.48,0,0,0,16.78-14.81,92.29,92.29,0,0,0,15.06-27.41Zm-42.08,0a92.29,92.29,0,0,0,15.06,27.41,65.51,65.51,0,0,0,16.78,14.81V354.93Zm87.35-10H388a99.36,99.36,0,0,0,10.54-40.28H354.89a182,182,0,0,1-5,40.28Zm-45.27,0h35a169.7,169.7,0,0,0,5.3-40.28H304.63v40.28Zm-45.2,0h35V304.65H254.13a169.7,169.7,0,0,0,5.3,40.28Zm-50.28,0h40a182.61,182.61,0,0,1-5-40.28H198.61a99.52,99.52,0,0,0,10.54,40.28Zm145.73-50.28h43.64a99.15,99.15,0,0,0-10.85-40.2H349.74a180.4,180.4,0,0,1,5.14,40.2Zm-50.25,0h40.24a166.79,166.79,0,0,0-5.46-40.2H304.63v40.2Zm-50.48,0h40.24v-40.2H259.61a166.79,166.79,0,0,0-5.46,40.2Zm-55.5,0h45.49a179.81,179.81,0,0,1,5.14-40.2H209.5a99.46,99.46,0,0,0-10.85,40.2Zm148.14-50.2h35a100.37,100.37,0,0,0-62.63-42.38,76,76,0,0,1,9.71,9.57c6.12,7.2,12.84,17.76,17.93,32.81Zm-42.16,0H336.2a87.71,87.71,0,0,0-14.47-25.75,61.12,61.12,0,0,0-17.1-14.47v40.22Zm-41.81,0h31.57V204.23a60.77,60.77,0,0,0-17.1,14.47,87.49,87.49,0,0,0-14.47,25.75Zm-47.42,0h36.83c5.09-15,11.81-25.61,17.93-32.81a74.93,74.93,0,0,1,10.3-10,100.29,100.29,0,0,0-65.06,42.86Zm290.88,57.08-94.73-31.1,12.85-38.77L446.94,239a177.69,177.69,0,0,0-28.3-44c-31-35.18-71.76-53-121.12-53-32.49,0-61.07,7.67-84.93,22.8-19.11,12.11-35.32,29-48.19,50.29-22.12,36.56-26.76,73.73-26.81,74.11l-.71,6-41-12.62.66-4.27c.28-1.82,7.24-45.06,35.36-88.95,16.59-25.89,37.12-46.54,61-61.38C222.84,109.4,258,100,297.52,100c32.48,0,62.79,6.85,90.09,20.37a204,204,0,0,1,59.22,44.75,235.16,235.16,0,0,1,35.91,51.09L487,195.86l39.8,8.35-20.52,97.32ZM424.2,264.06l74.6,24.49L515,211.94l-20.21-4.24-8.82,42.13-6.06-16c-.12-.31-12.14-31.47-40.63-62.16A193.82,193.82,0,0,0,383,129.23C357.11,116.47,328.37,110,297.52,110c-37.53,0-70.88,8.86-99.12,26.33-22.62,14-42.09,33.54-57.88,58.1-22.13,34.42-30.8,69.29-33.27,81.14l21.33,6.57a219.73,219.73,0,0,1,27.08-71.91c13.67-22.67,31-40.76,51.39-53.75C232.58,140.24,263,132,297.52,132c65.41,0,106.2,30.84,128.89,56.71,24.54,28,33.52,55.63,33.89,56.79l2.95,9.28-32.48-10.55-6.57,19.82Z" transform="translate(-72 -100)"/></svg>