<svg id="Ebene_1" data-name="Ebene 1" xmlns="http://www.w3.org/2000/svg" viewBox="0 0 426.43 400"><defs><style>.cls-1{fill:#fff;}</style></defs><path class="cls-1" d="M472.65,187.83V100H403.33v87.83a74.91,74.91,0,0,0-40.45,66.62v75.31H142.36a33.19,33.19,0,0,0-33.16,33.16v13.27H86.66v77.38H109.2v13.27A33.2,33.2,0,0,0,142.36,500H391.48a33.19,33.19,0,0,0,28.81-16.76h72.78a20.06,20.06,0,0,0,20-20V254.45A74.91,74.91,0,0,0,472.65,187.83ZM119.2,362.92a23.19,23.19,0,0,1,23.16-23.16H391.48a23.19,23.19,0,0,1,23.16,23.16v13.27H119.2ZM96.66,386.19H437.18v57.38H96.66ZM391.48,490H142.36a23.19,23.19,0,0,1-23.16-23.16V453.57H414.64v13.27A23.19,23.19,0,0,1,391.48,490ZM503.1,463.21a10,10,0,0,1-10,10H424a33.79,33.79,0,0,0,.62-6.4V453.57h22.54V376.19H424.64V362.92a33.19,33.19,0,0,0-33.16-33.16h-18.6V254.45A65,65,0,0,1,408,196.69l5.38-2.8V110h49.32v83.89l5.38,2.8a65,65,0,0,1,35.07,57.76Z" transform="translate(-86.66 -100)"/></svg>