<svg id="Ebene_1" data-name="Ebene 1" xmlns="http://www.w3.org/2000/svg" viewBox="0 0 446.08 400"><defs><style>.cls-1{fill:#fff;}</style></defs><path class="cls-1" d="M519.43,489.82l-15.77-8.2c-7.42-3.85-19-3.85-26.45,0l-8.65,4.5a13.63,13.63,0,0,1-10,.2l-12.08-5.67L485.4,369.19a7.56,7.56,0,0,0-4.2-9.44l-.68-.28-40.25-4.09c.2-5.16.2-14.16.06-30.46-.14-16.85-.43-33.78-.43-34a7.47,7.47,0,0,0-7.43-7.27H422.29V256a7.5,7.5,0,0,0-7.45-7.25h-33v-54a7.4,7.4,0,0,0-7.39-7.35h-44a7.39,7.39,0,0,0-7.38,7.38v53.93H290.73a7.39,7.39,0,0,0-7.38,7.38v27.57H272.93a7.39,7.39,0,0,0-7.38,7.38v64.27l-40.67,4.14-.67.28A7.53,7.53,0,0,0,220,369.2l39.62,112.37-7.63,3.8c-3.41,1.7-9.55,1.56-12.88-.29l-8.82-4.89a22.49,22.49,0,0,0-19.9-.16l-12.19,6.52V429.42a4.93,4.93,0,0,0-4.93-4.92H80.93a4.93,4.93,0,1,0,0,9.85H188.36v60.72a4.93,4.93,0,0,0,4.93,4.93,4.88,4.88,0,0,0,3.57-1.55l18.2-9.73a12.78,12.78,0,0,1,10.47.08l8.81,4.9c6.22,3.45,15.71,3.66,22.07.49l10.74-5.36a15.68,15.68,0,0,1,12,.11l9.74,5.06c6.28,3.27,15.77,3.31,22.07.1l10.25-5.22a15.43,15.43,0,0,1,11.95.06l10.3,5.35c6,3.1,15,3.14,21,.09l9.69-4.93c3.79-1.93,10.44-1.93,14.23,0l10.79,5.49a22,22,0,0,0,18.79-.25l8.77-4.76c4-2.19,11.22-2.4,15.36-.46l12.27,5.77a23.17,23.17,0,0,0,18.74-.38l8.65-4.5c4.63-2.4,12.74-2.4,17.36,0l15.77,8.2a5,5,0,0,0,2.27.55,4.92,4.92,0,0,0,2.28-9.29ZM332.91,197.27H372v51.46H332.91ZM293.2,258.58H412.44v25.1H293.2Zm54.4,226.74-9.86-5.12c-6-3.11-15-3.14-21-.1l-10.25,5.22c-3.42,1.74-9.64,1.71-13-.06l-9.75-5.06a25,25,0,0,0-14.84-2.05L230.33,368.82,347.6,356.89Zm2.59-138.6-74.78,7.61v-60.8H430.09c.33,20.26.64,49.7.36,60.85l-75-7.63Zm86.65,131.62A28.59,28.59,0,0,0,422,481.27L413.27,486a12.42,12.42,0,0,1-9.63.13l-10.79-5.49c-6.6-3.37-16.56-3.37-23.17,0L360,485.6a10.52,10.52,0,0,1-2.54.85V356.85l117.64,12Zm-223-225.76h-16.6L172.64,228V104.93a4.93,4.93,0,1,0-9.85,0V228.32l-24.32,24.26H121.88v71h92Zm-46-15.41,15.45,15.41H152.42Zm36,76.41h-72v-51h72Z" transform="translate(-76 -100)"/></svg>