<svg id="Ebene_1" data-name="Ebene 1" xmlns="http://www.w3.org/2000/svg" viewBox="0 0 536.96 251.78"><defs><style>.cls-1{fill:#fff;}</style></defs><path class="cls-1" d="M518.79,426.78H85.87A13.51,13.51,0,0,1,75.27,421L32.39,355.32a7,7,0,0,1,6.07-11.21h57v-48h40.34V247.89h185v48.24h60.66v48h33.07V282.59h-16.8a7.08,7.08,0,0,1-7.08-7.07V255.79a7.09,7.09,0,0,1,7.08-7.08h16.06v-16.8a7.09,7.09,0,0,1,7.08-7.08h16.5V182.08a7.08,7.08,0,0,1,7.07-7.08H513a7.08,7.08,0,0,1,7.07,7.08v42.75h17.11a7.09,7.09,0,0,1,7.08,7.08v16.8h16.5a7.08,7.08,0,0,1,7.07,7.08v19.73a7.08,7.08,0,0,1-7.07,7.07H545v61.52h12.91a9.87,9.87,0,0,1,9.65,8.48c.11.85,2.62,21.19-5.95,41.85C553.31,420,530,426.78,518.79,426.78ZM43.54,354.11l40.1,61.46a3.91,3.91,0,0,0,2.23,1.21H518.79c1,0,25.33-.48,33.34-25.59l.15-.4c7.12-17,5.61-34.42,5.37-36.68H381.48v.26h-286v-.26Zm381-10H535V282.59H424.55Zm-70.07,0h17v-38h-17Zm-74,0h64v-38h-64Zm-74,0h64v-38h-64Zm-74,0h64v-38h-64Zm-27,0h17v-38h-17Zm188.34-48h17V257.89h-17Zm-74,0h64V257.89h-64Zm-23.34,0h13.34V257.89h-64v38.24Zm204.19-23.54H557.82V258.71H400.67Zm23.14-23.88H534.25V234.83H423.81Zm23.58-23.88h62.67V185H447.39Zm73.38,86.64h-83v-10h83Z" transform="translate(-31.01 -175)"/></svg>