<svg id="Ebene_1" data-name="Ebene 1" xmlns="http://www.w3.org/2000/svg" viewBox="0 0 542.68 399.99"><defs><style>.cls-1{fill:#fff;}</style></defs><path class="cls-1" d="M336,342.08l9.73-.76c5.8-40.27-15.75-94.84-56.37-143.19,1.22-2.72,1.76-6.86-.47-12.84-2-5.44-6-11.27-11.1-16.41s-11-9.08-16.41-11.1c-6-2.22-10.12-1.68-12.84-.47-48.34-40.62-102.91-62.18-143.18-56.37l-.77,9.73c41.71,12.93,86.28,39.81,126,75.94l-202.95,193,37.77,37.77,193-203C295.36,254.48,322.82,299.69,336,342.08ZM65.21,403,41.94,379.75,245.19,186.51l-3.89-3.62c-33.48-31.2-70.63-56-107-71.78,34.08,4.82,74.22,24.94,110.71,56.4l4.2,3.61,3.17-4.54.05-.08c.34-.22,2-.62,5.39.65a42.63,42.63,0,0,1,21.62,21.62c1.27,3.43.87,5,.65,5.39l-.09.06-4.53,3.17,3.61,4.19c31.45,36.49,51.57,76.62,56.4,110.69-16-37-41.43-74.76-73.41-108.71l-3.62-3.84Zm227.87-4.34L311.61,375l-13.2-27-18.53,23.67ZM403.88,388l26,15L432,373l-26-15ZM209,420.7l17.65-24.33-29.6-5.24-17.65,24.33Zm153.23,18.46,0,30,27-13.15,0-30.06ZM493.54,186.1,456,264.25l-83.76,26.54-4.4,84-38.39,30-18.18,47.71-83.09,5.65L132.88,500H570.3V151.68ZM560.3,490H180.5l50.14-22,87.74-6,19.46-51.08,39.79-31.06,4.28-81.63,81.28-25.76L501,193.72l59.33-26.6Z" transform="translate(-27.62 -100.01)"/></svg>