<svg id="Ebene_1" data-name="Ebene 1" xmlns="http://www.w3.org/2000/svg" viewBox="0 0 284.34 400.62"><defs><style>.cls-1{fill:#fff;}</style></defs><path class="cls-1" d="M263.9,500C208.17,500,161.33,456.33,155,398.41a121.48,121.48,0,0,1-.74-13.32c0-29.16,11.38-48.8,22.38-67.8,1.26-2.18,2.52-4.35,3.76-6.53,12.61-22.23,29.08-42.9,48.14-66.84,15.26-19.15,21.56-40.08,18.72-62.2a77.22,77.22,0,0,0-9-28l-20-32.51,27.71,26.25c1.4,1.32,34.44,33.06,55,89.81a135.12,135.12,0,0,1,7.18,30.85,145.26,145.26,0,0,1,.87,15.37,155.14,155.14,0,0,1-8.45,50.09c11.95-9.07,18.36-21.9,19.1-38.28l.43-9.44,7.56,5.66c28.8,21.55,46,56.52,46,93.55C373.58,448.45,324.38,500,263.9,500Zm-7.62-324.93c.3,1.58.57,3.22.79,4.91,2.3,17.24.57,43.41-20.76,70.17-18.8,23.61-35,44-47.27,65.54-1.24,2.2-2.52,4.4-3.8,6.61-10.33,17.85-21,36.32-21,62.79a111.53,111.53,0,0,0,.68,12.23c5.82,52.84,48.39,92.68,99,92.68,55,0,99.68-47.06,99.68-104.91,0-30.8-13-60-35-79.85-2.85,15.78-11.9,33.8-36.21,44.64l-12.88,5.75,6.39-12.58c1.36-2.67,13.15-26.78,13.11-59.52a138,138,0,0,0-.8-14.28,125.15,125.15,0,0,0-6.66-28.55A258,258,0,0,0,256.28,175.07Z" transform="translate(-154.21 -99.38)"/><path class="cls-1" d="M263.9,500C208.17,500,161.33,456.33,155,398.41a121.48,121.48,0,0,1-.74-13.32c0-29.16,11.38-48.8,22.38-67.8,1.26-2.18,2.52-4.35,3.76-6.53,12.61-22.23,29.08-42.9,48.14-66.84,15.26-19.15,21.56-40.08,18.72-62.2a77.22,77.22,0,0,0-9-28l-20-32.51,27.71,26.25c1.4,1.32,34.44,33.06,55,89.81a135.12,135.12,0,0,1,7.18,30.85,145.26,145.26,0,0,1,.87,15.37,155.14,155.14,0,0,1-8.45,50.09c11.95-9.07,18.36-21.9,19.1-38.28l.43-9.44,7.56,5.66c28.8,21.55,46,56.52,46,93.55C373.58,448.45,324.38,500,263.9,500Zm-7.62-324.93c.3,1.58.57,3.22.79,4.91,2.3,17.24.57,43.41-20.76,70.17-18.8,23.61-35,44-47.27,65.54-1.24,2.2-2.52,4.4-3.8,6.61-10.33,17.85-21,36.32-21,62.79a111.53,111.53,0,0,0,.68,12.23c5.82,52.84,48.39,92.68,99,92.68,55,0,99.68-47.06,99.68-104.91,0-30.8-13-60-35-79.85-2.85,15.78-11.9,33.8-36.21,44.64l-12.88,5.75,6.39-12.58c1.36-2.67,13.15-26.78,13.11-59.52a138,138,0,0,0-.8-14.28,125.15,125.15,0,0,0-6.66-28.55A258,258,0,0,0,256.28,175.07Z" transform="translate(-154.21 -99.38)"/><path class="cls-1" d="M384,278.74c-29.08,0-53.58-23.13-54.6-51.55v-6.77c0-15.31,3.79-32,11.25-49.62,8.94-20.91,22.92-44.45,39.36-66.3l3.85-5.12,4,5c16.64,20.58,31,45.4,39.51,68.11,7.54,17.82,11.2,33.71,11.2,48.58v6.77C437.49,256.38,413.51,278.74,384,278.74Zm-44.6-51.82c.88,23.07,20.87,41.82,44.6,41.82,24.13,0,43.7-18.09,44.6-41.2v-6.49c0-13.53-3.41-28.18-10.45-44.78l-.08-.21c-7.42-19.92-19.64-41.59-33.94-60.3-14.29,19.7-26.36,40.43-34.28,59-6.93,16.36-10.45,31.75-10.45,45.71Z" transform="translate(-154.21 -99.38)"/></svg>