<svg id="Ebene_1" data-name="Ebene 1" xmlns="http://www.w3.org/2000/svg" viewBox="0 0 421.83 398.86"><defs><style>.cls-1{fill:#fff;}</style></defs><path class="cls-1" d="M93.69,498.86l-7.41-6.72,99.61-109.92a85,85,0,0,1-33.62-67.67V185a85.1,85.1,0,0,1,85-85H357.92a85.1,85.1,0,0,1,85,85V314.55a85,85,0,0,1-35.41,69L508.1,491.25l-7.3,6.83L398.91,389a84.48,84.48,0,0,1-41,10.55H237.27a84.49,84.49,0,0,1-43-11.7ZM237.27,110a75.09,75.09,0,0,0-75,75V314.55a75.09,75.09,0,0,0,75,75H357.92a75.09,75.09,0,0,0,75-75V185a75.09,75.09,0,0,0-75-75ZM373.76,353.79a19.49,19.49,0,1,1,19.48-19.49A19.51,19.51,0,0,1,373.76,353.79Zm0-29a9.49,9.49,0,1,0,9.48,9.48A9.49,9.49,0,0,0,373.76,324.82Zm-152.32,29a19.49,19.49,0,1,1,19.48-19.49A19.51,19.51,0,0,1,221.44,353.79Zm0-29a9.49,9.49,0,1,0,9.48,9.48A9.49,9.49,0,0,0,221.44,324.82ZM376,280.06H219.22a25,25,0,0,1-25-25V196.18a25,25,0,0,1,25-25H376a25,25,0,0,1,25,25v58.88A25,25,0,0,1,376,280.06ZM219.22,181.18a15,15,0,0,0-15,15v58.88a15,15,0,0,0,15,15H376a15,15,0,0,0,15-15V196.18a15,15,0,0,0-15-15Zm78.38-25.33a14.76,14.76,0,1,1,14.75-14.76A14.78,14.78,0,0,1,297.6,155.85Zm0-19.52a4.76,4.76,0,1,0,4.75,4.76A4.77,4.77,0,0,0,297.6,136.33Z" transform="translate(-86.28 -100)"/></svg>