<svg id="Ebene_1" data-name="Ebene 1" xmlns="http://www.w3.org/2000/svg" viewBox="0 0 414.64 400.08"><defs><style>.cls-1{fill:#fff;}</style></defs><path class="cls-1" d="M488.23,285.14l-.08-.24c-3.74-9.55-9.17-15.13-16.15-16.59-11.06-2.31-20.7,6.95-21.76,8l-.21.21a223.05,223.05,0,0,0-16.32,21c-7.72,9.87-15.62,13.7-26.37,12.81-19.23-1.68-57-15.05-74.27-21.45,32.61-23.11,36.78-38.27,42-57.1l.67-2.43.06-.27c14.24-65.28-25-99.87-49.64-114.63-52.5-32.82-94.88-.2-98.27,2.55-8.22,5.93-30.07,27.73-37.4,36-11.55,2-30-7.9-40.34-13.45-2.77-2-10.14-7.1-16.49-3.86-3.89,2-6,6.48-6,12.68,0,13.63,4.57,27.67,7.59,37,.43,1.31.82,2.52,1.16,3.6-5.33,9.7-10.57,22.56-2.71,30.42l.48.48.6.34C159.1,234,174,249.3,187.18,263.79c2.2,2.42,3.17,4.52,2.91,6.24-.73,4.74-9.76,10-17.66,14.62-65.74,36.91-75.11,63.5-81.95,82.91l-.33.95-.1.3c-8.85,31.25-4.3,58.11,13.52,79.84,14.93,18.2,35,27.47,45.5,31.35,34.4,13.31,74.74,20,120.52,20a575.82,575.82,0,0,0,83.29-6.48l4.4-.63h.1c107.88-16.79,125.76-64.46,135.36-90.07l.14-.42C508.49,345.92,495.81,307.87,488.23,285.14ZM140.36,211.92c-2-2.84.07-10,5.71-19.89l1.05-1.83-.58-2c-.48-1.67-1.12-3.64-1.86-5.91-2.83-8.69-7.1-21.82-7.1-33.87a8.43,8.43,0,0,1,.63-3.72c.56,0,2.46.4,6.29,3.19l.57.36c13.53,7.28,28.59,14.74,41.4,15,2,25.61.76,63.38-9.91,75.29A196,196,0,0,0,140.36,211.92ZM483.3,399.49c-5.6,14.92-12.53,30.71-29.52,45.5-21.11,18.37-54,31.15-97.88,38-1.13.15-2.63.37-4.47.64-79.55,11.65-146.42,7.31-198.83-13-17.19-6.34-71.79-32.18-53-99l.28-.79c6.67-18.92,15-42.45,77.49-77.57,10.38-6.06,21.12-12.32,22.58-21.78.74-4.84-1.08-9.72-5.4-14.47-3-3.29-6.57-7.23-10.84-11.55,7.56-8.22,11.87-23.83,13.1-47.31a303.42,303.42,0,0,0-.5-36.67l.67-.8c5.34-6.41,29.07-30.2,36.78-35.71l.35-.27c4.15-3.56,15.12-10.38,29.87-13.33,19.32-3.86,38.44,0,56.89,11.53,10.64,6.39,25.48,17.57,35.71,34.53,11.93,19.79,15.1,43.11,9.41,69.31l-.64,2.32c-5.21,18.95-9,32.65-45.8,56.85l-8.07,5.31,9,3.52c2.41.95,59.27,23.16,86,25.48,14.21,1.19,25.41-4.14,35.23-16.77l.21-.3a214.11,214.11,0,0,1,15.47-19.9c2-1.89,7.73-6.24,12.57-5.21,4.27.91,7.15,6.09,8.82,10.33C486,310.07,498,346.2,483.3,399.49ZM262.94,374.26c-28.15-.44-48.83,6.24-61.46,19.88A47,47,0,0,0,189,428l10-.9a36.78,36.78,0,0,1,9.95-26.31c10.63-11.37,28.73-16.92,53.92-16.54,82.4,0,92.14-9.76,95.34-13l-7.08-7.07C348.78,366.58,335.47,374.26,262.94,374.26ZM214.76,187.73a13.3,13.3,0,0,0,7.29,2.07c7.37,0,15.85-5.27,21.73-14.25h0c4.78-7.31,6.8-15.59,5.41-22.16a14.09,14.09,0,0,0-6-9.2c-8.29-5.35-21,0-29,12.18-4.78,7.31-6.81,15.59-5.41,22.16A14.05,14.05,0,0,0,214.76,187.73Zm7.77-25.88c4.36-6.66,10-9.73,13.32-9.73a3.47,3.47,0,0,1,1.91.48,4.3,4.3,0,0,1,1.65,2.87c.83,3.9-.74,9.63-4,14.6a28,28,0,0,1-3.6,4.47c1-6.77-9.39-11.93-9.39-11.93l-.39.07C222.2,162.4,222.35,162.12,222.53,161.85Z" transform="translate(-85.66 -99.9)"/></svg>