<svg id="Ebene_1" data-name="Ebene 1" xmlns="http://www.w3.org/2000/svg" viewBox="0 0 361.55 400"><defs><style>.cls-1{fill:#fff;}</style></defs><path class="cls-1" d="M225.21,352.38a45.2,45.2,0,1,0,45.2,45.2A45.25,45.25,0,0,0,225.21,352.38Zm0,80.4a35.2,35.2,0,1,1,35.2-35.2A35.25,35.25,0,0,1,225.21,432.78ZM323,379.17l4.08-1.57-1-4.26a103.57,103.57,0,0,0-12.5-30.17l-2.29-3.73-4,1.78a19.79,19.79,0,0,1-26.13-26.14l1.78-4-3.73-2.29a103.6,103.6,0,0,0-30.17-12.51l-4.26-1-1.57,4.09a19.79,19.79,0,0,1-37,0l-1.57-4.09-4.26,1a103.6,103.6,0,0,0-30.17,12.51l-3.73,2.29,1.78,4a19.93,19.93,0,0,1-4.08,22.06,19.81,19.81,0,0,1-22.05,4.08l-4-1.78-2.29,3.73a103.57,103.57,0,0,0-12.5,30.17l-1,4.26,4.09,1.57a19.8,19.8,0,0,1,0,37l-4.09,1.57,1,4.26a103.87,103.87,0,0,0,12.51,30.17l2.29,3.72,4-1.77a19.82,19.82,0,0,1,22,4.09,20,20,0,0,1,4.1,22l-1.77,4,3.72,2.28A103.19,103.19,0,0,0,200.46,499l4.25,1,1.57-4.08a19.8,19.8,0,0,1,36.95,0L244.8,500l4.25-1a103.3,103.3,0,0,0,30.17-12.5l3.72-2.29-1.77-4a20,20,0,0,1,4.1-22,19.82,19.82,0,0,1,22-4.09l4,1.77,2.29-3.72A103.6,103.6,0,0,0,326.1,422l1-4.26L323,416.13a19.8,19.8,0,0,1,0-37Zm-22.7,18.48a30,30,0,0,0,15,25.87,93.28,93.28,0,0,1-8.25,19.9A29.79,29.79,0,0,0,270.52,480a93.36,93.36,0,0,1-19.91,8.25,29.78,29.78,0,0,0-51.71,0A93.36,93.36,0,0,1,179,480a30,30,0,0,0-7.68-28.89,29.86,29.86,0,0,0-28.9-7.68,93.28,93.28,0,0,1-8.25-19.9,29.79,29.79,0,0,0,0-51.74,93.8,93.8,0,0,1,8.25-19.9,29.83,29.83,0,0,0,28.92-7.67A30,30,0,0,0,179,315.28a93.32,93.32,0,0,1,19.9-8.26,29.78,29.78,0,0,0,51.76,0,93.75,93.75,0,0,1,19.9,8.26,30,30,0,0,0,7.66,28.93,29.83,29.83,0,0,0,28.92,7.67,93.8,93.8,0,0,1,8.25,19.9A30,30,0,0,0,300.34,397.65ZM483.15,238.09l-.53-4.35-4.38,0a19.79,19.79,0,0,1-12.93-34.62l3.27-2.9-2.44-3.63a103.73,103.73,0,0,0-22.26-23.88L440.42,166l-3.12,3.07a19.91,19.91,0,0,1-6.95,4.42,19.7,19.7,0,0,1-15.13-.53,19.91,19.91,0,0,1-11.55-19.23l.27-4.37-4.3-.84A103.59,103.59,0,0,0,367,147.35l-4.35.54,0,4.38A19.79,19.79,0,0,1,328,165.22l-2.9-3.29-3.63,2.45a103.14,103.14,0,0,0-23.87,22.28l-2.7,3.45,3.07,3.12a19.92,19.92,0,0,1,3.9,22.09,19.8,19.8,0,0,1-19.22,11.54l-4.37-.26-.84,4.3a103.59,103.59,0,0,0-1.13,32.63l.53,4.34,4.38,0a19.79,19.79,0,0,1,12.95,34.61l-3.28,2.9,2.45,3.63a103.56,103.56,0,0,0,22.28,23.87l3.44,2.69,3.13-3.06a19.78,19.78,0,0,1,22.06-3.88,19.92,19.92,0,0,1,11.55,19.19l-.26,4.37,4.29.83a103.83,103.83,0,0,0,32.63,1.15l4.34-.54,0-4.37a19.8,19.8,0,0,1,34.6-12.94l2.9,3.27,3.63-2.44a103.3,103.3,0,0,0,23.87-22.27l2.69-3.45-3.06-3.12a19.92,19.92,0,0,1-3.87-22.06,19.83,19.83,0,0,1,19.19-11.55l4.37.27.84-4.3A103.25,103.25,0,0,0,483.15,238.09Zm-10.28,26.74a29.79,29.79,0,0,0-21.45,47.05,93.41,93.41,0,0,1-15.75,14.71,29.78,29.78,0,0,0-48.43,18.1,93.57,93.57,0,0,1-21.54-.75,30,30,0,0,0-17.3-24.37,29.83,29.83,0,0,0-29.75,2.93A93.32,93.32,0,0,1,304,306.75a29.79,29.79,0,0,0-18.13-48.45,93.38,93.38,0,0,1,.75-21.52A29.82,29.82,0,0,0,311,219.46a30,30,0,0,0-3-29.77A93.67,93.67,0,0,1,323.76,175a29.78,29.78,0,0,0,48.48-18.12,93.38,93.38,0,0,1,21.52.76A30,30,0,0,0,411.07,182a29.56,29.56,0,0,0,22.78.79,29.87,29.87,0,0,0,7-3.73,92.89,92.89,0,0,1,14.69,15.75,29.79,29.79,0,0,0,18.1,48.46A92.83,92.83,0,0,1,472.87,264.83Zm-74-55.37a45.2,45.2,0,1,0,23.56,25.29A44.93,44.93,0,0,0,398.91,209.46Zm-6.45,74.08a35.2,35.2,0,1,1,20.64-45.29A35,35,0,0,1,392.46,283.54Zm-146.74,2.08,8.9-4.21-16.51-60.1,18.38,4L240,180.49l14.12,1.16-22-76L175.74,100,201,153.22l-20.67-4.55,19.94,41.22-25.67-4.81ZM198.26,162.87l20.46,4.5-26.36-55.65L224.43,115l16.08,55.54-15.27-1.25,15.59,42.43L224.09,208l13.35,48.57L197,199.46l20.87,3.92Z" transform="translate(-122.38 -100)"/></svg>