<svg id="Ebene_1" data-name="Ebene 1" xmlns="http://www.w3.org/2000/svg" viewBox="0 0 644.98 400.01"><defs><style>.cls-1{fill:#fff;}</style></defs><path class="cls-1" d="M413.19,500a76.42,76.42,0,0,1-40.47-11.66,79.21,79.21,0,0,1-35.62-50.63l9.77-2.16A69.28,69.28,0,0,0,378,479.86a66.34,66.34,0,0,0,51.17,8.21c34.46-8.43,56.64-40.31,52.74-75.8-3-27.37-17.38-60.2-68.75-61.16-33.48-.12-67.6-.09-100.6-.06l-43.35,0H39.4v-10H269.21l43.34,0c33,0,67.14-.06,100.72.06,45.83.86,73.71,25.74,78.58,70.07,4.45,40.54-20.91,77-60.3,86.6A77.24,77.24,0,0,1,413.19,500ZM401.36,306.49l-105.42,0H207.89v-10c26.59,0,56.59,0,88.06,0,83.08,0,177.24,0,247.75-.07,38.83-.34,60.9-17.65,69.43-54.45,7.14-30.76-8.46-63.42-37.08-77.66-19.15-9.52-41.3-9.27-60.77.7a68.14,68.14,0,0,0-36.69,50l-9.87-1.61a78,78,0,0,1,42-57.26c22.32-11.43,47.76-11.71,69.78-.75a80.53,80.53,0,0,1,36.62,37.26,79,79,0,0,1,5.76,51.61c-9.62,41.46-35.5,61.8-79.13,62.19C502.13,306.47,452.29,306.49,401.36,306.49ZM287.91,258.72l-39,0-43.65,0c-45.79,0-179.59,0-225.38,0v-10c45.79,0,179.59,0,225.38,0q21.84,0,43.66,0c30.71,0,62.47.06,93.7-.09,21.89.17,39.82-6.41,51.86-19,12.35-12.92,18.51-32.23,17.35-54.35a68.09,68.09,0,0,0-23.68-48.8c-14.55-12.42-33.5-18.12-53.39-16-28.51,3-54.79,28.16-58.58,56.11l-9.91-1.34c4.44-32.8,34.07-61.22,67.45-64.72,22.64-2.37,44.27,4.16,60.93,18.39a78,78,0,0,1,27.17,55.87c1.31,24.91-5.83,46.85-20.11,61.79-13.83,14.46-33.95,22.09-58.23,22.09h-.88C324.46,258.7,306.13,258.72,287.91,258.72Z" transform="translate(20.12 -100)"/></svg>