<svg id="Ebene_1" data-name="Ebene 1" xmlns="http://www.w3.org/2000/svg" viewBox="0 0 406.76 399.36"><defs><style>.cls-1{fill:#fff;}</style></defs><path class="cls-1" d="M225.1,107.57l-4-4.68-3.79,4.82c-39.38,50.1-72.84,104-94.22,151.85C105.46,299.48,96.5,337.23,96.5,371.77v15.41c1.13,30.37,14.81,58.82,38.52,80.1A128.83,128.83,0,0,0,221.28,500c32.78,0,63.72-11.66,87.11-32.83,23.14-20.94,36.52-48.83,37.67-78.54V373.22c0-33.53-8.69-69.49-26.58-109.93C299.27,211.39,264.88,154.64,225.1,107.57Zm111,280.77c-1.07,27-13.27,52.32-34.38,71.42-21.55,19.5-50.1,30.24-80.4,30.24-61.13,0-112.6-46.24-114.78-103.1V371.77c0-33.13,8.67-69.52,25.77-108.15,20.36-45.54,51.91-96.78,89.15-144.86,37.43,45.33,69.63,99.05,88.78,148.26l.09.21c17.34,39.18,25.77,73.85,25.77,106ZM486.78,202.49c-12.49-32.37-33.73-67.76-58.28-97.1l-4-4.75-3.8,4.89c-24.29,31.2-44.94,64.79-58.14,94.6-11,25-16.52,48.68-16.52,70.37v9.63c1.46,39.6,36.72,71.82,78.59,71.82a80.91,80.91,0,0,0,54.83-20.87c14.6-13.34,23-31.11,23.76-50.05V271.4C503.26,250.35,497.87,227.8,486.78,202.49Zm6.48,78.25c-.65,16.21-7.93,31.46-20.51,43A71,71,0,0,1,424.66,342c-36.53,0-67.28-27.85-68.6-62.1V270.5c0-20.29,5.28-42.62,15.68-66.33,12.17-27.51,30.91-58.4,53.05-87.54,22.22,27.57,41.27,59.89,52.7,89.56l.09.21c10.55,24.06,15.68,45.33,15.68,65ZM174.81,294l-19.43,34,37.32,21.73,23.77-41.41L207,292.42C200.11,284.24,180.18,284.5,174.81,294ZM162.54,401.57l13.55-23.52,13.54,7.42-21.72-37.32H125l13.55,7.92-8.69,14.57c-7.67,14.32,5.11,30.1,12.78,30.93Zm-26.08,3.32c1,1.28.77,1,23.27,40.9,1.53,2.3,3.57,5.12,6.39,4.86h47.8V406.94H142.86C139,406.94,137.68,405.92,136.46,404.89Zm110.43,2.05V391.86l-21.72,37.32,21.72,37.06V450.65h26.59a6.69,6.69,0,0,0,6.13-3.83l24-42.44c-1.28.77-2,2.05-6.9,2.56Zm6.91-46.27,23.77,40.65h20.19c8.18-1.54,20.45-14.83,13.29-28.63L291.37,339.2Zm13-21,21.22-36.81-13,7.41-13-23c-1.28-2.3-3.84-3.33-6.65-3.33H205c2.81.52,5.88,3.07,7.41,5.12L237.18,332l-12.78,7.67Z" transform="translate(-96.5 -100.64)"/></svg>