<svg id="Ebene_1" data-name="Ebene 1" xmlns="http://www.w3.org/2000/svg" viewBox="0 0 389.61 400"><defs><style>.cls-1{fill:#fff;}</style></defs><path class="cls-1" d="M430.52,490V197.34h17.7a9.06,9.06,0,0,0,9-9.05V157.14h9.32a9.06,9.06,0,0,0,9.05-9v-39a9.06,9.06,0,0,0-9.05-9H133.17a9.06,9.06,0,0,0-9,9v39a9.06,9.06,0,0,0,9,9h11v90.4h-10v-9.88h-10V490h-19v10h389.6V490Zm16.75-302.66H356.63V177h90.64Zm-37.67,10-26.22,18.38V197.34Zm-53-30.32V140.53h70.59V167Zm90.64,0h-10V140.53h10Zm18.37-19.88h-8.37v-7.56a9,9,0,0,0-1.54-5.05l9.91-14.13ZM460.72,110l-14.4,20.53H422.8L408.4,110Zm-64.53,0,14.39,20.53h-29L396,110Zm-12.43,0-14.4,20.53H355.68a9,9,0,0,0-7.26,3.68l-17-24.21Zm-64.53,0,26,37.14H293L319,110Zm-12.43,0-26.05,37.14h-.22l-26-37.14Zm-64.53,0,26,37.14H216L242.05,110Zm-12.43,0-26.05,37.14h-.22l-26-37.14Zm-95.72,0h18.76l-18.76,26.74ZM139,147.14,165.09,110h.22l26.05,37.14Zm15.13,110.4H163v6.1h-8.87Zm-20,0h10v6.1h-10ZM283.82,490H134.12V273.64h44.95v38.87h75.85v41.31h28.9ZM173,263.64v-6.1h31.29v45H189.07V263.64Zm41.29,38.87v-45h30.1v45Zm70.2,41.31H264.92V302.51H254.43v-45h30.1ZM373.38,490H293.82V237.66h-9.29v9.88h-30.1v-9.88h-10v9.88h-30.1v-9.88h-10v9.88H173v-9.88H163v9.88h-8.87v-90.4H346.63v31.15a9.06,9.06,0,0,0,9.05,9.05h17.7Zm10,0V471.25L410.12,490Zm37.14-4.92L383.38,459v-.22l37.14-26Zm0-64.53L383.38,446.6V394.29l37.14,26Zm0-12.43-37.14-26.05v-.22l37.14-26Zm0-64.53-37.14,26.05V317.33l37.14,26Zm0-12.43-37.14-26.05v-.22l37.14-26Zm0-64.53-37.14,26.05V240.37l37.14,26Zm0-12.43-37.14-26v-.22l37.14-26ZM145.36,381.58H159.6V367.34H145.36Zm28.24,0h14.25V367.34H173.6Zm28.25,0h14.24V367.34H201.85Zm28.25,0h14.24V367.34H230.1Zm42.49-14.24H258.34v14.24h14.25ZM145.36,409.72H159.6V395.48H145.36Zm28.24,0h14.25V395.48H173.6Zm28.25,0h14.24V395.48H201.85Zm28.25,0h14.24V395.48H230.1Zm42.49-14.24H258.34v14.24h14.25ZM145.36,437.86H159.6V423.61H145.36Zm28.24,0h14.25V423.61H173.6Zm28.25,0h14.24V423.61H201.85Zm28.25,0h14.24V423.61H230.1Zm42.49-14.25H258.34v14.25h14.25Z" transform="translate(-105.08 -100)"/></svg>