<svg id="Ebene_1" data-name="Ebene 1" xmlns="http://www.w3.org/2000/svg" viewBox="0 0 502 306"><defs><style>.cls-1{fill:#fff;}</style></defs><path class="cls-1" d="M542.16,453H57.84a8.77,8.77,0,0,1-8.76-8.75V342a8.77,8.77,0,0,1,8.76-8.75h84.71a15.77,15.77,0,0,1,9.92,4l32.78,31.46a6,6,0,0,0,3,1.21h48.38a5.77,5.77,0,0,0,2.92-1.2l31.91-31.39a15.57,15.57,0,0,1,9.94-4.07h40a15.39,15.39,0,0,1,10,4.15c13.42,13.55,28.53,28.58,32.83,32.51h49.43a5.92,5.92,0,0,0,2.93-1.19l31.91-31.4a15.52,15.52,0,0,1,9.93-4.07h83.78a8.77,8.77,0,0,1,8.76,8.75V444.25A8.77,8.77,0,0,1,542.16,453ZM59.08,443H540.92V343.24H458.38a5.81,5.81,0,0,0-2.92,1.2l-31.91,31.39a15.53,15.53,0,0,1-9.94,4.07h-51.2c-2.65,0-2.65,0-21.19-18.45-8.45-8.41-16.89-16.94-17-17a5.65,5.65,0,0,0-2.84-1.19h-40a5.84,5.84,0,0,0-2.93,1.2l-31.9,31.39a15.57,15.57,0,0,1-9.94,4.07H188.25a15.8,15.8,0,0,1-9.93-4l-32.77-31.46a6.09,6.09,0,0,0-3-1.21H59.08ZM551,326.58H49v-10H551Zm-137.39-16h-51.2c-2.72,0-2.72,0-21.3-19.41-8.47-8.84-16.93-17.8-17-17.89a5.25,5.25,0,0,0-2.69-1.16h-40a5.56,5.56,0,0,0-2.78,1.17l-32,33.07a15.17,15.17,0,0,1-10,4.22H188.25a15.4,15.4,0,0,1-9.95-4.14l-32.9-33.14a5.76,5.76,0,0,0-2.85-1.18H57.84a8.77,8.77,0,0,1-8.76-8.75V155.75A8.77,8.77,0,0,1,57.84,147H542.16a8.77,8.77,0,0,1,8.76,8.75V263.33a8.77,8.77,0,0,1-8.76,8.75H458.38a5.53,5.53,0,0,0-2.77,1.17l-32,33.07A15.13,15.13,0,0,1,413.61,310.54Zm-49.36-10h49.36a5.56,5.56,0,0,0,2.78-1.17l32-33.08a15.17,15.17,0,0,1,9.95-4.21h82.54V157H59.08V262.08h83.47a15.4,15.4,0,0,1,9.95,4.14l32.9,33.13a5.74,5.74,0,0,0,2.85,1.19h48.38a5.53,5.53,0,0,0,2.77-1.17l32-33.08a15.21,15.21,0,0,1,10-4.21h40a15,15,0,0,1,10,4.29C342.18,277.82,359.5,296,364.25,300.54Z" transform="translate(-49 -147)"/></svg>