<svg id="Ebene_1" data-name="Ebene 1" xmlns="http://www.w3.org/2000/svg" viewBox="0 0 566.08 283.97"><defs><style>.cls-1{fill:#fff;}</style></defs><path class="cls-1" d="M534.35,356.76l.06-.18L477.66,339h0L420.78,321.3l0,0h0l-56.83-17.64,0,0h0l-83.26-25.85,256.3-75.92h0l.14,0a28,28,0,1,0-15.88-53.63l-.14,0h0L177.8,249.84v0a27.45,27.45,0,0,0-6.08,2.75A28,28,0,0,0,176,303.86h0l.47.14h.05l56.86,17.66h0l56.87,17.66h0l48.36,15H30.88v0a38.28,38.28,0,0,0,0,76.55v0h490.2a38.29,38.29,0,0,0,13.27-74.21Zm-73.37-7a17.95,17.95,0,0,1,22.33,4.62H455.39A17.81,17.81,0,0,1,461,349.76Zm6.81,42.91a28.29,28.29,0,1,1-28.29-28.29A28.33,28.33,0,0,1,467.79,392.67Zm-13.58-50.52a27.75,27.75,0,0,0-10.43,12.23h-4.11a27.89,27.89,0,0,0-1.45-17.2ZM412.46,330a18.2,18.2,0,0,1,5.31.8h0a18,18,0,0,1,11.82,22.48c-.11.36-.25.71-.38,1.06H395.67A17.94,17.94,0,0,1,412.46,330Zm-26.25,62.64a28.29,28.29,0,1,1-28.29-28.29A28.33,28.33,0,0,1,386.21,392.67Zm-4.9-73.16,16,5a27.85,27.85,0,0,0-12.1,29.89h-12.8l-1.76-.54a27.91,27.91,0,0,0,10.64-34.33Zm-201.82-25a17.95,17.95,0,1,1,13.7-1.25A17.84,17.84,0,0,1,179.49,294.47Zm22.39-41.14a1.37,1.37,0,0,0-.2-.13l16.06-4.76a28.15,28.15,0,0,0-2.25,9.11Zm23.57,7.32a18,18,0,0,1,12.82-18.29h0a18,18,0,0,1,5.13-.75,18,18,0,0,1,15.76,26.55,17.09,17.09,0,0,1-1.63,2.45l-7.48-2.32H250Zm184.22-69.06A17.81,17.81,0,0,1,423.34,193,17.81,17.81,0,0,1,432,203.72a18,18,0,0,1-12.12,22.33h0a18,18,0,0,1-10.21-34.46Zm57.14-16.92A18,18,0,1,1,454.67,197a18,18,0,0,1,12.14-22.33Zm35.41,8.25a27.85,27.85,0,0,0,11.4,15.36L497.55,203a28,28,0,0,0-10.21-34.46l16.06-4.75A27.78,27.78,0,0,0,502.22,182.92Zm-57.14,16.92a27.76,27.76,0,0,0,11.38,15.37L440.4,220a27.94,27.94,0,0,0-10.19-34.46l16.06-4.76A27.84,27.84,0,0,0,445.08,199.84ZM388,216.76a27.73,27.73,0,0,0,11.38,15.37l-16.06,4.76a27.94,27.94,0,0,0-10.19-34.46l16-4.75A27.72,27.72,0,0,0,388,216.76ZM362.73,243a18,18,0,1,1,12.13-22.33A18,18,0,0,1,362.73,243Zm-31.91-9.28a27.85,27.85,0,0,0,11.41,15.36l-16.08,4.76A28,28,0,0,0,316,219.35l16-4.75A27.75,27.75,0,0,0,330.82,233.69Zm-47.54,14.08a17.95,17.95,0,0,1,12.12-22.33,17.83,17.83,0,0,1,13.68,1.44,18,18,0,1,1-25.8,20.89Zm-9.59,2.84A27.79,27.79,0,0,0,285.06,266l-16,4.75a27.93,27.93,0,0,0-10.21-34.45l16.05-4.76A27.75,27.75,0,0,0,273.69,250.61ZM529.05,157a18,18,0,1,1-5.12.75A18,18,0,0,1,529.05,157ZM215.94,305.79,200,300.85a27.95,27.95,0,0,0,13-32.28c-.14-.49-.3-1-.47-1.45l14,4.36a27.91,27.91,0,0,0-10.67,34.31Zm20.46,6.35h0A18,18,0,0,1,241.74,277a18.13,18.13,0,0,1,5.3.8h0a18,18,0,0,1-10.67,34.31Zm36.46,11.32-16-5a27.89,27.89,0,0,0,10.69-34.31l16,5a27.86,27.86,0,0,0-10.66,34.31Zm20.45,6.35h0A18,18,0,1,1,304,295.5h0A18,18,0,0,1,315.79,318,18,18,0,0,1,293.31,329.81Zm36.44,11.32-16-5a27.92,27.92,0,0,0,10.69-34.31l16,5a28,28,0,0,0-10.65,34.32ZM338.38,325a18,18,0,0,1,17.14-12.65,18.11,18.11,0,0,1,5.34.81h0a18,18,0,0,1,3,33.05,17.78,17.78,0,0,1-13.69,1.26h0A18,18,0,0,1,338.38,325Zm-33.75,67.67a28.3,28.3,0,1,1-28.29-28.29A28.33,28.33,0,0,1,304.63,392.67Zm-81.59,0a28.29,28.29,0,1,1-28.29-28.29A28.33,28.33,0,0,1,223,392.67Zm-81.58,0a28.29,28.29,0,1,1-28.29-28.29A28.33,28.33,0,0,1,141.46,392.67Zm-138.16,0A28.29,28.29,0,1,1,31.59,421,28.33,28.33,0,0,1,3.3,392.67ZM57.36,421a38.23,38.23,0,0,0,0-56.59h30a38.23,38.23,0,0,0,0,56.59ZM139,421a38.25,38.25,0,0,0,0-56.59h30A38.23,38.23,0,0,0,169,421Zm81.58,0a38.25,38.25,0,0,0,0-56.59h30a38.23,38.23,0,0,0,0,56.59Zm81.58,0a38.23,38.23,0,0,0,0-56.59h30a38.25,38.25,0,0,0,0,56.59Zm81.58,0a38.23,38.23,0,0,0,0-56.59h30a38.25,38.25,0,0,0,0,56.59Zm81.59,0a38.25,38.25,0,0,0,0-56.59h30a38.23,38.23,0,0,0,0,56.59Zm55.8,0a28.3,28.3,0,1,1,28.29-28.3A28.33,28.33,0,0,1,521.08,421Z" transform="translate(6.7 -146.99)"/></svg>