<svg id="Ebene_1" data-name="Ebene 1" xmlns="http://www.w3.org/2000/svg" viewBox="0 0 297.77 400"><defs><style>.cls-1{fill:#fff;}</style></defs><path class="cls-1" d="M407.77,233.67h-42.2c-.19-2.18-.48-4.32-.86-6.44l84.21-34-12.41-30.7a33.16,33.16,0,0,0-43.12-18.3l-64.26,26V100H296a33.16,33.16,0,0,0-33.12,33.12v37l-95-38.37-12.41,30.71a33.11,33.11,0,0,0,18.31,43.11l53.49,21.61c-.38,2.12-.67,4.26-.85,6.44H151.15v33.11a33.15,33.15,0,0,0,33.11,33.12h41.93v15.53h-75v33.11a33.15,33.15,0,0,0,33.11,33.12h41.93v15.53h-75V430.3a33.15,33.15,0,0,0,33.11,33.12h41.93V500H365.84V463.42h75.05V430.3a33.15,33.15,0,0,0-33.12-33.11H365.84V381.66h75.05V348.54a33.15,33.15,0,0,0-33.12-33.11H365.84V299.9h75.05V266.78A33.15,33.15,0,0,0,407.77,233.67Zm-10.63-80.19a23.14,23.14,0,0,1,30.1,12.77l8.66,21.44-73.7,29.77A70.14,70.14,0,0,0,332,179.81ZM296,110h23.11v63.78a69.61,69.61,0,0,0-46.23,0V133.12A23.14,23.14,0,0,1,296,110ZM177.57,196.35a23.13,23.13,0,0,1-12.78-30.1l8.67-21.43,86.62,35a70.11,70.11,0,0,0-30.25,37.65Zm6.69,93.55a23.14,23.14,0,0,1-23.11-23.12V243.67h65V289.9Zm0,81.76a23.14,23.14,0,0,1-23.11-23.12V325.43h65v46.23Zm0,81.76a23.14,23.14,0,0,1-23.11-23.12V407.19h65v46.23ZM355.84,490H236.19V239.66a59.83,59.83,0,1,1,119.65,0Zm51.93-82.81a23.14,23.14,0,0,1,23.12,23.11v23.12H365.84V407.19Zm0-81.76a23.14,23.14,0,0,1,23.12,23.11v23.12H365.84V325.43Zm23.12-35.53H365.84V243.67h41.93a23.14,23.14,0,0,1,23.12,23.11Z" transform="translate(-151.15 -100)"/></svg>