<svg id="Ebene_1" data-name="Ebene 1" xmlns="http://www.w3.org/2000/svg" viewBox="0 0 478.58 400"><defs><style>.cls-1{fill:#fff;}</style></defs><path class="cls-1" d="M225.7,323.55A52.31,52.31,0,0,0,278,414.14h0a52.31,52.31,0,1,0-52.33-90.59Zm67.06,56.24a42.3,42.3,0,1,1-4.23-32.1A42.05,42.05,0,0,1,292.76,379.79ZM270,275.84l-46.44-80.36-80.44,46.4,46.44,80.36Zm-50.1-66.7,36.43,63-63.11,36.4-36.43-63Zm133.17,18.79-46.45-80.36L226.19,194l46.44,80.36ZM303,161.23l36.43,63-63.11,36.4-36.44-63Zm132.58,19.13L389.11,100l-80.44,46.39,46.44,80.36Zm-50.1-66.71,36.43,63-63.11,36.4-36.43-63ZM259.19,341.28a28.61,28.61,0,0,0-14.81,55.27,28.84,28.84,0,0,0,7.45,1,28.62,28.62,0,0,0,7.36-56.26Zm1.9,43.76a18.61,18.61,0,1,1,6.81-25.43A18.49,18.49,0,0,1,261.09,385ZM529.47,208.67a68.21,68.21,0,0,0-93-24.91L108.5,373a68.08,68.08,0,0,0,68.11,117.9L466.88,323.39V490h-10v10h31V490h-11V317.62l27.67-16a68,68,0,0,0,24.92-93Zm-2.85,49.07A57.64,57.64,0,0,1,499.55,293L171.61,482.21A58.08,58.08,0,1,1,113.5,381.63L441.44,192.42a58.09,58.09,0,0,1,85.18,65.32Zm-82.29-60.33A52.31,52.31,0,0,0,496.66,288h0a52.31,52.31,0,1,0-52.33-90.59Zm67.05,56.25a42,42,0,0,1-19.72,25.68h0a42.39,42.39,0,0,1-57.83-15.49,42.3,42.3,0,0,1,36.59-63.44,42.3,42.3,0,0,1,41,53.25ZM186.93,323.75,140.49,243.4,60.05,289.79l46.44,80.36Zm-50.1-66.7,36.43,63-63.11,36.4-36.44-63ZM335,260.48a52.32,52.32,0,1,0,71.49,19.14A52,52,0,0,0,335,260.48Zm67.06,56.24a42.3,42.3,0,1,1-4.23-32.1A42,42,0,0,1,402.07,316.72Zm54.36-99h0a28.61,28.61,0,1,0,39.08,10.47A28.42,28.42,0,0,0,456.43,217.73Zm32.28,29.6A18.44,18.44,0,0,1,480,258.62a18.61,18.61,0,1,1-18.61-32.23h0a18.61,18.61,0,0,1,27.28,20.94ZM116.39,386.62a52.31,52.31,0,0,0,52.33,90.59h0a52.31,52.31,0,1,0-52.33-90.59Zm67.05,56.25a42,42,0,0,1-19.72,25.68h0a42.29,42.29,0,1,1,19.72-25.68ZM128,407.34a28.61,28.61,0,1,0,39.08,10.47A28.44,28.44,0,0,0,128,407.34Zm23.61,40.9a18.61,18.61,0,1,1,6.81-25.43A18.64,18.64,0,0,1,151.62,448.24ZM368.67,278.07A28.62,28.62,0,1,0,386,291.4,28.49,28.49,0,0,0,368.67,278.07Zm1.9,43.76A18.65,18.65,0,0,1,345.13,315a18.63,18.63,0,0,1,16.11-27.92,18.62,18.62,0,0,1,9.33,34.74Z" transform="translate(-60.05 -100)"/></svg>