<svg id="Ebene_1" data-name="Ebene 1" xmlns="http://www.w3.org/2000/svg" viewBox="0 0 609.94 359.76"><defs><style>.cls-1{fill:#fff;}</style></defs><path class="cls-1" d="M284.75,403.49l3.21,9.95,9.52-3.07-3.22-9.95Zm142.6-46.57,3.21,9.95,9.52-3.07-3.21-9.95ZM267.59,420l9.52-3.07L273.89,407,264.38,410Zm180.13-69.62,3.21,10,9.52-3.08-3.21-9.95Zm145.56-54.93a23.51,23.51,0,0,0,2.09-6.36l9.57-.19-.2-10-9.78.2c-.11-.43-.24-.86-.37-1.29a23.94,23.94,0,0,0-2.91-5.94l1.84,1.6,6.87-7.91L592.83,259l-6.39,7.37a23.67,23.67,0,0,0-3.49-2.21,24.26,24.26,0,0,0-4.1-1.62l.64,0,.72-10.41-10-.7-.72,10.32a22.68,22.68,0,0,0-4.4,1l-4.46,1.45-3-9.34L548.13,258l3,9.37-10.84,3.53-3-9.42-9.51,3.07,3,9.44L520,277.47,516.9,268l-9.52,3.07,3.07,9.52-10.83,3.53-3.09-9.57L487,277.6l3.1,9.6-10.84,3.53-3.11-9.65-9.52,3.07,3.12,9.67-11.05,3.6-2.92-9.06-9.52,3.07,2.93,9.09L444,302.21,235.34,152V121H194.71v79.6H9.8A14.82,14.82,0,0,0-5,215.41V240a14.82,14.82,0,0,0,14.8,14.8H194.71V286H105.16a19.72,19.72,0,0,0-19.7,19.71V423.53H48.93V457h21v23.73H98.35V457H231.48v23.73h28.44V457h20.85v-33.5H257.18V412.31l48.08-15.66,3.07,9.52,9.52-3.07-3.08-9.54L325.61,390l3.09,9.59,9.52-3.07-3.11-9.62L346,383.4l3.13,9.67,9.51-3.07-3.13-9.7,10.84-3.53,3.15,9.75,9.51-3.07-3.15-9.77,10.84-3.53,3.17,9.82,9.51-3.07-3.17-9.85L407,363.52l3.2,9.9,9.52-3.07-3.21-9.93,51.75-16.85,3.06,9.48,9.51-3.08-3.07-9.5L488.59,337l3.08,9.55,9.52-3.08-3.09-9.57,10.84-3.53,3.11,9.62,9.51-3.07-3.11-9.65,10.84-3.53,3.13,9.71,9.52-3.07-3.14-9.73,11-3.6,2.95,9.12,9.52-3.07-3-9.15,10.84-3.53,3,9.2,9.52-3.07-3-9.23a23.22,23.22,0,0,0,7.83-4.43l7.2,6.42,6.65-7.47L593.71,295ZM194.71,244.83H9.8A4.8,4.8,0,0,1,5,240V215.41a4.81,4.81,0,0,1,4.8-4.81H194.71Zm10-113.83h20.63V286H204.71Zm0,165h32.77a9.72,9.72,0,0,1,9.7,9.71V423.52H204.71ZM95.46,305.68a9.72,9.72,0,0,1,9.7-9.71h89.55V423.52H95.46ZM88.35,470.76H79.92V457.27h8.43Zm161.57,0h-8.44V457.27h8.44Zm20.85-37.23V447H58.93v-13.5ZM237.48,286h-2.14V164.31l192,138.27,1.47,4.57L418,310.67l-3-9.21-9.51,3.07,3,9.24-10.84,3.53-3-9.3-9.51,3.08,3,9.32-10.84,3.53-3-9.38-9.52,3.07,3,9.4L357,330.55l-3.05-9.45-9.52,3.07,3.06,9.48-10.84,3.53-3.07-9.53L324,330.72l3.08,9.56-10.83,3.53-3.11-9.61-9.51,3.07,3.11,9.63-11,3.6-2.92-9-9.51,3.07,2.92,9.05-10.84,3.53-2.94-9.1-9.51,3.07,2.94,9.13-8.69,2.83V305.68A19.73,19.73,0,0,0,237.48,286Zm339,11.83-319.3,104V373.57l311-101.3a13.36,13.36,0,0,1,16.85,8.62A13.43,13.43,0,0,1,576.48,297.8Z" transform="translate(5 -121)"/></svg>