<svg id="Ebene_1" data-name="Ebene 1" xmlns="http://www.w3.org/2000/svg" viewBox="0 0 430.32 400"><defs><style>.cls-1{fill:#fff;}</style></defs><path class="cls-1" d="M488.91,404.36l-38.09,37.9-28.76-28.58-7.28,7.24V321A15.82,15.82,0,0,0,399,305.2H287.51V193.67l17.84,6.45a10.8,10.8,0,0,0,13.82-6.41l.63-1.72,150,54.31,3.4-9.4L323.24,182.6l.63-1.73a10.74,10.74,0,0,0-6.45-13.79l-57.82-20.9h0a10.82,10.82,0,0,0-13.82,6.42l-.63,1.72L95.18,100l-3.4,9.4,149.93,54.31-.63,1.72a10.74,10.74,0,0,0,6.46,13.8l30,10.83V305.2H166a15.82,15.82,0,0,0-15.8,15.8V427l-13.45-13.36-52,51.63,7,7.09,45-44.62,13.45,13.35v3.1A15.82,15.82,0,0,0,166,460h3.23l36.26,36,7-7.1L183.4,460h192l-29.07,28.89,7,7.09,36.21-36H399a15.82,15.82,0,0,0,15.8-15.8V435l7.28-7.23,21.67,21.54-43.8,43.59L407,500l81.93-81.53,19.08,19,7-7.08Zm-238-234.54a.76.76,0,0,1-.44-.4.7.7,0,0,1,0-.55l4.7-12.83a.8.8,0,0,1,.75-.51.92.92,0,0,1,.28.05L314,176.48a.76.76,0,0,1,.44.4.7.7,0,0,1,0,.55l-4.7,12.84a.8.8,0,0,1-1,.45Zm-40,145.38H354.05v83H210.91ZM160.17,321a5.8,5.8,0,0,1,5.8-5.8h34.94v83H160.17ZM404.78,444.23A5.81,5.81,0,0,1,399,450H166a5.81,5.81,0,0,1-5.8-5.8v-36H404.78Zm0-46H364.05v-83H399a5.8,5.8,0,0,1,5.8,5.8ZM365.51,417.4H353.07v23.47h12.44Zm-153.63,0H199.44v23.47h12.44Z" transform="translate(-84.72 -100)"/></svg>