<svg id="Ebene_1" data-name="Ebene 1" xmlns="http://www.w3.org/2000/svg" viewBox="0 0 446.26 400"><defs><style>.cls-1{fill:#fff;}</style></defs><path class="cls-1" d="M233.54,500c-79.77,0-144.67-64.9-144.67-144.67s64.9-144.67,144.67-144.67,144.67,64.9,144.67,144.67S313.31,500,233.54,500Zm0-279.34c-74.25,0-134.67,60.41-134.67,134.67S159.29,490,233.54,490s134.67-60.41,134.67-134.67S307.8,220.66,233.54,220.66Zm0,166a31.28,31.28,0,1,1,31.28-31.28A31.31,31.31,0,0,1,233.54,386.61Zm0-52.56a21.28,21.28,0,1,0,21.28,21.28A21.31,21.31,0,0,0,233.54,334.05Zm242,47.25a59.63,59.63,0,1,1,59.63-59.63A59.7,59.7,0,0,1,475.51,381.3Zm0-109.26a49.63,49.63,0,1,0,49.63,49.63A49.69,49.69,0,0,0,475.51,272Zm0,63.91a14.28,14.28,0,1,1,14.27-14.28A14.29,14.29,0,0,1,475.51,336Zm0-18.55a4.28,4.28,0,1,0,4.27,4.27A4.27,4.27,0,0,0,475.51,317.4ZM400.67,276a88,88,0,1,1,88-88A88.08,88.08,0,0,1,400.67,276Zm0-165.95a78,78,0,1,0,78,78A78.06,78.06,0,0,0,400.67,110Zm0,97.92A19.95,19.95,0,1,1,420.62,188,20,20,0,0,1,400.67,207.92Zm0-29.89a9.95,9.95,0,1,0,9.95,9.95A10,10,0,0,0,400.67,178Z" transform="translate(-88.87 -100)"/></svg>