<svg id="Ebene_1" data-name="Ebene 1" xmlns="http://www.w3.org/2000/svg" viewBox="0 0 245.81 401"><defs><style>.cls-1{fill:#fff;}</style></defs><path class="cls-1" d="M422.78,197.57V100H177v97.57H224.3l64.09,31L225.46,259a4.89,4.89,0,0,0-2.25.75,5,5,0,0,0-2.34,4.23v.38a5,5,0,0,0,4.59,5l62.93,30.41-62.93,30.41a5,5,0,0,0-4.59,5v.37a5,5,0,0,0,2.34,4.24,5.14,5.14,0,0,0,2.25.75l62.93,30.4-62.93,30.41a5.14,5.14,0,0,0-2.25.75,5,5,0,0,0-2.34,4.24v.37a5,5,0,0,0,4.59,5L288.39,442l-63.65,30.76H177V501h245.8V472.77H375L311.37,442,374.3,411.6a5,5,0,0,0,4.59-5v-.37a5,5,0,0,0-2.34-4.24,5.14,5.14,0,0,0-2.25-.75l-62.93-30.41,62.93-30.4a5.14,5.14,0,0,0,2.25-.75,5,5,0,0,0,2.34-4.24v-.37a5,5,0,0,0-4.59-5L311.37,299.7l62.93-30.41a5,5,0,0,0,4.59-5v-.38a5,5,0,0,0-2.34-4.23,4.89,4.89,0,0,0-2.25-.75l-62.93-30.41,64.09-31Zm-10-87.57v46.18H187V110ZM187,166.18h225.8v21.39H187ZM412.78,491H187v-8.23h225.8ZM352,472.77H247.72l52.16-25.2Zm10-66.34-62.13,30-62.13-30,62.13-30Zm0-71.15-62.13,30-62.13-30,62.13-30Zm0-71.16-62.13,30-62.13-30,62.13-30ZM299.88,223l-52.6-25.42h105.2Z" transform="translate(-176.98 -100)"/></svg>