<svg id="Ebene_1" data-name="Ebene 1" xmlns="http://www.w3.org/2000/svg" viewBox="0 0 370.92 400"><defs><style>.cls-1{fill:#fff;}</style></defs><path class="cls-1" d="M304.88,500h-10V125.34h10ZM465.07,353.36h-30.4V100h30.4v93.24h20.27v66.88H465.07Zm-20.4-10h10.4V260.12h-.13V193.24h.13V110h-10.4Zm20.4-93.24h10.27V203.24H465.07Zm-300,103.24h-30.4V241.88H114.42v-30.4h20.27V100h30.4Zm-20.4-10h10.4V110h-10.4V211.48h.13v30.4h-.13ZM124.42,231.88h10.27v-10.4H124.42ZM424,328H414V125.34h10Zm-23.83,0h-10V125.34h10Zm-23.83,0h-10V125.34h10Zm-23.83,0h-10V125.34h10Zm-23.83,0h-10V125.34h10Zm-47.66,0h-10V125.34h10Zm-23.83,0h-10V125.34h10Zm-23.83,0h-10V125.34h10Zm-23.83,0h-10V125.34h10Zm-23.83,0h-10V125.34h10Z" transform="translate(-114.42 -100)"/></svg>