<svg id="Ebene_1" data-name="Ebene 1" xmlns="http://www.w3.org/2000/svg" viewBox="0 0 446.05 400"><defs><style>.cls-1{fill:#fff;}</style></defs><path class="cls-1" d="M453.53,361.27c-22.92,0-87.88,24.9-134,43.85a62.39,62.39,0,0,0-7.49-1.68V263.93h26.66V212.55h12.6V177.37h21.57V135.59H351.31V125a25,25,0,0,0-25-25H273.45a25,25,0,0,0-25,25v87.55h12.6v51.38h26.66V403.44a59.57,59.57,0,0,0-9.29,2.25C233,386.67,168,361.27,145.2,361.27c-37.68,0-68.34,31.11-68.34,69.36S107.52,500,145.2,500c24.49,0,97.66-29.32,143-48.54a77.38,77.38,0,0,0,11.67.87,79.51,79.51,0,0,0,9.17-.53C355.18,471,428.81,500,453.53,500a69.37,69.37,0,1,0,0-138.73Zm-102-215.68h11.36v21.78H351.52ZM320.34,110h6a15,15,0,0,1,15,15v77.55h-21Zm-30.92,0h20.92v92.55H289.42Zm-31,92.55V125a15,15,0,0,1,15-15h6v92.55Zm12.6,51.38V212.76h57.66v41.17Zm31,10V421.74h-4.34V263.93Zm10,167.81V413.59c12.41,2.39,19.72,8.27,19.72,13.82,0,7.17-12.19,14.92-31.89,14.92S268,434.58,268,427.41c0-5.55,7.31-11.43,19.72-13.82v18.15Zm-66.42,26.45C179.9,484.48,154.74,490,145.2,490c-32.17,0-58.34-26.63-58.34-59.37S113,371.27,145.2,371.27c9.54,0,34.7,5.52,100.43,31.81,7.21,2.89,14.29,5.78,21.06,8.58-5.52,4.2-8.7,9.62-8.7,15.75,0,8.2,5.68,15.11,15,19.57C264.39,450.58,255.13,454.38,245.63,458.19ZM453.53,490c-9.7,0-35.3-5.52-102.12-31.83-9-3.56-17.87-7.12-26.16-10.52,10.23-4.41,16.52-11.62,16.52-20.24,0-6.53-3.6-12.24-9.79-16.54,6.27-2.55,12.78-5.16,19.4-7.77,66.84-26.31,92.44-31.83,102.15-31.83a59.37,59.37,0,1,1,0,118.73Z" transform="translate(-76.86 -100)"/></svg>