<svg id="Ebene_1" data-name="Ebene 1" xmlns="http://www.w3.org/2000/svg" viewBox="0 0 323.07 400"><defs><style>.cls-1{fill:#fff;}</style></defs><path class="cls-1" d="M459.42,493.57a796,796,0,0,1-33-212.64l-.09-4.91H320.18q-.58-12.12-.81-24.29l-.09-4.91H182.8l-.09,4.91a794.07,794.07,0,0,1-42.2,241.66L138.26,500H461.33ZM152.19,490a804.18,804.18,0,0,0,40.42-233.18H309.48A804.11,804.11,0,0,0,349.89,490Zm208.41,0a794.54,794.54,0,0,1-39.68-204h95.65A805.7,805.7,0,0,0,448,490ZM222.52,211.07a31.94,31.94,0,0,0,60.64-13.61A51.67,51.67,0,0,0,300.92,184a39.22,39.22,0,0,0,12.74,7,38.93,38.93,0,0,0,26.19,45.08,30,30,0,0,0,29.36,23.6c.62,0,1.25,0,1.88-.05a30.13,30.13,0,0,0,28.25-31.9c0-.59-.09-1.18-.16-1.77a24.82,24.82,0,0,0-13-46h-.42a38.86,38.86,0,0,0-21.92-18,38.38,38.38,0,0,0,.75-10.39,39,39,0,0,0-60.81-29.81A51.12,51.12,0,0,0,214,133.42a39.07,39.07,0,0,0,8.56,77.65Zm-4.65-67.95,3.59-.14,1-3.45a41.12,41.12,0,0,1,75.64-7.93l3.08,5.7,4.74-4.43a29,29,0,0,1,48.7,19.36,28.51,28.51,0,0,1-1.69,11.66l-2.05,5.62,5.89,1a28.9,28.9,0,0,1,21.49,16.77l1.58,3.54,3.82-.64a13.76,13.76,0,0,1,1.61-.19,14.82,14.82,0,0,1,6.43,28.55l-4.09,1.64,1.11,4.26a20.24,20.24,0,0,1,.63,3.88,20.13,20.13,0,0,1-40.12,3.27l-.36-3.58-3.5-.79a28.93,28.93,0,0,1-20.81-38.11l2.05-5.62-5.89-1a29.07,29.07,0,0,1-16.67-9.31l-4.31-4.84-3.59,5.39a41.43,41.43,0,0,1-19.91,15.77l-3.64,1.36.42,3.86A21.93,21.93,0,0,1,230.41,204L229,199.82l-4.32.85a29.41,29.41,0,0,1-5.65.56,29.07,29.07,0,0,1-1.18-58.11Z" transform="translate(-138.26 -100)"/></svg>