<svg id="Ebene_1" data-name="Ebene 1" xmlns="http://www.w3.org/2000/svg" viewBox="0 0 400 400"><defs><style>.cls-1{fill:#fff;}</style></defs><path class="cls-1" d="M129.12,460.49a10.28,10.28,0,1,0,10.27,10.28A10.28,10.28,0,0,0,129.12,460.49ZM478.88,100h-358a21,21,0,0,0-21,21V479a21,21,0,0,0,21,21h358a21,21,0,0,0,21-21V121A21,21,0,0,0,478.88,100Zm11,379a11,11,0,0,1-11,11h-358a11,11,0,0,1-11-11V121a11,11,0,0,1,11-11h358a11,11,0,0,1,11,11ZM470.65,119a10.28,10.28,0,1,0,10.27,10.27A10.27,10.27,0,0,0,470.65,119ZM129.12,139.51a10.28,10.28,0,1,0-10.28-10.28A10.27,10.27,0,0,0,129.12,139.51Zm341.53,321a10.28,10.28,0,1,0,10.27,10.28A10.28,10.28,0,0,0,470.65,460.49ZM440.49,245.67,328.37,286.45a77,77,0,0,0-19.66-126.11,75.66,75.66,0,0,0-58.47-2.66l-4.69,1.71,40.78,112.12a77,77,0,0,0-126.11,19.66,75.66,75.66,0,0,0-2.66,58.47l1.71,4.69,112.12-40.78A77.06,77.06,0,0,0,291,439.66a75.7,75.7,0,0,0,58.48,2.66l4.69-1.71L313.43,328.5a77.06,77.06,0,0,0,126.11-19.67,75.66,75.66,0,0,0,2.66-58.47ZM258.42,165.54a65.67,65.67,0,0,1,46,3.86,67.05,67.05,0,0,1,17.75,109.13,30.85,30.85,0,0,0-26.06-9.3Zm10.69,138.19L165.42,341.45a65.65,65.65,0,0,1,3.86-46,67,67,0,0,1,109.13-17.75,30.85,30.85,0,0,0-9.3,26.06Zm72.22,130.73a65.65,65.65,0,0,1-46-3.86,67.05,67.05,0,0,1-17.75-109.13,30.85,30.85,0,0,0,26.06,9.3ZM320.87,300.14a18.43,18.43,0,0,1-.1,2c0,.49-.13,1-.22,1.46,0,.19,0,.38-.08.56A21,21,0,0,1,299.88,321h0c-.71,0-1.41,0-2.11-.11-.47,0-.94-.13-1.4-.21l-.63-.09a21,21,0,0,1-16.85-20.41h0c0-.06,0-.12,0-.18a21,21,0,0,1,.11-2.11c0-.47.13-.93.2-1.39,0-.21.06-.43.1-.64.13-.65.3-1.3.49-1.93h0A21,21,0,0,1,299.7,279h.19a20.79,20.79,0,0,1,2.1.11c.48,0,.95.13,1.42.21.2,0,.41.05.6.09A21,21,0,0,1,320.88,300C320.88,300.05,320.87,300.09,320.87,300.14Zm109.61,4.44a67.05,67.05,0,0,1-109.13,17.75A30.88,30.88,0,0,0,330.88,300a32.76,32.76,0,0,0-.23-3.73l103.69-37.73A65.67,65.67,0,0,1,430.48,304.58Zm36-65.23a177.34,177.34,0,0,0-227.29-106c-91.89,33.45-139.44,135.42-106,227.3,26.19,71.94,94.36,116.7,166.83,116.7a176.33,176.33,0,0,0,60.47-10.71C452.42,433.2,500,331.23,466.52,239.35ZM357.11,457.25c-86.71,31.56-182.92-13.31-214.48-100s13.31-182.92,100-214.48a167.35,167.35,0,0,1,214.48,100C488.69,329.47,443.82,425.69,357.11,457.25Z" transform="translate(-99.88 -100)"/></svg>