<svg id="Ebene_1" data-name="Ebene 1" xmlns="http://www.w3.org/2000/svg" viewBox="0 0 317.34 400"><defs><style>.cls-1{fill:none;}.cls-2{fill:#fff;}</style></defs><path class="cls-1" d="M341.26,265.65a53.69,53.69,0,0,1,0,68.61l4.19,4.19a59.53,59.53,0,0,0,0-77Z" transform="translate(-141.21 -100)"/><path class="cls-1" d="M265.58,258.58a53.64,53.64,0,0,1,68.6,0l4.2-4.19a59.52,59.52,0,0,0-77,0Z" transform="translate(-141.21 -100)"/><path class="cls-1" d="M258.5,334.26a53.69,53.69,0,0,1,0-68.61l-4.19-4.19a59.53,59.53,0,0,0,0,77Z" transform="translate(-141.21 -100)"/><rect class="cls-1" x="10" y="10" width="82.31" height="15.57"/><path class="cls-1" d="M334.18,341.33a53.67,53.67,0,0,1-68.6,0l-4.2,4.19a59.55,59.55,0,0,0,77,0Z" transform="translate(-141.21 -100)"/><path class="cls-1" d="M441.14,299.91c0-77.92-63.37-141.31-141.26-141.31a141.52,141.52,0,0,0-65.63,16.16l-7.33,3.85v-43h-68.3V300.62A141.28,141.28,0,0,0,299.88,441.21C377.77,441.21,441.14,377.82,441.14,299.91Zm-210.95,0a69.69,69.69,0,1,1,69.69,69.69A69.77,69.77,0,0,1,230.19,300Z" transform="translate(-141.21 -100)"/><rect class="cls-1" x="225.04" y="374.43" width="82.31" height="15.57"/><path class="cls-1" d="M441.14,354a152.2,152.2,0,0,1-68.3,78.41v32h68.3Z" transform="translate(-141.21 -100)"/><path class="cls-2" d="M451.14,464.43V299.33h0c-.31-83.17-68-150.73-151.25-150.73a151.73,151.73,0,0,0-63,13.71V135.57h6.6V100H141.21v35.57h7.41V305.64h.11A151.28,151.28,0,0,0,299.88,451.21v.18a151.87,151.87,0,0,0,63-13.7v26.74h-6.59V500h102.3V464.43ZM151.21,110h82.31v15.57H151.21Zm49,290.06a140.43,140.43,0,0,1-41.61-99.44v-165h68.3v43l7.33-3.85a141.52,141.52,0,0,1,65.63-16.16c77.89,0,141.26,63.39,141.26,141.31s-63.37,141.3-141.26,141.3A140.29,140.29,0,0,1,200.24,400.06Zm172.6,32.35A152.2,152.2,0,0,0,441.14,354V464.43h-68.3ZM448.55,490h-82.3V474.43h82.3Z" transform="translate(-141.21 -100)"/><path class="cls-2" d="M299.88,230.26A69.69,69.69,0,1,0,369.57,300,69.77,69.77,0,0,0,299.88,230.26Zm0,10a59.45,59.45,0,0,1,38.5,14.13l-4.2,4.19a53.64,53.64,0,0,0-68.6,0l-4.2-4.19A59.45,59.45,0,0,1,299.88,240.26Zm14.79,37.83a26.36,26.36,0,0,0-29.58,0l-12.41-12.41a43.69,43.69,0,0,1,54.4,0ZM316.29,300a16.41,16.41,0,1,1-16.41-16.4A16.43,16.43,0,0,1,316.29,300ZM278,285.16a26.35,26.35,0,0,0,0,29.59l-12.4,12.4a43.69,43.69,0,0,1,0-54.4Zm7.07,36.66a26.36,26.36,0,0,0,29.58,0l12.41,12.4a43.69,43.69,0,0,1-54.4,0Zm36.65-7.07a26.33,26.33,0,0,0,0-29.59l12.41-12.41a43.69,43.69,0,0,1,0,54.4Zm-67.43,23.7a59.53,59.53,0,0,1,0-77l4.19,4.19a53.69,53.69,0,0,0,0,68.61Zm45.57,21.19a59.44,59.44,0,0,1-38.5-14.12l4.2-4.19a53.67,53.67,0,0,0,68.6,0l4.2,4.19A59.42,59.42,0,0,1,299.88,359.64Zm45.57-21.19-4.19-4.19a53.69,53.69,0,0,0,0-68.61l4.19-4.19a59.53,59.53,0,0,1,0,77Z" transform="translate(-141.21 -100)"/></svg>