<svg id="Ebene_1" data-name="Ebene 1" xmlns="http://www.w3.org/2000/svg" viewBox="0 0 541.69 239"><defs><style>.cls-1{fill:#fff;}</style></defs><path class="cls-1" d="M522.68,181.18V181H77v.18c-27.15,3.07-48,47.73-48,104.2S49.85,386.5,77,389.58v.17H87.58L82,420h49V389.75H468.68V420h49l-5.59-30.25h10.57v-.17c27.16-3.08,48-47.74,48-104.2S549.84,184.25,522.68,181.18ZM77,379.44c-9.08-1.68-18-10.89-25-25.9-8.39-18.12-13-42.33-13-68.16s4.62-50,13-68.17c7-15,15.91-24.22,25-25.9ZM121,410H94l3.74-20.25H121Zm357.67,0V389.75h23.26L505.68,410Zm34-30.25H87V191H512.68Zm10-.3V191.31c9.08,1.68,18.05,10.89,25,25.9,8.39,18.12,13,42.33,13,68.17s-4.62,50-13,68.16C540.73,368.55,531.76,377.76,522.68,379.45Zm-54-108.09-7.08-7.07L441,284.88l7.07,7.07Zm-23.41,59.71a42.66,42.66,0,1,0-42.66-42.66A42.7,42.7,0,0,0,445.25,331.07Zm0-75.31a32.66,32.66,0,1,1-32.66,32.65A32.68,32.68,0,0,1,445.25,255.76Z" transform="translate(-29 -181)"/></svg>