<svg id="Ebene_1" data-name="Ebene 1" xmlns="http://www.w3.org/2000/svg" viewBox="0 0 473.34 400"><defs><style>.cls-1{fill:#fff;}</style></defs><path class="cls-1" d="M298.08,484.26h50.83c6.12,0,9.29-5,13-10.8,4-6.29,8.5-13.43,17.71-13.43s13.72,7.14,17.71,13.43c3.67,5.8,6.83,10.8,13,10.8s9.29-5,12.95-10.8c4-6.29,8.5-13.43,17.71-13.43s13.72,7.14,17.71,13.43c3.66,5.8,6.83,10.8,12.95,10.8s9.29-5,13-10.8c4-6.29,8.49-13.43,17.7-13.43s13.73,7.14,17.71,13.43c3.67,5.8,6.83,10.8,12.95,10.8l0-10,.1,0c-1-.48-3.49-4.47-4.57-6.17C524.11,461.35,517,450,502.23,450s-21.88,11.32-26.15,18.09c-1.06,1.66-3.49,5.51-4.51,6.13-1-.62-3.45-4.47-4.5-6.13-4.28-6.77-11.45-18.09-26.16-18.09S419,461.35,414.75,468.12c-1.05,1.66-3.49,5.51-4.5,6.13-1-.62-3.46-4.47-4.51-6.13-4.28-6.77-11.45-18.09-26.16-18.09s-21.88,11.32-26.16,18.09c-1.06,1.67-3.52,5.55-4.52,6.14H298.08a36.86,36.86,0,0,1-36.7-36.93V404.92h14.14L439.39,241H368.77v-117H339.92V100H192.14v13.23H126V241H59.62L223.49,404.92h12.24v32.41c0,34.55,28,62.67,62.35,62.67h50.83c14.72,0,21.88-11.32,26.16-18.08,1.05-1.67,3.49-5.52,4.51-6.14,1,.62,3.45,4.47,4.51,6.14,4.28,6.76,11.44,18.08,26.16,18.08s21.87-11.32,26.15-18.08c1.06-1.67,3.49-5.52,4.51-6.14,1,.62,3.45,4.47,4.5,6.13,4.28,6.77,11.45,18.09,26.16,18.09s21.88-11.32,26.16-18.08c1-1.67,3.48-5.52,4.5-6.14,1,.62,3.45,4.47,4.51,6.14C511,488.68,518.18,500,532.89,500V490c-9.2,0-13.72-7.14-17.7-13.43-3.67-5.8-6.83-10.8-13-10.8s-9.29,5-13,10.8c-4,6.29-8.5,13.43-17.71,13.43s-13.72-7.14-17.71-13.43c-3.66-5.8-6.83-10.8-12.95-10.8s-9.29,5-13,10.8c-4,6.3-8.5,13.43-17.7,13.43s-13.73-7.13-17.71-13.43c-3.67-5.8-6.83-10.8-13-10.8s-9.29,5-13,10.8c-4,6.29-8.5,13.43-17.71,13.43H298.08a52.57,52.57,0,0,1-52.35-52.67V404.92h5.65v32.41A46.87,46.87,0,0,0,298.08,484.26Zm173.47-10Zm-30.62,1.51Zm-61.33,0ZM358.77,134.05V241H231v-107ZM202.14,110H329.92v14H221V241H202.14ZM136,123.23h56.13V241H136ZM83.76,251H415.25L271.38,394.92H227.63Z" transform="translate(-59.62 -100)"/></svg>