<svg id="Ebene_1" data-name="Ebene 1" xmlns="http://www.w3.org/2000/svg" viewBox="0 0 338.72 400"><defs><style>.cls-1{fill:#fff;}</style></defs><path class="cls-1" d="M468.72,137.61v-4.93c0-6.72-5.42-16.57-52.27-24.48-31.32-5.29-72.9-8.2-117.09-8.2s-85.77,2.91-117.09,8.2C135.42,116.11,130,126,130,132.68v4.93H279.12V149.9H253.18v51.62H235l-46.86,35.93c-20.38,15.62-33.12,36.68-35.86,59.3-2.57,21.19,3.88,42.7,18.18,60.56L275.54,488.56A30.36,30.36,0,0,0,299.36,500h0a30.36,30.36,0,0,0,23.82-11.44L428.26,357.31c14.3-17.86,20.75-39.37,18.18-60.56-2.74-22.62-15.48-43.68-35.86-59.3l-46.86-35.93h-18.2l0-51.62H319.6V137.61Zm-322.09-9.85c6.41-3,18.18-6.7,38.7-10.08,30.63-5.05,71.13-7.83,114-7.83s83.4,2.78,114,7.83c20.51,3.38,32.29,7.11,38.7,10.08Zm31.53,223.39c-12.82-16-18.38-34.41-16.1-53.21,2.42-20,13.81-38.67,32.07-52.67l44.21-33.89h6.37L221.1,237.6c-27.89,31-33,80.78-12.25,118.41l59.7,108.05Zm39.32.1c-18.83-34.07-14.22-79.1,10.94-107l24.83-27.58a45.23,45.23,0,0,0,5.52,19.59l-1.2,2.67c-13.69,30.41-16.23,79.22-6.06,116.06l32,115.83ZM261,352.32c-9.35-33.84-7.42-78.19,4.45-106.86a46.36,46.36,0,0,0,67.8,0c11.87,28.66,13.8,73,4.45,106.85l-38.35,135.1Zm54.2,118.45,32-115.83c10.17-36.84,7.63-85.66-6.06-116.06l-1.2-2.67a45,45,0,0,0,5.52-19.59L370.3,244.2c25.17,27.95,29.77,73,10.94,107.05Zm45.17-259.39,44.21,33.89c18.26,14,29.65,32.7,32.07,52.67,2.29,18.8-3.28,37.21-16.1,53.21L330.17,464.06l59.7-108c20.79-37.63,15.64-87.43-12.25-118.41L354,211.38ZM335.69,206v8.47a36.33,36.33,0,0,1-72.65,0V159.75h72.65ZM289,149.9V137.61h20.78V149.9Z" transform="translate(-130 -100)"/></svg>