<svg id="Ebene_1" data-name="Ebene 1" xmlns="http://www.w3.org/2000/svg" viewBox="0 0 404.82 400"><defs><style>.cls-1{fill:#fff;}</style></defs><path class="cls-1" d="M294.48,240.37a47.73,47.73,0,1,0-47.72-47.73A47.78,47.78,0,0,0,294.48,240.37Zm0-86a38.22,38.22,0,1,1-38.21,38.22A38.27,38.27,0,0,1,294.48,154.42Zm0,205.21a47.73,47.73,0,1,0,47.73,47.73A47.78,47.78,0,0,0,294.48,359.63Zm0,85.95a38.22,38.22,0,1,1,38.22-38.22A38.26,38.26,0,0,1,294.48,445.58Zm0-160.3a92.64,92.64,0,1,0-92.64-92.64A92.75,92.75,0,0,0,294.48,285.28Zm0-175.77a83.13,83.13,0,1,1-83.13,83.13A83.22,83.22,0,0,1,294.48,109.51Zm0,205.21a92.64,92.64,0,1,0,92.64,92.64A92.75,92.75,0,0,0,294.48,314.72Zm0,175.77a83.13,83.13,0,1,1,83.13-83.13A83.22,83.22,0,0,1,294.48,490.49ZM97.47,295v10H502.29V295Z" transform="translate(-97.47 -100)"/></svg>