<svg id="Ebene_1" data-name="Ebene 1" xmlns="http://www.w3.org/2000/svg" viewBox="0 0 315.56 400"><defs><style>.cls-1{fill:#fff;}</style></defs><path class="cls-1" d="M457.66,500H142.1L162.7,453h43.5V414.66a13,13,0,0,1,13-13h78.3l-40.91-63.42h23.16V263.42H257.1a13,13,0,0,1-13-13V190H201.88V147.05H162.7L142.1,100H457.66l-20.6,47.05H399.88V190H355.66v60.42a13,13,0,0,1-13,13H318.92v74.82h23.16l-40.92,63.42h79.4a13,13,0,0,1,13,13V453h43.5ZM157.4,490h285L430.52,463H169.24Zm58.8-38.07H383.56V414.66a3,3,0,0,0-3-3H219.2a3,3,0,0,0-3,3Zm58.74-103.69,24.39,37.81,24.4-37.81H308.92V265.08H289.75v83.16ZM254.1,190v60.42a3,3,0,0,0,3,3h85.56a3,3,0,0,0,3-3V190Zm-42.22-10h178V147.05h-178Zm188-42.95h30.64L442.36,110h-285l11.84,27.05h32.64V137Z" transform="translate(-142.1 -100)"/></svg>