<svg id="Ebene_1" data-name="Ebene 1" xmlns="http://www.w3.org/2000/svg" viewBox="0 0 367.47 400"><defs><style>.cls-1{fill:#fff;}</style></defs><path class="cls-1" d="M312.37,411l-16.93-17.5-8.35,22.88L304,433.85Zm-30.11,66.21L287.34,501l19.2-15-5.08-23.81Zm29.39-1.82,19.71,14.29,4.25-24-19.71-14.3Zm78-132.69V299.22h-44.4V246.46L428.42,140H381.19l18.05-21.91L322.17,101l-28,34-45.58-24.73L247.82,140H171.05l83.2,106.44v52.76h-44.4v43.45A99.09,99.09,0,0,0,116,441.5v5h43.86v-5a55.18,55.18,0,0,1,50-54.86V446.5h61.69l7,14.39,11.26-14.39h99.79V386.64a55.18,55.18,0,0,1,50,54.86v5h43.87v-5A99.09,99.09,0,0,0,389.62,342.67ZM209.85,376.6a65.21,65.21,0,0,0-59.8,59.9H126.14a89.1,89.1,0,0,1,83.71-83.82ZM191.56,150H407.91L338.05,239.4H261.42ZM335.22,249.4v49.82h-71V249.4Zm0,187.1H291l-8.15-16.66-13,16.66h-5.59V385h71Zm44.4-94h-.12V386.4h.12v50.1h-34.4V375h-91V436.5h-34.4V386.4H220V342.54h-.12V309.22h34.4v.12h91v-.12h34.4Zm69.79,94a65.21,65.21,0,0,0-59.79-59.9V352.68a89.1,89.1,0,0,1,83.71,83.82Z" transform="translate(-116 -101)"/></svg>