<svg id="Ebene_1" data-name="Ebene 1" xmlns="http://www.w3.org/2000/svg" viewBox="0 0 566.72 348.35"><defs><style>.cls-1{fill:#fff;}</style></defs><path class="cls-1" d="M199.88,388a13.68,13.68,0,0,0,12.58,9.2H386.25a13.68,13.68,0,0,0,12.59-9.2l55.53-174.63a9.1,9.1,0,0,0-8.94-12.23H153.29a9.1,9.1,0,0,0-8.95,12.23ZM444.59,211.11,389.31,384.94a3.82,3.82,0,0,1-3.06,2.23H212.46a3.79,3.79,0,0,1-3.05-2.23L154.13,211.11ZM573.18,127,465.88,465.35h-333L25.53,127,16,130,125.51,475.35H473.2L582.72,130ZM138.51,389.4l11.08,22.66,15.55-19.86-11.08-22.66Zm330.2,29.83,4.4-24.84-20.42-14.81-4.4,24.84ZM359.14,444.7l4.4-24.84-20.42-14.81-4.4,24.84Zm-106.53,4.4,22.28-11.83-.9-25.21-22.28,11.83Zm-98-113.62-.9-25.21L131.48,322.1l.9,25.21Zm295.06,2.39,23.39,9.44-1.74-25.17L448,312.71ZM170.6,449.1,203,440.45l6.37-32.92L177,416.18Zm241.09-1.25,33.21,4.64L434.56,420.6,401.36,416Z" transform="translate(-16 -127)"/></svg>