<svg id="Ebene_1" data-name="Ebene 1" xmlns="http://www.w3.org/2000/svg" viewBox="0 0 284.29 398.73"><defs><style>.cls-1{fill:#fff;}</style></defs><path class="cls-1" d="M152.59,100v72.36a17,17,0,0,0,17,17h9.13l116,309.37,116-309.37h9.13a17,17,0,0,0,17-17V100Zm202.7,90.3-141.54,64-14.51-38.71,55.92-25.29ZM195.72,206.2l-6-15.9h41.14Zm72.14,192.38-14.52-38.71L353,314.79l-20.44,54.52Zm59.77-16.06L307.19,437l-21.3,9.63L271.38,408Zm-77.81-32-14.51-38.71,143.12-64.71L358,301.57Zm39.59,105.57,12.82-5.79-7.49,20Zm94-222.21-151.6,68.55-14.52-38.71L379.56,190.3h20.16Zm43.49-61.48a7,7,0,0,1-7,7H169.59a7,7,0,0,1-7-7V110H426.88Z" transform="translate(-152.59 -100)"/></svg>