<svg id="Ebene_1" data-name="Ebene 1" xmlns="http://www.w3.org/2000/svg" viewBox="0 0 183.11 400"><defs><style>.cls-1{fill:#fff;}</style></defs><path class="cls-1" d="M391.43,311V282.57h-13.6V235.33H359.68V225.5h26.57V197H360.33v-29h23.75V138.3H360.33V100H239.43v97H213.51V225.5h25.27v9.83H220.64v47.24H208.33V311h57v87.72H245.26V428.5h12.8V497h.16v3h82v-3h.16V428.5H353.2V398.76H334.41V311ZM280.62,490h-12.4V429.19h12.4Zm28.94,0H290.62V429.19h18.94Zm20.69,0H319.56V429.19h10.69Zm12.95-71.5H255.26v-9.74H343.2ZM324.41,311.73v86.34H275.35V311.73ZM374.08,148.3v9.75H360.33V148.3ZM249.43,110h100.9v86.35H249.43ZM223.51,215.5V207H376.25v8.47Zm126.17,10.68v8.47H248.78v-8.47Zm-119,19.15H367.83v36.56H230.64Zm-12.31,47.24h163.1V301H218.33Z" transform="translate(-208.33 -100)"/></svg>