<svg id="Ebene_1" data-name="Ebene 1" xmlns="http://www.w3.org/2000/svg" viewBox="0 0 353.69 400"><defs><style>.cls-1{fill:#fff;}</style></defs><path class="cls-1" d="M423.53,100v76.85H406.78V138.42H193v38.43H176.23V100H123V500h53.2V423.15H193V446.8h213.8V423.15h16.75V500h53.2V100Zm0,86.7v23.64H406.78V186.7Zm0,33.5V379.8H406.78V220.2ZM193,186.7v23.64H176.23V186.7Zm0,33.5V379.8H176.23V220.2ZM166.23,490H133V110h33.2v66.85h-4.77a12.81,12.81,0,1,0,0,9.85h4.77v23.64h-4.77a12.81,12.81,0,1,0,0,9.86h4.77V379.8h-4.77a12.82,12.82,0,1,0,0,9.85h4.77V413.3h-4.77a12.81,12.81,0,1,0,0,9.85h4.77Zm10-76.7V389.65H193V413.3Zm220.55,23.5H203V148.42h193.8Zm10-23.5V389.65h16.75V413.3Zm60,76.7h-33.2V423.15h4.77a12.81,12.81,0,1,0,0-9.85h-4.77V389.65h4.77a12.81,12.81,0,1,0,0-9.85h-4.77V220.2h4.77a12.81,12.81,0,1,0,0-9.86h-4.77V186.7h4.77a12.81,12.81,0,1,0,0-9.85h-4.77V110h33.2Z" transform="translate(-123.03 -100)"/></svg>