<svg id="Ebene_1" data-name="Ebene 1" xmlns="http://www.w3.org/2000/svg" viewBox="0 0 400 400"><defs><style>.cls-1{fill:#fff;}</style></defs><path class="cls-1" d="M184.38,415.5h231v-231h-231Zm17.07-10,98.43-98.43,98.43,98.43Zm203.93-7.07L307,300l98.43-98.43ZM398.31,194.5l-98.43,98.43L201.45,194.5Zm-203.93,7.07L292.81,300l-98.43,98.43Zm267.15-63.22V100h-10v38.35H412.38v10h39.15V187.5h10V148.35h38.35v-10ZM138.23,187.5h10V148.35h39.15v-10H148.23V100h-10v38.35H99.88v10h38.35Zm323.3,225h-10v39.15H412.38v10h39.15V500h10V461.65h38.35v-10H461.53Zm-313.3,0h-10v39.15H99.88v10h38.35V500h10V461.65h39.15v-10H148.23Z" transform="translate(-99.88 -100)"/></svg>