<svg id="Ebene_1" data-name="Ebene 1" xmlns="http://www.w3.org/2000/svg" viewBox="0 0 570.15 333.07"><defs><style>.cls-1{fill:#fff;}</style></defs><path class="cls-1" d="M557.3,410.48c-12-6.15-30.9-6.15-42.93,0l-15.16,7.75c-5.5,2.8-15.22,3-20.82.41l-21.49-9.93c-11.14-5.14-28.34-4.64-39.17,1.14L402.38,418c-5.37,2.87-14.86,3-20.3.27l-15.19-7.6q-8.43-21.43-24.23-49.64c-9.88-17.65-20.21-34.14-28.12-46.3a21.62,21.62,0,0,0,2.21-1.58c20.44,17.45,56.52,43.63,89,43.63a51.79,51.79,0,0,0,17.81-3,96.62,96.62,0,0,0,54.79-50.31,95.65,95.65,0,0,0,3.46-73.66A21.39,21.39,0,0,0,467.6,216.4c-18-5.64-51.63,5.25-100.05,32.39-17.85,10-34.53,20.45-46.73,28.39a24,24,0,0,0-2.7-2.91c20.39-23.28,56.93-72.09,43.21-109.83a97.3,97.3,0,0,0-124-58.25,21.35,21.35,0,0,0-13.44,14.23c-5.65,18,5.25,51.63,32.38,100.05,11.17,19.95,22.91,38.42,31.07,50.81a25.28,25.28,0,0,0-3.48,2.58c-24-20.66-71.09-54.69-107.7-41.37a97.28,97.28,0,0,0-58.26,124,21.4,21.4,0,0,0,14.23,13.44,35.48,35.48,0,0,0,10.58,1.44c19.32,0,49.33-11.33,89.47-33.83,18.18-10.18,35.16-20.85,47.42-28.84-18.77,21.69-49.36,63.17-44.47,98.34-.67.27-1.32.56-1.94.87l-17.95,9c-7.13,3.56-19.16,3.52-26.26-.11L171.93,408c-9.32-4.77-24-4.89-33.38-.28L119.72,417c-7.13,3.49-19,3.23-26-.58L78.25,408c-8.75-4.77-22.5-4.88-31.32-.24L14.78,424.63l4.65,8.85,32.16-16.91c5.85-3.08,16.07-3,21.87.17l15.45,8.44c9.76,5.33,25.23,5.67,35.22.77L143,416.73c6.64-3.27,17.83-3.17,24.42.2l17.08,8.73c9.87,5,25.37,5.11,35.28.15l17.95-9c6.61-3.31,17.75-3.27,24.34.1l18,9.22c9.34,4.77,24,4.83,33.36.14l17-8.5c7.67-3.83,20.62-3.83,28.29,0l18.91,9.47c8.31,4.16,21.27,4,29.48-.39l15.35-8.2c8.09-4.32,21.95-4.72,30.27-.88l21.49,9.93c8.37,3.86,21.35,3.61,29.56-.59l15.16-7.75c9.17-4.69,24.66-4.68,33.83,0l27.63,14.13,4.55-8.91Zm-271.23-112a15.66,15.66,0,1,1,8.09,8.83A15.52,15.52,0,0,1,286.07,298.5Zm178.54-72.56a11.29,11.29,0,0,1,7.82,7.33,87.27,87.27,0,0,1-52.27,111.15c-22.7,8.25-51.84-6.39-72.29-20.12a274.82,274.82,0,0,1-24.65-18.81c.27-.49.55-1,.79-1.5a25.44,25.44,0,0,0,1.4-17.93C366.78,259.05,438.33,217.69,464.61,225.94ZM233.46,123.42a11.27,11.27,0,0,1,7.32-7.83,85.1,85.1,0,0,1,29.13-5.15,87.77,87.77,0,0,1,82,57.42c8.26,22.7-6.38,51.84-20.12,72.29A280.46,280.46,0,0,1,309.37,269,25.39,25.39,0,0,0,297,267.78C270.21,227.49,224.85,150.83,233.46,123.42Zm-98.3,236.94a11.29,11.29,0,0,1-7.83-7.32A87.29,87.29,0,0,1,179.6,241.88c22.7-8.25,51.84,6.39,72.29,20.12a278.23,278.23,0,0,1,25.88,19.86c-.08.15-.17.3-.24.45a25.43,25.43,0,0,0-1.67,16.94C234.74,326.24,161.76,368.71,135.16,360.36Zm190.77,48.49-17,8.5c-6.61,3.31-17.75,3.26-24.33-.1l-18-9.22c-6-3-14.08-4.17-21.62-3.37-2.42-21,10.21-45.44,22.19-63.27A279.3,279.3,0,0,1,287.41,315c.82.49,1.65.95,2.52,1.36a25.68,25.68,0,0,0,10.82,2.41,25.12,25.12,0,0,0,4.32-.37c15.57,23.8,36,57.8,49,87.4C344.62,404,333.66,405,325.93,408.85Z" transform="translate(-14.78 -100.43)"/></svg>