<svg id="Ebene_1" data-name="Ebene 1" xmlns="http://www.w3.org/2000/svg" viewBox="0 0 487.99 306"><defs><style>.cls-1{fill:#fff;}</style></defs><path class="cls-1" d="M544,403.87l-23.72-60.8H458.48L441,279.12H495.8l-16.72-42.58H429.31l-10.95-40H463.9L451,164H409.44L404.8,147H375.14L378.87,164H221.13L224.86,147H195.19L190.55,164H149l-12.89,32.59h45.54l-10.95,40H120.91l-16.72,42.58H159l-17.51,63.95H79.72L56,403.87h68.86L111.41,453h46.1l10.82-49.13H431.67L442.48,453h46.1l-13.45-49.13Zm-30.55-50.8,15.92,40.8h-57l-11.17-40.8ZM472.26,246.54l8.87,22.58H438.24l-6.19-22.58Zm-28-72.59,5,12.59H415.62L412.18,174ZM195.78,279.12H404.21l14.08,63.95H181.71Zm2.2-10,5-22.58H397l5,22.58Zm7.17-32.58,8.8-40H386l8.8,40ZM381.07,174l2.77,12.59H216.15L218.93,174ZM150.8,186.54l5-12.59h32l-3.45,12.59Zm-31.94,82.58,8.87-22.58h40.21l-6.18,22.58ZM70.64,393.87l15.91-40.8h52.22l-11.17,40.8ZM149.47,443h-25l78.3-286h9.6Zm21.06-49.13,9-40.8h241l9,40.8Zm280,49.13L387.58,157h9.59l78.3,286Z" transform="translate(-56 -147)"/></svg>