<svg id="Ebene_1" data-name="Ebene 1" xmlns="http://www.w3.org/2000/svg" viewBox="0 0 375.08 400"><defs><style>.cls-1{fill:#fff;}</style></defs><path class="cls-1" d="M326.14,490,316.06,299.36l51.06,29.49c36.76,21.22,64.37,31.2,74.46,31.48l9.25.26L446,352.71c-5.29-8.6-27.73-27.53-64.49-48.76l-56.65-32.72a25.71,25.71,0,0,0-10.69-15.66l.19-68.33c.12-41.69-4.9-70.19-9.61-79L300.35,100l-4.43,8.18c-4.78,8.82-10,37.35-10.09,79.15l-.19,68.17a25.65,25.65,0,0,0-10.82,15.85l-56.55,32.78c-36.17,21-58.23,39.7-63.43,48.23l-4.78,7.85,9.19-.25c10-.27,37.16-10.1,73.28-31l51.18-29.67L273.63,490H112.34v10H487.42V490Zm99.69-143.85c-12.41-4.46-30.78-12.72-53.71-26l-50.86-29.37a25.42,25.42,0,0,0,3.49-8.09l51.74,29.88C399.42,325.85,415.76,337.63,425.83,346.15Zm-130-158.8c.07-25.84,2.09-45.47,4.43-58.29,2.25,12.81,4.16,32.4,4.08,58.16l-.18,64.34a25.61,25.61,0,0,0-4.32-.37,25.11,25.11,0,0,0-4.19.35Zm4,73.84a15.62,15.62,0,1,1-15.61,15.61A15.62,15.62,0,0,1,299.84,261.19Zm-72.33,59.08c-21,12.18-36.69,19.25-46.14,23q-3.39,1.35-6.31,2.4c1.58-1.34,3.33-2.78,5.24-4.3,8-6.33,21.95-16.43,43-28.63L275,282.83a25.57,25.57,0,0,0,3.44,7.95Zm66.09-18.63a25.22,25.22,0,0,0,6.24.78,25.48,25.48,0,0,0,6.33-.8l10,188.38H283.64Z" transform="translate(-112.34 -100)"/></svg>