<svg id="Ebene_1" data-name="Ebene 1" xmlns="http://www.w3.org/2000/svg" viewBox="0 0 566.62 330.23"><defs><style>.cls-1{fill:#fff;}</style></defs><path class="cls-1" d="M228.87,275a72,72,0,0,1,6-17.77l1.25-2.54-61.8-107-4.88,4.67a188.43,188.43,0,0,0-44.6,65.41l-1.75,4.29,104.37,60.26Zm-8.69-9.16-83.73-48.34a177.47,177.47,0,0,1,35.48-52.72L224.1,255.2A82.74,82.74,0,0,0,220.18,265.88Zm79.72-41.59h-.37a63.19,63.19,0,1,0,.37,0Zm0,118.81a54.1,54.1,0,0,1-.24-108.19h.57a54.1,54.1,0,0,1-.33,108.19Zm68.47-77.51A72,72,0,0,1,372.06,284l.2,2.81,107.11,61.84,1.9-6.47a189,189,0,0,0,5.84-79l-.63-4.58H365.94Zm108.82,3.59a181.07,181.07,0,0,1,1.1,19.83,178.1,178.1,0,0,1-5.4,43.61L382.41,280.4a83.32,83.32,0,0,0-2-11.22ZM347.43,234.52a73.36,73.36,0,0,1,12.45,14l1.58,2.33H485.14l-1.6-6.56A187.28,187.28,0,0,0,449,173l-2.84-3.64L341.84,229.63Zm96-51.29a176.53,176.53,0,0,1,28.06,57.06H367a83,83,0,0,0-7.32-8.72Zm-198,58.23A72.68,72.68,0,0,1,259.44,229l2.34-1.58V103.75l-6.56,1.6a187.26,187.26,0,0,0-71.31,34.51l-3.65,2.84,60.25,104.35Zm5.77-124.07V221.85a84.15,84.15,0,0,0-8.71,7.32l-48.34-83.72A176.18,176.18,0,0,1,251.16,117.39ZM313.84,218a72.05,72.05,0,0,1,17.78,6l2.54,1.24,107-61.79-4.66-4.89a188.51,188.51,0,0,0-65.42-44.6l-4.28-1.75L306.56,216.57Zm57.51-92.43a177.62,177.62,0,0,1,52.71,35.48l-90.37,52.18A82.34,82.34,0,0,0,323,209.31Zm-76.5,91.26,2.82-.2,61.84-107.11-6.48-1.9a189,189,0,0,0-79-5.84l-4.59.63V223l7-2.41A71.87,71.87,0,0,1,294.85,216.83ZM280.06,111.72A178.49,178.49,0,0,1,343.5,116l-52.23,90.46a83.18,83.18,0,0,0-11.21,2ZM113.28,319.45H233.82l-2.4-7A72,72,0,0,1,227.7,294l-.19-2.82L120.4,229.38l-1.9,6.47a189.37,189.37,0,0,0-5.85,79Zm13.62-74.06,90.46,52.23a81.61,81.61,0,0,0,1.95,11.21H122.6a178.23,178.23,0,0,1,4.3-63.44ZM555.71,406.73c-12-6.17-30.91-6.17-43,0l-15.06,7.71c-5.37,2.75-14.89,2.94-20.37.41L456,405a34.45,34.45,0,0,0-5.46-1.94,187.6,187.6,0,0,0,24.41-42.8l1.75-4.29L372.32,295.68,370.89,303a71.84,71.84,0,0,1-6,17.77l-1.24,2.54,49.06,85L406,411.88,359.25,331l-4.88,5.59A72.39,72.39,0,0,1,340.32,349L338,350.58v51a43.45,43.45,0,0,0-7.67,1.64V355.06l-7,2.41a72.32,72.32,0,0,1-18.38,3.72l-2.81.19-27.14,47-6.83-3.49,25.08-43.44L285.92,360a71.84,71.84,0,0,1-17.77-6l-2.54-1.25-90.82,52.44-1.83-.94a32,32,0,0,0-7.38-2.6l92.34-53.31-5.59-4.88a73.06,73.06,0,0,1-12.44-14.06l-1.58-2.33H114.63l1.59,6.56A187.19,187.19,0,0,0,148,401.33a32.63,32.63,0,0,0-8.48,2.68l-18.7,9.18c-7,3.44-18.68,3.18-25.52-.56l-15.35-8.4c-8.78-4.8-22.59-4.91-31.44-.24L16.55,420.81l4.94,9.39,31.94-16.82c5.72-3,15.72-2.94,21.4.16l15.34,8.4c9.79,5.35,25.29,5.69,35.3.78l18.7-9.18c6.4-3.15,17.6-3.05,24,.2l17,8.68c9.9,5.07,25.43,5.13,35.36.15l17.83-8.93c6.37-3.2,17.51-3.15,23.85.1L280,422.91c9.36,4.79,24,4.86,33.45.14l16.87-8.45c7.53-3.78,20.25-3.78,27.78,0L376.93,424c8.35,4.19,21.35,4,29.6-.39l15.25-8.16c8-4.25,21.57-4.64,29.75-.86l21.35,9.88c8.39,3.88,21.42,3.62,29.66-.59l15.05-7.71c9-4.62,24.27-4.62,33.29,0l27.45,14.05,4.83-9.45Zm-427.45-69H232.73a84.15,84.15,0,0,0,7.32,8.71l-83.72,48.34A176.4,176.4,0,0,1,128.26,337.73ZM257.9,401.36c-8.24-1.5-17.67-.58-24.39,2.79l-17.83,8.93c-7,3.51-18.79,3.46-25.76-.1L186,411l80-46.21a81.47,81.47,0,0,0,10.69,3.93Zm61.81,6.7-11,5.5c-6.37,3.2-17.51,3.15-23.85-.1l-.46-.23,24.07-41.7a81.75,81.75,0,0,0,11.22-1.95Zm62,6.46-18.78-9.41a40.18,40.18,0,0,0-14.3-3.74V356.16a84.26,84.26,0,0,0,8.72-7.32L396.11,416C391.2,416.9,385.45,416.42,381.68,414.52Zm56.62-13.1a50.39,50.39,0,0,0-15.91,2.34l-1.76-3.06,0,0-44.95-77.86a82.88,82.88,0,0,0,3.92-10.69l83.73,48.34A177,177,0,0,1,438.3,401.42Z" transform="translate(-16.55 -100)"/></svg>