<svg id="Ebene_1" data-name="Ebene 1" xmlns="http://www.w3.org/2000/svg" viewBox="0 0 558.2 400"><defs><style>.cls-1{fill:#fff;}</style></defs><path class="cls-1" d="M447.49,314.94a76.27,76.27,0,0,1-6.4,19l-1.17,2.4,65,112.62,4.6-4.4a199.25,199.25,0,0,0,47.2-69.22l1.65-4L448.84,308.08Zm8.22,8.65,90.08,52a189.13,189.13,0,0,1-38.6,57.26l-8.07-14v0l-47.89-82.94A87,87,0,0,0,455.71,323.59Zm113.9-50.95-.59-4.32H442.5l2.27,6.62a77.49,77.49,0,0,1,4,19.68l.18,2.65,112.71,65.07,1.79-6.1a200.17,200.17,0,0,0,6.18-83.6Zm-14.08,74.63-97-56a88.16,88.16,0,0,0-2.29-12.93h104A192.56,192.56,0,0,1,561.49,300,189.73,189.73,0,0,1,555.53,347.27ZM366.11,222.75l2.65-.18,65.08-112.72-6.1-1.79a200.22,200.22,0,0,0-83.61-6.18l-4.32.59V229l6.63-2.27A77,77,0,0,1,366.11,222.75Zm-16.3-111.51A192.56,192.56,0,0,1,371.49,110a189.73,189.73,0,0,1,47.27,6l-56,97a88.14,88.14,0,0,0-12.93,2.28Zm72.57,130.44a78.22,78.22,0,0,1,13.33,15l1.48,2.2H567.34l-1.51-6.18a198.16,198.16,0,0,0-36.52-75.46l-2.68-3.43L417.12,237.08Zm101.67-54.79a187.84,187.84,0,0,1,30.46,62H442.45a86.77,86.77,0,0,0-8.47-10ZM386.44,224a77,77,0,0,1,19,6.4l2.39,1.17,112.62-65-4.39-4.6a199.32,199.32,0,0,0-69.22-47.19l-4-1.65L379.57,222.65Zm60.65-98.29a189,189,0,0,1,57.27,38.6l-96.94,56a87,87,0,0,0-12.34-4.48ZM313.17,249.11a78.42,78.42,0,0,1,15-13.32l2.2-1.49V104.15l-6.18,1.51a198.16,198.16,0,0,0-75.46,36.52l-3.43,2.68,63.23,109.51ZM320.41,117V229a88.65,88.65,0,0,0-10,8.47l-52-90.07A188,188,0,0,1,320.41,117Zm109.41,233.9a78.18,78.18,0,0,1-15.05,13.32l-2.19,1.49V495.85l6.18-1.51a198.12,198.12,0,0,0,75.45-36.52l3.43-2.68L434.42,345.63ZM422.58,483V371a87.52,87.52,0,0,0,10-8.47l52,90.07A188,188,0,0,1,422.58,483ZM398,362.69v0a68,68,0,0,0-26.52-130.71h-.34a68.14,68.14,0,0,0-67.41,61.74c-1.15.39-2.29.79-3.42,1.23a51.8,51.8,0,0,0-5.26-7.73l.41-2.12a77,77,0,0,1,6.4-19l1.18-2.4L238,151l-4.6,4.4a199.36,199.36,0,0,0-47.19,69.22l-1.65,4,69,39.82a50.49,50.49,0,0,0-14.19,2.67l-58-33.51-1.79,6.1a199.73,199.73,0,0,0-7.9,48.22A72.59,72.59,0,0,0,116,362.69c0,40,32.27,72.61,71.93,72.61a70.3,70.3,0,0,0,28.28-5.91,61.35,61.35,0,0,0,7.69,5.51l3,3.15a199.39,199.39,0,0,0,69.22,47.2l4,1.64L330,435.19a70.84,70.84,0,0,0,11.82-1.66l-32.69,56.62,6.1,1.79a200.17,200.17,0,0,0,83.6,6.18l4.32-.59V371l-5.88,2A73.23,73.23,0,0,0,398,362.69ZM197.2,224.4a189,189,0,0,1,38.6-57.26l56,96.93a86.27,86.27,0,0,0-4.49,12.34Zm-9.74,28.33,41,23.68a51.7,51.7,0,0,0-17,17.68,70.73,70.73,0,0,0-23.54-4c-2.08,0-4.14.11-6.17.28A188.87,188.87,0,0,1,187.46,252.73ZM295.9,474.3a188.8,188.8,0,0,1-49.18-31.14,61.7,61.7,0,0,0,8.94.67A61.07,61.07,0,0,0,296,428.63a70.41,70.41,0,0,0,22.6,6.28Zm30.2-49a60.75,60.75,0,0,1-28.59-7.1l-3.23-1.71-2.6,2.56a51.22,51.22,0,0,1-71.18.78L218,417.47l-3.1,1.52a60.72,60.72,0,0,1-26.95,6.31c-34.15,0-61.93-28.08-61.93-62.61s27.78-62.6,61.93-62.6A60.87,60.87,0,0,1,211.87,305l4.46,1.9,2-4.39a41,41,0,0,1,75,.89l2.05,4.72,4.66-2.19a60.61,60.61,0,0,1,26-5.81c34.15,0,61.93,28.08,61.93,62.6S360.25,425.3,326.1,425.3Zm67.07,63.46A192.42,192.42,0,0,1,371.49,490a189.73,189.73,0,0,1-47.27-6l32-55.44a72.7,72.7,0,0,0,36.94-39.72ZM326.1,290.09a70.9,70.9,0,0,0-12,1,58.13,58.13,0,0,1,57.14-49.17h.54A58,58,0,0,1,397.24,352C392.11,317,362.16,290.09,326.1,290.09ZM94.28,356.86h-74c-3.87,0-7,2.24-7,5a4.39,4.39,0,0,0,2,3.53,8.51,8.51,0,0,0,5,1.47h74c3.87,0,7-2.24,7-5S98.15,356.86,94.28,356.86ZM56.42,341h31a5,5,0,0,0,0-10h-31a5,5,0,1,0,0,10Zm36.3,41.64H51.13c-3.7,0-6.71,2.24-6.71,5a4.43,4.43,0,0,0,2,3.53,7.93,7.93,0,0,0,4.74,1.47H92.72c3.7,0,6.7-2.24,6.7-5S96.42,382.68,92.72,382.68Z" transform="translate(-13.3 -100)"/></svg>