<svg id="Ebene_1" data-name="Ebene 1" xmlns="http://www.w3.org/2000/svg" viewBox="0 0 404.23 354.46"><defs><style>.cls-1{fill:#fff;}</style></defs><path class="cls-1" d="M126.55,198.74h79.64v-10H126.55Zm0,23.33h79.64v-10H126.55Zm0,46.67h79.64v-10H126.55Zm0-23.33h79.64v-10H126.55ZM97,123V443h19.91v34.51H481.32V443h19.91V123Zm10,310V133H294.12V433Zm364.32,34.51H126.91v-24H471.32ZM491.23,433H304.12V133H491.23ZM471.68,212.07H392v10h79.64Zm0,23.34H392v10h79.64Zm0,23.33H392v10h79.64Zm0-70H392v10h79.64ZM351.41,406.83H452.18a9.2,9.2,0,0,0,8-13.79l-50.38-87.47a9.18,9.18,0,0,0-15.92,0L343.45,393a9.2,9.2,0,0,0,8,13.79Zm50.39-95,49,85h-98Zm7,41.24-5.9,1.3,7.4-15.67-12.7,1.28-5.47,18.94,4.22-.35-4.6,12.56,5-1.09-5.37,19.6,18.39-26.06-6.69,1.26ZM248.12,234.31a17.6,17.6,0,1,0,17.6,17.6A17.61,17.61,0,0,0,248.12,234.31Zm0,25.2a7.6,7.6,0,1,1,7.6-7.6A7.61,7.61,0,0,1,248.12,259.51Zm0-71a17.6,17.6,0,1,0,17.6,17.6A17.62,17.62,0,0,0,248.12,188.51Zm0,25.2a7.6,7.6,0,1,1,7.6-7.6A7.61,7.61,0,0,1,248.12,213.71Z" transform="translate(-97 -123)"/></svg>