<svg id="Ebene_1" data-name="Ebene 1" xmlns="http://www.w3.org/2000/svg" viewBox="0 0 400 400"><defs><style>.cls-1{fill:#fff;}</style></defs><path class="cls-1" d="M483,248.82a188.94,188.94,0,0,0-17.5-42.14,21.28,21.28,0,0,0-2.75-26.76L420,137.09a21.3,21.3,0,0,0-26.76-2.74,188.94,188.94,0,0,0-42.14-17.5A21.25,21.25,0,0,0,330.3,100H269.46a21.25,21.25,0,0,0-20.76,16.85,188.94,188.94,0,0,0-42.14,17.5,21.14,21.14,0,0,0-11.69-3.5h0a21.17,21.17,0,0,0-15.07,6.25L137,179.92a21.35,21.35,0,0,0-2.74,26.76,188.94,188.94,0,0,0-17.5,42.14,21.25,21.25,0,0,0-16.85,20.76v60.84a21.25,21.25,0,0,0,16.85,20.76,188.94,188.94,0,0,0,17.5,42.14A21.34,21.34,0,0,0,137,420.08L179.8,462.9a21.17,21.17,0,0,0,15.07,6.25h0a21.14,21.14,0,0,0,11.69-3.5,188.94,188.94,0,0,0,42.14,17.5A21.25,21.25,0,0,0,269.46,500H330.3a21.25,21.25,0,0,0,20.76-16.85,188.94,188.94,0,0,0,42.14-17.5A21.32,21.32,0,0,0,420,462.9l42.82-42.82a21.34,21.34,0,0,0,2.75-26.76A188.94,188.94,0,0,0,483,351.18a21.25,21.25,0,0,0,16.85-20.76V269.58A21.25,21.25,0,0,0,483,248.82ZM472.74,350.77A179.52,179.52,0,0,1,458,386.34a21.35,21.35,0,0,0-25.31,3.6l-17.88,17.88-23.33-23.33a124.41,124.41,0,0,0,0-169l23.33-23.33,17.88,17.88a21.31,21.31,0,0,0,25.31,3.6,179.52,179.52,0,0,1,14.78,35.57,21.24,21.24,0,0,0-15.28,20.35v60.84A21.24,21.24,0,0,0,472.74,350.77ZM167.11,389.94a21.35,21.35,0,0,0-25.31-3.6A179.52,179.52,0,0,1,127,350.77a21.24,21.24,0,0,0,15.28-20.35V269.58A21.24,21.24,0,0,0,127,249.23a178.84,178.84,0,0,1,14.78-35.56,21.29,21.29,0,0,0,25.31-3.61L185,192.18l23.33,23.33a124.41,124.41,0,0,0,0,169L185,407.82ZM185.23,300a114.24,114.24,0,0,1,30.16-77.42l39.33,39.33a58.94,58.94,0,0,0,0,76.18l-39.33,39.33A114.24,114.24,0,0,1,185.23,300Zm114.65,49.12A49.12,49.12,0,1,1,349,300,49.18,49.18,0,0,1,299.88,349.12ZM338,254.84a58.94,58.94,0,0,0-76.18,0l-39.33-39.33a114.45,114.45,0,0,1,154.84,0Zm-76.18,90.32a58.94,58.94,0,0,0,76.18,0l39.33,39.33a114.45,114.45,0,0,1-154.84,0ZM345,338.09a58.94,58.94,0,0,0,0-76.18l39.33-39.33a114.45,114.45,0,0,1,0,154.84Zm67.85-193.92L455.71,187a11.31,11.31,0,0,1-16,16l-42.83-42.83a11.31,11.31,0,1,1,16-16ZM269.46,110H330.3a11.21,11.21,0,0,1,0,22.42H269.46a11.21,11.21,0,1,1,0-22.42Zm0,32.42H330.3a21.24,21.24,0,0,0,20.35-15.28,178.25,178.25,0,0,1,35.56,14.78,21.29,21.29,0,0,0,3.61,25.31l17.88,17.88-23.33,23.33a124.41,124.41,0,0,0-169,0l-23.33-23.33,17.88-17.88a21.35,21.35,0,0,0,3.6-25.31,179.52,179.52,0,0,1,35.57-14.78A21.24,21.24,0,0,0,269.46,142.42ZM144.05,187l42.82-42.82a11.31,11.31,0,0,1,16,16L160,203a11.31,11.31,0,0,1-16-16ZM109.88,330.42V269.58a11.21,11.21,0,0,1,22.42,0v60.84a11.21,11.21,0,0,1-22.42,0Zm85,128.73a11.24,11.24,0,0,1-8-3.32L144.05,413a11.31,11.31,0,0,1,16-16l42.82,42.83a11.31,11.31,0,0,1-8,19.31ZM330.3,490H269.46a11.21,11.21,0,1,1,0-22.42H330.3a11.21,11.21,0,0,1,0,22.42Zm0-32.42H269.46a21.24,21.24,0,0,0-20.35,15.28,179.52,179.52,0,0,1-35.57-14.78,21.35,21.35,0,0,0-3.6-25.31l-17.88-17.88,23.33-23.33a124.41,124.41,0,0,0,169,0l23.33,23.33-17.88,17.88a21.35,21.35,0,0,0-3.6,25.31,179.52,179.52,0,0,1-35.57,14.78A21.24,21.24,0,0,0,330.3,457.58ZM455.71,413l-42.82,42.82a11.31,11.31,0,0,1-16-16L439.72,397a11.31,11.31,0,1,1,16,16Zm34.17-82.59a11.21,11.21,0,1,1-22.42,0V269.58a11.21,11.21,0,1,1,22.42,0Z" transform="translate(-99.88 -100)"/></svg>