<svg id="Ebene_1" data-name="Ebene 1" xmlns="http://www.w3.org/2000/svg" viewBox="0 0 241.93 400"><defs><style>.cls-1{fill:#fff;}</style></defs><path class="cls-1" d="M420.25,168.75c-.85-2.08-3.37-5.58-10.61-5.58H321.91l-11.46-11.46L299,163.17H190.12c-7.23,0-9.76,3.5-10.61,5.58s-1.53,6.33,3.6,11.43L255,251.61c3.75,3.72,7,11.62,7,16.91v139c0,4.92,2,9,5.51,11.19a11.13,11.13,0,0,0,6,1.67,14.94,14.94,0,0,0,6.5-1.59l42.53-20.6c7.64-3.7,13.62-13.24,13.62-21.73V270.13c0-5.28,3.29-13.18,7-16.91l73.48-73C421.78,175.08,421.11,170.83,420.25,168.75Zm-84.13,77.38c-5.6,5.56-10,16.11-10,24v106.3c0,4.72-3.73,10.67-8,12.73l-42.52,20.6c-1.38.67-2.4.7-2.81.45s-.82-1.2-.82-2.72v-139c0-7.9-4.38-18.44-10-24l-71.77-71.34H409.51Zm-55.05-109a5.55,5.55,0,1,0-5.55-5.54A5.54,5.54,0,0,0,281.07,137.12Zm43.55,2a5.54,5.54,0,1,0-5.55-5.54A5.54,5.54,0,0,0,324.62,139.16Zm-54.91,20.58a5.55,5.55,0,1,0-5.55-5.54A5.54,5.54,0,0,0,269.71,159.74Zm117.82-16.19A5.55,5.55,0,1,0,382,138,5.54,5.54,0,0,0,387.53,143.55Zm-149.91,7a5.55,5.55,0,1,0,5.54-5.55A5.54,5.54,0,0,0,237.62,150.56Zm113.87,3.88A5.55,5.55,0,1,0,357,148.9,5.54,5.54,0,0,0,351.49,154.44Zm21-35.76L353.79,100l-18.67,18.68,18.67,18.67ZM314.8,473.59a5.55,5.55,0,1,0,5.55,5.54A5.54,5.54,0,0,0,314.8,473.59Zm-9.68-32.19a5.55,5.55,0,1,0,5.55,5.54A5.54,5.54,0,0,0,305.12,441.4Zm-10.48,47.51a5.55,5.55,0,1,0,5.54,5.55A5.55,5.55,0,0,0,294.64,488.91ZM241.27,129.46,222.6,110.78l-18.68,18.68,18.68,18.68Zm72.32,286.43a5.55,5.55,0,1,0-5.54,5.54A5.55,5.55,0,0,0,313.59,415.89ZM285,463.1a5.55,5.55,0,1,0,5.54,5.55A5.54,5.54,0,0,0,285,463.1Zm0-25.94a5.55,5.55,0,1,0-5.54-5.54A5.54,5.54,0,0,0,285,437.16Z" transform="translate(-178.91 -100)"/></svg>