<svg id="Ebene_1" data-name="Ebene 1" xmlns="http://www.w3.org/2000/svg" viewBox="0 0 522.76 301.99"><defs><style>.cls-1{fill:#fff;}</style></defs><path class="cls-1" d="M560.76,152h-120V257.08h-28.7v-19.5H366.17v19.5H332.35a58.74,58.74,0,0,0-16.14-28.76l-5.85-5.71-2.42,7.81c-2.57,8.3-8.73,14.72-17.82,18.57h0a75.39,75.39,0,0,0,7.63-32.83,71.37,71.37,0,0,0-.47-7.88,66.07,66.07,0,0,0-3.87-15.79A137.61,137.61,0,0,0,278.3,163.7L268.9,150l.28,16.61c.18,10.75-3.67,20.89-11.43,30.16-10.58,12.63-19.72,23.54-26.66,35.17L229,235.43c-4,6.62-8.15,13.39-10.4,21.65h-32.5v-19.5H110.93v19.5H38V400.49H64.38V452H94.19v-51.5h16.74V420h75.15v-19.5H330.33V452h29.81v-51.5h6V420h45.89v-19.5h28.7v19.73h45.09V452h29.81V420.22h45.1ZM237.55,240.58c.72-1.18,1.43-2.35,2.13-3.52,6.53-10.94,15.43-21.57,25.74-33.88a59.08,59.08,0,0,0,11.85-22,127.16,127.16,0,0,1,6.8,14.85,56.23,56.23,0,0,1,3.28,13.4,60.19,60.19,0,0,1,.4,6.73,65.79,65.79,0,0,1-6.44,28.09l-13.39,25L294,258.2c9-3.81,15.83-9.65,20.12-17.12a48.48,48.48,0,1,1-87.3,29.06C226.84,258.15,231.79,250,237.55,240.58Zm-116.62,7h55.15v9.5H120.93Zm0,103.34V342.1h55.15v8.82Zm55.15,10v8.82H120.93v-8.82ZM120.93,332.1v-8.82h55.15v8.82Zm0-18.82v-8.81h55.15v8.81Zm0-18.81v-8.82h55.15v8.82Zm55.15,85.27v10.75H120.93V379.74ZM120.93,275.65v-8.57h55.15v8.57ZM84.19,442H74.38v-41.5h9.81ZM48,390.49V267.08h62.93V390.49ZM176.08,410H120.93v-9.5h55.15Zm174.06,32h-9.81v-41.5h9.81ZM333.79,267.08h32.38V390.49H186.08V267.08h30.86c-.06,1-.1,2-.1,3.06a59.6,59.6,0,0,0,.4,6.79,58.43,58.43,0,0,0,58.12,51.63c32.26,0,58.52-25.26,58.52-61.48m-116.35-5.21v0Zm-.36,2.55v0ZM402.06,410H376.17V247.58h25.89Zm10-19.5V267.08h28.7V390.49Zm93.6,51.5h-9.81V420.22h9.81Zm45.1-31.77h-100V162h100Z" transform="translate(-38 -150)"/></svg>