<svg id="Ebene_1" data-name="Ebene 1" xmlns="http://www.w3.org/2000/svg" viewBox="0 0 460 399.99"><defs><style>.cls-1{fill:#fff;}</style></defs><path class="cls-1" d="M375.79,219.2l-17.58,17.57h35.15Zm-17.58,30,17.58,17.58,17.57-17.58Zm171.62,61a22.32,22.32,0,0,0-22.22-22.27l-89.68-.12V100h-280V389.5h96.86l-40.72,28.57-102-.14h0a22.16,22.16,0,0,0-22.16,22.24l.05,37.38a22.31,22.31,0,0,0,22.22,22.27l127.77.17L377.43,389.5h40.5V369.69l89.76.12h0a22.16,22.16,0,0,0,22.16-22.23ZM282.93,110h125V287.79l-28.09,0-96.91,68Zm-135,269.5V110h125V362.74L249,379.5Zm260,0H391.69l14-9.82h2.23ZM516.3,356.26a12.06,12.06,0,0,1-8.58,3.55h0l-105.16-.14L216.77,490l-124.6-.17a12.3,12.3,0,0,1-12.24-12.28l-.05-37.39A12.15,12.15,0,0,1,92,427.93h0l105.16.14L383,297.75l124.6.17a12.3,12.3,0,0,1,12.24,12.29l0,37.38A12.18,12.18,0,0,1,516.3,356.26Z" transform="translate(-69.88 -100)"/></svg>