<svg id="Ebene_1" data-name="Ebene 1" xmlns="http://www.w3.org/2000/svg" viewBox="0 0 406.39 400"><defs><style>.cls-1{fill:#fff;}</style></defs><path class="cls-1" d="M326.58,432.31l-26.7,26.77-26.7-26.77H96.69V500H503.08V432.31ZM493.08,490H106.69V442.31H269l30.84,30.93,30.85-30.93H493.08ZM237.81,338.1h14.38v36.79a17,17,0,0,0,17,17h13.89v27.16h10.41v18.34h0l6.4,6.4,6.4-6.4h0V419.05h10.41V391.89h13.89a17,17,0,0,0,17-17V338.1H362V318.93h14.91V100h-154V318.93h14.91Zm68.87,70.95h-13.6V391.89h13.6Zm30.89-34.16a7,7,0,0,1-7,7H269.19a7,7,0,0,1-7-7V338.1h75.38ZM352,328.1H247.81V277.22H352Zm-119-19.17V110h134V308.93H362V267.22H237.81v41.71Z" transform="translate(-96.69 -100)"/></svg>