<svg id="Ebene_1" data-name="Ebene 1" xmlns="http://www.w3.org/2000/svg" viewBox="0 0 531.74 313.04"><defs><style>.cls-1{fill:#fff;}</style></defs><path class="cls-1" d="M37.79,434.14h45v-10h-45Zm0-22.89h45v-10h-45Zm0,45.79h45V447h-45ZM515.5,456h45V446h-45ZM495.48,144v56.36H484.7V209H461v16.1H404.3V145.67h-212v79.45h-55V209H113.59v-8.66H102.81V144l-69.54.71V392.52H414.34l57.84,63.91L501,427.67,462.1,392.52H565V144.71ZM404.3,235.12H461V249.2H404.3Zm0,24.08H461v16.13H484.7v10.83h10.78v43.31h23.73V341.1H405.29l-1-.88a58.8,58.8,0,0,0,0-60.27Zm-202-103.53h192V267.55a58.62,58.62,0,0,0-90.07,73.55H202.3ZM403.11,310.11a49.1,49.1,0,1,1-14.39-34.74A48.79,48.79,0,0,1,403.11,310.11Zm-265.79-75h55V249.2h-55Zm0,24.08h55v81.9H79.08V329.47h23.73V286.16h10.78V275.33h23.73Zm-94,21H71.5l7.74-8.62V204.72l-8.66-7H43.27V154.61l49.54-.51v56.26h10.78V219h23.73v46.31H103.59v10.83H92.81v43.31H69.08V341.1H43.27Zm.09-72.54H67l2.21,1.8v58.29L67,270.22H43.92Zm-.09,174.84v-31.4H79.08v0H192.3v0H312.11l.41.44a58.73,58.73,0,0,0,72.34,8.37l20.43,22.58ZM487.15,428l-14.63,14.63L393.25,355l6.3-6.31ZM555,382.52h-104L416.34,351.1H519.21v0H555Zm0-184.84h-27.3l-8.66,7V271.6l7.74,8.62H555V341.1h-25.8V319.47H505.48V276.16H494.7V265.33H471V219H494.7v-8.66h10.78V154.1l49.53.51Zm-.09,10-.55,62.54H531.25l-2.2-2.45V209.48l2.21-1.8ZM515.5,410.17h45v-10h-45Zm0,22.88h45v-10h-45Z" transform="translate(-33.27 -144)"/></svg>