<svg width="64" height="64" fill="none" xmlns="http://www.w3.org/2000/svg"><path fill-rule="evenodd" clip-rule="evenodd" d="M22.476 23.222c0 4.924 3.952 8.935 8.803 8.935 4.852 0 8.804-4.01 8.804-8.935 0-.284-.01-.556-.042-.83h2.763v-3.17h-2.266C39.545 14.432 35.666 11 31.186 11s-8.348 3.434-9.362 8.221h-2.43v3.161h3.123l-.002.03c-.02.272-.04.536-.04.81zm8.803 7.886c-4.282 0-7.769-3.539-7.769-7.886 0-.284.021-.556.042-.83h15.455c.03.274.041.547.041.83 0 4.347-3.486 7.886-7.769 7.886zM20.438 20.27v1.061h21.341v-1.06h-2.09l-.072-.431c-.641-3.748-3.207-6.647-6.413-7.518v3.045h-1.035v-3.255a7.721 7.721 0 00-.983-.063c-.341 0-.683.031-1.014.073v3.256h-1.034v-3.045c-3.197.882-5.731 3.769-6.373 7.507l-.072.43h-2.255zm10.934 25.674a2.15 2.15 0 011.563-.662c.59 0 1.148.232 1.572.652.414.42.641.986.641 1.585s-.238 1.166-.651 1.586a2.15 2.15 0 01-1.563.661c-.59 0-1.148-.231-1.562-.651a2.258 2.258 0 010-3.171zm1.573 2.772c.31 0 .61-.126.827-.346a1.201 1.201 0 000-1.68 1.166 1.166 0 00-.827-.347c-.31 0-.61.126-.828.346a1.201 1.201 0 000 1.68c.218.221.518.347.828.347z" fill="#227DC6"/><path fill-rule="evenodd" clip-rule="evenodd" d="M63.555 22.487l.186.966c.114.578.166 1.176.176 1.764 0 5.03-4.034 9.114-8.98 9.114a8.852 8.852 0 01-2.958-.504l-3.114 3.16c.363.746.58 1.617.58 2.552V53H48.41V39.539a4.86 4.86 0 00-.33-1.764L35.696 50.344a3.888 3.888 0 01-2.763 1.154 3.888 3.888 0 01-2.762-1.154 4.005 4.005 0 01-1.137-2.804 3.97 3.97 0 011.148-2.793l9.03-9.166h-21.95c-1.729 0-3.135 1.774-3.135 3.958V53h-1.035V39.539c0-2.761 1.873-5.008 4.17-5.008h22.985l6.207-6.3a9.229 9.229 0 01-.496-3.004c0-5.029 4.034-9.114 8.979-9.114.58 0 1.169.053 1.738.169l.952.189-6.031 6.121 1.251 4.746 4.676 1.27 6.031-6.121zM52.041 32.725a7.787 7.787 0 002.897.556c4.376 0 7.934-3.612 7.945-8.064 0-.178-.01-.357-.02-.535l-5.029 5.103L52 28.199l-1.562-5.922 5.027-5.103-.029-.002a9.026 9.026 0 00-.508-.019c-4.387 0-7.945 3.623-7.945 8.064 0 1.018.186 2.016.548 2.95l.124.316-16.748 16.999a2.922 2.922 0 00-.838 2.058c0 .777.3 1.512.838 2.058a2.842 2.842 0 004.055 0l16.769-17 .31.127zM7.82 34h.022c.291 0 .561-.117.767-.32l9.075-8.963a1.045 1.045 0 000-1.497l-1.934-1.912a1.146 1.146 0 00-.767-.308c-.292 0-.562.106-.767.308l-6.396 6.32-3.036-3.006a1.147 1.147 0 00-.767-.308 1.08 1.08 0 00-.767.308l-1.934 1.911a1.045 1.045 0 000 1.498l5.715 5.66c.206.202.497.319.789.308zm.022-1.073H7.81l-5.716-5.65 1.934-1.912 3.425 3.377a.51.51 0 00.378.16c.14 0 .28-.064.378-.16l6.774-6.69 1.934 1.911-9.075 8.964z" fill="#227DC6"/></svg>