<svg xmlns="http://www.w3.org/2000/svg" viewBox="0 0 113.46 85.56"><g id="Ebene_2" data-name="Ebene 2"><g id="Ebene_1-2" data-name="Ebene 1"><path d="M58.42,56.32l-1.64-1.64a21,21,0,0,0,0-26.86l1.64-1.64a23.32,23.32,0,0,1,0,30.15Zm-17.84,8.3A23.31,23.31,0,0,1,25.5,59.09l1.65-1.64a21,21,0,0,0,26.86,0l1.64,1.64a23.3,23.3,0,0,1-15.07,5.53Zm-17.85-8.3a23.32,23.32,0,0,1,0-30.15l1.64,1.65a21,21,0,0,0,0,26.86ZM49.14,47a10.32,10.32,0,0,0,0-11.58L54,30.6a17.1,17.1,0,0,1,0,21.3ZM34.79,49.81a10.32,10.32,0,0,0,11.58,0l4.86,4.86a17.1,17.1,0,0,1-21.3,0ZM32,35.46A10.28,10.28,0,0,0,32,47L27.16,51.9a17.1,17.1,0,0,1,0-21.3Zm15,5.81a6.43,6.43,0,1,1-6.43-6.42h0A6.43,6.43,0,0,1,47,41.27m-.64-8.58a10.32,10.32,0,0,0-11.58,0l-4.86-4.86a17.1,17.1,0,0,1,21.3,0ZM40.58,17.88a23.31,23.31,0,0,1,15.08,5.53L54,25.05a21,21,0,0,0-26.86,0l-1.64-1.64a23.3,23.3,0,0,1,15.07-5.53m0-3.92A27.29,27.29,0,1,0,67.87,41.27,27.28,27.28,0,0,0,40.58,14" style="fill:#fff"/><path d="M81.5,85.56l-9.23-12.7,1.83-1.32-2.49-3a41.07,41.07,0,1,1-2.13-57.08l.11-.36,1.89,2.41a42,42,0,0,1,3.78,4.85L102,51.26l2.21-1.61,9.22,12.7Zm-5-12,5.7,7.84,27.11-19.69-5.69-7.84-2.09,1.51L72.8,20.05a39.31,39.31,0,0,0-3.51-4.53l-.21-.22a38.06,38.06,0,1,0,1.4,49.92l1.15-1.41,6.81,8.28Z" style="fill:#fff"/><rect x="72.16" y="61.8" width="31.66" height="3" transform="translate(-20.39 61.67) rotate(-34.87)" style="fill:#fff"/></g></g></svg>