<svg width="64" height="64" fill="none" xmlns="http://www.w3.org/2000/svg"><path d="M43.876 25H45c0-8.276-6.735-15-15-15v1.124c7.646 0 13.876 6.23 13.876 13.876zM17.124 39H16c0 8.276 6.724 15 15 15v-1.124c-7.646 0-13.876-6.23-13.876-13.876z" fill="#227DC6"/><path fill-rule="evenodd" clip-rule="evenodd" d="M5 24a3.5 3.5 0 113.5 3.5C6.576 27.5 5 25.93 5 24zm1.087 0c0 1.347 1.076 2.44 2.413 2.44 1.337 0 2.413-1.093 2.413-2.44S9.837 21.56 8.5 21.56c-1.326 0-2.413 1.093-2.413 2.44z" fill="#227DC6"/><path fill-rule="evenodd" clip-rule="evenodd" d="M25.022 34h-4.456v-1.761H6.767v1.75H2.322l-.011-1.526H0V13.537h3.576V12h16.836v1.324h6.921v5.71h1.046v1.1h2.31v1.537H33v3.32h-2.31v1.762h-2.312v1.1h-1.045v4.397h-2.31V34zM31.9 22.793h-1.21v1.076h1.21v-1.076zm-3.51-1.537h1.21v4.375h-1.21v-4.375zM5.667 32.877v-1.75h15.988v1.75h2.256v-1.75h2.31V26.73h1.046v-6.574h-1.045v-5.71H19.3v-1.324H4.666v1.537H1.1v16.693h2.3l.011 1.526h2.256z" fill="#227DC6"/><path fill-rule="evenodd" clip-rule="evenodd" d="M24 20.487v6.895l-1.287 1.363-10.675.033L10.56 30H4.887L2 27.284v-6.742L4.529 18h6.378l1.175 1.287h10.575l1.343 1.2zm-13.842 8.411l1.477-1.222 10.597-.021.66-.699v-5.989l-.66-.589H11.59l-1.175-1.287H5.01l-1.88 1.887v5.836l2.216 2.084h4.812zM37 40a3.5 3.5 0 013.5-3.5c1.924 0 3.5 1.57 3.5 3.5a3.5 3.5 0 01-3.5 3.5c-1.924 0-3.5-1.57-3.5-3.5zm1.087 0c0 1.347 1.076 2.44 2.413 2.44 1.326 0 2.413-1.093 2.413-2.44s-1.076-2.44-2.413-2.44c-1.326 0-2.413 1.093-2.413 2.44z" fill="#227DC6"/><path fill-rule="evenodd" clip-rule="evenodd" d="M42.912 34l1.175 1.288h10.57L56 36.49v6.89l-1.276 1.364-10.681.033L42.565 46h-5.676L34 43.281v-6.748L36.53 34h6.382zm11.319 9.663l.66-.698V36.97l-.66-.59H43.584l-1.176-1.288h-5.407L35.12 36.98v5.842l2.216 2.096h4.815l1.477-1.223 10.603-.033z" fill="#227DC6"/><path fill-rule="evenodd" clip-rule="evenodd" d="M61.678 38.138v1.538H64v3.322h-2.31v1.751h-2.311v1.1h-1.046v4.4h-2.31V52h-4.457v-1.751H37.767V52h-4.445l-.011-1.526H31V31.538h3.565V30h16.836v1.325h6.921v5.713h1.045v1.1h2.311zm-4.456 6.589h1.034V38.16h-1.045v-5.713h-6.922v-1.325H35.655v1.538h-3.566v16.691h2.3l.011 1.527h2.256v-1.752h16v1.752h2.255v-1.752h2.31v-4.4zm3.356-1.1h-1.21v-4.378h1.21v4.377zm1.1-1.752h1.21v-1.077h-1.21v1.078z" fill="#227DC6"/></svg>