<svg xmlns="http://www.w3.org/2000/svg" viewBox="0 0 126.75 77.76"><g id="Ebene_2" data-name="Ebene 2"><g id="Ebene_1-2" data-name="Ebene 1"><path d="M91.35,28.86A29.25,29.25,0,0,0,86.64,21l-.72-.85-.68.88a38.16,38.16,0,0,0-4.69,7.62,14.7,14.7,0,0,0-1.35,5.8v.78a6.65,6.65,0,0,0,6.74,6.19h0a6.9,6.9,0,0,0,4.65-1.79,6.14,6.14,0,0,0,2-4.34v-.77A13.93,13.93,0,0,0,91.35,28.86ZM86,39.64h0a4.84,4.84,0,0,1-5-4.43v-.75a12.75,12.75,0,0,1,1.2-5.07A35.13,35.13,0,0,1,86,23.05a27.19,27.19,0,0,1,3.73,6.51,12.45,12.45,0,0,1,1.2,5v.73a4.42,4.42,0,0,1-1.46,3.06A5.16,5.16,0,0,1,86,39.64ZM112.46,44a5.49,5.49,0,1,1,3.23-7.07h0a5.47,5.47,0,0,1-3.17,7l0,0Zm1-11.56a7.06,7.06,0,1,0,3.68,4,7,7,0,0,0-3.67-4ZM125,41a4.65,4.65,0,0,0-3.34,7.35,14.41,14.41,0,0,1-2.46,2.29,4.67,4.67,0,0,0-7.57,2.83,14.53,14.53,0,0,1-3.36-.12,4.68,4.68,0,0,0-2.7-3.8,4.63,4.63,0,0,0-4.64.46,14.41,14.41,0,0,1-2.29-2.46A4.65,4.65,0,0,0,98.05,41a4.58,4.58,0,0,0-2.22-1,15.1,15.1,0,0,1,.11-3.36,4.64,4.64,0,0,0,3.34-7.35A14.41,14.41,0,0,1,101.74,27a4.65,4.65,0,0,0,6.55-.6,4.56,4.56,0,0,0,1-2.23,14.53,14.53,0,0,1,3.36.12,4.69,4.69,0,0,0,2.71,3.8,4.71,4.71,0,0,0,4.65-.46,14.85,14.85,0,0,1,2.29,2.46,4.65,4.65,0,0,0,.6,6.55,4.76,4.76,0,0,0,2.22,1A13.5,13.5,0,0,1,125,41m1.61-4.17-.08-.68h-.69a3.1,3.1,0,0,1-2-5.41l.52-.45-.39-.57A16.18,16.18,0,0,0,120.5,26l-.54-.42-.49.48a3.16,3.16,0,0,1-1.08.69A3.09,3.09,0,0,1,116,26.7a3.13,3.13,0,0,1-1.8-3l0-.68-.67-.13a16.17,16.17,0,0,0-5.1-.18l-.67.08v.69a3.09,3.09,0,0,1-5.41,2L102,25l-.56.38a16,16,0,0,0-3.73,3.48l-.42.54.48.48a3.09,3.09,0,0,1-2.4,5.25l-.68,0-.13.67a16.17,16.17,0,0,0-.18,5.1l.09.68h.68a3.08,3.08,0,0,1,2,5.4l-.51.45.38.57a16.24,16.24,0,0,0,3.48,3.73l.54.42.49-.48a3.07,3.07,0,0,1,3.44-.61,3.12,3.12,0,0,1,1.81,3l0,.68.67.13a16.09,16.09,0,0,0,5.09.18l.68-.08v-.69a3.09,3.09,0,0,1,5.4-2l.45.51.57-.38a16,16,0,0,0,3.73-3.47l.42-.54-.48-.49a3.09,3.09,0,0,1,2.39-5.25l.68,0,.13-.67a15.75,15.75,0,0,0,.19-5.08M98.08,61.78a4.7,4.7,0,0,0,2.34,4,14.8,14.8,0,0,1-1.29,3.11,4.65,4.65,0,0,0-5.7,5.71,15.12,15.12,0,0,1-3.11,1.29A4.64,4.64,0,0,0,84,74.2a4.56,4.56,0,0,0-1.73,1.73,15.12,15.12,0,0,1-3.11-1.29,4.65,4.65,0,0,0-5.71-5.71,14.8,14.8,0,0,1-1.29-3.11,4.65,4.65,0,0,0,0-8.08,14.8,14.8,0,0,1,1.29-3.11,4.64,4.64,0,0,0,5.71-5.71,14.58,14.58,0,0,1,3.11-1.29,4.65,4.65,0,0,0,8.08,0,14.8,14.8,0,0,1,3.11,1.29,4.64,4.64,0,0,0,5.71,5.71,14.8,14.8,0,0,1,1.29,3.11,4.66,4.66,0,0,0-2.35,4Zm3.54-2.89.64-.24-.15-.67a16.21,16.21,0,0,0-2-4.71l-.35-.58-.63.28a3.1,3.1,0,0,1-4.08-1.57,3.05,3.05,0,0,1,0-2.51l.28-.63-.58-.35a16.21,16.21,0,0,0-4.71-2l-.67-.15-.24.63a3.09,3.09,0,0,1-5.78,0l-.25-.63-.66.15a16.21,16.21,0,0,0-4.71,2l-.58.35.27.63A3.09,3.09,0,0,1,73.38,53l-.62-.28-.36.58a16.47,16.47,0,0,0-2,4.71l-.16.67.64.24a3.09,3.09,0,0,1,1.79,4,3,3,0,0,1-1.79,1.79l-.64.25.16.66a16.47,16.47,0,0,0,2,4.71l.36.58.63-.27a3.06,3.06,0,0,1,3.43.64,3.11,3.11,0,0,1,.64,3.43l-.28.62.59.36a15.87,15.87,0,0,0,4.72,1.95l.67.16.24-.64a3.09,3.09,0,0,1,5.77,0l.24.64.67-.16a15.92,15.92,0,0,0,4.71-1.95l.58-.36-.28-.62a3.13,3.13,0,0,1,.64-3.43,3.08,3.08,0,0,1,3.44-.64l.62.27.36-.58a16,16,0,0,0,2-4.71l.16-.66-.65-.26a3.09,3.09,0,0,1,0-5.77ZM86.36,67.26a5.5,5.5,0,1,1,5.49-5.49,5.49,5.49,0,0,1-5.49,5.49m0-12.55a7.06,7.06,0,1,0,7,7.06,7.06,7.06,0,0,0-7-7.06m-33-14.07H10.06V28.05H0V9.22H28.5V7.35H22.68V0h19V7.35H35.84V9.22H50.67l3.62,3.63L80.85,6.19,88,13.34l-5.2,5.2L78.6,14.33l-5,1.26Zm-41.33-2H52.43l20-24.83,6.76-1.7,3.6,3.6,2.37-2.37L80.24,8.41,53.68,15.06l-3.84-3.84h-16V5.35h5.82V2h-15V5.35H30.5v5.87H2V26.05H12.06Zm0-15.94H5.35V14.57h6.71Zm-4.71-2h2.71V16.57H7.35Z" style="fill:#fff"/></g></g></svg>