<svg width="64" height="64" fill="none" xmlns="http://www.w3.org/2000/svg"><path fill-rule="evenodd" clip-rule="evenodd" d="M19.362 35.638a4.86 4.86 0 014.85-4.85 4.859 4.859 0 014.852 4.85 4.859 4.859 0 01-4.851 4.851 4.853 4.853 0 01-4.851-4.85zm.926.01a3.931 3.931 0 003.925 3.927 3.931 3.931 0 003.925-3.928 3.931 3.931 0 00-3.925-3.926 3.931 3.931 0 00-3.925 3.927z" fill="#227DC6"/><path fill-rule="evenodd" clip-rule="evenodd" d="M28.672 26.745l1.713 1.89v.01h17.13l1.762 1.57v9.869L47.59 41.88l-17.234.047-2.166 1.796h-8.033l-4.03-3.8v-9.652l3.503-3.526h9.04zm18.514 14.199l1.149-1.229h.01V30.64l-1.178-1.05H29.971l-1.714-1.89h-8.24l-2.957 2.977v8.849l3.456 3.261h7.336l2.166-1.796 17.168-.047z" fill="#227DC6"/><path fill-rule="evenodd" clip-rule="evenodd" d="M57.145 33.947v-2.213h-3.46v-1.577H52.11v-8.208H41.72v-1.9H23.946c.19-.541.294-1.13.294-1.738 0-.343-.038-.694-.095-1.026l-.17-.875-3.603 3.61-2.465-.665-.663-2.47 3.602-3.61-.872-.17A5.272 5.272 0 0018.95 13c-2.92 0-5.3 2.384-5.3 5.31 0 .561.086 1.112.257 1.644l-9.205 9.224A2.364 2.364 0 004 30.88c0 .646.246 1.244.702 1.7a2.395 2.395 0 003.394 0l3.697-3.704v19.93h3.46L15.28 51h5.973v-2.508h21.405V51h5.982v-2.508h3.46v-6.327h1.574v-1.577h3.46v-2.527h3.46v-4.114h-3.45zM7.432 31.914c-.569.57-1.489.57-2.057 0a1.46 1.46 0 01-.427-1.035c0-.39.152-.76.427-1.036l9.631-9.651-.114-.285a4.363 4.363 0 013.925-5.957l-2.645 2.65.948 3.534 3.527.95 2.635-2.64a4.362 4.362 0 01-4.351 4.236c-.55 0-1.08-.104-1.593-.303l-.284-.114-9.622 9.651zm43.731 9.301h1.564V31.116h-1.573V22.9h-10.39V21H23.5a5.283 5.283 0 01-4.56 2.622 5.333 5.333 0 01-1.64-.256l-4.55 4.56v19.93h3.45l.02 2.195h4.086v-2.508h23.311v2.508h4.086v-2.517h3.46v-6.318zm5.034-1.577h-2.512v-6.944h2.512v6.944zm.948-2.527h2.512v-2.213h-2.512v2.213z" fill="#227DC6"/><path fill-rule="evenodd" clip-rule="evenodd" d="M9.07 46.828h.638a.757.757 0 01.555 1.275l-2.494 2.66a.718.718 0 01-.537.237c-.2 0-.4-.082-.537-.228l-2.494-2.668a.778.778 0 01-.146-.811.73.73 0 01.683-.465h.637v-5.583c0-.2.073-.382.21-.528a.723.723 0 01.527-.228h2.221c.2 0 .392.082.528.228a.76.76 0 01.21.528v5.584zm-3.977.902l2.12 2.268 2.113-2.268H8.15v-6.339H6.267v6.34H5.093z" fill="#227DC6"/></svg>