<svg xmlns="http://www.w3.org/2000/svg" width="20" height="24" viewBox="0 0 19.8 24"><style type="text/css">  
	.st0{fill:#FFFFFF;}
</style><path class="st0" d="M13.3 9.1c0.4 0 0.9-0.3 1.4-0.8V9h1.2V2.3h-1.2v5.1C14.4 7.8 14.2 8 13.9 8c-0.2 0-0.3-0.1-0.3-0.3 0 0 0-0.2 0-0.5V2.3h-1.2v5.3c0 0.5 0 0.8 0.1 1C12.7 8.9 12.9 9.1 13.3 9.1z"/><path class="st0" d="M9.6 9.1c0.6 0 1.1-0.2 1.4-0.7 0.2-0.3 0.4-0.9 0.4-1.6V4.5c0-0.7-0.1-1.2-0.4-1.6 -0.3-0.5-0.8-0.7-1.4-0.7C9 2.2 8.6 2.4 8.2 2.9 8 3.2 7.9 3.7 7.9 4.5v2.3C7.9 7.5 8 8 8.2 8.4 8.6 8.8 9 9.1 9.6 9.1zM9.1 4.2c0-0.6 0.2-0.9 0.6-0.9 0.4 0 0.6 0.3 0.6 0.9V7C10.2 7.7 10 8 9.6 8 9.3 8 9.1 7.7 9.1 7V4.2z"/><path class="st0" d="M16.6 15.8c-0.4 0-0.6 0.3-0.6 0.9v0.6h1.2v-0.6C17.2 16.1 17 15.8 16.6 15.8z"/><path class="st0" d="M12.1 15.8c-0.2 0-0.4 0.1-0.6 0.3v4c0.2 0.2 0.4 0.3 0.6 0.3 0.3 0 0.5-0.3 0.5-0.9v-2.8C12.6 16.1 12.5 15.8 12.1 15.8z"/><path class="st0" d="M19.5 12.4c-0.1-0.5-0.4-1-0.8-1.3 -0.4-0.4-0.9-0.6-1.4-0.6 -1.6-0.2-4.1-0.3-7.4-0.3 -3.3 0-5.8 0.1-7.4 0.3 -0.5 0.1-1 0.3-1.4 0.6 -0.4 0.4-0.7 0.8-0.8 1.3C0.1 13.4 0 15 0 17.1c0 2.1 0.1 3.7 0.3 4.7 0.1 0.5 0.4 1 0.8 1.3 0.4 0.4 0.9 0.6 1.4 0.6C4.1 23.9 6.6 24 9.9 24c3.3 0 5.8-0.1 7.4-0.3 0.5-0.1 1-0.3 1.4-0.6 0.4-0.4 0.7-0.8 0.8-1.3 0.2-1 0.3-2.6 0.3-4.7C19.8 15 19.7 13.4 19.5 12.4zM5.7 13.8H4.2v7.6H2.9v-7.6H1.5v-1.3h4.2V13.8zM9.3 21.4H8.1v-0.7c-0.5 0.5-0.9 0.8-1.4 0.8 -0.4 0-0.7-0.2-0.8-0.5 -0.1-0.2-0.1-0.5-0.1-1v-5.2H7v4.9c0 0.3 0 0.4 0 0.5 0 0.2 0.1 0.3 0.3 0.3 0.2 0 0.5-0.2 0.8-0.6v-5.1h1.2V21.4zM13.8 19.4c0 0.7 0 1.1-0.1 1.3 -0.2 0.5-0.5 0.7-1 0.7 -0.4 0-0.8-0.2-1.2-0.7v0.6h-1.2v-8.9h1.2v2.9c0.4-0.5 0.8-0.7 1.2-0.7 0.5 0 0.8 0.3 1 0.8 0.1 0.2 0.1 0.7 0.1 1.3V19.4zM18.4 18.3H16v1.2c0 0.6 0.2 0.9 0.6 0.9 0.3 0 0.5-0.2 0.5-0.5 0-0.1 0-0.4 0-0.8h1.2v0.2c0 0.4 0 0.7 0 0.8 0 0.2-0.1 0.5-0.3 0.7 -0.3 0.5-0.8 0.7-1.4 0.7 -0.6 0-1.1-0.2-1.4-0.7 -0.3-0.3-0.4-0.8-0.4-1.6v-2.3c0-0.7 0.1-1.2 0.4-1.6 0.3-0.5 0.8-0.7 1.4-0.7 0.6 0 1.1 0.2 1.4 0.7 0.2 0.3 0.4 0.8 0.4 1.6V18.3z"/><path class="st0" d="M4.9 5.3V9h1.3V5.3L7.8 0H6.5L5.6 3.5 4.6 0H3.2c0.2 0.8 0.5 1.6 0.9 2.5C4.5 3.7 4.8 4.7 4.9 5.3z"/></svg>
 


