<svg xmlns="http://www.w3.org/2000/svg" width="21" height="21" viewBox="0 0 20.6 20.6"><style type="text/css"> .st0{fill:#FFFFFF;} </style><path class="st0" d="M20.6 3.9v12.9c0 1.1-0.4 2-1.1 2.7 -0.8 0.8-1.7 1.1-2.7 1.1H3.9c-1.1 0-2-0.4-2.7-1.1C0.4 18.7 0 17.8 0 16.7V3.9c0-1.1 0.4-2 1.1-2.7C1.9 0.4 2.8 0 3.9 0h12.9c1.1 0 2 0.4 2.7 1.1C20.2 1.9 20.6 2.8 20.6 3.9zM6.5 5.1c0-0.5-0.2-0.8-0.5-1.2C5.7 3.6 5.3 3.5 4.7 3.5c-0.5 0-0.9 0.2-1.3 0.5C3.1 4.2 3 4.6 3 5.1c0 0.5 0.2 0.8 0.5 1.1 0.3 0.3 0.7 0.5 1.2 0.5h0c0.5 0 1-0.2 1.3-0.5C6.3 5.9 6.5 5.5 6.5 5.1zM3.2 17.2h3.1V7.9H3.2V17.2zM14.3 17.2h3.1v-5.3c0-1.4-0.3-2.4-1-3.1 -0.7-0.7-1.5-1.1-2.6-1.1 -1.2 0-2.1 0.5-2.8 1.6h0V7.9H8c0 0.6 0 3.7 0 9.3h3.1V12c0-0.3 0-0.6 0.1-0.8 0.1-0.3 0.3-0.6 0.6-0.8 0.3-0.2 0.6-0.3 1-0.3 1 0 1.6 0.7 1.6 2.1V17.2z"/></svg>
