<svg width="64" height="64" fill="none" xmlns="http://www.w3.org/2000/svg"><path fill-rule="evenodd" clip-rule="evenodd" d="M7 51h50V13H7v38zm1.097-1.104V37.94l5.058-9.296 8.493 16.692 11.696-24.023 7.307 16.98 8.273-8.27 6.968 5.179v14.694H8.097zm47.806-16.063V14.104H8.108v21.528L13.2 26.27l8.438 16.594 11.773-24.2 7.615 17.708 7.8-7.794 7.078 5.255z" fill="#227DC6"/><path fill-rule="evenodd" clip-rule="evenodd" d="M3.985 10h56.03A2.99 2.99 0 0163 13.003v37.994A2.99 2.99 0 0160.015 54H3.985A2.99 2.99 0 011 50.997V13.003A2.99 2.99 0 013.985 10zm56.03 42.9c1.05 0 1.892-.858 1.892-1.903V13.003a1.898 1.898 0 00-1.892-1.903H3.985a1.905 1.905 0 00-1.892 1.903v37.994c0 1.056.853 1.903 1.892 1.903h56.03z" fill="#227DC6"/><path fill-rule="evenodd" clip-rule="evenodd" d="M58 32.5c0-.827.673-1.5 1.5-1.5s1.5.673 1.5 1.5-.673 1.5-1.5 1.5-1.5-.673-1.5-1.5zm.962 0a.538.538 0 101.076 0 .538.538 0 10-1.076 0z" fill="#227DC6"/></svg>