<svg xmlns="http://www.w3.org/2000/svg" viewBox="0 0 50 50"><defs><style>.cls-1{fill:#04247b;}.cls-2{fill:#fff;}.cls-3{fill:#ce152a;}.cls-4{fill:none;}</style></defs><g id="Ebene_2" data-name="Ebene 2"><g id="Ebene_12" data-name="Ebene 12"><path class="cls-1" d="M18.32,5.93V17l-9-4.53A20,20,0,0,1,18.32,5.93Z"/><path class="cls-1" d="M40.64,12.43l-9,4.53v-11A19.89,19.89,0,0,1,40.64,12.43Z"/><path class="cls-1" d="M18.32,32.53v11a20,20,0,0,1-9-6.5Z"/><path class="cls-1" d="M40.64,37.05a19.89,19.89,0,0,1-9,6.5v-11Z"/><path class="cls-2" d="M44.9,24.74a20.15,20.15,0,0,1-.39,4,21.16,21.16,0,0,1-.74,2.65H38.19l4.6,2.31a20,20,0,0,1-2.15,3.36l-9-4.52v11a19.44,19.44,0,0,1-2.64.74,20.1,20.1,0,0,1-8,0,19.58,19.58,0,0,1-2.65-.74v-11l-9,4.52c-.28-.35-.54-.72-.8-1.1l9.15-4.57h-6L7.11,33.65a19.85,19.85,0,0,1-1-15.55H11.7L7.12,15.82a20.47,20.47,0,0,1,2.15-3.39L18.32,17v-11A19.8,19.8,0,0,1,29,5.2a19.41,19.41,0,0,1,2.64.73V17l9.05-4.53c.28.35.55.71.8,1.08L32.26,18.1h6l4.57-2.28a19.88,19.88,0,0,1,1.72,4.93A20.15,20.15,0,0,1,44.9,24.74Z"/><path class="cls-3" d="M11.7,18.1H6.15a19.27,19.27,0,0,1,1-2.28Z"/><path class="cls-3" d="M43.77,31.38a21.33,21.33,0,0,1-1,2.31l-4.6-2.31Z"/><path class="cls-3" d="M42.79,15.82,38.22,18.1h-6l9.18-4.59A18.86,18.86,0,0,1,42.79,15.82Z"/><path class="cls-3" d="M17.62,31.38,8.47,36a19.33,19.33,0,0,1-1.36-2.3l4.55-2.27Z"/><path class="cls-3" d="M44.9,24.74a20.15,20.15,0,0,1-.39,4H29V44.29a20.1,20.1,0,0,1-8,0V28.73H5.41a20.1,20.1,0,0,1,0-8H21V5.2a19.62,19.62,0,0,1,8,0V20.75H44.51A20.15,20.15,0,0,1,44.9,24.74Z"/><path class="cls-2" d="M25,46A21,21,0,1,1,46,25,21,21,0,0,1,25,46ZM25,6A19,19,0,1,0,44,25,19,19,0,0,0,25,6Z"/><rect class="cls-4" width="50" height="50"/></g></g></svg>