<svg width="64" height="64" fill="none" xmlns="http://www.w3.org/2000/svg"><path fill-rule="evenodd" clip-rule="evenodd" d="M29.24 25l1.81 2.005v.01h18.09L51 28.678v10.463l-1.78 1.905-18.19.05L28.743 43h-8.488L16 38.971V28.738L19.698 25h9.543zm19.543 15.053l1.213-1.302h.01v-9.622l-1.243-1.112h-18.15l-1.81-2.005h-8.698l-3.12 3.157v9.381l3.647 3.458h7.744l2.286-1.904 18.121-.05z" fill="#227DC6"/><path fill-rule="evenodd" clip-rule="evenodd" d="M59.338 31.912v-2.348h-3.662v-1.673h-1.665v-8.706H43.015V17.17h-21.33l.703-.706a1.025 1.025 0 000-1.42l-2.699-2.742a1.018 1.018 0 00-.712-.302.983.983 0 00-.713.302l-9.25 9.402L4.41 17.05a1.018 1.018 0 00-.712-.303.982.982 0 00-.712.303l-2.7 2.74a1.026 1.026 0 000 1.421l7.967 8.092c.19.202.471.312.742.302h.03c.271 0 .532-.11.713-.302l1.615-1.642v20.012h3.662l.02 2.328h6.32v-2.66h22.654V50h6.33v-2.66h3.663v-6.712h1.675v-1.672h3.662v-2.68H63v-4.364h-3.662zM9.024 28.597h-.07L.998 20.495l2.699-2.741 4.936 5.018c.09.101.22.151.361.151.14 0 .261-.05.361-.15l9.622-9.765 2.689 2.74v.01L9.024 28.598zM53.007 39.62h1.666V28.909h-1.675v-8.716H42.002v-2.016h-21.32l-8.327 8.465v20.022h3.652l.02 2.328h4.324v-2.66h24.67v2.66h4.325v-2.67h3.662V39.62zm5.328-1.673h-2.659v-7.366h2.659v7.366zm1.003-2.68h2.659V32.92h-2.659v2.348z" fill="#227DC6"/><path fill-rule="evenodd" clip-rule="evenodd" d="M19 33.5a5.51 5.51 0 015.5-5.5 5.51 5.51 0 015.5 5.5 5.51 5.51 0 01-5.5 5.5 5.502 5.502 0 01-5.5-5.5zm1.05.01a4.457 4.457 0 004.45 4.453 4.457 4.457 0 004.45-4.453 4.457 4.457 0 00-4.45-4.452 4.457 4.457 0 00-4.45 4.453z" fill="#227DC6"/></svg>