<svg width="64" height="64" fill="none" xmlns="http://www.w3.org/2000/svg"><path fill-rule="evenodd" clip-rule="evenodd" d="M31.866 27.113l1.744 1.916v.01h17.437l1.791 1.59V40.63l-1.715 1.82-17.533.048-2.203 1.82h-8.182l-4.1-3.85v-9.783l3.563-3.573h9.198zm18.836 14.39l1.169-1.245h.01V31.06l-1.198-1.064H33.188l-1.744-1.916h-8.383l-3.008 3.018v8.968l3.516 3.305h7.463l2.204-1.82 17.466-.048z" fill="#227DC6"/><path fill-rule="evenodd" clip-rule="evenodd" d="M22.295 35.62c0-2.768 2.251-5.03 5.02-5.03 2.769 0 5.02 2.262 5.02 5.03 0 2.77-2.251 5.03-5.02 5.03a5.027 5.027 0 01-5.02-5.03zm.958.01a4.073 4.073 0 004.062 4.072 4.073 4.073 0 000-8.144 4.073 4.073 0 00-4.062 4.072z" fill="#227DC6"/><path fill-rule="evenodd" clip-rule="evenodd" d="M60.465 31.893v2.233h3.497v4.148h-3.497v2.549h-3.497v1.59h-1.59v6.381H51.87v2.53h-6.046v-2.53H24.192v2.53h-6.036l-.02-2.214H14.64V26.308a5.662 5.662 0 01-.815-.45L3.335 37.46 0 34.126l11.64-10.549a6.95 6.95 0 01-.986-3.583c0-1.868.728-3.622 2.05-4.944 2.721-2.73 7.157-2.73 9.888 0a6.943 6.943 0 012.05 4.944v.115h20.235v1.916h10.5v8.278h1.59v1.59h3.498zM17.657 13.958a6.011 6.011 0 00-4.273 1.763 6.007 6.007 0 00-1.762 4.273 5.99 5.99 0 001.762 4.273 6.037 6.037 0 008.537 0 6.048 6.048 0 001.763-4.273 5.99 5.99 0 00-1.763-4.273 5.973 5.973 0 00-4.264-1.763zM3.296 36.071l-1.907-1.916 10.73-9.716.892.892-9.715 10.74zm51.123 5.384h1.59V31.271h-1.59v-8.288H43.91v-1.916H24.556a6.93 6.93 0 01-1.964 3.87 6.94 6.94 0 01-4.944 2.051c-.69 0-1.38-.105-2.05-.307v21.471h3.487l.02 2.213h4.128v-2.53h23.56v2.53h4.13v-2.539h3.496v-6.37zm5.088-1.59h-2.54V32.86h2.54v7.004zm.958-2.549h2.539v-2.232h-2.54v2.232z" fill="#227DC6"/></svg>