<svg xmlns="http://www.w3.org/2000/svg" viewBox="0 0 91.09 94.24"><defs><style>.cls-1{fill:#fff;}</style></defs><g id="Ebene_2" data-name="Ebene 2"><g id="Ebene_1-2" data-name="Ebene 1"><path class="cls-1" d="M53.4,56.54V94.23H91.09V56.54ZM88,91.09H56.54V59.68H70.68V79.45l-6.75-6.74-2.22,2.22L72.25,85.46,82.78,74.93l-2.22-2.22-6.74,6.74V59.68H88Z"/><path class="cls-1" d="M56.54,31.94h-11v3.14h11a1.57,1.57,0,1,0,0-3.14Z"/><path class="cls-1" d="M15.71,33.51a1.57,1.57,0,0,0,1.57,1.57H45.55V31.94H17.28A1.57,1.57,0,0,0,15.71,33.51Z"/><path class="cls-1" d="M45.56,75.39V90.07H4.43V4.81H45.56V28.18h25V48.6l-25,0V75.39Zm3.13-15.71V51.83H73.82V22.91L50.91,0H0V94.24H48.69V59.68Zm0-34.55v-22l22,22Z"/><path class="cls-1" d="M17.2,25.13H32.91a1.57,1.57,0,0,0,0-3.14H17.2a1.57,1.57,0,1,0,0,3.14Z"/><path class="cls-1" d="M17.2,57.11H32.91a1.57,1.57,0,0,0,0-3.14H17.2a1.57,1.57,0,1,0,0,3.14Z"/><path class="cls-1" d="M17.2,67.75H32.91a1.57,1.57,0,0,0,0-3.14H17.2a1.57,1.57,0,0,0,0,3.14Z"/><path class="cls-1" d="M17.2,77.53H32.91a1.57,1.57,0,1,0,0-3.14H17.2a1.57,1.57,0,1,0,0,3.14Z"/><path class="cls-1" d="M56.54,42.26h-11V45.4h11a1.57,1.57,0,1,0,0-3.14Z"/><path class="cls-1" d="M15.71,43.83a1.57,1.57,0,0,0,1.57,1.57H45.55V42.26H17.28A1.57,1.57,0,0,0,15.71,43.83Z"/></g></g></svg>