<svg xmlns="http://www.w3.org/2000/svg" viewBox="0 0 98.09 98.16"><defs><style>.cls-1{fill:#fff;}</style></defs><g id="Ebene_2" data-name="Ebene 2"><g id="Ebene_1-2" data-name="Ebene 1"><path class="cls-1" d="M91.52,84.66a4.91,4.91,0,0,0-6.94,6.94h0a4.91,4.91,0,0,0,6.94-6.94Zm-1.69,5.25a2.51,2.51,0,1,1,0-3.55A2.51,2.51,0,0,1,89.83,89.91Zm-40.16-23,3.78,3.78a21.64,21.64,0,0,1-3.13,1.13L49,77.92a2.37,2.37,0,0,1-2.32,1.88H33.14a2.39,2.39,0,0,1-2.33-1.88l-1.33-6.13a34.12,34.12,0,0,1-4.76-2l-5.28,3.4a2.41,2.41,0,0,1-3-.32L6.91,63.33a2.38,2.38,0,0,1-.32-3L10,55.08a34.58,34.58,0,0,1-2-4.76L1.88,49A2.37,2.37,0,0,1,0,46.65V33.14a2.39,2.39,0,0,1,1.88-2.33L8,29.48a34.07,34.07,0,0,1,2-4.76L6.59,19.44a2.39,2.39,0,0,1,.32-3l9.55-9.55a2.39,2.39,0,0,1,3-.32L24.72,10a32.91,32.91,0,0,1,4.76-2l1.33-6.13A2.39,2.39,0,0,1,33.14,0H46.66A2.37,2.37,0,0,1,49,1.88L50.32,8a33.38,33.38,0,0,1,4.76,2l5.28-3.39a2.38,2.38,0,0,1,3,.32l9.56,9.55a2.39,2.39,0,0,1,.32,3l-3.4,5.28a34.12,34.12,0,0,1,2,4.76l6.13,1.33a2.39,2.39,0,0,1,1.88,2.33V46.65A2.37,2.37,0,0,1,77.92,49l-6.13,1.34c-.34,1-.72,2-1.16,3L67,49.82a17.93,17.93,0,0,0,.58-2.18A2.34,2.34,0,0,1,69.41,46L75,44.73V35.06l-5.62-1.22a2.37,2.37,0,0,1-1.79-1.69A28.59,28.59,0,0,0,65,25.78,2.41,2.41,0,0,1,65,23.32l3.12-4.84-6.84-6.84-4.84,3.11a2.37,2.37,0,0,1-2.46.07,29,29,0,0,0-6.37-2.64A2.34,2.34,0,0,1,46,10.39L44.73,4.77H35.06l-1.22,5.62a2.37,2.37,0,0,1-1.69,1.79,29,29,0,0,0-6.37,2.64,2.37,2.37,0,0,1-2.46-.07l-4.84-3.11-6.84,6.84,3.11,4.84a2.37,2.37,0,0,1,.07,2.46,29,29,0,0,0-2.64,6.37,2.37,2.37,0,0,1-1.79,1.69L4.77,35.06v9.67L10.39,46a2.34,2.34,0,0,1,1.79,1.68A28.67,28.67,0,0,0,14.83,54a2.39,2.39,0,0,1-.08,2.46l-3.11,4.84,6.84,6.84L23.32,65A2.41,2.41,0,0,1,25.78,65a28.1,28.1,0,0,0,6.37,2.64,2.4,2.4,0,0,1,1.69,1.8L35.06,75h9.67L46,69.41a2.37,2.37,0,0,1,1.69-1.8A10.87,10.87,0,0,0,49.67,66.88ZM95.21,81l-35-35a21.26,21.26,0,0,0-20.35-27.3h0a21.77,21.77,0,0,0-4.11.4l-5,1L45.44,34.72l-2.27,8.5-8.5,2.28L20,30.85l-1,5a21.93,21.93,0,0,0-.4,4.11,21.24,21.24,0,0,0,27.3,20.36l35,35a10,10,0,0,0,7,2.85h.17A10.12,10.12,0,0,0,95.21,81ZM83.67,92.53,46.93,55.8l-.73.28A17.34,17.34,0,0,1,22.52,40q0-.53,0-1L33.48,49.86l12.85-3.44,3.44-12.85L38.83,22.64q.51,0,1,0A17.33,17.33,0,0,1,56,46.28l-.28.73L92.46,83.74a6.22,6.22,0,0,1-8.79,8.79Z"/></g></g></svg>