<svg xmlns="http://www.w3.org/2000/svg" viewBox="0 0 108.04 107.56"><defs><style>.cls-1{fill:#fff;}.cls-2{fill:none;}</style></defs><g id="Ebene_2" data-name="Ebene 2"><g id="Ebene_1-2" data-name="Ebene 1"><path class="cls-1" d="M52.89,6.18a33.41,33.41,0,0,0-28.42,51L51,99.88a2.78,2.78,0,0,0,2.36,1.32h0a2.79,2.79,0,0,0,2.37-1.35L81.58,56.7A33.41,33.41,0,0,0,52.89,6.18ZM76.8,53.84,53.31,93.07,29.2,54.22a27.86,27.86,0,1,1,47.6-.38Z"/><path class="cls-1" d="M52.89,22.88a16.71,16.71,0,1,0,16.7,16.7A16.72,16.72,0,0,0,52.89,22.88Zm0,27.88A11.18,11.18,0,1,1,64,39.58,11.18,11.18,0,0,1,52.89,50.76Z"/><rect class="cls-2" width="108.04" height="107.56"/></g></g></svg>