<svg xmlns="http://www.w3.org/2000/svg" viewBox="0 0 105.2 104.54"><defs><style>.cls-1{fill:#fff;}</style></defs><g id="Ebene_2" data-name="Ebene 2"><g id="Ebene_1-2" data-name="Ebene 1"><path class="cls-1" d="M88.24,75.75l17-45.66-81.08.11L17.56,0,0,0V13.35H11.81L23.46,76.56a14.46,14.46,0,0,0,5.11,28h0A14.46,14.46,0,0,0,43,90.06c0-.37,0-.74,0-1.1H71.83c0,.36,0,.73,0,1.1A14.49,14.49,0,0,0,86.24,104.5h1.5v-.08a14.44,14.44,0,0,0,.5-28.66ZM94.63,93A8.9,8.9,0,0,1,77.84,87.1l1.31-3.69H35.66L37,87.1a8.58,8.58,0,0,1,.39,1.55A8.94,8.94,0,1,1,27.1,81.28l2.78-.46L21.3,35.34l76.55-.06L83.27,74.84l-50,0,1.32,5.42,50.94.05.67.07a9.65,9.65,0,0,1,8,5.88A8.89,8.89,0,0,1,94.63,93Z"/><polygon class="cls-1" points="56.27 57.97 69.99 57.97 69.99 51.25 56.27 51.25 56.27 44.41 71.14 44.41 71.14 37.24 47.81 37.24 47.81 71.97 56.27 71.97 56.27 57.97"/></g></g></svg>